G04*
G04 #@! TF.GenerationSoftware,Altium Limited,Altium Designer,20.2.3 (150)*
G04*
G04 Layer_Color=16711935*
%FSLAX44Y44*%
%MOMM*%
G71*
G04*
G04 #@! TF.SameCoordinates,529A9E34-4FC0-4C7B-B34A-3B4898198E1E*
G04*
G04*
G04 #@! TF.FilePolarity,Negative*
G04*
G01*
G75*
%ADD19C,0.2540*%
%ADD56C,0.8032*%
%ADD57C,5.2032*%
%ADD58C,0.8532*%
%ADD59O,1.2032X1.8032*%
%ADD60O,1.2032X2.3032*%
%ADD61C,0.7032*%
%ADD62C,1.4732*%
D19*
X0Y50000D02*
G03*
X50000Y0I50000J0D01*
G01*
X400000D02*
G03*
X450000Y50000I0J50000D01*
G01*
Y450000D02*
G03*
X400000Y500000I-50000J0D01*
G01*
X50000D02*
G03*
X0Y450000I0J-50000D01*
G01*
X50000Y0D02*
X400000D01*
X50000Y500000D02*
X400000D01*
X450000Y50000D02*
Y450000D01*
X0Y50000D02*
Y450000D01*
D56*
X314060Y77180D02*
D03*
X265060D02*
D03*
D57*
X329184Y469646D02*
D03*
X113919D02*
D03*
D58*
X72630Y66750D02*
D03*
X130430D02*
D03*
D59*
X144780Y31750D02*
D03*
X58280D02*
D03*
D60*
X144780Y71750D02*
D03*
X58280D02*
D03*
D61*
X126746Y210312D02*
D03*
X116078Y278257D02*
D03*
X109855Y284480D02*
D03*
X103632Y290830D02*
D03*
X102997Y233426D02*
D03*
X97663Y214630D02*
D03*
X97917Y275082D02*
D03*
X189230Y106934D02*
D03*
X180848Y362331D02*
D03*
X172720Y263652D02*
D03*
X167259D02*
D03*
X178816D02*
D03*
X184531D02*
D03*
X190627D02*
D03*
X196342D02*
D03*
X167259Y251714D02*
D03*
X172720D02*
D03*
X178816D02*
D03*
X184531D02*
D03*
X190627D02*
D03*
X196342D02*
D03*
X276860Y215011D02*
D03*
X269113Y212979D02*
D03*
X273304Y214884D02*
D03*
X301625Y189992D02*
D03*
X273050Y182626D02*
D03*
X107696Y182245D02*
D03*
X107950Y186309D02*
D03*
X196342Y240030D02*
D03*
X190627D02*
D03*
X184531D02*
D03*
X178816D02*
D03*
X172720D02*
D03*
X167259D02*
D03*
X196342Y245872D02*
D03*
X190627D02*
D03*
X184531D02*
D03*
X178816D02*
D03*
X172720D02*
D03*
X167259D02*
D03*
X196342Y257429D02*
D03*
X190627D02*
D03*
X184531D02*
D03*
X178816D02*
D03*
X172720D02*
D03*
X167259D02*
D03*
X196342Y269748D02*
D03*
X190627D02*
D03*
X184531D02*
D03*
X178816D02*
D03*
X172720D02*
D03*
X167259D02*
D03*
X293370Y253365D02*
D03*
X176784Y191008D02*
D03*
X178689Y195072D02*
D03*
X177038Y199009D02*
D03*
X175006Y201930D02*
D03*
X170688Y202946D02*
D03*
X166243Y202565D02*
D03*
X167132Y197739D02*
D03*
X162179Y199771D02*
D03*
X163322Y196342D02*
D03*
X159208Y195959D02*
D03*
X164084Y192405D02*
D03*
X161163Y192659D02*
D03*
X157099Y192913D02*
D03*
X184917Y212618D02*
D03*
X186182Y293370D02*
D03*
X182626Y293497D02*
D03*
X179197D02*
D03*
X176022D02*
D03*
X89027Y143129D02*
D03*
X86614D02*
D03*
X84201Y142367D02*
D03*
X91440Y141351D02*
D03*
X89281Y140462D02*
D03*
X86995Y140081D02*
D03*
X84836Y139827D02*
D03*
X88265Y145415D02*
D03*
X82804Y145669D02*
D03*
X168656Y134366D02*
D03*
X167513Y145288D02*
D03*
X164084Y144526D02*
D03*
X166370Y142113D02*
D03*
X163957Y141097D02*
D03*
X167640Y138811D02*
D03*
X166497Y136398D02*
D03*
X163957Y137033D02*
D03*
X251079Y132207D02*
D03*
X249174Y133858D02*
D03*
X251968Y135382D02*
D03*
X252349Y138049D02*
D03*
X249301Y140589D02*
D03*
X252476Y141097D02*
D03*
X251206Y143510D02*
D03*
X248412Y143637D02*
D03*
X251333Y146304D02*
D03*
X248920Y146177D02*
D03*
X243713Y342900D02*
D03*
X241046Y343916D02*
D03*
X238252Y342011D02*
D03*
X240665Y341376D02*
D03*
X243586Y339471D02*
D03*
X242697Y336423D02*
D03*
X239522D02*
D03*
X237363Y338074D02*
D03*
X208915Y296672D02*
D03*
X206209Y297886D02*
D03*
X207772Y299212D02*
D03*
X204597Y300228D02*
D03*
X200914Y297815D02*
D03*
X181483Y300101D02*
D03*
X177419Y299847D02*
D03*
X175895Y297053D02*
D03*
X188722Y297307D02*
D03*
X183515Y297434D02*
D03*
X186055Y297180D02*
D03*
X139954Y191008D02*
D03*
X234950Y239776D02*
D03*
X210825Y211348D02*
D03*
X132207Y112522D02*
D03*
X109887Y111284D02*
D03*
X174498Y194945D02*
D03*
X171958Y198731D02*
D03*
X169926Y193421D02*
D03*
X141864Y236494D02*
D03*
X220472Y223520D02*
D03*
X219583Y214122D02*
D03*
X249555Y137160D02*
D03*
X141737Y245003D02*
D03*
X220604Y189885D02*
D03*
X192024Y205105D02*
D03*
X197744Y212872D02*
D03*
X240289Y338729D02*
D03*
X223017Y246654D02*
D03*
X164973Y133477D02*
D03*
X188105Y147556D02*
D03*
X85725Y145161D02*
D03*
X227076Y233426D02*
D03*
X204089Y297942D02*
D03*
X331470Y187960D02*
D03*
X179900Y297298D02*
D03*
D62*
X66548Y197104D02*
D03*
X66675Y207772D02*
D03*
X38735Y191897D02*
D03*
X356108Y128651D02*
D03*
X339598D02*
D03*
X173736Y110000D02*
D03*
Y90000D02*
D03*
Y70000D02*
D03*
X174860Y48876D02*
D03*
X30861Y181864D02*
D03*
X17018Y184531D02*
D03*
X25908Y193548D02*
D03*
X32131Y216281D02*
D03*
X17526Y215646D02*
D03*
X31750Y227965D02*
D03*
X17653Y227711D02*
D03*
X29718Y241935D02*
D03*
X28829Y253873D02*
D03*
X17526Y254254D02*
D03*
X18034Y240538D02*
D03*
X17399Y197993D02*
D03*
X17907Y206375D02*
D03*
X33909Y203835D02*
D03*
M02*
