G04*
G04 #@! TF.GenerationSoftware,Altium Limited,Altium Designer,20.2.3 (150)*
G04*
G04 Layer_Color=32896*
%FSLAX44Y44*%
%MOMM*%
G71*
G04*
G04 #@! TF.SameCoordinates,529A9E34-4FC0-4C7B-B34A-3B4898198E1E*
G04*
G04*
G04 #@! TF.FilePolarity,Positive*
G04*
G01*
G75*
%ADD19C,0.2540*%
D19*
X256413Y457526D02*
Y477520D01*
X266410D01*
X269742Y474188D01*
Y470855D01*
X266410Y467523D01*
X256413D01*
X266410D01*
X269742Y464191D01*
Y460859D01*
X266410Y457526D01*
X256413D01*
X276407Y467523D02*
X289736D01*
X158750Y457526D02*
Y477520D01*
X168747D01*
X172079Y474188D01*
Y470855D01*
X168747Y467523D01*
X158750D01*
X168747D01*
X172079Y464191D01*
Y460859D01*
X168747Y457526D01*
X158750D01*
X178744Y467523D02*
X192073D01*
X185408Y460859D02*
Y474188D01*
X344438Y310540D02*
Y295545D01*
X336940Y303042D01*
X346937D01*
X351935Y310540D02*
Y308041D01*
X354434D01*
Y310540D01*
X351935D01*
X374428D02*
X364431D01*
X374428Y300543D01*
Y298044D01*
X371929Y295545D01*
X366930D01*
X364431Y298044D01*
X379426Y295545D02*
Y305542D01*
X384425Y310540D01*
X389423Y305542D01*
Y295545D01*
X260568Y257293D02*
X253070D01*
X250571Y259792D01*
Y264790D01*
X253070Y267290D01*
X260568D01*
X265566Y252295D02*
Y267290D01*
Y259792D01*
X268065Y257293D01*
X273064D01*
X275563Y259792D01*
Y267290D01*
X283060Y257293D02*
X288059D01*
X290558Y259792D01*
Y267290D01*
X283060D01*
X280561Y264790D01*
X283060Y262291D01*
X290558D01*
X295556Y257293D02*
Y267290D01*
Y262291D01*
X298056Y259792D01*
X300555Y257293D01*
X303054D01*
X315550Y272288D02*
X318049D01*
X320548Y269789D01*
Y257293D01*
X313051D01*
X310552Y259792D01*
Y264790D01*
X313051Y267290D01*
X320548D01*
X333044D02*
X328046D01*
X325547Y264790D01*
Y259792D01*
X328046Y257293D01*
X333044D01*
X335544Y259792D01*
Y262291D01*
X325547D01*
X340542Y269789D02*
X350539D01*
X355537Y267290D02*
Y257293D01*
X358036D01*
X360535Y259792D01*
Y267290D01*
Y259792D01*
X363035Y257293D01*
X365534Y259792D01*
Y267290D01*
X373031D02*
X378030D01*
X380529Y264790D01*
Y259792D01*
X378030Y257293D01*
X373031D01*
X370532Y259792D01*
Y264790D01*
X373031Y267290D01*
X395524Y252295D02*
Y267290D01*
X388027D01*
X385527Y264790D01*
Y259792D01*
X388027Y257293D01*
X395524D01*
X400522D02*
Y264790D01*
X403022Y267290D01*
X410519D01*
Y257293D01*
X415518Y267290D02*
X420516D01*
X418017D01*
Y252295D01*
X415518D01*
X435511Y267290D02*
X430513D01*
X428013Y264790D01*
Y259792D01*
X430513Y257293D01*
X435511D01*
X438010Y259792D01*
Y262291D01*
X428013D01*
X274955Y346147D02*
Y361143D01*
Y353645D01*
X277454Y351146D01*
X282453D01*
X284952Y353645D01*
Y361143D01*
X297448D02*
X292449D01*
X289950Y358643D01*
Y353645D01*
X292449Y351146D01*
X297448D01*
X299947Y353645D01*
Y356144D01*
X289950D01*
X304945Y361143D02*
X309944D01*
X307444D01*
Y346147D01*
X304945D01*
X317441Y361143D02*
X322440D01*
X319940D01*
Y346147D01*
X317441D01*
X332436Y361143D02*
X337435D01*
X339934Y358643D01*
Y353645D01*
X337435Y351146D01*
X332436D01*
X329937Y353645D01*
Y358643D01*
X332436Y361143D01*
X347431Y363642D02*
X349931Y361143D01*
Y358643D01*
X347431D01*
Y361143D01*
X349931D01*
X347431Y363642D01*
X344932Y366141D01*
X359927Y351146D02*
Y358643D01*
X362427Y361143D01*
X364926Y358643D01*
X367425Y361143D01*
X369924Y358643D01*
Y351146D01*
X377422Y361143D02*
X382420D01*
X384919Y358643D01*
Y353645D01*
X382420Y351146D01*
X377422D01*
X374923Y353645D01*
Y358643D01*
X377422Y361143D01*
X389918Y351146D02*
Y361143D01*
Y356144D01*
X392417Y353645D01*
X394916Y351146D01*
X397415D01*
X404913Y361143D02*
X409911D01*
X407412D01*
Y346147D01*
X404913D01*
X427406D02*
Y361143D01*
X419908D01*
X417409Y358643D01*
Y353645D01*
X419908Y351146D01*
X427406D01*
X432404Y356144D02*
Y343648D01*
Y358643D02*
Y361143D01*
X301081Y401320D02*
X291084D01*
X301081Y391323D01*
Y388824D01*
X298582Y386325D01*
X293583D01*
X291084Y388824D01*
X306079D02*
X308578Y386325D01*
X313577D01*
X316076Y388824D01*
Y398821D01*
X313577Y401320D01*
X308578D01*
X306079Y398821D01*
Y388824D01*
X331071Y401320D02*
X321074D01*
X331071Y391323D01*
Y388824D01*
X328572Y386325D01*
X323573D01*
X321074Y388824D01*
X336069Y401320D02*
X341068D01*
X338569D01*
Y386325D01*
X336069Y388824D01*
X348565Y401320D02*
Y398821D01*
X351065D01*
Y401320D01*
X348565D01*
X361061D02*
X366060D01*
X363560D01*
Y386325D01*
X361061Y388824D01*
X373557D02*
X376057Y386325D01*
X381055D01*
X383554Y388824D01*
Y398821D01*
X381055Y401320D01*
X376057D01*
X373557Y398821D01*
Y388824D01*
X388553Y401320D02*
Y398821D01*
X391052D01*
Y401320D01*
X388553D01*
X401048D02*
X406047D01*
X403548D01*
Y386325D01*
X401048Y388824D01*
X413544Y401320D02*
X418543D01*
X416044D01*
Y386325D01*
X413544Y388824D01*
X265176Y417059D02*
X275173D01*
Y419558D01*
X265176Y429555D01*
Y432054D01*
X275173D01*
X290168Y419558D02*
X287669Y417059D01*
X282670D01*
X280171Y419558D01*
Y429555D01*
X282670Y432054D01*
X287669D01*
X290168Y429555D01*
X305163Y417059D02*
X300165D01*
X302664D01*
Y429555D01*
X300165Y432054D01*
X297666D01*
X295166Y429555D01*
X335153Y432054D02*
X332654Y429555D01*
X330155Y432054D01*
X327656D01*
X325157Y429555D01*
Y427056D01*
X327656Y424556D01*
X325157Y422057D01*
Y419558D01*
X327656Y417059D01*
X330155D01*
X332654Y419558D01*
Y422057D01*
X330155Y424556D01*
X332654Y427056D01*
Y429555D01*
X335153Y424556D02*
X332654Y427056D01*
X327656Y424556D02*
X330155D01*
X350149Y432054D02*
X347649Y429555D01*
X345150Y432054D01*
X342651D01*
X340152Y429555D01*
Y427056D01*
X342651Y424556D01*
X340152Y422057D01*
Y419558D01*
X342651Y417059D01*
X345150D01*
X347649Y419558D01*
Y422057D01*
X345150Y424556D01*
X347649Y427056D01*
Y429555D01*
X350149Y424556D02*
X347649Y427056D01*
X342651Y424556D02*
X345150D01*
X380139Y417059D02*
X375140D01*
X377640D01*
Y429555D01*
X375140Y432054D01*
X372641D01*
X370142Y429555D01*
X385137Y417059D02*
Y429555D01*
X387636Y432054D01*
X392635D01*
X395134Y429555D01*
Y417059D01*
X410129D02*
X405131D01*
X407630D01*
Y429555D01*
X405131Y432054D01*
X402631D01*
X400132Y429555D01*
X415127Y417059D02*
Y429555D01*
X417627Y432054D01*
X422625D01*
X425124Y429555D01*
Y417059D01*
X0Y50000D02*
G03*
X50000Y0I50000J0D01*
G01*
X400000D02*
G03*
X450000Y50000I0J50000D01*
G01*
Y450000D02*
G03*
X400000Y500000I-50000J0D01*
G01*
X50000D02*
G03*
X0Y450000I0J-50000D01*
G01*
X50000Y0D02*
X400000D01*
X50000Y500000D02*
X400000D01*
X450000Y50000D02*
Y450000D01*
X0Y50000D02*
Y450000D01*
M02*
