G04*
G04 #@! TF.GenerationSoftware,Altium Limited,Altium Designer,20.2.3 (150)*
G04*
G04 Layer_Physical_Order=1*
G04 Layer_Color=255*
%FSLAX44Y44*%
%MOMM*%
G71*
G04*
G04 #@! TF.SameCoordinates,529A9E34-4FC0-4C7B-B34A-3B4898198E1E*
G04*
G04*
G04 #@! TF.FilePolarity,Positive*
G04*
G01*
G75*
%ADD11C,0.2000*%
%ADD19C,0.2540*%
G04:AMPARAMS|DCode=20|XSize=0.4064mm|YSize=0.4064mm|CornerRadius=0.2032mm|HoleSize=0mm|Usage=FLASHONLY|Rotation=90.000|XOffset=0mm|YOffset=0mm|HoleType=Round|Shape=RoundedRectangle|*
%AMROUNDEDRECTD20*
21,1,0.4064,0.0000,0,0,90.0*
21,1,0.0000,0.4064,0,0,90.0*
1,1,0.4064,0.0000,0.0000*
1,1,0.4064,0.0000,0.0000*
1,1,0.4064,0.0000,0.0000*
1,1,0.4064,0.0000,0.0000*
%
%ADD20ROUNDEDRECTD20*%
G04:AMPARAMS|DCode=21|XSize=0.762mm|YSize=0.5588mm|CornerRadius=0.1397mm|HoleSize=0mm|Usage=FLASHONLY|Rotation=0.000|XOffset=0mm|YOffset=0mm|HoleType=Round|Shape=RoundedRectangle|*
%AMROUNDEDRECTD21*
21,1,0.7620,0.2794,0,0,0.0*
21,1,0.4826,0.5588,0,0,0.0*
1,1,0.2794,0.2413,-0.1397*
1,1,0.2794,-0.2413,-0.1397*
1,1,0.2794,-0.2413,0.1397*
1,1,0.2794,0.2413,0.1397*
%
%ADD21ROUNDEDRECTD21*%
%ADD22R,1.4000X1.1000*%
%ADD23R,1.3000X1.0000*%
G04:AMPARAMS|DCode=24|XSize=1.27mm|YSize=0.762mm|CornerRadius=0.1905mm|HoleSize=0mm|Usage=FLASHONLY|Rotation=0.000|XOffset=0mm|YOffset=0mm|HoleType=Round|Shape=RoundedRectangle|*
%AMROUNDEDRECTD24*
21,1,1.2700,0.3810,0,0,0.0*
21,1,0.8890,0.7620,0,0,0.0*
1,1,0.3810,0.4445,-0.1905*
1,1,0.3810,-0.4445,-0.1905*
1,1,0.3810,-0.4445,0.1905*
1,1,0.3810,0.4445,0.1905*
%
%ADD24ROUNDEDRECTD24*%
G04:AMPARAMS|DCode=25|XSize=2.032mm|YSize=2.032mm|CornerRadius=0.508mm|HoleSize=0mm|Usage=FLASHONLY|Rotation=0.000|XOffset=0mm|YOffset=0mm|HoleType=Round|Shape=RoundedRectangle|*
%AMROUNDEDRECTD25*
21,1,2.0320,1.0160,0,0,0.0*
21,1,1.0160,2.0320,0,0,0.0*
1,1,1.0160,0.5080,-0.5080*
1,1,1.0160,-0.5080,-0.5080*
1,1,1.0160,-0.5080,0.5080*
1,1,1.0160,0.5080,0.5080*
%
%ADD25ROUNDEDRECTD25*%
G04:AMPARAMS|DCode=26|XSize=1.27mm|YSize=1.8mm|CornerRadius=0.3175mm|HoleSize=0mm|Usage=FLASHONLY|Rotation=0.000|XOffset=0mm|YOffset=0mm|HoleType=Round|Shape=RoundedRectangle|*
%AMROUNDEDRECTD26*
21,1,1.2700,1.1650,0,0,0.0*
21,1,0.6350,1.8000,0,0,0.0*
1,1,0.6350,0.3175,-0.5825*
1,1,0.6350,-0.3175,-0.5825*
1,1,0.6350,-0.3175,0.5825*
1,1,0.6350,0.3175,0.5825*
%
%ADD26ROUNDEDRECTD26*%
G04:AMPARAMS|DCode=27|XSize=0.6096mm|YSize=0.762mm|CornerRadius=0.1524mm|HoleSize=0mm|Usage=FLASHONLY|Rotation=0.000|XOffset=0mm|YOffset=0mm|HoleType=Round|Shape=RoundedRectangle|*
%AMROUNDEDRECTD27*
21,1,0.6096,0.4572,0,0,0.0*
21,1,0.3048,0.7620,0,0,0.0*
1,1,0.3048,0.1524,-0.2286*
1,1,0.3048,-0.1524,-0.2286*
1,1,0.3048,-0.1524,0.2286*
1,1,0.3048,0.1524,0.2286*
%
%ADD27ROUNDEDRECTD27*%
%ADD28R,1.1000X1.4000*%
%ADD29O,1.3000X0.5000*%
G04:AMPARAMS|DCode=30|XSize=3.2mm|YSize=2.3mm|CornerRadius=0.575mm|HoleSize=0mm|Usage=FLASHONLY|Rotation=270.000|XOffset=0mm|YOffset=0mm|HoleType=Round|Shape=RoundedRectangle|*
%AMROUNDEDRECTD30*
21,1,3.2000,1.1500,0,0,270.0*
21,1,2.0500,2.3000,0,0,270.0*
1,1,1.1500,-0.5750,-1.0250*
1,1,1.1500,-0.5750,1.0250*
1,1,1.1500,0.5750,1.0250*
1,1,1.1500,0.5750,-1.0250*
%
%ADD30ROUNDEDRECTD30*%
G04:AMPARAMS|DCode=31|XSize=3.81mm|YSize=2.032mm|CornerRadius=0.508mm|HoleSize=0mm|Usage=FLASHONLY|Rotation=270.000|XOffset=0mm|YOffset=0mm|HoleType=Round|Shape=RoundedRectangle|*
%AMROUNDEDRECTD31*
21,1,3.8100,1.0160,0,0,270.0*
21,1,2.7940,2.0320,0,0,270.0*
1,1,1.0160,-0.5080,-1.3970*
1,1,1.0160,-0.5080,1.3970*
1,1,1.0160,0.5080,1.3970*
1,1,1.0160,0.5080,-1.3970*
%
%ADD31ROUNDEDRECTD31*%
G04:AMPARAMS|DCode=32|XSize=1.5mm|YSize=1mm|CornerRadius=0.25mm|HoleSize=0mm|Usage=FLASHONLY|Rotation=180.000|XOffset=0mm|YOffset=0mm|HoleType=Round|Shape=RoundedRectangle|*
%AMROUNDEDRECTD32*
21,1,1.5000,0.5000,0,0,180.0*
21,1,1.0000,1.0000,0,0,180.0*
1,1,0.5000,-0.5000,0.2500*
1,1,0.5000,0.5000,0.2500*
1,1,0.5000,0.5000,-0.2500*
1,1,0.5000,-0.5000,-0.2500*
%
%ADD32ROUNDEDRECTD32*%
G04:AMPARAMS|DCode=33|XSize=0.84mm|YSize=0.22mm|CornerRadius=0.055mm|HoleSize=0mm|Usage=FLASHONLY|Rotation=180.000|XOffset=0mm|YOffset=0mm|HoleType=Round|Shape=RoundedRectangle|*
%AMROUNDEDRECTD33*
21,1,0.8400,0.1100,0,0,180.0*
21,1,0.7300,0.2200,0,0,180.0*
1,1,0.1100,-0.3650,0.0550*
1,1,0.1100,0.3650,0.0550*
1,1,0.1100,0.3650,-0.0550*
1,1,0.1100,-0.3650,-0.0550*
%
%ADD33ROUNDEDRECTD33*%
G04:AMPARAMS|DCode=34|XSize=0.84mm|YSize=0.22mm|CornerRadius=0.055mm|HoleSize=0mm|Usage=FLASHONLY|Rotation=90.000|XOffset=0mm|YOffset=0mm|HoleType=Round|Shape=RoundedRectangle|*
%AMROUNDEDRECTD34*
21,1,0.8400,0.1100,0,0,90.0*
21,1,0.7300,0.2200,0,0,90.0*
1,1,0.1100,0.0550,0.3650*
1,1,0.1100,0.0550,-0.3650*
1,1,0.1100,-0.0550,-0.3650*
1,1,0.1100,-0.0550,0.3650*
%
%ADD34ROUNDEDRECTD34*%
G04:AMPARAMS|DCode=35|XSize=1.3mm|YSize=0.9mm|CornerRadius=0.225mm|HoleSize=0mm|Usage=FLASHONLY|Rotation=180.000|XOffset=0mm|YOffset=0mm|HoleType=Round|Shape=RoundedRectangle|*
%AMROUNDEDRECTD35*
21,1,1.3000,0.4500,0,0,180.0*
21,1,0.8500,0.9000,0,0,180.0*
1,1,0.4500,-0.4250,0.2250*
1,1,0.4500,0.4250,0.2250*
1,1,0.4500,0.4250,-0.2250*
1,1,0.4500,-0.4250,-0.2250*
%
%ADD35ROUNDEDRECTD35*%
G04:AMPARAMS|DCode=36|XSize=0.9561mm|YSize=1.6098mm|CornerRadius=0.239mm|HoleSize=0mm|Usage=FLASHONLY|Rotation=90.000|XOffset=0mm|YOffset=0mm|HoleType=Round|Shape=RoundedRectangle|*
%AMROUNDEDRECTD36*
21,1,0.9561,1.1318,0,0,90.0*
21,1,0.4780,1.6098,0,0,90.0*
1,1,0.4780,0.5659,0.2390*
1,1,0.4780,0.5659,-0.2390*
1,1,0.4780,-0.5659,-0.2390*
1,1,0.4780,-0.5659,0.2390*
%
%ADD36ROUNDEDRECTD36*%
G04:AMPARAMS|DCode=37|XSize=1.5mm|YSize=0.3mm|CornerRadius=0.075mm|HoleSize=0mm|Usage=FLASHONLY|Rotation=90.000|XOffset=0mm|YOffset=0mm|HoleType=Round|Shape=RoundedRectangle|*
%AMROUNDEDRECTD37*
21,1,1.5000,0.1500,0,0,90.0*
21,1,1.3500,0.3000,0,0,90.0*
1,1,0.1500,0.0750,0.6750*
1,1,0.1500,0.0750,-0.6750*
1,1,0.1500,-0.0750,-0.6750*
1,1,0.1500,-0.0750,0.6750*
%
%ADD37ROUNDEDRECTD37*%
G04:AMPARAMS|DCode=63|XSize=4.064mm|YSize=4.064mm|CornerRadius=1.016mm|HoleSize=0mm|Usage=FLASHONLY|Rotation=90.000|XOffset=0mm|YOffset=0mm|HoleType=Round|Shape=RoundedRectangle|*
%AMROUNDEDRECTD63*
21,1,4.0640,2.0320,0,0,90.0*
21,1,2.0320,4.0640,0,0,90.0*
1,1,2.0320,1.0160,1.0160*
1,1,2.0320,1.0160,-1.0160*
1,1,2.0320,-1.0160,-1.0160*
1,1,2.0320,-1.0160,1.0160*
%
%ADD63ROUNDEDRECTD63*%
%ADD64C,1.0000*%
%ADD65C,0.5000*%
%ADD66C,0.6000*%
%ADD67C,0.4000*%
%ADD68C,0.3000*%
%ADD69C,2.5400*%
%ADD70C,3.0000*%
%ADD71C,2.0000*%
%ADD72C,0.6000*%
%ADD73C,5.0000*%
%ADD74C,0.6500*%
%ADD75O,1.0000X1.6000*%
%ADD76O,1.0000X2.1000*%
%ADD77C,0.5000*%
%ADD78C,1.2700*%
G36*
X441724Y459973D02*
Y34777D01*
X411625Y4678D01*
X46754D01*
X4463Y46969D01*
Y172735D01*
X5733Y173053D01*
X6766Y171120D01*
X8978Y168425D01*
X11673Y166213D01*
X14748Y164570D01*
X18085Y163558D01*
X18532Y163514D01*
X19420Y162784D01*
X22495Y161141D01*
X25832Y160129D01*
X29302Y159787D01*
X32771Y160129D01*
X36108Y161141D01*
X38329Y162328D01*
X41788Y162669D01*
X45125Y163681D01*
X48200Y165324D01*
X50895Y167536D01*
X53107Y170231D01*
X54750Y173306D01*
X55762Y176643D01*
X56104Y180112D01*
X55855Y182638D01*
X56409Y183312D01*
X58052Y186387D01*
X58113Y186588D01*
X59579Y187044D01*
X60997Y185956D01*
X63429Y184948D01*
X65928Y184620D01*
X66110Y184487D01*
X66752Y183417D01*
X66288Y182297D01*
X66064Y180594D01*
Y176022D01*
X66288Y174319D01*
X66945Y172732D01*
X67991Y171369D01*
X69354Y170323D01*
X70941Y169666D01*
X72644Y169442D01*
X73734D01*
Y163298D01*
X72644D01*
X70941Y163074D01*
X69354Y162417D01*
X67991Y161371D01*
X66945Y160008D01*
X66288Y158421D01*
X66064Y156718D01*
Y152778D01*
X65776Y138630D01*
X65593Y129577D01*
X65643Y129120D01*
X65513Y128293D01*
X65736Y126198D01*
X66494Y124233D01*
X67734Y122530D01*
X69639Y120528D01*
X69807Y120392D01*
Y93331D01*
X68780Y92254D01*
X67280D01*
X65996Y91999D01*
X64908Y91272D01*
X64181Y90184D01*
X63925Y88900D01*
Y86399D01*
X61975D01*
X59365Y86056D01*
X56932Y85048D01*
X56350Y84601D01*
X56312Y84596D01*
X54478Y83836D01*
X52902Y82628D01*
X51694Y81053D01*
X50934Y79218D01*
X50675Y77250D01*
Y75750D01*
X58280D01*
Y71750D01*
X62280D01*
Y59815D01*
X63658Y60872D01*
X64407Y61849D01*
X65904Y61916D01*
X65964Y61886D01*
X66746Y60866D01*
X68469Y59544D01*
X70476Y58712D01*
X72630Y58429D01*
X74784Y58712D01*
X76791Y59544D01*
X77070Y59758D01*
X79336Y57492D01*
X80798Y56370D01*
X82501Y55664D01*
X84328Y55424D01*
X116840D01*
X118667Y55664D01*
X120370Y56370D01*
X121832Y57492D01*
X124920Y60579D01*
X126269Y59544D01*
X128276Y58712D01*
X130430Y58429D01*
X132584Y58712D01*
X134591Y59544D01*
X136314Y60866D01*
X137096Y61886D01*
X137156Y61916D01*
X138653Y61849D01*
X139402Y60872D01*
X140780Y59815D01*
Y71750D01*
X144780D01*
Y75750D01*
X152385D01*
Y77250D01*
X152126Y79218D01*
X151366Y81053D01*
X150158Y82628D01*
X148582Y83836D01*
X148414Y83906D01*
X146910Y85060D01*
X144478Y86068D01*
X141867Y86411D01*
X139399D01*
X139356Y86476D01*
X139134Y86624D01*
Y88832D01*
X162442D01*
X162678Y87037D01*
X163822Y84276D01*
X165641Y81905D01*
X168012Y80086D01*
X169774Y79356D01*
Y77981D01*
X169253Y77765D01*
X167396Y76340D01*
X165971Y74483D01*
X165770Y74000D01*
X173736D01*
Y66000D01*
X165770D01*
X165971Y65517D01*
X167396Y63660D01*
X169253Y62235D01*
X171415Y61339D01*
X172127Y61245D01*
Y59964D01*
X171897Y59934D01*
X169136Y58790D01*
X166765Y56971D01*
X164946Y54600D01*
X163802Y51839D01*
X163412Y48876D01*
X163802Y45913D01*
X164946Y43152D01*
X166765Y40781D01*
X169136Y38962D01*
X171897Y37818D01*
X174860Y37428D01*
X177823Y37818D01*
X180584Y38962D01*
X182955Y40781D01*
X184774Y43152D01*
X185918Y45913D01*
X186308Y48876D01*
X186304Y48908D01*
X199762Y62366D01*
X201044Y64037D01*
X201850Y65984D01*
X201870Y66139D01*
X202983Y66697D01*
X203218Y66645D01*
X205599Y65659D01*
X208230Y65313D01*
X218390D01*
X221021Y65659D01*
X223473Y66675D01*
X225579Y68291D01*
X227195Y70396D01*
X228211Y72849D01*
X228557Y75480D01*
Y85640D01*
X228211Y88271D01*
X227195Y90723D01*
X225579Y92829D01*
X223473Y94445D01*
X221021Y95461D01*
X218390Y95807D01*
X209598D01*
X209072Y97077D01*
X214035Y102040D01*
X243149D01*
X243420Y99981D01*
X244244Y97992D01*
X245555Y96285D01*
X247262Y94974D01*
X249251Y94150D01*
X251385Y93869D01*
X257735D01*
X259869Y94150D01*
X261858Y94974D01*
X263566Y96285D01*
X264876Y97992D01*
X265700Y99981D01*
X265980Y102115D01*
Y110763D01*
X266966Y111749D01*
X268139Y111263D01*
Y102115D01*
X268420Y99981D01*
X269244Y97992D01*
X270555Y96285D01*
X272262Y94974D01*
X274251Y94150D01*
X276385Y93869D01*
X282735D01*
X284869Y94150D01*
X286858Y94974D01*
X288566Y96285D01*
X288925Y96753D01*
X290195D01*
X290555Y96285D01*
X292262Y94974D01*
X294251Y94150D01*
X296385Y93869D01*
X302735D01*
X304869Y94150D01*
X306858Y94974D01*
X308566Y96285D01*
X309876Y97992D01*
X310700Y99981D01*
X310980Y102115D01*
Y113765D01*
X310700Y115899D01*
X309876Y117888D01*
X308566Y119595D01*
X306858Y120906D01*
X305678Y121395D01*
Y167771D01*
X306947Y168024D01*
X307024Y167841D01*
X308130Y166398D01*
X309573Y165292D01*
X311252Y164596D01*
X312010Y164496D01*
X312052Y163209D01*
X311321Y163064D01*
X309850Y162082D01*
X309109Y160972D01*
X317500D01*
X325891D01*
X325150Y162082D01*
X324143Y162754D01*
X323798Y163270D01*
X323571Y163422D01*
X323966Y164686D01*
X325427Y165292D01*
X326870Y166398D01*
X327205Y166835D01*
X350975D01*
X351310Y166398D01*
X352753Y165292D01*
X354432Y164596D01*
X355190Y164496D01*
X355232Y163209D01*
X354501Y163064D01*
X353030Y162082D01*
X352289Y160972D01*
X360680D01*
X369071D01*
X368330Y162082D01*
X366859Y163064D01*
X366128Y163209D01*
X366170Y164496D01*
X366928Y164596D01*
X368607Y165292D01*
X370050Y166398D01*
X371157Y167841D01*
X371852Y169520D01*
X372090Y171323D01*
Y175133D01*
X371852Y176936D01*
X371157Y178615D01*
X370050Y180058D01*
X368607Y181164D01*
X366928Y181860D01*
X365125Y182098D01*
X356235D01*
X354432Y181860D01*
X352753Y181164D01*
X351310Y180058D01*
X350975Y179621D01*
X337863D01*
Y183971D01*
X338021Y184178D01*
X338777Y186002D01*
X339035Y187960D01*
X338777Y189918D01*
X338021Y191742D01*
X336819Y193309D01*
X335252Y194511D01*
X333428Y195267D01*
X331470Y195525D01*
X329512Y195267D01*
X327688Y194511D01*
X326121Y193309D01*
X324919Y191742D01*
X324163Y189918D01*
X323905Y187960D01*
X324163Y186002D01*
X324919Y184178D01*
X325077Y183971D01*
Y182453D01*
X324021Y181747D01*
X323748Y181860D01*
X321945Y182098D01*
X313055D01*
X311252Y181860D01*
X309573Y181164D01*
X308130Y180058D01*
X307024Y178615D01*
X306902Y178323D01*
X306779Y178312D01*
X305614Y178532D01*
X305212Y180555D01*
X303886Y182540D01*
X302661Y183764D01*
X303079Y185142D01*
X303591Y185244D01*
X304710Y185992D01*
X301625D01*
Y189992D01*
X297625D01*
Y193077D01*
X296877Y191959D01*
X296775Y191446D01*
X295397Y191028D01*
X279789Y206637D01*
X279658Y206724D01*
X279541Y207222D01*
X279552Y207825D01*
X279692Y208229D01*
X281452Y209580D01*
X282301Y210686D01*
X286814D01*
Y210439D01*
X287037Y208742D01*
X287692Y207161D01*
X288734Y205803D01*
X292163Y202374D01*
X293521Y201332D01*
X295102Y200677D01*
X296799Y200454D01*
X331978D01*
X333675Y200677D01*
X335256Y201332D01*
X336614Y202374D01*
X338011Y203771D01*
X339053Y205129D01*
X339708Y206710D01*
X339931Y208407D01*
Y210686D01*
X367600D01*
Y211897D01*
X367650Y213146D01*
X368870Y213146D01*
X373190D01*
Y221186D01*
Y229226D01*
X369185D01*
X368623Y230496D01*
X368795Y230686D01*
X389190D01*
Y251686D01*
X382799D01*
Y255935D01*
X382334Y258276D01*
X381008Y260261D01*
X368943Y272326D01*
X366958Y273652D01*
X364617Y274118D01*
X347166D01*
X346680Y275291D01*
X347226Y275836D01*
X348552Y277821D01*
X349017Y280162D01*
Y294580D01*
X354400D01*
Y312580D01*
Y332580D01*
X335350D01*
Y334580D01*
X312350D01*
Y332580D01*
X297250D01*
Y334580D01*
X274250D01*
Y332580D01*
X258520D01*
X257667Y333521D01*
X257780Y334672D01*
X257438Y338141D01*
X256426Y341478D01*
X255662Y342907D01*
X256002Y346356D01*
X255660Y349825D01*
X254648Y353162D01*
X253005Y356237D01*
X250793Y358932D01*
X248098Y361144D01*
X245023Y362787D01*
X241686Y363799D01*
X238216Y364141D01*
X234747Y363799D01*
X231410Y362787D01*
X228335Y361144D01*
X225640Y358932D01*
X223428Y356237D01*
X222127Y353802D01*
X219091Y352881D01*
X216016Y351238D01*
X213321Y349026D01*
X211109Y346331D01*
X209466Y343256D01*
X208454Y339919D01*
X208112Y336450D01*
X208173Y335829D01*
X207510Y335321D01*
X206326Y333777D01*
X205581Y331979D01*
X205327Y330050D01*
Y326582D01*
X204119Y325919D01*
X203936Y325970D01*
X203371Y326815D01*
X202120Y327652D01*
Y322580D01*
X194120D01*
Y327652D01*
X192869Y326815D01*
X191941D01*
X190690Y327652D01*
Y322580D01*
X182690D01*
Y327652D01*
X181439Y326815D01*
X180511D01*
X179260Y327652D01*
Y322580D01*
X171260D01*
Y327652D01*
X170009Y326815D01*
X169081D01*
X167830Y327652D01*
Y322580D01*
X163830D01*
Y318580D01*
X158421D01*
X158579Y318345D01*
X159485Y317739D01*
X159473Y316408D01*
X159451Y316350D01*
X158787Y316075D01*
X156698Y314472D01*
X155095Y312383D01*
X154087Y309951D01*
X153744Y307340D01*
X154087Y304729D01*
X155095Y302297D01*
X156698Y300208D01*
X158787Y298605D01*
X159722Y298218D01*
X159470Y296947D01*
X107980D01*
X107414Y297381D01*
X105590Y298137D01*
X103632Y298395D01*
X101674Y298137D01*
X99850Y297381D01*
X98283Y296179D01*
X97970Y295771D01*
X96700Y296202D01*
Y299020D01*
X77948D01*
X77687Y299881D01*
X76044Y302956D01*
X73832Y305651D01*
X73832Y305651D01*
X57331Y322152D01*
X54636Y324364D01*
X53439Y325003D01*
X53691Y327560D01*
X53349Y331029D01*
X52337Y334366D01*
X50694Y337441D01*
X50135Y338121D01*
X50559Y338914D01*
X51571Y342251D01*
X51913Y345720D01*
X51571Y349190D01*
X50559Y352527D01*
X49997Y353579D01*
X50240Y356045D01*
X49945Y359036D01*
X51016Y359361D01*
X53233Y360546D01*
X54370D01*
X57001Y360892D01*
X59454Y361908D01*
X61559Y363524D01*
X63175Y365630D01*
X64191Y368082D01*
X64537Y370713D01*
Y398653D01*
X64191Y401284D01*
X63175Y403736D01*
X61559Y405842D01*
X59454Y407458D01*
X57001Y408474D01*
X54370Y408820D01*
X44210D01*
X41579Y408474D01*
X40215Y407909D01*
X40045Y407999D01*
X36708Y409011D01*
X33238Y409353D01*
X29769Y409011D01*
X26432Y407999D01*
X23357Y406356D01*
X20662Y404144D01*
X18450Y401449D01*
X16946Y398633D01*
X15291Y398470D01*
X11954Y397458D01*
X8879Y395815D01*
X6184Y393603D01*
X5659Y392963D01*
X4463Y393391D01*
Y454701D01*
X5225Y455655D01*
X5733Y456163D01*
X5733Y456163D01*
X39642Y490072D01*
X90395D01*
X90927Y488919D01*
X89573Y487334D01*
X87106Y483308D01*
X85299Y478945D01*
X84197Y474353D01*
X83826Y469646D01*
X84197Y464939D01*
X85299Y460347D01*
X87106Y455984D01*
X89573Y451958D01*
X92640Y448367D01*
X96231Y445300D01*
X100257Y442833D01*
X104620Y441026D01*
X109212Y439924D01*
X111923Y439710D01*
X112315Y438418D01*
X113708Y435812D01*
X115583Y433528D01*
X134019Y415092D01*
X133758Y414774D01*
X132365Y412168D01*
X131507Y409341D01*
X131217Y406400D01*
Y399978D01*
X131043Y398653D01*
Y370713D01*
X131390Y368082D01*
X132405Y365630D01*
X134021Y363524D01*
X136126Y361908D01*
X138579Y360892D01*
X141210Y360546D01*
X151370D01*
X154001Y360892D01*
X156454Y361908D01*
X158559Y363524D01*
X160149Y365596D01*
X168932D01*
X173448Y361079D01*
X173541Y360373D01*
X174297Y358549D01*
X175499Y356982D01*
X177066Y355780D01*
X178890Y355024D01*
X180848Y354766D01*
X182806Y355024D01*
X184630Y355780D01*
X186197Y356982D01*
X187399Y358549D01*
X188155Y360373D01*
X188413Y362331D01*
X188155Y364289D01*
X187399Y366113D01*
X186197Y367680D01*
X184630Y368882D01*
X182806Y369638D01*
X182100Y369731D01*
X175792Y376039D01*
X173807Y377365D01*
X171466Y377831D01*
X161537D01*
Y392864D01*
X163714Y394028D01*
X165151Y395207D01*
X187602D01*
X187961Y395171D01*
X197550D01*
Y391657D01*
X196280Y391186D01*
X194926Y392091D01*
X192960Y392482D01*
X191960D01*
Y384843D01*
Y377205D01*
X192960D01*
X194926Y377596D01*
X196280Y378500D01*
X197550Y378029D01*
Y377010D01*
X221550D01*
Y377424D01*
X231840D01*
Y377010D01*
X255840D01*
Y381231D01*
X257369Y381433D01*
X259193Y382188D01*
X260760Y383391D01*
X264404Y387034D01*
X265674Y386508D01*
Y384118D01*
X265209Y383512D01*
X264453Y381688D01*
X264195Y379730D01*
X264453Y377772D01*
X265209Y375948D01*
X266411Y374381D01*
X267978Y373179D01*
X268278Y373055D01*
X268628Y372598D01*
X270717Y370995D01*
X273150Y369987D01*
X275760Y369644D01*
X278370Y369987D01*
X280803Y370995D01*
X282892Y372598D01*
X283242Y373055D01*
X283542Y373179D01*
X285109Y374381D01*
X286311Y375948D01*
X287067Y377772D01*
X287325Y379730D01*
X287162Y380968D01*
X288377Y381471D01*
X288843Y380863D01*
X291089Y379140D01*
X293704Y378057D01*
X296510Y377687D01*
X308010D01*
X310816Y378057D01*
X313431Y379140D01*
X315677Y380863D01*
X317400Y383109D01*
X318483Y385724D01*
X318853Y388530D01*
Y390087D01*
X319474Y390289D01*
X320123Y390298D01*
X321126Y388796D01*
X322794Y387682D01*
X324760Y387291D01*
X324760D01*
Y392430D01*
Y397569D01*
X324760D01*
X322794Y397178D01*
X321126Y396064D01*
X320123Y394562D01*
X319474Y394571D01*
X318853Y394773D01*
Y402787D01*
X319474Y402989D01*
X320123Y402998D01*
X321126Y401496D01*
X322794Y400382D01*
X324760Y399991D01*
X324760D01*
Y405130D01*
Y410269D01*
X324760D01*
X322794Y409878D01*
X321126Y408764D01*
X320123Y407262D01*
X319474Y407271D01*
X318853Y407473D01*
Y409030D01*
X318483Y411836D01*
X317400Y414451D01*
X317333Y414539D01*
Y436479D01*
X321494Y440640D01*
X324477Y439924D01*
X329184Y439553D01*
X333891Y439924D01*
X338483Y441026D01*
X342846Y442833D01*
X346872Y445300D01*
X350463Y448367D01*
X353530Y451958D01*
X355997Y455984D01*
X357804Y460347D01*
X358906Y464939D01*
X359277Y469646D01*
X358906Y474353D01*
X357804Y478945D01*
X355997Y483308D01*
X353530Y487334D01*
X352176Y488919D01*
X352708Y490072D01*
X411625D01*
X441724Y459973D01*
D02*
G37*
G36*
X306192Y488919D02*
X304839Y487334D01*
X302371Y483308D01*
X300564Y478945D01*
X299462Y474353D01*
X299091Y469646D01*
X299462Y464939D01*
X300178Y461956D01*
X291602Y453380D01*
X289728Y451096D01*
X288335Y448490D01*
X287477Y445662D01*
X287187Y442722D01*
Y427789D01*
X276725D01*
X275760Y427916D01*
X255660D01*
X253050Y427573D01*
X250617Y426565D01*
X248528Y424962D01*
X241576Y418010D01*
X231840D01*
Y397596D01*
X221550D01*
Y407142D01*
X221599Y407304D01*
X221889Y410244D01*
X221599Y413185D01*
X221550Y413346D01*
Y418010D01*
X219673D01*
X219348Y418618D01*
X217474Y420902D01*
X215190Y422776D01*
X212584Y424169D01*
X209757Y425027D01*
X206816Y425317D01*
X188284D01*
X187925Y425352D01*
X166390D01*
X141180Y450563D01*
X141024Y452147D01*
X140166Y454975D01*
X140141Y455020D01*
X140732Y455984D01*
X142539Y460347D01*
X143641Y464939D01*
X144012Y469646D01*
X143641Y474353D01*
X142539Y478945D01*
X140732Y483308D01*
X138265Y487334D01*
X136911Y488919D01*
X137443Y490072D01*
X305660D01*
X306192Y488919D01*
D02*
G37*
G36*
X293300Y294580D02*
X298810D01*
Y286887D01*
X294040Y282118D01*
X283043D01*
X282364Y283388D01*
X282877Y284155D01*
X283342Y286496D01*
Y296580D01*
X293300D01*
Y294580D01*
D02*
G37*
G36*
X331400D02*
X336782D01*
Y282696D01*
X332204Y278118D01*
X309002D01*
X308516Y279291D01*
X309253Y280027D01*
X310579Y282012D01*
X311045Y284353D01*
Y294580D01*
X316300D01*
Y296580D01*
X331400D01*
Y294580D01*
D02*
G37*
G36*
X6184Y368450D02*
X8879Y366238D01*
X9006Y366171D01*
X8464Y364384D01*
X8122Y360914D01*
Y293251D01*
X7341Y291790D01*
X6197Y288020D01*
X5811Y284099D01*
Y269001D01*
X5733Y268952D01*
X4463Y269651D01*
Y368662D01*
X5659Y369090D01*
X6184Y368450D01*
D02*
G37*
G36*
X347835Y252859D02*
X347349Y251686D01*
X322010D01*
Y250186D01*
X319807D01*
Y257915D01*
X342779D01*
X347835Y252859D01*
D02*
G37*
G36*
X245068Y244580D02*
X244977Y243890D01*
Y239390D01*
X245227Y237497D01*
X245957Y235734D01*
X247119Y234219D01*
X248634Y233057D01*
X250397Y232327D01*
X252290Y232078D01*
X260790D01*
X262683Y232327D01*
X264446Y233057D01*
X265184Y233624D01*
X266851Y233415D01*
X267123Y233008D01*
X266958Y231565D01*
X266111Y231214D01*
X265167Y230490D01*
X263375Y230726D01*
X260764Y230383D01*
X258331Y229375D01*
X256245Y227774D01*
X252290D01*
X250421Y227402D01*
X248837Y226343D01*
X247778Y224759D01*
X247754Y224640D01*
X256540D01*
Y216640D01*
X247754D01*
X247778Y216521D01*
X248837Y214937D01*
X250421Y213878D01*
X252290Y213506D01*
X256244D01*
X257054Y212697D01*
X257237Y212254D01*
X258840Y210165D01*
X259448Y209699D01*
X259017Y208428D01*
X244215D01*
X227948Y224695D01*
X228005Y225869D01*
X228076Y225993D01*
X229034Y226119D01*
X230858Y226875D01*
X232425Y228077D01*
X233627Y229644D01*
X234383Y231468D01*
X234489Y232272D01*
X234950Y232211D01*
X236908Y232469D01*
X238732Y233225D01*
X240299Y234427D01*
X241501Y235994D01*
X242257Y237818D01*
X242515Y239776D01*
X242257Y241734D01*
X241501Y243558D01*
X240717Y244580D01*
X241343Y245851D01*
X243955D01*
X245068Y244580D01*
D02*
G37*
G36*
X155059Y216999D02*
X154844Y215883D01*
X153519Y213608D01*
X153327Y212901D01*
X152014Y212150D01*
X150145Y210295D01*
X148820Y208020D01*
X148129Y205479D01*
X148126Y204727D01*
X147677Y203955D01*
X147461Y203161D01*
X146843Y202548D01*
X145518Y200273D01*
X144960Y198221D01*
X144049Y197728D01*
X143847Y197656D01*
X143556Y197634D01*
X141912Y198315D01*
X139954Y198573D01*
X139213Y199222D01*
Y218533D01*
X154034D01*
X155059Y216999D01*
D02*
G37*
G36*
X87354Y210058D02*
Y195347D01*
X76126D01*
Y210250D01*
X87197D01*
X87354Y210058D01*
D02*
G37*
G36*
X109685Y194608D02*
X108730Y193771D01*
X107950Y193874D01*
X105992Y193616D01*
X104168Y192860D01*
X102601Y191658D01*
X101399Y190091D01*
X100859Y188790D01*
X99590Y189042D01*
Y207319D01*
X99621Y207323D01*
X101445Y208079D01*
X103012Y209281D01*
X104214Y210848D01*
X104970Y212672D01*
X105228Y214630D01*
X105108Y215537D01*
X105946Y216492D01*
X109685D01*
Y194608D01*
D02*
G37*
G36*
X232829Y182711D02*
X232658Y182297D01*
X232434Y180594D01*
Y176022D01*
X232658Y174319D01*
X233315Y172732D01*
X234361Y171369D01*
X235724Y170323D01*
X237311Y169666D01*
X239014Y169442D01*
X240104D01*
Y163298D01*
X239014D01*
X237311Y163074D01*
X235927Y162501D01*
X224663D01*
X222575Y162226D01*
X220803Y161492D01*
X219967D01*
X217886Y163574D01*
Y181662D01*
X219156Y182511D01*
X220604Y182320D01*
X222562Y182578D01*
X224387Y183334D01*
X224952Y183767D01*
X232124D01*
X232829Y182711D01*
D02*
G37*
G36*
X293442Y175680D02*
Y121395D01*
X292262Y120906D01*
X290555Y119595D01*
X290195Y119127D01*
X288925D01*
X288566Y119595D01*
X287931Y120083D01*
Y179533D01*
X289104Y180019D01*
X293442Y175680D01*
D02*
G37*
G36*
X237311Y145790D02*
X239014Y145566D01*
X239786D01*
Y137478D01*
X240026Y135652D01*
Y129032D01*
X240370Y126421D01*
X241378Y123989D01*
X242981Y121900D01*
X244748Y120544D01*
X245067Y120168D01*
X245046Y118932D01*
X244467Y118178D01*
X232224D01*
Y146363D01*
X235927D01*
X237311Y145790D01*
D02*
G37*
G36*
X212051Y149440D02*
X213513Y148317D01*
X215216Y147612D01*
X216086Y147498D01*
Y118178D01*
X210693D01*
X210003Y118783D01*
Y149828D01*
X211176Y150314D01*
X212051Y149440D01*
D02*
G37*
%LPC*%
G36*
X332760Y422969D02*
Y421830D01*
X335845D01*
X334726Y422578D01*
X332760Y422969D01*
D02*
G37*
G36*
X324760D02*
X324760D01*
X322794Y422578D01*
X321675Y421830D01*
X324760D01*
Y422969D01*
D02*
G37*
G36*
X335845Y413830D02*
X332760D01*
Y412691D01*
X334726Y413082D01*
X335845Y413830D01*
D02*
G37*
G36*
X324760D02*
X321675D01*
X322794Y413082D01*
X324760Y412691D01*
X324760D01*
Y413830D01*
D02*
G37*
G36*
X332760Y410269D02*
Y409130D01*
X335845D01*
X334726Y409878D01*
X332760Y410269D01*
D02*
G37*
G36*
X335845Y401130D02*
X332760D01*
Y399991D01*
X334726Y400382D01*
X335845Y401130D01*
D02*
G37*
G36*
X332760Y397569D02*
Y396430D01*
X335845D01*
X334726Y397178D01*
X332760Y397569D01*
D02*
G37*
G36*
X183960Y392482D02*
X182960D01*
X180993Y392091D01*
X179326Y390977D01*
X178212Y389310D01*
X178120Y388843D01*
X183960D01*
Y392482D01*
D02*
G37*
G36*
X335845Y388430D02*
X332760D01*
Y387291D01*
X334726Y387682D01*
X335845Y388430D01*
D02*
G37*
G36*
X332760Y384869D02*
Y383730D01*
X335845D01*
X334726Y384478D01*
X332760Y384869D01*
D02*
G37*
G36*
X324760D02*
X324760D01*
X322794Y384478D01*
X321675Y383730D01*
X324760D01*
Y384869D01*
D02*
G37*
G36*
X183960Y380843D02*
X178120D01*
X178212Y380377D01*
X179326Y378710D01*
X180993Y377596D01*
X182960Y377205D01*
X183960D01*
Y380843D01*
D02*
G37*
G36*
X335845Y375730D02*
X332760D01*
Y374591D01*
X334726Y374982D01*
X335845Y375730D01*
D02*
G37*
G36*
X324760D02*
X321675D01*
X322794Y374982D01*
X324760Y374591D01*
X324760D01*
Y375730D01*
D02*
G37*
G36*
X159830Y327652D02*
X158579Y326815D01*
X158421Y326580D01*
X159830D01*
Y327652D01*
D02*
G37*
G36*
X381190Y229226D02*
Y225186D01*
X386730D01*
Y229226D01*
X381190D01*
D02*
G37*
G36*
X386730Y217186D02*
X381190D01*
Y213146D01*
X386730D01*
Y217186D01*
D02*
G37*
G36*
X369071Y152972D02*
X364680D01*
Y150535D01*
X365125D01*
X366859Y150880D01*
X368330Y151862D01*
X369071Y152972D01*
D02*
G37*
G36*
X356680D02*
X352289D01*
X353030Y151862D01*
X354501Y150880D01*
X356235Y150535D01*
X356680D01*
Y152972D01*
D02*
G37*
G36*
X325891D02*
X321500D01*
Y150535D01*
X321945D01*
X323679Y150880D01*
X325150Y151862D01*
X325891Y152972D01*
D02*
G37*
G36*
X313500D02*
X309109D01*
X309850Y151862D01*
X311321Y150880D01*
X313055Y150535D01*
X313500D01*
Y152972D01*
D02*
G37*
G36*
X352108Y136617D02*
X351625Y136416D01*
X349768Y134991D01*
X348599Y133469D01*
X348204Y133362D01*
X347503D01*
X347107Y133469D01*
X345938Y134991D01*
X344081Y136416D01*
X343598Y136617D01*
Y128651D01*
Y120685D01*
X344081Y120886D01*
X345938Y122311D01*
X347107Y123833D01*
X347503Y123940D01*
X348204D01*
X348599Y123833D01*
X349768Y122311D01*
X351625Y120886D01*
X352108Y120685D01*
Y128651D01*
Y136617D01*
D02*
G37*
G36*
X360108D02*
Y132651D01*
X364074D01*
X363873Y133134D01*
X362448Y134991D01*
X360591Y136416D01*
X360108Y136617D01*
D02*
G37*
G36*
X335598D02*
X335115Y136416D01*
X333258Y134991D01*
X331833Y133134D01*
X331632Y132651D01*
X335598D01*
Y136617D01*
D02*
G37*
G36*
X364074Y124651D02*
X360108D01*
Y120685D01*
X360591Y120886D01*
X362448Y122311D01*
X363873Y124168D01*
X364074Y124651D01*
D02*
G37*
G36*
X335598D02*
X331632D01*
X331833Y124168D01*
X333258Y122311D01*
X335115Y120886D01*
X335598Y120685D01*
Y124651D01*
D02*
G37*
G36*
X328560Y119428D02*
Y111940D01*
X333562D01*
Y113765D01*
X333118Y115995D01*
X331855Y117885D01*
X329965Y119148D01*
X328560Y119428D01*
D02*
G37*
G36*
X320560D02*
X319155Y119148D01*
X317265Y117885D01*
X316002Y115995D01*
X315558Y113765D01*
Y111940D01*
X320560D01*
Y119428D01*
D02*
G37*
G36*
X333562Y103940D02*
X328560D01*
Y96452D01*
X329965Y96732D01*
X331855Y97995D01*
X333118Y99885D01*
X333562Y102115D01*
Y103940D01*
D02*
G37*
G36*
X320560D02*
X315558D01*
Y102115D01*
X316002Y99885D01*
X317265Y97995D01*
X319155Y96732D01*
X320560Y96452D01*
Y103940D01*
D02*
G37*
G36*
X370890Y95807D02*
X360730D01*
X358099Y95461D01*
X355647Y94445D01*
X353541Y92829D01*
X351925Y90723D01*
X350910Y88271D01*
X350563Y85640D01*
Y75480D01*
X350910Y72849D01*
X351925Y70396D01*
X353541Y68291D01*
X355647Y66675D01*
X358099Y65659D01*
X360730Y65313D01*
X370890D01*
X373521Y65659D01*
X375974Y66675D01*
X378079Y68291D01*
X379695Y70396D01*
X380710Y72849D01*
X381057Y75480D01*
Y85640D01*
X380710Y88271D01*
X379695Y90723D01*
X378079Y92829D01*
X375974Y94445D01*
X373521Y95461D01*
X370890Y95807D01*
D02*
G37*
G36*
X314060Y89788D02*
X310797Y89358D01*
X307756Y88099D01*
X305145Y86095D01*
X303141Y83484D01*
X301882Y80443D01*
X301452Y77180D01*
X301882Y73917D01*
X303141Y70876D01*
X305145Y68265D01*
X307756Y66261D01*
X310797Y65002D01*
X314060Y64572D01*
X317323Y65002D01*
X320364Y66261D01*
X322975Y68265D01*
X324979Y70876D01*
X326238Y73917D01*
X326668Y77180D01*
X326238Y80443D01*
X324979Y83484D01*
X322975Y86095D01*
X320364Y88099D01*
X317323Y89358D01*
X314060Y89788D01*
D02*
G37*
G36*
X265060D02*
X261797Y89358D01*
X258756Y88099D01*
X256145Y86095D01*
X254141Y83484D01*
X252882Y80443D01*
X252452Y77180D01*
X252882Y73917D01*
X254141Y70876D01*
X256145Y68265D01*
X258756Y66261D01*
X261797Y65002D01*
X265060Y64572D01*
X268323Y65002D01*
X271364Y66261D01*
X273975Y68265D01*
X275979Y70876D01*
X277238Y73917D01*
X277668Y77180D01*
X277238Y80443D01*
X275979Y83484D01*
X273975Y86095D01*
X271364Y88099D01*
X268323Y89358D01*
X265060Y89788D01*
D02*
G37*
G36*
X152385Y67750D02*
X148780D01*
Y59815D01*
X150158Y60872D01*
X151366Y62447D01*
X152126Y64282D01*
X152385Y66250D01*
Y67750D01*
D02*
G37*
G36*
X54280D02*
X50675D01*
Y66250D01*
X50934Y64282D01*
X51694Y62447D01*
X52902Y60872D01*
X54280Y59815D01*
Y67750D01*
D02*
G37*
G36*
X148780Y41185D02*
Y35750D01*
X152253D01*
X152126Y36718D01*
X151366Y38552D01*
X150158Y40128D01*
X148780Y41185D01*
D02*
G37*
G36*
X62280D02*
Y35750D01*
X65753D01*
X65626Y36718D01*
X64866Y38552D01*
X63658Y40128D01*
X62280Y41185D01*
D02*
G37*
G36*
X140780D02*
X139402Y40128D01*
X138194Y38552D01*
X137434Y36718D01*
X137307Y35750D01*
X140780D01*
Y41185D01*
D02*
G37*
G36*
X54280D02*
X52902Y40128D01*
X51694Y38552D01*
X50934Y36718D01*
X50807Y35750D01*
X54280D01*
Y41185D01*
D02*
G37*
G36*
X152253Y27750D02*
X148780D01*
Y22315D01*
X150158Y23372D01*
X151366Y24948D01*
X152126Y26782D01*
X152253Y27750D01*
D02*
G37*
G36*
X65753D02*
X62280D01*
Y22315D01*
X63658Y23372D01*
X64866Y24948D01*
X65626Y26782D01*
X65753Y27750D01*
D02*
G37*
G36*
X140780D02*
X137307D01*
X137434Y26782D01*
X138194Y24948D01*
X139402Y23372D01*
X140780Y22315D01*
Y27750D01*
D02*
G37*
G36*
X54280D02*
X50807D01*
X50934Y26782D01*
X51694Y24948D01*
X52902Y23372D01*
X54280Y22315D01*
Y27750D01*
D02*
G37*
G36*
X370890Y39807D02*
X360730D01*
X358099Y39460D01*
X355647Y38445D01*
X353541Y36829D01*
X351925Y34723D01*
X350910Y32271D01*
X350563Y29640D01*
Y19480D01*
X350910Y16848D01*
X351925Y14396D01*
X353541Y12291D01*
X355647Y10675D01*
X358099Y9659D01*
X360730Y9313D01*
X370890D01*
X373521Y9659D01*
X375974Y10675D01*
X378079Y12291D01*
X379695Y14396D01*
X380710Y16848D01*
X381057Y19480D01*
Y29640D01*
X380710Y32271D01*
X379695Y34723D01*
X378079Y36829D01*
X375974Y38445D01*
X373521Y39460D01*
X370890Y39807D01*
D02*
G37*
G36*
X218390D02*
X208230D01*
X205599Y39460D01*
X203146Y38445D01*
X201041Y36829D01*
X199425Y34723D01*
X198410Y32271D01*
X198063Y29640D01*
Y19480D01*
X198410Y16848D01*
X199425Y14396D01*
X201041Y12291D01*
X203146Y10675D01*
X205599Y9659D01*
X208230Y9313D01*
X218390D01*
X221021Y9659D01*
X223473Y10675D01*
X225579Y12291D01*
X227195Y14396D01*
X228211Y16848D01*
X228557Y19480D01*
Y29640D01*
X228211Y32271D01*
X227195Y34723D01*
X225579Y36829D01*
X223473Y38445D01*
X221021Y39460D01*
X218390Y39807D01*
D02*
G37*
%LPD*%
D11*
X241681Y202311D02*
X275463D01*
X299560Y107940D02*
Y178214D01*
X275463Y202311D02*
X299560Y178214D01*
X220472Y223520D02*
X241681Y202311D01*
X281813Y110193D02*
Y186690D01*
X236728Y196977D02*
X271526D01*
X281813Y186690D01*
X219583Y214122D02*
X236728Y196977D01*
X218694Y248031D02*
X219095Y247630D01*
X220747Y247228D02*
X222443D01*
X219095Y247630D02*
X220346D01*
X220747Y247228D01*
X213868Y248031D02*
X218694D01*
X98218Y285830D02*
X105791Y278257D01*
X116078D01*
X159383Y284480D02*
X159610Y284253D01*
X109855Y284480D02*
X159383D01*
X87390Y285830D02*
X98218D01*
X160643Y290830D02*
X163510Y287963D01*
X103632Y290830D02*
X160643D01*
X86200Y287020D02*
X87390Y285830D01*
X102997Y235040D02*
Y243584D01*
Y233426D02*
Y235040D01*
X123413Y264000D02*
X152260D01*
X102997Y243584D02*
X123413Y264000D01*
X183642Y216662D02*
Y224650D01*
X159610Y283350D02*
Y284253D01*
X97917Y275082D02*
X100999Y272000D01*
X129447D01*
X93472Y189230D02*
Y210058D01*
X97663Y214249D01*
Y214630D01*
X129447Y272000D02*
X129447Y272000D01*
X189230Y173990D02*
X196059D01*
X197231Y113919D02*
Y172818D01*
X196059Y173990D02*
X197231Y172818D01*
X189738Y106426D02*
X197231Y113919D01*
X268557Y215458D02*
X272730D01*
X171466Y371713D02*
X180848Y362331D01*
X155139Y371713D02*
X171466D01*
X146290Y380562D02*
X155139Y371713D01*
X146290Y380562D02*
Y384683D01*
X256540Y220640D02*
X263375D01*
X272730Y215458D02*
X273304Y214884D01*
X273050Y182626D02*
X273050Y182626D01*
X107950Y186309D02*
X108204Y186563D01*
X66280Y76313D02*
X69977Y80010D01*
X58280Y71750D02*
Y72618D01*
X61975Y76313D01*
X71030Y80510D02*
Y82150D01*
X70530Y80010D02*
X71030Y80510D01*
X69977Y80010D02*
X70530D01*
X135030Y76825D02*
Y82150D01*
Y76825D02*
X135530Y76325D01*
X141867D02*
X144780Y73412D01*
X279560Y107940D02*
X281813Y110193D01*
X199009Y307340D02*
X209550Y317881D01*
X215924Y327660D02*
X218440D01*
X209550Y321286D02*
X215924Y327660D01*
X209550Y317881D02*
Y321286D01*
X239903Y326136D02*
X240555Y325485D01*
X237330Y327660D02*
X239379Y325611D01*
X197374Y307340D02*
X199009D01*
X133096Y113411D02*
Y224650D01*
X132207Y112522D02*
X133096Y113411D01*
X253153Y109347D02*
X254560Y110754D01*
X197179Y212872D02*
Y214249D01*
X156620Y185808D02*
X172303D01*
X155448Y178308D02*
Y184636D01*
X156620Y185808D01*
X174752Y179354D02*
X174782Y179324D01*
X174752Y179354D02*
Y183359D01*
Y178308D02*
Y179354D01*
X172303Y185808D02*
X174752Y183359D01*
X174782Y179324D02*
X175768D01*
X144526Y178308D02*
X155448D01*
X139954Y182880D02*
X144526Y178308D01*
X139954Y182880D02*
Y191008D01*
X184343Y213192D02*
X184917Y212618D01*
X184343Y213192D02*
Y215961D01*
X248412Y290195D02*
X254635Y296418D01*
X199517Y286639D02*
Y289023D01*
X200689Y290195D01*
X248412D01*
X239903Y326136D02*
Y338074D01*
X249555Y137160D02*
X249872Y137478D01*
X78530Y82150D02*
X79030Y81650D01*
X234658Y240068D02*
X234950Y239776D01*
X213106Y240068D02*
X234658D01*
X124030Y82150D02*
Y88150D01*
Y76700D02*
Y82150D01*
X124530Y76200D02*
X124968D01*
X124030Y76700D02*
X124530Y76200D01*
X79030Y77650D02*
Y81650D01*
X76030Y82150D02*
X78530D01*
X141512Y236000D02*
X152260D01*
X277225Y286496D02*
Y304580D01*
X283750D01*
X266700D02*
X277225D01*
X283750D02*
X285750Y306580D01*
X274079Y283350D02*
X277225Y286496D01*
X203610Y283350D02*
X274079D01*
X163510Y283450D02*
X163610Y283350D01*
X163510Y283450D02*
Y287963D01*
X133096Y224650D02*
X158970D01*
X133096D02*
Y248031D01*
X137065Y252000D01*
X149330Y256000D02*
X152260D01*
X137065Y252000D02*
X152260D01*
X76073Y189230D02*
X93472D01*
Y178308D02*
Y189230D01*
X197179Y212872D02*
X197744D01*
X195610Y215818D02*
X197179Y214249D01*
X195610Y215818D02*
Y224650D01*
X253153Y109347D02*
X254560Y107940D01*
X252391Y110109D02*
X253153Y109347D01*
X240919Y189885D02*
X256520D01*
X221250D02*
X240919D01*
X240538Y178308D02*
Y189504D01*
X240919Y189885D01*
X256520D02*
X259842Y186563D01*
Y178308D02*
Y186563D01*
X333375Y220551D02*
X334010Y221186D01*
X332510Y241186D02*
X334010D01*
X328010Y236686D02*
X332510Y241186D01*
X328010Y235006D02*
Y236686D01*
X315190Y222186D02*
X328010Y235006D01*
X313690Y222186D02*
X315190D01*
X364617Y268000D02*
X376682Y255935D01*
Y241694D02*
X377190Y241186D01*
X376682Y241694D02*
Y255935D01*
X313309Y264033D02*
X345313D01*
X213487D02*
X313309D01*
X313690Y240186D02*
Y263652D01*
X313309Y264033D02*
X313690Y263652D01*
X355600Y241186D02*
Y253746D01*
X345313Y264033D02*
X355600Y253746D01*
X293370Y241186D02*
Y253365D01*
X279146Y260000D02*
X286735D01*
X293370Y253365D01*
X210960Y260000D02*
X279146D01*
X210960Y268000D02*
X364617D01*
X210960Y272000D02*
X334738D01*
X342900Y280162D02*
Y304580D01*
X334738Y272000D02*
X342900Y280162D01*
X210960Y276000D02*
X296574D01*
X304800Y304580D02*
X304927Y304453D01*
Y284353D02*
Y304453D01*
X296574Y276000D02*
X304927Y284353D01*
X107858Y69596D02*
X109030Y70768D01*
Y110427D01*
X100711Y69596D02*
X107858D01*
X99030Y71277D02*
X100711Y69596D01*
X99030Y71277D02*
Y82150D01*
X141478Y235966D02*
X141512Y236000D01*
X152160Y240100D02*
X152260Y240000D01*
X146615Y240100D02*
X152160D01*
X141986Y244729D02*
X146615Y240100D01*
X129447Y272000D02*
X152260D01*
X183642Y216662D02*
X184343Y215961D01*
X240030Y324960D02*
X241079D01*
X242824Y323215D01*
X222443Y247228D02*
X223017Y246654D01*
X256540Y241640D02*
Y248412D01*
X252984Y251968D02*
X256540Y248412D01*
X210992Y251968D02*
X252984D01*
X249872Y154115D02*
X250190Y154432D01*
X164973Y133477D02*
X165100Y133604D01*
X187590Y154432D02*
X188849Y153173D01*
X124030Y88150D02*
X125375Y89495D01*
X218567Y233824D02*
X226678D01*
X227076Y233426D01*
X254540Y241640D02*
X256540D01*
X218567Y233824D02*
Y234828D01*
Y232820D02*
Y233824D01*
X210960Y232000D02*
X210960Y232000D01*
X217747D01*
X218567Y232820D01*
X210960Y236000D02*
X217395D01*
X218567Y234828D01*
X74168Y187325D02*
X76073Y189230D01*
X74168Y178308D02*
Y187325D01*
X109030Y110427D02*
X110744Y112141D01*
X96139Y96901D02*
X104030D01*
X94030Y82150D02*
X94070Y82190D01*
Y94832D01*
X96139Y96901D01*
X90540Y267970D02*
X152260D01*
X86040Y262890D02*
Y263470D01*
X90540Y267970D01*
X204089Y297942D02*
X204901D01*
X217945Y301638D02*
X218440D01*
X216739Y300432D02*
X217945Y301638D01*
X195610Y283350D02*
Y305576D01*
X179965Y301416D02*
X183880Y305331D01*
Y305331D02*
X185816Y307267D01*
X183880Y305331D02*
Y305331D01*
X185816Y307267D02*
X186220D01*
X179900Y297298D02*
X179965Y297363D01*
X254635Y296418D02*
Y319913D01*
X257302Y322580D02*
X266700D01*
X254635Y319913D02*
X257302Y322580D01*
X213360Y264160D02*
X213487Y264033D01*
X210960Y252000D02*
X210992Y251968D01*
X195610Y305576D02*
X197374Y307340D01*
D19*
X119030Y110521D02*
X126746Y118237D01*
Y210312D01*
X86040Y242570D02*
X102526D01*
X102526Y233897D02*
Y242570D01*
X102526Y242570D02*
X102526Y242570D01*
Y233897D02*
X102997Y233426D01*
X178435Y96901D02*
X188595D01*
X203610Y111916D01*
X144780Y73412D02*
Y75074D01*
X188849Y153173D02*
Y154432D01*
X104030Y113428D02*
X120118Y129516D01*
Y248134D01*
X116078Y132969D02*
Y222885D01*
X89030Y105921D02*
X116078Y132969D01*
X203610Y111916D02*
Y224650D01*
X173736Y90000D02*
X174028Y90292D01*
X152229Y259969D02*
X152260Y260000D01*
X124714Y259969D02*
X152229D01*
X292910Y221186D02*
X293370D01*
X289385Y224711D02*
X292910Y221186D01*
X89030Y82150D02*
Y105921D01*
X104030Y96901D02*
Y113428D01*
X119030Y82150D02*
Y110521D01*
X259842Y154432D02*
X260731Y153543D01*
X285750Y324580D02*
X304800D01*
X323850D01*
X191610Y204691D02*
Y224650D01*
X25908Y193548D02*
X28956Y190500D01*
X127913Y255929D02*
X149330D01*
X120118Y248134D02*
X127913Y255929D01*
X116078Y251333D02*
X124714Y259969D01*
X116078Y222885D02*
Y251333D01*
X291870Y241186D02*
X293370D01*
X181356Y168529D02*
Y180594D01*
X191135Y190373D01*
X191553Y204634D02*
X191610Y204691D01*
X191553Y202895D02*
Y204634D01*
X191135Y202477D02*
X191553Y202895D01*
X191135Y190373D02*
Y202477D01*
X164520Y224650D02*
X167610D01*
X90678Y222885D02*
X116078D01*
X165100Y166370D02*
X179197D01*
X181356Y168529D01*
X139975Y397510D02*
X146290D01*
X175610Y224650D02*
X179610D01*
X25908Y284099D02*
Y289903D01*
X44755Y302945D02*
Y309576D01*
X188145Y158750D02*
X188849Y158046D01*
X188105Y147556D02*
X188849Y148300D01*
X104030Y82150D02*
Y96901D01*
X86040Y222250D02*
X86929Y223139D01*
X179610Y296042D02*
X180975Y297407D01*
X186293Y307340D02*
X186690D01*
X186220Y307267D02*
X186293Y307340D01*
X271706Y405035D02*
X271801Y405130D01*
X275760D01*
Y417830D02*
X275887Y417703D01*
X298069D02*
X302260Y413512D01*
Y398780D02*
Y403280D01*
X293984Y392416D02*
Y398378D01*
X294386Y398780D01*
X302260D01*
X139512Y402654D02*
X146290Y405999D01*
X139114Y397510D02*
X139975Y397510D01*
X137626Y398998D02*
X139114Y397510D01*
X61256Y293074D02*
X61580Y292750D01*
X61970D01*
X66200Y287020D02*
Y288520D01*
X61970Y292750D02*
X66200Y288520D01*
X265200Y304580D02*
X266700D01*
X261470Y300850D02*
X265200Y304580D01*
X331470Y173228D02*
X360680D01*
X317500D02*
X331470D01*
Y187960D01*
X306800Y306580D02*
X323850D01*
X304800Y304580D02*
X306800Y306580D01*
X323850Y324580D02*
X340900D01*
X342900Y322580D01*
X266700D02*
X268700Y324580D01*
X285750D01*
X187610Y283350D02*
X190500D01*
X179610D02*
X183610D01*
X236708Y301638D02*
X240030Y304960D01*
X206816Y410244D02*
X209550Y407510D01*
X171610Y224650D02*
X175610D01*
X141334Y78520D02*
X144780Y75074D01*
X324560Y107240D02*
X325120Y106680D01*
X317500Y156972D02*
X319278Y158750D01*
X324560Y107240D02*
Y107940D01*
X352008Y244778D02*
X355600Y241186D01*
X334010Y221186D02*
X336756Y218440D01*
X355600D02*
Y221186D01*
X251660Y238760D02*
X254000D01*
X188145Y158750D02*
X189230D01*
X0Y50000D02*
G03*
X50000Y0I50000J0D01*
G01*
X400000D02*
G03*
X450000Y50000I0J50000D01*
G01*
Y450000D02*
G03*
X400000Y500000I-50000J0D01*
G01*
X50000D02*
G03*
X0Y450000I0J-50000D01*
G01*
X50000Y0D02*
X400000D01*
X50000Y500000D02*
X400000D01*
X450000Y50000D02*
Y450000D01*
X0Y50000D02*
Y450000D01*
D20*
X173736Y90000D02*
D03*
Y70000D02*
D03*
Y50000D02*
D03*
Y110000D02*
D03*
D21*
X189230Y158750D02*
D03*
Y173990D02*
D03*
X273050Y158750D02*
D03*
Y173990D02*
D03*
X107950Y158750D02*
D03*
Y173990D02*
D03*
X198120Y322580D02*
D03*
Y307340D02*
D03*
X186690Y322580D02*
D03*
Y307340D02*
D03*
X175260Y322580D02*
D03*
Y307340D02*
D03*
X163830Y322580D02*
D03*
Y307340D02*
D03*
X274320Y223520D02*
D03*
Y238760D02*
D03*
D22*
X355600Y221186D02*
D03*
Y241186D02*
D03*
X334010Y221186D02*
D03*
Y241186D02*
D03*
X240030Y324960D02*
D03*
Y304960D02*
D03*
X209550Y407510D02*
D03*
Y387510D02*
D03*
X293370Y241186D02*
D03*
Y221186D02*
D03*
X377190Y241186D02*
D03*
Y221186D02*
D03*
X243840Y387510D02*
D03*
Y407510D02*
D03*
D23*
X313690Y240186D02*
D03*
Y222186D02*
D03*
X266700Y322580D02*
D03*
Y304580D02*
D03*
X285750Y306580D02*
D03*
Y324580D02*
D03*
X304800Y322580D02*
D03*
Y304580D02*
D03*
X323850Y306580D02*
D03*
Y324580D02*
D03*
X342900Y322580D02*
D03*
Y304580D02*
D03*
D24*
X360680Y173228D02*
D03*
X317500D02*
D03*
X360680Y156972D02*
D03*
X317500D02*
D03*
D25*
X213310Y80560D02*
D03*
X365810D02*
D03*
Y24560D02*
D03*
X213310D02*
D03*
D26*
X254560Y107940D02*
D03*
X279560D02*
D03*
X299560D02*
D03*
X324560D02*
D03*
D27*
X240538Y154432D02*
D03*
X259842D02*
D03*
Y178308D02*
D03*
X250190Y154432D02*
D03*
X240538Y178308D02*
D03*
X250190D02*
D03*
X155448Y154432D02*
D03*
X174752D02*
D03*
Y178308D02*
D03*
X165100Y154432D02*
D03*
X155448Y178308D02*
D03*
X165100D02*
D03*
X74168Y154432D02*
D03*
X93472D02*
D03*
Y178308D02*
D03*
X83820Y154432D02*
D03*
X74168Y178308D02*
D03*
X83820D02*
D03*
D28*
X86200Y287020D02*
D03*
X66200D02*
D03*
X66040Y222250D02*
D03*
X86040D02*
D03*
X66040Y242570D02*
D03*
X86040D02*
D03*
X66040Y262890D02*
D03*
X86040D02*
D03*
D29*
X275760Y417830D02*
D03*
Y405130D02*
D03*
Y392430D02*
D03*
Y379730D02*
D03*
X328760Y417830D02*
D03*
Y405130D02*
D03*
Y392430D02*
D03*
Y379730D02*
D03*
D30*
X302260Y398780D02*
D03*
D31*
X146290Y384683D02*
D03*
X49290D02*
D03*
D32*
X187960Y384843D02*
D03*
X187961Y410244D02*
D03*
D33*
X210960Y232000D02*
D03*
Y236000D02*
D03*
Y240000D02*
D03*
Y244000D02*
D03*
Y248000D02*
D03*
Y252000D02*
D03*
Y256000D02*
D03*
Y260000D02*
D03*
Y264000D02*
D03*
Y268000D02*
D03*
Y272000D02*
D03*
Y276000D02*
D03*
X152260D02*
D03*
Y272000D02*
D03*
Y268000D02*
D03*
Y264000D02*
D03*
Y260000D02*
D03*
Y256000D02*
D03*
Y252000D02*
D03*
Y248000D02*
D03*
Y244000D02*
D03*
Y240000D02*
D03*
Y236000D02*
D03*
Y232000D02*
D03*
D34*
X159610Y224650D02*
D03*
X163610D02*
D03*
X167610D02*
D03*
X171610D02*
D03*
X175610D02*
D03*
X179610D02*
D03*
X183610D02*
D03*
X187610D02*
D03*
X191610D02*
D03*
X195610D02*
D03*
X199610D02*
D03*
X203610D02*
D03*
Y283350D02*
D03*
X199610D02*
D03*
X195610D02*
D03*
X191610D02*
D03*
X187610D02*
D03*
X183610D02*
D03*
X179610D02*
D03*
X175610D02*
D03*
X171610D02*
D03*
X167610D02*
D03*
X163610D02*
D03*
X159610D02*
D03*
D35*
X256540Y220640D02*
D03*
Y241640D02*
D03*
D36*
X218440Y327660D02*
D03*
Y301638D02*
D03*
D37*
X135030Y82150D02*
D03*
X132030D02*
D03*
X127030D02*
D03*
X124030D02*
D03*
X119030D02*
D03*
X114030D02*
D03*
X109030D02*
D03*
X104030D02*
D03*
X99030D02*
D03*
X94030D02*
D03*
X89030D02*
D03*
X84030D02*
D03*
X79030D02*
D03*
X76030D02*
D03*
X71030D02*
D03*
X68030D02*
D03*
D63*
X181610Y254000D02*
D03*
D64*
X265972Y217297D02*
X271154Y222479D01*
X66040Y194691D02*
Y222250D01*
X263375Y220640D02*
X268557Y215458D01*
X274320Y216712D02*
Y223520D01*
X66040Y222250D02*
Y242570D01*
X61975Y76313D02*
X66280D01*
X135530Y76325D02*
X141867D01*
X66040Y242570D02*
Y262890D01*
X177301Y203109D02*
X177419Y202184D01*
X177047Y195107D02*
X177165Y194183D01*
X173618Y194091D02*
X173736Y193167D01*
X165744Y194345D02*
X165862Y193421D01*
X160410Y194599D02*
X160528Y193675D01*
X154822Y196378D02*
X154940Y195453D01*
X156981Y200061D02*
X157099Y199136D01*
X158124Y204125D02*
X158242Y203200D01*
X162442Y203871D02*
X162560Y202946D01*
X165236Y214158D02*
X165354Y213233D01*
X162823Y209713D02*
X162941Y208788D01*
X213868Y305385D02*
X223216D01*
X233426Y301321D02*
X242774D01*
X225933Y305639D02*
X235281D01*
X167690Y133350D02*
Y142698D01*
X250113Y129032D02*
Y138380D01*
X203377Y298069D02*
X205867Y300559D01*
X209473Y297561D02*
X211963Y300051D01*
X249872Y137478D02*
Y154115D01*
X165100Y133604D02*
Y154432D01*
X83820D02*
Y178308D01*
Y147337D02*
Y154432D01*
X174976Y194945D02*
Y222745D01*
X169291Y198390D02*
Y198390D01*
Y198390D02*
X169808Y194345D01*
X169926Y193421D01*
X168247Y221064D02*
X169164Y222250D01*
X166656Y219007D02*
X168247Y221064D01*
X166656Y219007D02*
X169291Y198390D01*
X165100Y166370D02*
Y178308D01*
Y154432D02*
Y166370D01*
X175610Y224650D02*
X175704Y224556D01*
X218440Y327660D02*
X237330D01*
X179610Y283350D02*
Y296042D01*
X207391Y300432D02*
X216739D01*
X204901Y297942D02*
X207391Y300432D01*
X179965Y297363D02*
Y301416D01*
X175262Y307338D02*
X186149D01*
X186220Y307267D01*
X175260Y307340D02*
X175262Y307338D01*
X163830Y307340D02*
X175260D01*
X243840Y407510D02*
X244340Y408010D01*
X245840D02*
X255660Y417830D01*
X275760D01*
X244340Y408010D02*
X245840D01*
X275887Y417703D02*
X298069D01*
X275760Y392430D02*
X275774Y392416D01*
X293984D01*
X275760Y379730D02*
Y392430D01*
X209550Y387510D02*
X243840D01*
X183610Y283350D02*
X187610D01*
X175610D02*
X179610D01*
X218440Y301638D02*
X236708D01*
X167610Y224650D02*
X171610D01*
X250190Y154432D02*
Y178308D01*
D65*
X107950Y173990D02*
Y186309D01*
X273050Y173990D02*
Y182626D01*
X243840Y387510D02*
X245070Y388740D01*
X255411D02*
X271706Y405035D01*
X245070Y388740D02*
X255411D01*
D66*
X127985Y96901D02*
X174881D01*
X144401Y118386D02*
Y151385D01*
X147915Y114872D02*
X173037D01*
Y110698D02*
X173736Y110000D01*
Y110000D02*
Y110000D01*
X173037Y114618D02*
X184590D01*
X188105Y118132D01*
Y147556D01*
X144401Y118386D02*
X147915Y114872D01*
X188849Y154432D02*
Y158046D01*
X77877Y89743D02*
Y129921D01*
X109230Y138313D02*
Y154051D01*
X144401Y151385D02*
X147447Y154432D01*
X155448D01*
X194056Y93472D02*
X210693Y110109D01*
X194056Y68072D02*
Y93472D01*
X210693Y110109D02*
X224155D01*
X260731Y153543D02*
X273177D01*
X174860Y48876D02*
X194056Y68072D01*
X106299Y154051D02*
X107950Y155702D01*
X93472Y154099D02*
X93520Y154051D01*
X93472Y154099D02*
Y154432D01*
X93520Y154051D02*
X106299D01*
X81310Y128467D02*
X99384D01*
X109230Y138313D01*
X73763Y134477D02*
X73844Y138466D01*
X74168Y154432D01*
X73660Y129413D02*
X73763Y134477D01*
X273177Y153543D02*
Y158623D01*
Y129371D02*
Y153543D01*
X254560Y110754D02*
X273177Y129371D01*
X273050Y158750D02*
X273177Y158623D01*
X224155Y110109D02*
Y153924D01*
X224663Y154432D02*
X240538D01*
X224155Y110109D02*
X252391D01*
X79405Y130469D02*
X81310Y128467D01*
X75485Y134442D02*
X77390Y132440D01*
X73580Y128092D02*
X75485Y126090D01*
X83105Y144348D02*
X85010Y142346D01*
X86280Y139649D02*
X88185Y137647D01*
Y142443D02*
X90090Y140441D01*
X90344Y143332D02*
X92249Y141330D01*
X87169Y147396D02*
X89074Y145394D01*
X125375Y89495D02*
Y94291D01*
X127985Y96901D01*
X188849Y148300D02*
Y153173D01*
X174752Y154432D02*
X187590D01*
D67*
X174881Y96901D02*
X178435D01*
X174028Y90292D02*
Y95290D01*
X106140Y156940D02*
Y157956D01*
X106934Y158750D01*
X107950D01*
X217043Y154432D02*
X224663D01*
X210825Y160650D02*
X217043Y154432D01*
X210825Y160650D02*
Y211348D01*
X224155Y153924D02*
X224663Y154432D01*
X83820Y147337D02*
X85725Y145432D01*
Y145161D02*
Y145432D01*
X124474Y75706D02*
X124968Y76200D01*
X116840Y62484D02*
X124474Y70118D01*
Y75706D01*
X84328Y62484D02*
X116840D01*
X79030Y67782D02*
X84328Y62484D01*
X79030Y67782D02*
Y76650D01*
D68*
X207264Y256032D02*
X210960D01*
X287870Y225186D02*
X288345Y224711D01*
X275336Y238760D02*
X287870Y226226D01*
Y225186D02*
Y226226D01*
X288345Y224711D02*
X289385D01*
X274320Y238760D02*
X275336D01*
X210960Y256032D02*
X271018D01*
X336756Y218440D02*
X355600D01*
X333375Y208407D02*
Y220551D01*
X296799Y207010D02*
X331978D01*
X333375Y208407D01*
X293370Y210439D02*
Y221186D01*
Y210439D02*
X296799Y207010D01*
X271018Y256032D02*
X274320Y252730D01*
Y238760D02*
Y252730D01*
D69*
X32454Y356045D02*
Y356045D01*
X179797Y295937D02*
Y295937D01*
X238216Y346356D02*
Y346356D01*
X239995Y334672D02*
Y334672D01*
X225898Y336450D02*
Y336450D01*
X16221Y189384D02*
Y189384D01*
X17872Y199543D02*
Y199543D01*
X16855Y207799D02*
Y207799D01*
X17364Y215800D02*
Y215800D01*
Y225452D02*
Y225452D01*
X16474Y239676D02*
Y239676D01*
X17364Y254280D02*
Y254280D01*
X18760Y381026D02*
Y381026D01*
X33238Y391567D02*
Y391567D01*
X34128Y345720D02*
Y345720D01*
X35905Y327560D02*
Y327560D01*
X47590Y288697D02*
Y288697D01*
X38700Y281712D02*
Y281712D01*
X36667Y269774D02*
Y269774D01*
X36286Y252757D02*
Y252757D01*
X37810Y237897D02*
Y237897D01*
X39843Y223039D02*
Y223039D01*
X41494Y206528D02*
Y206528D01*
X41620Y193193D02*
Y193193D01*
X38319Y180112D02*
Y180112D01*
X29302Y177572D02*
Y177572D01*
X21555Y181001D02*
Y181001D01*
X25908Y289903D02*
Y360914D01*
X40787Y375793D01*
X44210D02*
X46750Y378333D01*
X40787Y375793D02*
X44210D01*
X44755Y309576D02*
X61256Y293074D01*
Y293074D02*
Y293074D01*
D70*
X25908Y193548D02*
Y284099D01*
X44755Y302945D01*
D71*
X160147Y410279D02*
X187925D01*
X159059D02*
X160147D01*
X146290Y405999D02*
Y406400D01*
Y397510D02*
Y405999D01*
X302260Y413512D02*
Y442722D01*
Y403280D02*
Y413512D01*
Y442722D02*
X329184Y469646D01*
X113919Y461528D02*
Y469646D01*
Y461528D02*
X126241Y449207D01*
Y444186D02*
Y449207D01*
Y444186D02*
X160147Y410279D01*
X146290Y406400D02*
X146450Y406560D01*
X155340D01*
X159059Y410279D01*
X187925D02*
X187961Y410244D01*
X206816D01*
D72*
X314060Y77180D02*
D03*
X265060D02*
D03*
D73*
X329184Y469646D02*
D03*
X113919D02*
D03*
D74*
X72630Y66750D02*
D03*
X130430D02*
D03*
D75*
X144780Y31750D02*
D03*
X58280D02*
D03*
D76*
X144780Y71750D02*
D03*
X58280D02*
D03*
D77*
X126746Y210312D02*
D03*
X116078Y278257D02*
D03*
X109855Y284480D02*
D03*
X103632Y290830D02*
D03*
X102997Y233426D02*
D03*
X97663Y214630D02*
D03*
X97917Y275082D02*
D03*
X189230Y106934D02*
D03*
X180848Y362331D02*
D03*
X172720Y263652D02*
D03*
X167259D02*
D03*
X178816D02*
D03*
X184531D02*
D03*
X190627D02*
D03*
X196342D02*
D03*
X167259Y251714D02*
D03*
X172720D02*
D03*
X178816D02*
D03*
X184531D02*
D03*
X190627D02*
D03*
X196342D02*
D03*
X276860Y215011D02*
D03*
X269113Y212979D02*
D03*
X273304Y214884D02*
D03*
X301625Y189992D02*
D03*
X273050Y182626D02*
D03*
X107696Y182245D02*
D03*
X107950Y186309D02*
D03*
X196342Y240030D02*
D03*
X190627D02*
D03*
X184531D02*
D03*
X178816D02*
D03*
X172720D02*
D03*
X167259D02*
D03*
X196342Y245872D02*
D03*
X190627D02*
D03*
X184531D02*
D03*
X178816D02*
D03*
X172720D02*
D03*
X167259D02*
D03*
X196342Y257429D02*
D03*
X190627D02*
D03*
X184531D02*
D03*
X178816D02*
D03*
X172720D02*
D03*
X167259D02*
D03*
X196342Y269748D02*
D03*
X190627D02*
D03*
X184531D02*
D03*
X178816D02*
D03*
X172720D02*
D03*
X167259D02*
D03*
X293370Y253365D02*
D03*
X176784Y191008D02*
D03*
X178689Y195072D02*
D03*
X177038Y199009D02*
D03*
X175006Y201930D02*
D03*
X170688Y202946D02*
D03*
X166243Y202565D02*
D03*
X167132Y197739D02*
D03*
X162179Y199771D02*
D03*
X163322Y196342D02*
D03*
X159208Y195959D02*
D03*
X164084Y192405D02*
D03*
X161163Y192659D02*
D03*
X157099Y192913D02*
D03*
X184917Y212618D02*
D03*
X186182Y293370D02*
D03*
X182626Y293497D02*
D03*
X179197D02*
D03*
X176022D02*
D03*
X89027Y143129D02*
D03*
X86614D02*
D03*
X84201Y142367D02*
D03*
X91440Y141351D02*
D03*
X89281Y140462D02*
D03*
X86995Y140081D02*
D03*
X84836Y139827D02*
D03*
X88265Y145415D02*
D03*
X82804Y145669D02*
D03*
X168656Y134366D02*
D03*
X167513Y145288D02*
D03*
X164084Y144526D02*
D03*
X166370Y142113D02*
D03*
X163957Y141097D02*
D03*
X167640Y138811D02*
D03*
X166497Y136398D02*
D03*
X163957Y137033D02*
D03*
X251079Y132207D02*
D03*
X249174Y133858D02*
D03*
X251968Y135382D02*
D03*
X252349Y138049D02*
D03*
X249301Y140589D02*
D03*
X252476Y141097D02*
D03*
X251206Y143510D02*
D03*
X248412Y143637D02*
D03*
X251333Y146304D02*
D03*
X248920Y146177D02*
D03*
X243713Y342900D02*
D03*
X241046Y343916D02*
D03*
X238252Y342011D02*
D03*
X240665Y341376D02*
D03*
X243586Y339471D02*
D03*
X242697Y336423D02*
D03*
X239522D02*
D03*
X237363Y338074D02*
D03*
X208915Y296672D02*
D03*
X206209Y297886D02*
D03*
X207772Y299212D02*
D03*
X204597Y300228D02*
D03*
X200914Y297815D02*
D03*
X181483Y300101D02*
D03*
X177419Y299847D02*
D03*
X175895Y297053D02*
D03*
X188722Y297307D02*
D03*
X183515Y297434D02*
D03*
X186055Y297180D02*
D03*
X139954Y191008D02*
D03*
X234950Y239776D02*
D03*
X210825Y211348D02*
D03*
X132207Y112522D02*
D03*
X109887Y111284D02*
D03*
X174498Y194945D02*
D03*
X171958Y198731D02*
D03*
X169926Y193421D02*
D03*
X141864Y236494D02*
D03*
X220472Y223520D02*
D03*
X219583Y214122D02*
D03*
X249555Y137160D02*
D03*
X141737Y245003D02*
D03*
X220604Y189885D02*
D03*
X192024Y205105D02*
D03*
X197744Y212872D02*
D03*
X240289Y338729D02*
D03*
X223017Y246654D02*
D03*
X164973Y133477D02*
D03*
X188105Y147556D02*
D03*
X85725Y145161D02*
D03*
X227076Y233426D02*
D03*
X204089Y297942D02*
D03*
X331470Y187960D02*
D03*
X179900Y297298D02*
D03*
D78*
X66548Y197104D02*
D03*
X66675Y207772D02*
D03*
X38735Y191897D02*
D03*
X356108Y128651D02*
D03*
X339598D02*
D03*
X173736Y110000D02*
D03*
Y90000D02*
D03*
Y70000D02*
D03*
X174860Y48876D02*
D03*
X30861Y181864D02*
D03*
X17018Y184531D02*
D03*
X25908Y193548D02*
D03*
X32131Y216281D02*
D03*
X17526Y215646D02*
D03*
X31750Y227965D02*
D03*
X17653Y227711D02*
D03*
X29718Y241935D02*
D03*
X28829Y253873D02*
D03*
X17526Y254254D02*
D03*
X18034Y240538D02*
D03*
X17399Y197993D02*
D03*
X17907Y206375D02*
D03*
X33909Y203835D02*
D03*
M02*
