G04*
G04 #@! TF.GenerationSoftware,Altium Limited,Altium Designer,20.2.3 (150)*
G04*
G04 Layer_Color=8388736*
%FSLAX44Y44*%
%MOMM*%
G71*
G04*
G04 #@! TF.SameCoordinates,529A9E34-4FC0-4C7B-B34A-3B4898198E1E*
G04*
G04*
G04 #@! TF.FilePolarity,Positive*
G04*
G01*
G75*
%ADD19C,0.2540*%
%ADD79C,0.0508*%
G36*
X69088Y149352D02*
Y151892D01*
X70358D01*
X70611D01*
X71077Y151699D01*
X71435Y151341D01*
X71628Y150875D01*
Y150622D01*
D01*
Y149352D01*
X69088D01*
D02*
G37*
G36*
X150368D02*
Y151892D01*
X151638D01*
X151891D01*
X152357Y151699D01*
X152715Y151341D01*
X152908Y150875D01*
Y150622D01*
D01*
Y149352D01*
X150368D01*
D02*
G37*
G36*
X235458D02*
Y151892D01*
X236728D01*
X236981D01*
X237447Y151699D01*
X237805Y151341D01*
X237998Y150875D01*
Y150622D01*
D01*
Y149352D01*
X235458D01*
D02*
G37*
G36*
X256540Y160912D02*
X255634D01*
Y162299D01*
X252148D01*
X252805Y161087D01*
X251973Y160755D01*
X251067Y162483D01*
Y163343D01*
X255634D01*
Y164536D01*
X256540D01*
Y160912D01*
D02*
G37*
G36*
X254728Y159913D02*
X254848Y159904D01*
X254996Y159885D01*
X255144Y159858D01*
X255301Y159821D01*
X255458Y159774D01*
X255477Y159765D01*
X255523Y159747D01*
X255597Y159719D01*
X255689Y159673D01*
X255791Y159617D01*
X255902Y159552D01*
X256013Y159469D01*
X256115Y159377D01*
X256124Y159368D01*
X256161Y159331D01*
X256207Y159275D01*
X256263Y159201D01*
X256327Y159109D01*
X256383Y158998D01*
X256448Y158878D01*
X256503Y158739D01*
X256512Y158720D01*
X256521Y158674D01*
X256540Y158600D01*
X256568Y158498D01*
X256595Y158369D01*
X256614Y158230D01*
X256623Y158073D01*
X256632Y157898D01*
Y157814D01*
X256623Y157713D01*
X256614Y157592D01*
X256605Y157454D01*
X256577Y157297D01*
X256549Y157149D01*
X256503Y157001D01*
X256494Y156982D01*
X256475Y156936D01*
X256448Y156871D01*
X256411Y156788D01*
X256355Y156686D01*
X256290Y156585D01*
X256207Y156483D01*
X256124Y156390D01*
X256115Y156381D01*
X256078Y156354D01*
X256022Y156317D01*
X255958Y156261D01*
X255865Y156206D01*
X255763Y156150D01*
X255643Y156104D01*
X255514Y156058D01*
X255495D01*
X255449Y156039D01*
X255375Y156030D01*
X255273Y156011D01*
X255162Y155993D01*
X255024Y155975D01*
X254867Y155965D01*
X254709Y155956D01*
X251104D01*
Y156982D01*
X254654D01*
X254663D01*
X254700D01*
X254746D01*
X254811Y156992D01*
X254885D01*
X254968Y157001D01*
X255135Y157029D01*
X255144D01*
X255172Y157038D01*
X255209Y157047D01*
X255255Y157065D01*
X255375Y157121D01*
X255495Y157195D01*
X255504Y157204D01*
X255523Y157213D01*
X255541Y157241D01*
X255578Y157278D01*
X255652Y157371D01*
X255717Y157491D01*
Y157500D01*
X255726Y157519D01*
X255736Y157565D01*
X255754Y157611D01*
X255763Y157676D01*
X255782Y157750D01*
X255791Y157842D01*
Y158027D01*
X255782Y158083D01*
X255763Y158230D01*
X255736Y158369D01*
Y158378D01*
X255726Y158397D01*
X255708Y158434D01*
X255689Y158471D01*
X255625Y158563D01*
X255532Y158656D01*
X255523Y158665D01*
X255504Y158674D01*
X255477Y158693D01*
X255431Y158720D01*
X255375Y158748D01*
X255310Y158785D01*
X255162Y158831D01*
X255153D01*
X255125Y158841D01*
X255070Y158850D01*
X255005Y158868D01*
X254922Y158878D01*
X254830Y158887D01*
X254728Y158896D01*
X254608D01*
X251104D01*
Y159922D01*
X254543D01*
X254552D01*
X254561D01*
X254589D01*
X254626D01*
X254728Y159913D01*
D02*
G37*
G36*
X169934Y164517D02*
X170035Y164508D01*
X170146Y164490D01*
X170267Y164462D01*
X170396Y164425D01*
X170516Y164370D01*
X170535Y164360D01*
X170572Y164342D01*
X170627Y164305D01*
X170710Y164258D01*
X170794Y164194D01*
X170886Y164111D01*
X170979Y164018D01*
X171071Y163907D01*
X171080Y163898D01*
X171108Y163852D01*
X171145Y163787D01*
X171200Y163695D01*
X171256Y163584D01*
X171311Y163454D01*
X171367Y163297D01*
X171413Y163131D01*
Y163121D01*
X171422Y163112D01*
Y163084D01*
X171432Y163047D01*
X171450Y162955D01*
X171469Y162816D01*
X171496Y162659D01*
X171515Y162474D01*
X171524Y162262D01*
X171533Y162030D01*
Y161845D01*
X171524Y161735D01*
Y161679D01*
X171515Y161633D01*
Y161540D01*
X171506Y161420D01*
Y161365D01*
X171496Y161328D01*
X171487Y161235D01*
X171478Y161124D01*
Y161069D01*
X171469Y161041D01*
X171459Y160949D01*
X171450Y160865D01*
X170572D01*
Y160875D01*
X170581Y160912D01*
X170590Y160967D01*
X170599Y161032D01*
X170618Y161124D01*
X170627Y161217D01*
X170646Y161328D01*
X170655Y161448D01*
Y161503D01*
X170664Y161568D01*
Y161651D01*
X170673Y161753D01*
Y161873D01*
X170683Y162003D01*
Y162252D01*
X170673Y162335D01*
Y162428D01*
X170655Y162530D01*
X170627Y162724D01*
Y162733D01*
X170618Y162770D01*
X170599Y162807D01*
X170581Y162872D01*
X170535Y163001D01*
X170461Y163131D01*
X170452Y163140D01*
X170442Y163158D01*
X170415Y163186D01*
X170387Y163223D01*
X170303Y163306D01*
X170193Y163371D01*
X170183D01*
X170165Y163380D01*
X170128Y163399D01*
X170082Y163417D01*
X170026Y163426D01*
X169961Y163445D01*
X169823Y163454D01*
X169813D01*
X169795D01*
X169758D01*
X169712Y163445D01*
X169610Y163417D01*
X169499Y163371D01*
X169490D01*
X169471Y163353D01*
X169444Y163334D01*
X169416Y163306D01*
X169333Y163232D01*
X169249Y163121D01*
X169240Y163112D01*
X169231Y163094D01*
X169213Y163057D01*
X169194Y163010D01*
X169166Y162955D01*
X169139Y162881D01*
X169111Y162807D01*
X169092Y162715D01*
Y162705D01*
X169083Y162668D01*
X169074Y162622D01*
X169055Y162548D01*
X169046Y162465D01*
X169037Y162363D01*
X169028Y162243D01*
Y161522D01*
X168251D01*
Y162188D01*
X168242Y162262D01*
Y162354D01*
X168223Y162437D01*
X168214Y162530D01*
X168195Y162613D01*
Y162622D01*
X168186Y162650D01*
X168168Y162687D01*
X168149Y162733D01*
X168094Y162844D01*
X168020Y162955D01*
X168011Y162964D01*
X168001Y162973D01*
X167946Y163029D01*
X167863Y163084D01*
X167761Y163140D01*
X167752D01*
X167733Y163149D01*
X167705Y163158D01*
X167668Y163168D01*
X167567Y163186D01*
X167456Y163195D01*
X167437D01*
X167400D01*
X167345Y163186D01*
X167271Y163168D01*
X167188Y163140D01*
X167105Y163103D01*
X167021Y163047D01*
X166947Y162973D01*
X166938Y162964D01*
X166920Y162936D01*
X166892Y162881D01*
X166855Y162807D01*
X166827Y162715D01*
X166800Y162604D01*
X166781Y162465D01*
X166772Y162308D01*
Y162188D01*
X166781Y162104D01*
X166790Y162003D01*
X166800Y161892D01*
X166836Y161660D01*
Y161651D01*
X166846Y161605D01*
X166864Y161540D01*
X166883Y161466D01*
X166901Y161365D01*
X166938Y161254D01*
X167003Y161013D01*
X166152D01*
Y161023D01*
X166143Y161041D01*
X166134Y161078D01*
X166115Y161124D01*
X166088Y161245D01*
X166060Y161365D01*
Y161374D01*
X166051Y161392D01*
X166041Y161429D01*
X166032Y161476D01*
X166004Y161587D01*
X165986Y161707D01*
Y161716D01*
X165977Y161735D01*
Y161772D01*
X165967Y161818D01*
X165949Y161929D01*
X165940Y162049D01*
Y162077D01*
X165930Y162114D01*
Y162160D01*
X165921Y162280D01*
Y162493D01*
X165930Y162576D01*
Y162687D01*
X165949Y162807D01*
X165967Y162936D01*
X165986Y163066D01*
X166023Y163195D01*
Y163214D01*
X166041Y163251D01*
X166060Y163316D01*
X166088Y163399D01*
X166124Y163482D01*
X166171Y163584D01*
X166226Y163676D01*
X166291Y163769D01*
X166300Y163778D01*
X166319Y163806D01*
X166356Y163852D01*
X166411Y163898D01*
X166476Y163953D01*
X166550Y164018D01*
X166633Y164074D01*
X166726Y164120D01*
X166735Y164129D01*
X166772Y164138D01*
X166818Y164157D01*
X166892Y164185D01*
X166975Y164203D01*
X167068Y164222D01*
X167178Y164231D01*
X167290Y164240D01*
X167299D01*
X167308D01*
X167336D01*
X167373D01*
X167456Y164231D01*
X167576Y164212D01*
X167696Y164185D01*
X167835Y164138D01*
X167964Y164083D01*
X168085Y164009D01*
X168094Y164000D01*
X168131Y163963D01*
X168186Y163916D01*
X168260Y163843D01*
X168334Y163750D01*
X168408Y163639D01*
X168491Y163519D01*
X168556Y163371D01*
Y163380D01*
X168565Y163417D01*
X168575Y163463D01*
X168593Y163528D01*
X168612Y163602D01*
X168639Y163685D01*
X168704Y163843D01*
Y163852D01*
X168722Y163880D01*
X168741Y163916D01*
X168778Y163972D01*
X168852Y164083D01*
X168963Y164203D01*
X168972Y164212D01*
X168991Y164231D01*
X169028Y164258D01*
X169065Y164296D01*
X169120Y164333D01*
X169185Y164370D01*
X169333Y164443D01*
X169342D01*
X169370Y164453D01*
X169407Y164471D01*
X169462Y164490D01*
X169536Y164499D01*
X169610Y164517D01*
X169795Y164527D01*
X169813D01*
X169860D01*
X169934Y164517D01*
D02*
G37*
G36*
X169638Y159913D02*
X169758Y159904D01*
X169906Y159885D01*
X170054Y159858D01*
X170211Y159821D01*
X170368Y159774D01*
X170387Y159765D01*
X170433Y159747D01*
X170507Y159719D01*
X170599Y159673D01*
X170701Y159617D01*
X170812Y159552D01*
X170923Y159469D01*
X171025Y159377D01*
X171034Y159368D01*
X171071Y159331D01*
X171117Y159275D01*
X171173Y159201D01*
X171237Y159109D01*
X171293Y158998D01*
X171357Y158878D01*
X171413Y158739D01*
X171422Y158720D01*
X171432Y158674D01*
X171450Y158600D01*
X171478Y158498D01*
X171506Y158369D01*
X171524Y158230D01*
X171533Y158073D01*
X171542Y157898D01*
Y157814D01*
X171533Y157713D01*
X171524Y157592D01*
X171515Y157454D01*
X171487Y157297D01*
X171459Y157149D01*
X171413Y157001D01*
X171404Y156982D01*
X171385Y156936D01*
X171357Y156871D01*
X171321Y156788D01*
X171265Y156686D01*
X171200Y156585D01*
X171117Y156483D01*
X171034Y156390D01*
X171025Y156381D01*
X170988Y156354D01*
X170932Y156317D01*
X170868Y156261D01*
X170775Y156206D01*
X170673Y156150D01*
X170553Y156104D01*
X170424Y156058D01*
X170405D01*
X170359Y156039D01*
X170285Y156030D01*
X170183Y156011D01*
X170072Y155993D01*
X169934Y155975D01*
X169776Y155965D01*
X169619Y155956D01*
X166014D01*
Y156982D01*
X169564D01*
X169573D01*
X169610D01*
X169656D01*
X169721Y156992D01*
X169795D01*
X169878Y157001D01*
X170045Y157029D01*
X170054D01*
X170082Y157038D01*
X170119Y157047D01*
X170165Y157065D01*
X170285Y157121D01*
X170405Y157195D01*
X170415Y157204D01*
X170433Y157213D01*
X170452Y157241D01*
X170488Y157278D01*
X170562Y157371D01*
X170627Y157491D01*
Y157500D01*
X170636Y157519D01*
X170646Y157565D01*
X170664Y157611D01*
X170673Y157676D01*
X170692Y157750D01*
X170701Y157842D01*
Y158027D01*
X170692Y158083D01*
X170673Y158230D01*
X170646Y158369D01*
Y158378D01*
X170636Y158397D01*
X170618Y158434D01*
X170599Y158471D01*
X170535Y158563D01*
X170442Y158656D01*
X170433Y158665D01*
X170415Y158674D01*
X170387Y158693D01*
X170340Y158720D01*
X170285Y158748D01*
X170220Y158785D01*
X170072Y158831D01*
X170063D01*
X170035Y158841D01*
X169980Y158850D01*
X169915Y158868D01*
X169832Y158878D01*
X169740Y158887D01*
X169638Y158896D01*
X169518D01*
X166014D01*
Y159922D01*
X169453D01*
X169462D01*
X169471D01*
X169499D01*
X169536D01*
X169638Y159913D01*
D02*
G37*
G36*
X89060Y163972D02*
X90170D01*
Y162973D01*
X89060D01*
Y160449D01*
X88191D01*
X84734Y162567D01*
Y163972D01*
X88164D01*
Y164795D01*
X89060D01*
Y163972D01*
D02*
G37*
G36*
X88358Y159913D02*
X88478Y159904D01*
X88626Y159885D01*
X88774Y159858D01*
X88931Y159821D01*
X89088Y159774D01*
X89107Y159765D01*
X89153Y159747D01*
X89227Y159719D01*
X89319Y159673D01*
X89421Y159617D01*
X89532Y159552D01*
X89643Y159469D01*
X89745Y159377D01*
X89754Y159368D01*
X89791Y159331D01*
X89837Y159275D01*
X89893Y159201D01*
X89957Y159109D01*
X90013Y158998D01*
X90077Y158878D01*
X90133Y158739D01*
X90142Y158720D01*
X90152Y158674D01*
X90170Y158600D01*
X90198Y158498D01*
X90225Y158369D01*
X90244Y158230D01*
X90253Y158073D01*
X90262Y157898D01*
Y157814D01*
X90253Y157713D01*
X90244Y157592D01*
X90235Y157454D01*
X90207Y157297D01*
X90179Y157149D01*
X90133Y157001D01*
X90124Y156982D01*
X90105Y156936D01*
X90077Y156871D01*
X90041Y156788D01*
X89985Y156686D01*
X89920Y156585D01*
X89837Y156483D01*
X89754Y156390D01*
X89745Y156381D01*
X89708Y156354D01*
X89652Y156317D01*
X89587Y156261D01*
X89495Y156206D01*
X89393Y156150D01*
X89273Y156104D01*
X89144Y156058D01*
X89125D01*
X89079Y156039D01*
X89005Y156030D01*
X88903Y156011D01*
X88792Y155993D01*
X88654Y155975D01*
X88497Y155965D01*
X88339Y155956D01*
X84734D01*
Y156982D01*
X88284D01*
X88293D01*
X88330D01*
X88376D01*
X88441Y156992D01*
X88515D01*
X88598Y157001D01*
X88765Y157029D01*
X88774D01*
X88802Y157038D01*
X88839Y157047D01*
X88885Y157065D01*
X89005Y157121D01*
X89125Y157195D01*
X89135Y157204D01*
X89153Y157213D01*
X89171Y157241D01*
X89208Y157278D01*
X89282Y157371D01*
X89347Y157491D01*
Y157500D01*
X89356Y157519D01*
X89366Y157565D01*
X89384Y157611D01*
X89393Y157676D01*
X89412Y157750D01*
X89421Y157842D01*
Y158027D01*
X89412Y158083D01*
X89393Y158230D01*
X89366Y158369D01*
Y158378D01*
X89356Y158397D01*
X89338Y158434D01*
X89319Y158471D01*
X89255Y158563D01*
X89162Y158656D01*
X89153Y158665D01*
X89135Y158674D01*
X89107Y158693D01*
X89060Y158720D01*
X89005Y158748D01*
X88940Y158785D01*
X88792Y158831D01*
X88783D01*
X88755Y158841D01*
X88700Y158850D01*
X88635Y158868D01*
X88552Y158878D01*
X88460Y158887D01*
X88358Y158896D01*
X88238D01*
X84734D01*
Y159922D01*
X88173D01*
X88182D01*
X88191D01*
X88219D01*
X88256D01*
X88358Y159913D01*
D02*
G37*
%LPC*%
G36*
X88164Y162992D02*
X85723D01*
X88164Y161439D01*
Y162992D01*
D02*
G37*
%LPD*%
D19*
X0Y50000D02*
G03*
X50000Y0I50000J0D01*
G01*
X400000D02*
G03*
X450000Y50000I0J50000D01*
G01*
Y450000D02*
G03*
X400000Y500000I-50000J0D01*
G01*
X50000D02*
G03*
X0Y450000I0J-50000D01*
G01*
X50000Y0D02*
X400000D01*
X50000Y500000D02*
X400000D01*
X450000Y50000D02*
Y450000D01*
X0Y50000D02*
Y450000D01*
D79*
X194818Y154178D02*
Y178562D01*
X183642Y154178D02*
X194818D01*
X183642D02*
Y178562D01*
X194818D01*
X278638Y154178D02*
Y178562D01*
X267462Y154178D02*
X278638D01*
X267462D02*
Y178562D01*
X278638D01*
X307340Y146050D02*
X370840D01*
Y184150D01*
X307340D02*
X370840D01*
X307340Y146050D02*
Y184150D01*
X235458Y183388D02*
X264922D01*
X235458Y149352D02*
Y183388D01*
X264922Y149352D02*
Y183388D01*
X235458Y149352D02*
X264922D01*
X150368Y183388D02*
X179832D01*
X150368Y149352D02*
Y183388D01*
X179832Y149352D02*
Y183388D01*
X150368Y149352D02*
X179832D01*
X113538Y154178D02*
Y178562D01*
X102362Y154178D02*
X113538D01*
X102362D02*
Y178562D01*
X113538D01*
X69088Y183388D02*
X98552D01*
X69088Y149352D02*
Y183388D01*
X98552Y149352D02*
Y183388D01*
X69088Y149352D02*
X98552D01*
X180340Y383573D02*
Y411513D01*
X195580D01*
X180340Y383573D02*
X195580D01*
Y411513D01*
X192532Y327152D02*
X203708D01*
X192532Y302768D02*
Y327152D01*
Y302768D02*
X203708D01*
Y327152D01*
X181102D02*
X192278D01*
X181102Y302768D02*
Y327152D01*
Y302768D02*
X192278D01*
Y327152D01*
X169672D02*
X180848D01*
X169672Y302768D02*
Y327152D01*
Y302768D02*
X180848D01*
Y327152D01*
X158242D02*
X169418D01*
X158242Y302768D02*
Y327152D01*
Y302768D02*
X169418D01*
Y327152D01*
X268732Y218948D02*
X279908D01*
Y243332D01*
X268732D02*
X279908D01*
X268732Y218948D02*
Y243332D01*
M02*
