M48
;Layer_Color=9474304
;FILE_FORMAT=4:4
METRIC,LZ
;TYPE=PLATED
T1F00S00C0.3110
T3F00S00C0.6500
T4F00S00C0.7112
T5F00S00C3.0000
;TYPE=NON_PLATED
T6F00S00C1.5000
%
T01
X00109887Y00111284
X00132207Y00112522
X0009144Y00141351
X00089281Y00140462
X00086995Y00140081
X00084836Y00139827
X00084201Y00142367
X00163957Y00141097
X0016637Y00142113
X0016764Y00138811
X00166497Y00136398
X00163957Y00137033
X00164973Y00133477
X00168656Y00134366
X0018923Y00106934
X00249174Y00133858
X00251079Y00132207
X00251968Y00135382
X00252349Y00138049
X00252476Y00141097
X00249301Y00140589
X00249555Y0013716
X00248412Y00143637
X00251206Y0014351
X00251333Y00146304
X0024892Y00146177
X0027305Y00182626
X00273304Y00214884
X0027686Y00215011
X00269113Y00212979
X00219583Y00214122
X00220472Y0022352
X00227076Y00233426
X0023495Y00239776
X00223017Y00246654
X00196342Y00245872
X00190627
Y00251714
X00196342
Y00257429
X00190627
X00184531
Y00251714
X00178816
Y00257429
X0017272
X00167259
Y00251714
X0017272
Y00245872
X00167259
Y0024003
X0017272
X00178816
X00184531
Y00245872
X00178816
X00190627Y0024003
X00196342
Y00263652
X00190627
X00184531
X00178816
X0017272
X00167259
Y00269748
X0017272
X00178816
X00184531
X00190627
X00196342
X00200914Y00297815
X00204089Y00297942
X00206209Y00297886
X00207772Y00299212
X00208915Y00296672
X00204597Y00300228
X00188722Y00297307
X00186055Y0029718
X00183515Y00297434
X001799Y00297298
X00175895Y00297053
X00176022Y00293497
X00179197
X00182626
X00186182Y0029337
X00181483Y00300101
X00177419Y00299847
X00180848Y00362331
X00238252Y00342011
X00240665Y00341376
X00241046Y00343916
X00243713Y003429
X00243586Y00339471
X00242697Y00336423
X00239522
X00240289Y00338729
X00237363Y00338074
X0029337Y00253365
X00301625Y00189992
X0033147Y0018796
X00220604Y00189885
X00210825Y00211348
X00197744Y00212872
X00184917Y00212618
X00192024Y00205105
X00175006Y0020193
X00177038Y00199009
X00171958Y00198731
X00170688Y00202946
X00166243Y00202565
X00167132Y00197739
X00163322Y00196342
X00159208Y00195959
X00157099Y00192913
X00161163Y00192659
X00164084Y00192405
X00169926Y00193421
X00174498Y00194945
X00178689Y00195072
X00176784Y00191008
X00162179Y00199771
X00164084Y00144526
X00167513Y00145288
X00188105Y00147556
X00139954Y00191008
X00126746Y00210312
X00097663Y0021463
X00102997Y00233426
X00141864Y00236494
X00141737Y00245003
X00116078Y00278257
X00109855Y0028448
X00103632Y0029083
X00097917Y00275082
X0010795Y00186309
X00107696Y00182245
X00088265Y00145415
X00085725Y00145161
X00086614Y00143129
X00089027
X00082804Y00145669
T03
X0007263Y0006675
X0013043
T04
X0017486Y00048876
X00173736Y0007
Y0009
Y0011
X00339598Y00128651
X00356108
X00066548Y00197104
X00066675Y00207772
X00033909Y00203835
X00032131Y00216281
X0003175Y00227965
X00017653Y00227711
X00017526Y00215646
X00017907Y00206375
X00017399Y00197993
X00025908Y00193548
X00038735Y00191897
X00030861Y00181864
X00017018Y00184531
X00018034Y00240538
X00029718Y00241935
X00028829Y00253873
X00017526Y00254254
T05
X00329184Y00469646
X00113919
T06
X0026506Y0007718
X0031406
M30
