G04*
G04 #@! TF.GenerationSoftware,Altium Limited,Altium Designer,20.2.3 (150)*
G04*
G04 Layer_Color=128*
%FSLAX44Y44*%
%MOMM*%
G71*
G04*
G04 #@! TF.SameCoordinates,529A9E34-4FC0-4C7B-B34A-3B4898198E1E*
G04*
G04*
G04 #@! TF.FilePolarity,Positive*
G04*
G01*
G75*
%ADD19C,0.2540*%
%ADD79C,0.0508*%
D19*
X0Y50000D02*
G03*
X50000Y0I50000J0D01*
G01*
X400000D02*
G03*
X450000Y50000I0J50000D01*
G01*
Y450000D02*
G03*
X400000Y500000I-50000J0D01*
G01*
X50000D02*
G03*
X0Y450000I0J-50000D01*
G01*
X50000Y0D02*
X400000D01*
X50000Y500000D02*
X400000D01*
X450000Y50000D02*
Y450000D01*
X0Y50000D02*
Y450000D01*
D79*
X306560Y77180D02*
X321560D01*
X314060Y69680D02*
Y84680D01*
X257560Y77180D02*
X272560D01*
X265060Y69680D02*
Y84680D01*
X314184Y469646D02*
X344184D01*
X329184Y454646D02*
Y484646D01*
X98919Y469646D02*
X128919D01*
X113919Y454646D02*
Y484646D01*
X69380Y66750D02*
X75880D01*
X72630Y63500D02*
Y70000D01*
X127180Y66750D02*
X133680D01*
X130430Y63500D02*
Y70000D01*
X141780Y31750D02*
X147780D01*
X144780Y28750D02*
Y34750D01*
X55280Y31750D02*
X61280D01*
X58280Y28750D02*
Y34750D01*
X141780Y71750D02*
X147780D01*
X144780Y68750D02*
Y74750D01*
X55280Y71750D02*
X61280D01*
X58280Y68750D02*
Y74750D01*
X125191Y210312D02*
X128301D01*
X126746Y208757D02*
Y211867D01*
X114523Y278257D02*
X117633D01*
X116078Y276702D02*
Y279812D01*
X108300Y284480D02*
X111410D01*
X109855Y282925D02*
Y286035D01*
X102077Y290830D02*
X105187D01*
X103632Y289275D02*
Y292385D01*
X101442Y233426D02*
X104552D01*
X102997Y231871D02*
Y234981D01*
X96108Y214630D02*
X99218D01*
X97663Y213075D02*
Y216185D01*
X96362Y275082D02*
X99472D01*
X97917Y273527D02*
Y276637D01*
X187675Y106934D02*
X190785D01*
X189230Y105379D02*
Y108489D01*
X179293Y362331D02*
X182403D01*
X180848Y360776D02*
Y363886D01*
X171165Y263652D02*
X174275D01*
X172720Y262097D02*
Y265207D01*
X165704Y263652D02*
X168814D01*
X167259Y262097D02*
Y265207D01*
X177261Y263652D02*
X180371D01*
X178816Y262097D02*
Y265207D01*
X182976Y263652D02*
X186086D01*
X184531Y262097D02*
Y265207D01*
X189072Y263652D02*
X192182D01*
X190627Y262097D02*
Y265207D01*
X194787Y263652D02*
X197897D01*
X196342Y262097D02*
Y265207D01*
X165704Y251714D02*
X168814D01*
X167259Y250159D02*
Y253269D01*
X171165Y251714D02*
X174275D01*
X172720Y250159D02*
Y253269D01*
X177261Y251714D02*
X180371D01*
X178816Y250159D02*
Y253269D01*
X182976Y251714D02*
X186086D01*
X184531Y250159D02*
Y253269D01*
X189072Y251714D02*
X192182D01*
X190627Y250159D02*
Y253269D01*
X194787Y251714D02*
X197897D01*
X196342Y250159D02*
Y253269D01*
X275305Y215011D02*
X278415D01*
X276860Y213456D02*
Y216566D01*
X267558Y212979D02*
X270668D01*
X269113Y211424D02*
Y214534D01*
X271749Y214884D02*
X274859D01*
X273304Y213329D02*
Y216439D01*
X300070Y189992D02*
X303180D01*
X301625Y188437D02*
Y191547D01*
X271495Y182626D02*
X274605D01*
X273050Y181071D02*
Y184181D01*
X106141Y182245D02*
X109251D01*
X107696Y180690D02*
Y183800D01*
X106395Y186309D02*
X109505D01*
X107950Y184754D02*
Y187864D01*
X62992Y197104D02*
X70104D01*
X66548Y193548D02*
Y200660D01*
X63119Y207772D02*
X70231D01*
X66675Y204216D02*
Y211328D01*
X35179Y191897D02*
X42291D01*
X38735Y188341D02*
Y195453D01*
X352552Y128651D02*
X359664D01*
X356108Y125095D02*
Y132207D01*
X336042Y128651D02*
X343154D01*
X339598Y125095D02*
Y132207D01*
X170180Y110000D02*
X177292D01*
X173736Y106444D02*
Y113556D01*
X170180Y90000D02*
X177292D01*
X173736Y86444D02*
Y93556D01*
X170180Y70000D02*
X177292D01*
X173736Y66444D02*
Y73556D01*
X171304Y48876D02*
X178416D01*
X174860Y45320D02*
Y52432D01*
X194787Y240030D02*
X197897D01*
X196342Y238475D02*
Y241585D01*
X189072Y240030D02*
X192182D01*
X190627Y238475D02*
Y241585D01*
X182976Y240030D02*
X186086D01*
X184531Y238475D02*
Y241585D01*
X177261Y240030D02*
X180371D01*
X178816Y238475D02*
Y241585D01*
X171165Y240030D02*
X174275D01*
X172720Y238475D02*
Y241585D01*
X165704Y240030D02*
X168814D01*
X167259Y238475D02*
Y241585D01*
X194787Y245872D02*
X197897D01*
X196342Y244317D02*
Y247427D01*
X189072Y245872D02*
X192182D01*
X190627Y244317D02*
Y247427D01*
X182976Y245872D02*
X186086D01*
X184531Y244317D02*
Y247427D01*
X177261Y245872D02*
X180371D01*
X178816Y244317D02*
Y247427D01*
X171165Y245872D02*
X174275D01*
X172720Y244317D02*
Y247427D01*
X165704Y245872D02*
X168814D01*
X167259Y244317D02*
Y247427D01*
X194787Y257429D02*
X197897D01*
X196342Y255874D02*
Y258984D01*
X189072Y257429D02*
X192182D01*
X190627Y255874D02*
Y258984D01*
X182976Y257429D02*
X186086D01*
X184531Y255874D02*
Y258984D01*
X177261Y257429D02*
X180371D01*
X178816Y255874D02*
Y258984D01*
X171165Y257429D02*
X174275D01*
X172720Y255874D02*
Y258984D01*
X165704Y257429D02*
X168814D01*
X167259Y255874D02*
Y258984D01*
X194787Y269748D02*
X197897D01*
X196342Y268193D02*
Y271303D01*
X189072Y269748D02*
X192182D01*
X190627Y268193D02*
Y271303D01*
X182976Y269748D02*
X186086D01*
X184531Y268193D02*
Y271303D01*
X177261Y269748D02*
X180371D01*
X178816Y268193D02*
Y271303D01*
X171165Y269748D02*
X174275D01*
X172720Y268193D02*
Y271303D01*
X165704Y269748D02*
X168814D01*
X167259Y268193D02*
Y271303D01*
X291815Y253365D02*
X294925D01*
X293370Y251810D02*
Y254920D01*
X175229Y191008D02*
X178339D01*
X176784Y189453D02*
Y192563D01*
X177134Y195072D02*
X180244D01*
X178689Y193517D02*
Y196627D01*
X175483Y199009D02*
X178593D01*
X177038Y197454D02*
Y200564D01*
X173451Y201930D02*
X176561D01*
X175006Y200375D02*
Y203485D01*
X169133Y202946D02*
X172243D01*
X170688Y201391D02*
Y204501D01*
X164688Y202565D02*
X167798D01*
X166243Y201010D02*
Y204120D01*
X165577Y197739D02*
X168687D01*
X167132Y196184D02*
Y199294D01*
X160624Y199771D02*
X163734D01*
X162179Y198216D02*
Y201326D01*
X161767Y196342D02*
X164877D01*
X163322Y194787D02*
Y197897D01*
X157653Y195959D02*
X160763D01*
X159208Y194404D02*
Y197514D01*
X162529Y192405D02*
X165639D01*
X164084Y190850D02*
Y193960D01*
X159608Y192659D02*
X162718D01*
X161163Y191104D02*
Y194214D01*
X155544Y192913D02*
X158654D01*
X157099Y191358D02*
Y194468D01*
X183362Y212618D02*
X186472D01*
X184917Y211063D02*
Y214173D01*
X184627Y293370D02*
X187737D01*
X186182Y291815D02*
Y294925D01*
X181071Y293497D02*
X184181D01*
X182626Y291942D02*
Y295052D01*
X177642Y293497D02*
X180752D01*
X179197Y291942D02*
Y295052D01*
X174467Y293497D02*
X177577D01*
X176022Y291942D02*
Y295052D01*
X87472Y143129D02*
X90582D01*
X89027Y141574D02*
Y144684D01*
X85059Y143129D02*
X88169D01*
X86614Y141574D02*
Y144684D01*
X82646Y142367D02*
X85756D01*
X84201Y140812D02*
Y143922D01*
X89885Y141351D02*
X92995D01*
X91440Y139796D02*
Y142906D01*
X87726Y140462D02*
X90836D01*
X89281Y138907D02*
Y142017D01*
X85440Y140081D02*
X88550D01*
X86995Y138526D02*
Y141636D01*
X83281Y139827D02*
X86391D01*
X84836Y138272D02*
Y141382D01*
X27305Y181864D02*
X34417D01*
X30861Y178308D02*
Y185420D01*
X13462Y184531D02*
X20574D01*
X17018Y180975D02*
Y188087D01*
X22352Y193548D02*
X29464D01*
X25908Y189992D02*
Y197104D01*
X28575Y216281D02*
X35687D01*
X32131Y212725D02*
Y219837D01*
X13970Y215646D02*
X21082D01*
X17526Y212090D02*
Y219202D01*
X28194Y227965D02*
X35306D01*
X31750Y224409D02*
Y231521D01*
X14097Y227711D02*
X21209D01*
X17653Y224155D02*
Y231267D01*
X26162Y241935D02*
X33274D01*
X29718Y238379D02*
Y245491D01*
X25273Y253873D02*
X32385D01*
X28829Y250317D02*
Y257429D01*
X13970Y254254D02*
X21082D01*
X17526Y250698D02*
Y257810D01*
X14478Y240538D02*
X21590D01*
X18034Y236982D02*
Y244094D01*
X13843Y197993D02*
X20955D01*
X17399Y194437D02*
Y201549D01*
X14351Y206375D02*
X21463D01*
X17907Y202819D02*
Y209931D01*
X30353Y203835D02*
X37465D01*
X33909Y200279D02*
Y207391D01*
X86710Y145415D02*
X89820D01*
X88265Y143860D02*
Y146970D01*
X81249Y145669D02*
X84359D01*
X82804Y144114D02*
Y147224D01*
X167101Y134366D02*
X170211D01*
X168656Y132811D02*
Y135921D01*
X165958Y145288D02*
X169068D01*
X167513Y143733D02*
Y146843D01*
X162529Y144526D02*
X165639D01*
X164084Y142971D02*
Y146081D01*
X164815Y142113D02*
X167925D01*
X166370Y140558D02*
Y143668D01*
X162402Y141097D02*
X165512D01*
X163957Y139542D02*
Y142652D01*
X166085Y138811D02*
X169195D01*
X167640Y137256D02*
Y140366D01*
X164942Y136398D02*
X168052D01*
X166497Y134843D02*
Y137953D01*
X162402Y137033D02*
X165512D01*
X163957Y135478D02*
Y138588D01*
X249524Y132207D02*
X252634D01*
X251079Y130652D02*
Y133762D01*
X247619Y133858D02*
X250729D01*
X249174Y132303D02*
Y135413D01*
X250413Y135382D02*
X253523D01*
X251968Y133827D02*
Y136937D01*
X250794Y138049D02*
X253904D01*
X252349Y136494D02*
Y139604D01*
X247746Y140589D02*
X250856D01*
X249301Y139034D02*
Y142144D01*
X250921Y141097D02*
X254031D01*
X252476Y139542D02*
Y142652D01*
X249651Y143510D02*
X252761D01*
X251206Y141955D02*
Y145065D01*
X246857Y143637D02*
X249967D01*
X248412Y142082D02*
Y145192D01*
X249778Y146304D02*
X252888D01*
X251333Y144749D02*
Y147859D01*
X247365Y146177D02*
X250475D01*
X248920Y144622D02*
Y147732D01*
X242158Y342900D02*
X245268D01*
X243713Y341345D02*
Y344455D01*
X239491Y343916D02*
X242601D01*
X241046Y342361D02*
Y345471D01*
X236697Y342011D02*
X239807D01*
X238252Y340456D02*
Y343566D01*
X239110Y341376D02*
X242220D01*
X240665Y339821D02*
Y342931D01*
X242031Y339471D02*
X245141D01*
X243586Y337916D02*
Y341026D01*
X241142Y336423D02*
X244252D01*
X242697Y334868D02*
Y337978D01*
X237967Y336423D02*
X241077D01*
X239522Y334868D02*
Y337978D01*
X235808Y338074D02*
X238918D01*
X237363Y336519D02*
Y339629D01*
X207360Y296672D02*
X210470D01*
X208915Y295117D02*
Y298227D01*
X204654Y297886D02*
X207764D01*
X206209Y296331D02*
Y299441D01*
X206217Y299212D02*
X209327D01*
X207772Y297657D02*
Y300767D01*
X203042Y300228D02*
X206152D01*
X204597Y298673D02*
Y301783D01*
X199359Y297815D02*
X202469D01*
X200914Y296260D02*
Y299370D01*
X179928Y300101D02*
X183038D01*
X181483Y298546D02*
Y301656D01*
X175864Y299847D02*
X178974D01*
X177419Y298292D02*
Y301402D01*
X174340Y297053D02*
X177450D01*
X175895Y295498D02*
Y298608D01*
X187167Y297307D02*
X190277D01*
X188722Y295752D02*
Y298862D01*
X181960Y297434D02*
X185070D01*
X183515Y295879D02*
Y298989D01*
X184500Y297180D02*
X187610D01*
X186055Y295625D02*
Y298735D01*
X138399Y191008D02*
X141509D01*
X139954Y189453D02*
Y192563D01*
X233395Y239776D02*
X236505D01*
X234950Y238221D02*
Y241331D01*
X209270Y211348D02*
X212380D01*
X210825Y209793D02*
Y212903D01*
X130652Y112522D02*
X133762D01*
X132207Y110967D02*
Y114077D01*
X108332Y111284D02*
X111442D01*
X109887Y109729D02*
Y112839D01*
X172943Y194945D02*
X176053D01*
X174498Y193390D02*
Y196500D01*
X170403Y198731D02*
X173513D01*
X171958Y197176D02*
Y200286D01*
X168371Y193421D02*
X171481D01*
X169926Y191866D02*
Y194976D01*
X140309Y236494D02*
X143419D01*
X141864Y234939D02*
Y238049D01*
X218917Y223520D02*
X222027D01*
X220472Y221965D02*
Y225075D01*
X218028Y214122D02*
X221138D01*
X219583Y212567D02*
Y215677D01*
X248000Y137160D02*
X251110D01*
X249555Y135605D02*
Y138715D01*
X140182Y245003D02*
X143292D01*
X141737Y243448D02*
Y246558D01*
X219049Y189885D02*
X222159D01*
X220604Y188330D02*
Y191440D01*
X190469Y205105D02*
X193579D01*
X192024Y203550D02*
Y206660D01*
X196189Y212872D02*
X199299D01*
X197744Y211317D02*
Y214427D01*
X238734Y338729D02*
X241844D01*
X240289Y337174D02*
Y340284D01*
X221462Y246654D02*
X224572D01*
X223017Y245099D02*
Y248209D01*
X163418Y133477D02*
X166528D01*
X164973Y131922D02*
Y135032D01*
X186550Y147556D02*
X189660D01*
X188105Y146001D02*
Y149111D01*
X84170Y145161D02*
X87280D01*
X85725Y143606D02*
Y146716D01*
X225521Y233426D02*
X228631D01*
X227076Y231871D02*
Y234981D01*
X202534Y297942D02*
X205644D01*
X204089Y296387D02*
Y299497D01*
X329915Y187960D02*
X333025D01*
X331470Y186405D02*
Y189515D01*
X178344Y297298D02*
X181455D01*
X179900Y295743D02*
Y298853D01*
M02*
