G04*
G04 #@! TF.GenerationSoftware,Altium Limited,Altium Designer,20.2.3 (150)*
G04*
G04 Layer_Color=255*
%FSLAX44Y44*%
%MOMM*%
G71*
G04*
G04 #@! TF.SameCoordinates,529A9E34-4FC0-4C7B-B34A-3B4898198E1E*
G04*
G04*
G04 #@! TF.FilePolarity,Positive*
G04*
G01*
G75*
%ADD19C,0.2540*%
G04:AMPARAMS|DCode=20|XSize=0.4064mm|YSize=0.4064mm|CornerRadius=0.2032mm|HoleSize=0mm|Usage=FLASHONLY|Rotation=90.000|XOffset=0mm|YOffset=0mm|HoleType=Round|Shape=RoundedRectangle|*
%AMROUNDEDRECTD20*
21,1,0.4064,0.0000,0,0,90.0*
21,1,0.0000,0.4064,0,0,90.0*
1,1,0.4064,0.0000,0.0000*
1,1,0.4064,0.0000,0.0000*
1,1,0.4064,0.0000,0.0000*
1,1,0.4064,0.0000,0.0000*
%
%ADD20ROUNDEDRECTD20*%
G04:AMPARAMS|DCode=21|XSize=0.762mm|YSize=0.5588mm|CornerRadius=0.1397mm|HoleSize=0mm|Usage=FLASHONLY|Rotation=0.000|XOffset=0mm|YOffset=0mm|HoleType=Round|Shape=RoundedRectangle|*
%AMROUNDEDRECTD21*
21,1,0.7620,0.2794,0,0,0.0*
21,1,0.4826,0.5588,0,0,0.0*
1,1,0.2794,0.2413,-0.1397*
1,1,0.2794,-0.2413,-0.1397*
1,1,0.2794,-0.2413,0.1397*
1,1,0.2794,0.2413,0.1397*
%
%ADD21ROUNDEDRECTD21*%
%ADD22R,1.4000X1.1000*%
%ADD23R,1.3000X1.0000*%
G04:AMPARAMS|DCode=24|XSize=1.27mm|YSize=0.762mm|CornerRadius=0.1905mm|HoleSize=0mm|Usage=FLASHONLY|Rotation=0.000|XOffset=0mm|YOffset=0mm|HoleType=Round|Shape=RoundedRectangle|*
%AMROUNDEDRECTD24*
21,1,1.2700,0.3810,0,0,0.0*
21,1,0.8890,0.7620,0,0,0.0*
1,1,0.3810,0.4445,-0.1905*
1,1,0.3810,-0.4445,-0.1905*
1,1,0.3810,-0.4445,0.1905*
1,1,0.3810,0.4445,0.1905*
%
%ADD24ROUNDEDRECTD24*%
G04:AMPARAMS|DCode=25|XSize=2.032mm|YSize=2.032mm|CornerRadius=0.508mm|HoleSize=0mm|Usage=FLASHONLY|Rotation=0.000|XOffset=0mm|YOffset=0mm|HoleType=Round|Shape=RoundedRectangle|*
%AMROUNDEDRECTD25*
21,1,2.0320,1.0160,0,0,0.0*
21,1,1.0160,2.0320,0,0,0.0*
1,1,1.0160,0.5080,-0.5080*
1,1,1.0160,-0.5080,-0.5080*
1,1,1.0160,-0.5080,0.5080*
1,1,1.0160,0.5080,0.5080*
%
%ADD25ROUNDEDRECTD25*%
G04:AMPARAMS|DCode=26|XSize=1.27mm|YSize=1.8mm|CornerRadius=0.3175mm|HoleSize=0mm|Usage=FLASHONLY|Rotation=0.000|XOffset=0mm|YOffset=0mm|HoleType=Round|Shape=RoundedRectangle|*
%AMROUNDEDRECTD26*
21,1,1.2700,1.1650,0,0,0.0*
21,1,0.6350,1.8000,0,0,0.0*
1,1,0.6350,0.3175,-0.5825*
1,1,0.6350,-0.3175,-0.5825*
1,1,0.6350,-0.3175,0.5825*
1,1,0.6350,0.3175,0.5825*
%
%ADD26ROUNDEDRECTD26*%
G04:AMPARAMS|DCode=27|XSize=0.6096mm|YSize=0.762mm|CornerRadius=0.1524mm|HoleSize=0mm|Usage=FLASHONLY|Rotation=0.000|XOffset=0mm|YOffset=0mm|HoleType=Round|Shape=RoundedRectangle|*
%AMROUNDEDRECTD27*
21,1,0.6096,0.4572,0,0,0.0*
21,1,0.3048,0.7620,0,0,0.0*
1,1,0.3048,0.1524,-0.2286*
1,1,0.3048,-0.1524,-0.2286*
1,1,0.3048,-0.1524,0.2286*
1,1,0.3048,0.1524,0.2286*
%
%ADD27ROUNDEDRECTD27*%
%ADD28R,1.1000X1.4000*%
%ADD29O,1.3000X0.5000*%
G04:AMPARAMS|DCode=30|XSize=3.2mm|YSize=2.3mm|CornerRadius=0.575mm|HoleSize=0mm|Usage=FLASHONLY|Rotation=270.000|XOffset=0mm|YOffset=0mm|HoleType=Round|Shape=RoundedRectangle|*
%AMROUNDEDRECTD30*
21,1,3.2000,1.1500,0,0,270.0*
21,1,2.0500,2.3000,0,0,270.0*
1,1,1.1500,-0.5750,-1.0250*
1,1,1.1500,-0.5750,1.0250*
1,1,1.1500,0.5750,1.0250*
1,1,1.1500,0.5750,-1.0250*
%
%ADD30ROUNDEDRECTD30*%
G04:AMPARAMS|DCode=31|XSize=3.81mm|YSize=2.032mm|CornerRadius=0.508mm|HoleSize=0mm|Usage=FLASHONLY|Rotation=270.000|XOffset=0mm|YOffset=0mm|HoleType=Round|Shape=RoundedRectangle|*
%AMROUNDEDRECTD31*
21,1,3.8100,1.0160,0,0,270.0*
21,1,2.7940,2.0320,0,0,270.0*
1,1,1.0160,-0.5080,-1.3970*
1,1,1.0160,-0.5080,1.3970*
1,1,1.0160,0.5080,1.3970*
1,1,1.0160,0.5080,-1.3970*
%
%ADD31ROUNDEDRECTD31*%
G04:AMPARAMS|DCode=32|XSize=1.5mm|YSize=1mm|CornerRadius=0.25mm|HoleSize=0mm|Usage=FLASHONLY|Rotation=180.000|XOffset=0mm|YOffset=0mm|HoleType=Round|Shape=RoundedRectangle|*
%AMROUNDEDRECTD32*
21,1,1.5000,0.5000,0,0,180.0*
21,1,1.0000,1.0000,0,0,180.0*
1,1,0.5000,-0.5000,0.2500*
1,1,0.5000,0.5000,0.2500*
1,1,0.5000,0.5000,-0.2500*
1,1,0.5000,-0.5000,-0.2500*
%
%ADD32ROUNDEDRECTD32*%
G04:AMPARAMS|DCode=33|XSize=0.84mm|YSize=0.22mm|CornerRadius=0.055mm|HoleSize=0mm|Usage=FLASHONLY|Rotation=180.000|XOffset=0mm|YOffset=0mm|HoleType=Round|Shape=RoundedRectangle|*
%AMROUNDEDRECTD33*
21,1,0.8400,0.1100,0,0,180.0*
21,1,0.7300,0.2200,0,0,180.0*
1,1,0.1100,-0.3650,0.0550*
1,1,0.1100,0.3650,0.0550*
1,1,0.1100,0.3650,-0.0550*
1,1,0.1100,-0.3650,-0.0550*
%
%ADD33ROUNDEDRECTD33*%
G04:AMPARAMS|DCode=34|XSize=0.84mm|YSize=0.22mm|CornerRadius=0.055mm|HoleSize=0mm|Usage=FLASHONLY|Rotation=90.000|XOffset=0mm|YOffset=0mm|HoleType=Round|Shape=RoundedRectangle|*
%AMROUNDEDRECTD34*
21,1,0.8400,0.1100,0,0,90.0*
21,1,0.7300,0.2200,0,0,90.0*
1,1,0.1100,0.0550,0.3650*
1,1,0.1100,0.0550,-0.3650*
1,1,0.1100,-0.0550,-0.3650*
1,1,0.1100,-0.0550,0.3650*
%
%ADD34ROUNDEDRECTD34*%
G04:AMPARAMS|DCode=35|XSize=1.3mm|YSize=0.9mm|CornerRadius=0.225mm|HoleSize=0mm|Usage=FLASHONLY|Rotation=180.000|XOffset=0mm|YOffset=0mm|HoleType=Round|Shape=RoundedRectangle|*
%AMROUNDEDRECTD35*
21,1,1.3000,0.4500,0,0,180.0*
21,1,0.8500,0.9000,0,0,180.0*
1,1,0.4500,-0.4250,0.2250*
1,1,0.4500,0.4250,0.2250*
1,1,0.4500,0.4250,-0.2250*
1,1,0.4500,-0.4250,-0.2250*
%
%ADD35ROUNDEDRECTD35*%
G04:AMPARAMS|DCode=36|XSize=0.9561mm|YSize=1.6098mm|CornerRadius=0.239mm|HoleSize=0mm|Usage=FLASHONLY|Rotation=90.000|XOffset=0mm|YOffset=0mm|HoleType=Round|Shape=RoundedRectangle|*
%AMROUNDEDRECTD36*
21,1,0.9561,1.1318,0,0,90.0*
21,1,0.4780,1.6098,0,0,90.0*
1,1,0.4780,0.5659,0.2390*
1,1,0.4780,0.5659,-0.2390*
1,1,0.4780,-0.5659,-0.2390*
1,1,0.4780,-0.5659,0.2390*
%
%ADD36ROUNDEDRECTD36*%
G04:AMPARAMS|DCode=37|XSize=1.5mm|YSize=0.3mm|CornerRadius=0.075mm|HoleSize=0mm|Usage=FLASHONLY|Rotation=90.000|XOffset=0mm|YOffset=0mm|HoleType=Round|Shape=RoundedRectangle|*
%AMROUNDEDRECTD37*
21,1,1.5000,0.1500,0,0,90.0*
21,1,1.3500,0.3000,0,0,90.0*
1,1,0.1500,0.0750,0.6750*
1,1,0.1500,0.0750,-0.6750*
1,1,0.1500,-0.0750,-0.6750*
1,1,0.1500,-0.0750,0.6750*
%
%ADD37ROUNDEDRECTD37*%
G04:AMPARAMS|DCode=63|XSize=4.064mm|YSize=4.064mm|CornerRadius=1.016mm|HoleSize=0mm|Usage=FLASHONLY|Rotation=90.000|XOffset=0mm|YOffset=0mm|HoleType=Round|Shape=RoundedRectangle|*
%AMROUNDEDRECTD63*
21,1,4.0640,2.0320,0,0,90.0*
21,1,2.0320,4.0640,0,0,90.0*
1,1,2.0320,1.0160,1.0160*
1,1,2.0320,1.0160,-1.0160*
1,1,2.0320,-1.0160,-1.0160*
1,1,2.0320,-1.0160,1.0160*
%
%ADD63ROUNDEDRECTD63*%
%ADD72C,0.6000*%
%ADD73C,5.0000*%
%ADD74C,0.6500*%
%ADD75O,1.0000X1.6000*%
%ADD76O,1.0000X2.1000*%
D19*
X0Y50000D02*
G03*
X50000Y0I50000J0D01*
G01*
X400000D02*
G03*
X450000Y50000I0J50000D01*
G01*
Y450000D02*
G03*
X400000Y500000I-50000J0D01*
G01*
X50000D02*
G03*
X0Y450000I0J-50000D01*
G01*
X50000Y0D02*
X400000D01*
X50000Y500000D02*
X400000D01*
X450000Y50000D02*
Y450000D01*
X0Y50000D02*
Y450000D01*
D20*
X173736Y90000D02*
D03*
Y70000D02*
D03*
Y50000D02*
D03*
Y110000D02*
D03*
D21*
X189230Y158750D02*
D03*
Y173990D02*
D03*
X273050Y158750D02*
D03*
Y173990D02*
D03*
X107950Y158750D02*
D03*
Y173990D02*
D03*
X198120Y322580D02*
D03*
Y307340D02*
D03*
X186690Y322580D02*
D03*
Y307340D02*
D03*
X175260Y322580D02*
D03*
Y307340D02*
D03*
X163830Y322580D02*
D03*
Y307340D02*
D03*
X274320Y223520D02*
D03*
Y238760D02*
D03*
D22*
X355600Y221186D02*
D03*
Y241186D02*
D03*
X334010Y221186D02*
D03*
Y241186D02*
D03*
X240030Y324960D02*
D03*
Y304960D02*
D03*
X209550Y407510D02*
D03*
Y387510D02*
D03*
X293370Y241186D02*
D03*
Y221186D02*
D03*
X377190Y241186D02*
D03*
Y221186D02*
D03*
X243840Y387510D02*
D03*
Y407510D02*
D03*
D23*
X313690Y240186D02*
D03*
Y222186D02*
D03*
X266700Y322580D02*
D03*
Y304580D02*
D03*
X285750Y306580D02*
D03*
Y324580D02*
D03*
X304800Y322580D02*
D03*
Y304580D02*
D03*
X323850Y306580D02*
D03*
Y324580D02*
D03*
X342900Y322580D02*
D03*
Y304580D02*
D03*
D24*
X360680Y173228D02*
D03*
X317500D02*
D03*
X360680Y156972D02*
D03*
X317500D02*
D03*
D25*
X213310Y80560D02*
D03*
X365810D02*
D03*
Y24560D02*
D03*
X213310D02*
D03*
D26*
X254560Y107940D02*
D03*
X279560D02*
D03*
X299560D02*
D03*
X324560D02*
D03*
D27*
X240538Y154432D02*
D03*
X259842D02*
D03*
Y178308D02*
D03*
X250190Y154432D02*
D03*
X240538Y178308D02*
D03*
X250190D02*
D03*
X155448Y154432D02*
D03*
X174752D02*
D03*
Y178308D02*
D03*
X165100Y154432D02*
D03*
X155448Y178308D02*
D03*
X165100D02*
D03*
X74168Y154432D02*
D03*
X93472D02*
D03*
Y178308D02*
D03*
X83820Y154432D02*
D03*
X74168Y178308D02*
D03*
X83820D02*
D03*
D28*
X86200Y287020D02*
D03*
X66200D02*
D03*
X66040Y222250D02*
D03*
X86040D02*
D03*
X66040Y242570D02*
D03*
X86040D02*
D03*
X66040Y262890D02*
D03*
X86040D02*
D03*
D29*
X275760Y417830D02*
D03*
Y405130D02*
D03*
Y392430D02*
D03*
Y379730D02*
D03*
X328760Y417830D02*
D03*
Y405130D02*
D03*
Y392430D02*
D03*
Y379730D02*
D03*
D30*
X302260Y398780D02*
D03*
D31*
X146290Y384683D02*
D03*
X49290D02*
D03*
D32*
X187960Y384843D02*
D03*
X187961Y410244D02*
D03*
D33*
X210960Y232000D02*
D03*
Y236000D02*
D03*
Y240000D02*
D03*
Y244000D02*
D03*
Y248000D02*
D03*
Y252000D02*
D03*
Y256000D02*
D03*
Y260000D02*
D03*
Y264000D02*
D03*
Y268000D02*
D03*
Y272000D02*
D03*
Y276000D02*
D03*
X152260D02*
D03*
Y272000D02*
D03*
Y268000D02*
D03*
Y264000D02*
D03*
Y260000D02*
D03*
Y256000D02*
D03*
Y252000D02*
D03*
Y248000D02*
D03*
Y244000D02*
D03*
Y240000D02*
D03*
Y236000D02*
D03*
Y232000D02*
D03*
D34*
X159610Y224650D02*
D03*
X163610D02*
D03*
X167610D02*
D03*
X171610D02*
D03*
X175610D02*
D03*
X179610D02*
D03*
X183610D02*
D03*
X187610D02*
D03*
X191610D02*
D03*
X195610D02*
D03*
X199610D02*
D03*
X203610D02*
D03*
Y283350D02*
D03*
X199610D02*
D03*
X195610D02*
D03*
X191610D02*
D03*
X187610D02*
D03*
X183610D02*
D03*
X179610D02*
D03*
X175610D02*
D03*
X171610D02*
D03*
X167610D02*
D03*
X163610D02*
D03*
X159610D02*
D03*
D35*
X256540Y220640D02*
D03*
Y241640D02*
D03*
D36*
X218440Y327660D02*
D03*
Y301638D02*
D03*
D37*
X135030Y82150D02*
D03*
X132030D02*
D03*
X127030D02*
D03*
X124030D02*
D03*
X119030D02*
D03*
X114030D02*
D03*
X109030D02*
D03*
X104030D02*
D03*
X99030D02*
D03*
X94030D02*
D03*
X89030D02*
D03*
X84030D02*
D03*
X79030D02*
D03*
X76030D02*
D03*
X71030D02*
D03*
X68030D02*
D03*
D63*
X181610Y254000D02*
D03*
D72*
X314060Y77180D02*
D03*
X265060D02*
D03*
D73*
X329184Y469646D02*
D03*
X113919D02*
D03*
D74*
X72630Y66750D02*
D03*
X130430D02*
D03*
D75*
X144780Y31750D02*
D03*
X58280D02*
D03*
D76*
X144780Y71750D02*
D03*
X58280D02*
D03*
M02*
