G04*
G04 #@! TF.GenerationSoftware,Altium Limited,Altium Designer,20.2.3 (150)*
G04*
G04 Layer_Physical_Order=2*
G04 Layer_Color=16711680*
%FSLAX44Y44*%
%MOMM*%
G71*
G04*
G04 #@! TF.SameCoordinates,529A9E34-4FC0-4C7B-B34A-3B4898198E1E*
G04*
G04*
G04 #@! TF.FilePolarity,Positive*
G04*
G01*
G75*
%ADD11C,0.2000*%
%ADD19C,0.2540*%
%ADD64C,1.0000*%
%ADD71C,2.0000*%
%ADD72C,0.6000*%
%ADD73C,5.0000*%
%ADD74C,0.6500*%
%ADD75O,1.0000X1.6000*%
%ADD76O,1.0000X2.1000*%
%ADD77C,0.5000*%
%ADD78C,1.2700*%
G36*
X441706Y460121D02*
Y34925D01*
X411607Y4826D01*
X46736D01*
X4445Y47117D01*
Y169241D01*
X5584Y169803D01*
X6519Y169085D01*
X8952Y168077D01*
X11562Y167734D01*
X14173Y168077D01*
X14442Y168189D01*
X14488Y168169D01*
X15479Y166878D01*
X17568Y165275D01*
X20001Y164267D01*
X20099Y164254D01*
X21251Y163370D01*
X23684Y162362D01*
X24855Y162208D01*
X25823Y161465D01*
X28123Y160512D01*
X28306Y160274D01*
X30395Y158671D01*
X32828Y157663D01*
X33125Y157624D01*
X34078Y156893D01*
X36436Y155917D01*
X38142Y154607D01*
X40575Y153599D01*
X43185Y153256D01*
X44706Y153456D01*
X46871Y151679D01*
X49477Y150286D01*
X52305Y149428D01*
X55245Y149138D01*
X71009D01*
X71814Y148136D01*
X71793Y147868D01*
X71453Y145288D01*
Y141117D01*
X71797Y138506D01*
X72342Y137190D01*
Y136164D01*
X72686Y133553D01*
X73693Y131121D01*
X75296Y129032D01*
X77385Y127429D01*
X78885Y126808D01*
X79614Y125857D01*
X81703Y124254D01*
X84136Y123246D01*
X84953Y123139D01*
X85915Y122401D01*
X88348Y121393D01*
X90958Y121049D01*
X93569Y121393D01*
X96001Y122401D01*
X97309Y123404D01*
X97409Y123391D01*
X161353D01*
X162362Y122972D01*
X164973Y122629D01*
X172975D01*
X173058Y121359D01*
X170773Y121058D01*
X168012Y119914D01*
X165641Y118095D01*
X163822Y115724D01*
X162678Y112963D01*
X162288Y110000D01*
X162678Y107037D01*
X163822Y104276D01*
X165641Y101905D01*
X167081Y100800D01*
Y99200D01*
X165641Y98095D01*
X163822Y95724D01*
X162678Y92963D01*
X162288Y90000D01*
X162678Y87037D01*
X163822Y84276D01*
X165641Y81905D01*
X168012Y80086D01*
X169774Y79356D01*
Y77981D01*
X169253Y77765D01*
X167396Y76340D01*
X165971Y74483D01*
X165770Y74000D01*
X181702D01*
X181501Y74483D01*
X180076Y76340D01*
X178219Y77765D01*
X177698Y77981D01*
Y79356D01*
X179460Y80086D01*
X181831Y81905D01*
X183650Y84276D01*
X184794Y87037D01*
X185184Y90000D01*
X184794Y92963D01*
X183650Y95724D01*
X181831Y98095D01*
X180391Y99200D01*
Y100800D01*
X181831Y101905D01*
X183526Y104114D01*
X184240Y104243D01*
X184994Y104202D01*
X185230Y103849D01*
Y106934D01*
Y111552D01*
X184964Y111672D01*
X184794Y112963D01*
X183650Y115724D01*
X181831Y118095D01*
X179460Y119914D01*
X176699Y121058D01*
X174414Y121359D01*
X174497Y122629D01*
X238002D01*
X239691Y121333D01*
X242124Y120325D01*
X244734Y119982D01*
X246982Y120278D01*
X248093Y119817D01*
X250703Y119474D01*
X253314Y119817D01*
X255746Y120825D01*
X256526Y121423D01*
X256870Y121468D01*
X259303Y122476D01*
X261392Y124079D01*
X262994Y126168D01*
X264002Y128600D01*
X264346Y131211D01*
Y132293D01*
X264518Y132518D01*
X265526Y134950D01*
X265870Y137561D01*
Y141732D01*
X265526Y144342D01*
X264727Y146272D01*
Y149733D01*
X264383Y152344D01*
X263375Y154776D01*
X263330Y154836D01*
Y155067D01*
X262986Y157677D01*
X261978Y160110D01*
X260375Y162199D01*
X259641Y162762D01*
Y333502D01*
X259298Y336113D01*
X258999Y336833D01*
X259266Y338856D01*
Y343027D01*
X258922Y345638D01*
X257914Y348070D01*
X256311Y350159D01*
X254223Y351762D01*
X252494Y352478D01*
X251740Y353461D01*
X249650Y355064D01*
X247218Y356072D01*
X244607Y356415D01*
X241997Y356072D01*
X239564Y355064D01*
X237744Y353667D01*
X237679Y353659D01*
X237455Y353566D01*
X235266Y353278D01*
X232833Y352270D01*
X232606Y352095D01*
X230889Y352379D01*
X230259Y353322D01*
X216924Y366657D01*
X214939Y367983D01*
X212598Y368448D01*
X185196D01*
X184630Y368882D01*
X182806Y369638D01*
X180848Y369896D01*
X178890Y369638D01*
X177066Y368882D01*
X175499Y367680D01*
X174297Y366113D01*
X173541Y364289D01*
X173283Y362331D01*
X173541Y360373D01*
X174297Y358549D01*
X175499Y356982D01*
X177066Y355780D01*
X178890Y355024D01*
X180848Y354766D01*
X182806Y355024D01*
X184630Y355780D01*
X185196Y356213D01*
X210064D01*
X219816Y346462D01*
Y325120D01*
X220281Y322779D01*
X221607Y320794D01*
X235056Y307346D01*
Y256153D01*
X231674Y252771D01*
X227365D01*
X226800Y253205D01*
X224975Y253961D01*
X223017Y254219D01*
X221059Y253961D01*
X219235Y253205D01*
X217668Y252003D01*
X216466Y250436D01*
X215710Y248612D01*
X215453Y246654D01*
X215710Y244696D01*
X216466Y242871D01*
X217668Y241305D01*
X219235Y240103D01*
X220684Y239502D01*
X221135Y238471D01*
X221171Y238051D01*
X220525Y237208D01*
X219769Y235384D01*
X219511Y233426D01*
X219665Y232259D01*
X219575Y231950D01*
X218706Y231101D01*
X218596Y231063D01*
X218145Y231153D01*
X148974D01*
X147982Y232145D01*
Y232146D01*
X148416Y232712D01*
X149171Y234536D01*
X149429Y236494D01*
X149171Y238452D01*
X148416Y240276D01*
X147990Y240831D01*
X148289Y241220D01*
X149044Y243045D01*
X149302Y245003D01*
X149044Y246961D01*
X148289Y248785D01*
X147086Y250352D01*
X145520Y251554D01*
X143695Y252310D01*
X141737Y252568D01*
X139780Y252310D01*
X137955Y251554D01*
X136388Y250352D01*
X135186Y248785D01*
X134430Y246961D01*
X134412Y246823D01*
X130929Y243340D01*
X129603Y241355D01*
X129137Y239014D01*
Y238424D01*
X127964Y237938D01*
X122196Y243707D01*
Y273909D01*
X122629Y274475D01*
X123385Y276299D01*
X123643Y278257D01*
X123385Y280215D01*
X122629Y282039D01*
X121427Y283606D01*
X119860Y284808D01*
X118036Y285564D01*
X117264Y285666D01*
X117162Y286438D01*
X116406Y288262D01*
X115204Y289829D01*
X113637Y291031D01*
X111813Y291787D01*
X111058Y291886D01*
X110939Y292788D01*
X110183Y294612D01*
X108981Y296179D01*
X107414Y297381D01*
X105590Y298137D01*
X103632Y298395D01*
X101674Y298137D01*
X99850Y297381D01*
X98283Y296179D01*
X97081Y294612D01*
X96325Y292788D01*
X96067Y290830D01*
X96325Y288872D01*
X97081Y287048D01*
X97514Y286482D01*
Y282594D01*
X95959Y282389D01*
X94135Y281633D01*
X92568Y280431D01*
X91366Y278864D01*
X90610Y277040D01*
X90352Y275082D01*
X90610Y273124D01*
X91366Y271300D01*
X91545Y271066D01*
Y218978D01*
X91112Y218412D01*
X90356Y216588D01*
X90098Y214630D01*
X90356Y212672D01*
X91112Y210848D01*
X92314Y209281D01*
X93881Y208079D01*
X95705Y207323D01*
X97663Y207065D01*
X99621Y207323D01*
X101445Y208079D01*
X103012Y209281D01*
X104214Y210848D01*
X104970Y212672D01*
X105228Y214630D01*
X104970Y216588D01*
X104214Y218412D01*
X103780Y218978D01*
Y221942D01*
X104954Y222428D01*
X119730Y207652D01*
X120195Y206530D01*
X121397Y204963D01*
X122964Y203761D01*
X124788Y203005D01*
X126746Y202747D01*
X128704Y203005D01*
X130528Y203761D01*
X131871Y204791D01*
X133836Y202825D01*
Y195356D01*
X133403Y194790D01*
X132647Y192966D01*
X132389Y191008D01*
X132647Y189050D01*
X133403Y187226D01*
X134605Y185659D01*
X135628Y184874D01*
X135872Y183322D01*
X131834Y179284D01*
X113190D01*
X112498Y180554D01*
X112835Y182245D01*
X112822Y182309D01*
X102570D01*
X102557Y182245D01*
X102894Y180554D01*
X102202Y179284D01*
X61488D01*
X53271Y187500D01*
Y188930D01*
X52928Y191541D01*
X51920Y193974D01*
X50317Y196063D01*
X50187Y196162D01*
Y196397D01*
X49844Y199008D01*
X49004Y201036D01*
X49208Y202585D01*
Y206756D01*
X48864Y209366D01*
X48704Y209752D01*
X48727Y209919D01*
Y214090D01*
X48383Y216701D01*
X47915Y217830D01*
Y220583D01*
X47601Y222965D01*
X47811Y224556D01*
Y228727D01*
X47467Y231338D01*
X46738Y233097D01*
X46959Y233629D01*
X47303Y236240D01*
Y240411D01*
X46959Y243022D01*
X45951Y245454D01*
X45906Y245514D01*
Y246761D01*
X45562Y249371D01*
X45271Y250075D01*
Y254127D01*
X44927Y256737D01*
X43919Y259170D01*
X42316Y261259D01*
X41211Y262107D01*
X40744Y263234D01*
X39141Y265323D01*
X37053Y266926D01*
X34620Y267934D01*
X34323Y267973D01*
X33295Y268762D01*
X30862Y269769D01*
X28252Y270113D01*
X27503Y270015D01*
X25476Y270855D01*
X22865Y271198D01*
X20255Y270855D01*
X19732Y270638D01*
X17404Y270944D01*
X14794Y270601D01*
X12361Y269593D01*
X10818Y268409D01*
X10058Y268309D01*
X7626Y267301D01*
X5715Y265835D01*
X4445Y266154D01*
Y454849D01*
X5207Y455803D01*
X5715Y456311D01*
X5715Y456311D01*
X39624Y490220D01*
X90521D01*
X91053Y489067D01*
X89573Y487334D01*
X87106Y483308D01*
X85299Y478945D01*
X84197Y474353D01*
X83826Y469646D01*
X84197Y464939D01*
X85299Y460347D01*
X87106Y455984D01*
X89573Y451958D01*
X92640Y448367D01*
X96231Y445300D01*
X100257Y442833D01*
X104620Y441026D01*
X109212Y439924D01*
X113919Y439553D01*
X118626Y439924D01*
X123218Y441026D01*
X127581Y442833D01*
X131607Y445300D01*
X135198Y448367D01*
X138265Y451958D01*
X140732Y455984D01*
X142539Y460347D01*
X143641Y464939D01*
X144012Y469646D01*
X143641Y474353D01*
X142539Y478945D01*
X140732Y483308D01*
X138265Y487334D01*
X136785Y489067D01*
X137317Y490220D01*
X305786D01*
X306318Y489067D01*
X304839Y487334D01*
X302371Y483308D01*
X300564Y478945D01*
X299462Y474353D01*
X299091Y469646D01*
X299462Y464939D01*
X300564Y460347D01*
X302371Y455984D01*
X304839Y451958D01*
X307905Y448367D01*
X311496Y445300D01*
X315522Y442833D01*
X319885Y441026D01*
X324477Y439924D01*
X329184Y439553D01*
X333891Y439924D01*
X338483Y441026D01*
X342846Y442833D01*
X346872Y445300D01*
X350463Y448367D01*
X353530Y451958D01*
X355997Y455984D01*
X357804Y460347D01*
X358906Y464939D01*
X359277Y469646D01*
X358906Y474353D01*
X357804Y478945D01*
X355997Y483308D01*
X353530Y487334D01*
X352050Y489067D01*
X352581Y490220D01*
X411607D01*
X441706Y460121D01*
D02*
G37*
G36*
X194536Y185559D02*
X196521Y184233D01*
X198862Y183767D01*
X216257D01*
X216822Y183334D01*
X218647Y182578D01*
X220604Y182320D01*
X222562Y182578D01*
X224387Y183334D01*
X225953Y184536D01*
X227156Y186103D01*
X227181Y186165D01*
X228451Y185912D01*
Y168015D01*
X214110Y153673D01*
X192453D01*
X191887Y154107D01*
X190063Y154863D01*
X188105Y155121D01*
X186147Y154863D01*
X184323Y154107D01*
X182756Y152905D01*
X181554Y151338D01*
X180826Y149580D01*
X180606Y149503D01*
X179508Y149443D01*
X178666Y151474D01*
X177064Y153563D01*
X175885Y154467D01*
X175864Y154629D01*
X174856Y157062D01*
X173253Y159151D01*
X171164Y160754D01*
X168732Y161762D01*
X166121Y162105D01*
X163511Y161762D01*
X161078Y160754D01*
X158989Y159151D01*
X157666Y157426D01*
X155941Y156103D01*
X155377Y155367D01*
X154748Y155285D01*
X152315Y154277D01*
X150226Y152674D01*
X148623Y150585D01*
X148123Y149376D01*
X145731Y149062D01*
X143298Y148054D01*
X141209Y146451D01*
X139606Y144362D01*
X139276Y143563D01*
X119504D01*
X118263Y145181D01*
X116173Y146784D01*
X113741Y147792D01*
X113157Y147868D01*
X113240Y149138D01*
X138077D01*
X141017Y149428D01*
X143845Y150286D01*
X146451Y151679D01*
X148735Y153553D01*
X168790Y173608D01*
X169983Y173451D01*
X172593Y173795D01*
X175026Y174803D01*
X177115Y176406D01*
X177614Y177056D01*
X177927Y177097D01*
X180360Y178105D01*
X182449Y179708D01*
X182893Y180286D01*
X184678Y181026D01*
X186767Y182629D01*
X188370Y184718D01*
X189378Y187150D01*
X189584Y188716D01*
X190925Y189171D01*
X194536Y185559D01*
D02*
G37*
%LPC*%
G36*
X197871Y312473D02*
X195261Y312130D01*
X192925Y311162D01*
X191648Y311330D01*
X189076Y310992D01*
X189072Y310995D01*
X186639Y312003D01*
X184028Y312346D01*
X181418Y312003D01*
X179364Y311152D01*
X177043Y311457D01*
X174433Y311114D01*
X172000Y310106D01*
X169911Y308503D01*
X168308Y306414D01*
X167301Y303981D01*
X167029Y301920D01*
X166075Y299615D01*
X165731Y297004D01*
Y292833D01*
X166075Y290223D01*
X167082Y287790D01*
X168685Y285701D01*
X170774Y284098D01*
X171688Y283720D01*
X171689Y283718D01*
X173778Y282115D01*
X176211Y281107D01*
X178821Y280764D01*
X180536Y280989D01*
X182250Y280764D01*
X184861Y281107D01*
X187293Y282115D01*
X188062Y282705D01*
X189433Y282885D01*
X191866Y283893D01*
X192773Y284590D01*
X194823Y284320D01*
X197434Y284663D01*
X198949Y285291D01*
X200538Y285082D01*
X201303Y285182D01*
X203846Y284848D01*
X204391Y284919D01*
X205929Y284282D01*
X208539Y283939D01*
X211150Y284282D01*
X213582Y285290D01*
X215672Y286893D01*
X217274Y288982D01*
X218282Y291414D01*
X218626Y294025D01*
Y298196D01*
X218282Y300807D01*
X217274Y303239D01*
X217077Y303496D01*
X216131Y305779D01*
X214529Y307868D01*
X212439Y309471D01*
X210007Y310479D01*
X208948Y310618D01*
X206832Y311495D01*
X204221Y311838D01*
X201917Y311535D01*
X200482Y312130D01*
X197871Y312473D01*
D02*
G37*
G36*
X196342Y269748D02*
X167259D01*
Y265748D01*
Y259652D01*
Y253429D01*
Y247714D01*
Y241872D01*
Y240030D01*
X196342D01*
Y241872D01*
Y247714D01*
Y253429D01*
Y259652D01*
Y265748D01*
Y269748D01*
D02*
G37*
G36*
X70675Y215738D02*
Y211772D01*
X74641D01*
X74440Y212255D01*
X73015Y214112D01*
X71158Y215537D01*
X70675Y215738D01*
D02*
G37*
G36*
X62675D02*
X62192Y215537D01*
X60335Y214112D01*
X58910Y212255D01*
X58709Y211772D01*
X62675D01*
Y215738D01*
D02*
G37*
G36*
X74641Y203772D02*
X58709D01*
X58910Y203289D01*
X59499Y202521D01*
X58783Y201587D01*
X58582Y201104D01*
X74514D01*
X74313Y201587D01*
X73724Y202355D01*
X74440Y203289D01*
X74641Y203772D01*
D02*
G37*
G36*
X74514Y193104D02*
X70548D01*
Y189138D01*
X71031Y189339D01*
X72888Y190764D01*
X74313Y192621D01*
X74514Y193104D01*
D02*
G37*
G36*
X62548D02*
X58582D01*
X58783Y192621D01*
X60208Y190764D01*
X62065Y189339D01*
X62548Y189138D01*
Y193104D01*
D02*
G37*
G36*
X293370Y260930D02*
X291412Y260672D01*
X289588Y259916D01*
X288021Y258714D01*
X286819Y257147D01*
X286063Y255323D01*
X285805Y253365D01*
X286063Y251407D01*
X286819Y249583D01*
X288021Y248016D01*
X289588Y246814D01*
X291412Y246058D01*
X293370Y245800D01*
X295328Y246058D01*
X297152Y246814D01*
X297718Y247248D01*
X311156D01*
X325353Y233051D01*
Y192308D01*
X324919Y191742D01*
X324163Y189918D01*
X323905Y187960D01*
X324163Y186002D01*
X324919Y184178D01*
X326121Y182611D01*
X327688Y181409D01*
X329512Y180653D01*
X331470Y180395D01*
X333428Y180653D01*
X335252Y181409D01*
X336819Y182611D01*
X338021Y184178D01*
X338777Y186002D01*
X339035Y187960D01*
X338777Y189918D01*
X338021Y191742D01*
X337588Y192308D01*
Y235585D01*
X337122Y237926D01*
X335796Y239911D01*
X318016Y257691D01*
X316031Y259017D01*
X313690Y259482D01*
X297718D01*
X297152Y259916D01*
X295328Y260672D01*
X293370Y260930D01*
D02*
G37*
G36*
X352108Y136617D02*
X351625Y136416D01*
X349768Y134991D01*
X348599Y133469D01*
X348204Y133362D01*
X347503D01*
X347107Y133469D01*
X345938Y134991D01*
X344081Y136416D01*
X343598Y136617D01*
Y128651D01*
Y120685D01*
X344081Y120886D01*
X345938Y122311D01*
X347107Y123833D01*
X347503Y123940D01*
X348204D01*
X348599Y123833D01*
X349768Y122311D01*
X351625Y120886D01*
X352108Y120685D01*
Y128651D01*
Y136617D01*
D02*
G37*
G36*
X360108D02*
Y132651D01*
X364074D01*
X363873Y133134D01*
X362448Y134991D01*
X360591Y136416D01*
X360108Y136617D01*
D02*
G37*
G36*
X335598D02*
X335115Y136416D01*
X333258Y134991D01*
X331833Y133134D01*
X331632Y132651D01*
X335598D01*
Y136617D01*
D02*
G37*
G36*
X364074Y124651D02*
X360108D01*
Y120685D01*
X360591Y120886D01*
X362448Y122311D01*
X363873Y124168D01*
X364074Y124651D01*
D02*
G37*
G36*
X335598D02*
X331632D01*
X331833Y124168D01*
X333258Y122311D01*
X335115Y120886D01*
X335598Y120685D01*
Y124651D01*
D02*
G37*
G36*
X132207Y120087D02*
X130249Y119829D01*
X128425Y119073D01*
X126858Y117871D01*
X126498Y117402D01*
X114235D01*
X113669Y117835D01*
X111845Y118591D01*
X109887Y118849D01*
X107929Y118591D01*
X106105Y117835D01*
X104538Y116633D01*
X103336Y115066D01*
X102580Y113242D01*
X102322Y111284D01*
X102580Y109326D01*
X103336Y107502D01*
X104538Y105935D01*
X106105Y104733D01*
X107929Y103977D01*
X109887Y103719D01*
X111845Y103977D01*
X113669Y104733D01*
X114235Y105166D01*
X130618D01*
X132207Y104957D01*
X134165Y105215D01*
X135989Y105971D01*
X137556Y107173D01*
X138758Y108740D01*
X139514Y110564D01*
X139772Y112522D01*
X139514Y114480D01*
X138758Y116304D01*
X137556Y117871D01*
X135989Y119073D01*
X134165Y119829D01*
X132207Y120087D01*
D02*
G37*
G36*
X148780Y83685D02*
Y75750D01*
X152385D01*
Y77250D01*
X152126Y79218D01*
X151366Y81053D01*
X150158Y82628D01*
X148780Y83685D01*
D02*
G37*
G36*
X54280D02*
X52902Y82628D01*
X51694Y81053D01*
X50934Y79218D01*
X50675Y77250D01*
Y75750D01*
X54280D01*
Y83685D01*
D02*
G37*
G36*
X140780D02*
X139402Y82628D01*
X138194Y81053D01*
X137434Y79218D01*
X137175Y77250D01*
Y73489D01*
X135905Y72948D01*
X134591Y73956D01*
X132584Y74788D01*
X130430Y75071D01*
X128276Y74788D01*
X126269Y73956D01*
X124546Y72634D01*
X123224Y70911D01*
X122392Y68904D01*
X122109Y66750D01*
X122392Y64596D01*
X123224Y62589D01*
X124546Y60866D01*
X126269Y59544D01*
X128276Y58712D01*
X130430Y58429D01*
X132584Y58712D01*
X134591Y59544D01*
X136314Y60866D01*
X137096Y61886D01*
X137156Y61916D01*
X138653Y61849D01*
X139402Y60872D01*
X140780Y59815D01*
Y71750D01*
Y83685D01*
D02*
G37*
G36*
X314060Y89788D02*
X310797Y89358D01*
X307756Y88099D01*
X305145Y86095D01*
X303141Y83484D01*
X301882Y80443D01*
X301452Y77180D01*
X301882Y73917D01*
X303141Y70876D01*
X305145Y68265D01*
X307756Y66261D01*
X310797Y65002D01*
X314060Y64572D01*
X317323Y65002D01*
X320364Y66261D01*
X322975Y68265D01*
X324979Y70876D01*
X326238Y73917D01*
X326668Y77180D01*
X326238Y80443D01*
X324979Y83484D01*
X322975Y86095D01*
X320364Y88099D01*
X317323Y89358D01*
X314060Y89788D01*
D02*
G37*
G36*
X265060D02*
X261797Y89358D01*
X258756Y88099D01*
X256145Y86095D01*
X254141Y83484D01*
X252882Y80443D01*
X252452Y77180D01*
X252882Y73917D01*
X254141Y70876D01*
X256145Y68265D01*
X258756Y66261D01*
X261797Y65002D01*
X265060Y64572D01*
X268323Y65002D01*
X271364Y66261D01*
X273975Y68265D01*
X275979Y70876D01*
X277238Y73917D01*
X277668Y77180D01*
X277238Y80443D01*
X275979Y83484D01*
X273975Y86095D01*
X271364Y88099D01*
X268323Y89358D01*
X265060Y89788D01*
D02*
G37*
G36*
X152385Y67750D02*
X148780D01*
Y59815D01*
X150158Y60872D01*
X151366Y62447D01*
X152126Y64282D01*
X152385Y66250D01*
Y67750D01*
D02*
G37*
G36*
X54280D02*
X50675D01*
Y66250D01*
X50934Y64282D01*
X51694Y62447D01*
X52902Y60872D01*
X54280Y59815D01*
Y67750D01*
D02*
G37*
G36*
X62280Y83685D02*
Y71750D01*
Y59815D01*
X63658Y60872D01*
X64407Y61849D01*
X65904Y61916D01*
X65964Y61886D01*
X66746Y60866D01*
X68469Y59544D01*
X70476Y58712D01*
X72630Y58429D01*
X74784Y58712D01*
X76791Y59544D01*
X78514Y60866D01*
X79836Y62589D01*
X80668Y64596D01*
X80951Y66750D01*
X80668Y68904D01*
X79836Y70911D01*
X78514Y72634D01*
X76791Y73956D01*
X74784Y74788D01*
X72630Y75071D01*
X70476Y74788D01*
X68469Y73956D01*
X67155Y72948D01*
X65885Y73489D01*
Y77250D01*
X65626Y79218D01*
X64866Y81053D01*
X63658Y82628D01*
X62280Y83685D01*
D02*
G37*
G36*
X181702Y66000D02*
X165770D01*
X165971Y65517D01*
X167396Y63660D01*
X169253Y62235D01*
X171415Y61339D01*
X172127Y61245D01*
Y59964D01*
X171897Y59934D01*
X169136Y58790D01*
X166765Y56971D01*
X164946Y54600D01*
X163802Y51839D01*
X163412Y48876D01*
X163802Y45913D01*
X164946Y43152D01*
X166765Y40781D01*
X169136Y38962D01*
X171897Y37818D01*
X174860Y37428D01*
X177823Y37818D01*
X180584Y38962D01*
X182955Y40781D01*
X184774Y43152D01*
X185918Y45913D01*
X186308Y48876D01*
X185918Y51839D01*
X184774Y54600D01*
X182955Y56971D01*
X180584Y58790D01*
X177823Y59934D01*
X177055Y60035D01*
X176884Y60307D01*
X177388Y61890D01*
X178219Y62235D01*
X180076Y63660D01*
X181501Y65517D01*
X181702Y66000D01*
D02*
G37*
G36*
X148780Y41185D02*
Y35750D01*
X152253D01*
X152126Y36718D01*
X151366Y38552D01*
X150158Y40128D01*
X148780Y41185D01*
D02*
G37*
G36*
X62280D02*
Y35750D01*
X65753D01*
X65626Y36718D01*
X64866Y38552D01*
X63658Y40128D01*
X62280Y41185D01*
D02*
G37*
G36*
X140780D02*
X139402Y40128D01*
X138194Y38552D01*
X137434Y36718D01*
X137307Y35750D01*
X140780D01*
Y41185D01*
D02*
G37*
G36*
X54280D02*
X52902Y40128D01*
X51694Y38552D01*
X50934Y36718D01*
X50807Y35750D01*
X54280D01*
Y41185D01*
D02*
G37*
G36*
X152253Y27750D02*
X148780D01*
Y22315D01*
X150158Y23372D01*
X151366Y24948D01*
X152126Y26782D01*
X152253Y27750D01*
D02*
G37*
G36*
X65753D02*
X62280D01*
Y22315D01*
X63658Y23372D01*
X64866Y24948D01*
X65626Y26782D01*
X65753Y27750D01*
D02*
G37*
G36*
X140780D02*
X137307D01*
X137434Y26782D01*
X138194Y24948D01*
X139402Y23372D01*
X140780Y22315D01*
Y27750D01*
D02*
G37*
G36*
X54280D02*
X50807D01*
X50934Y26782D01*
X51694Y24948D01*
X52902Y23372D01*
X54280Y22315D01*
Y27750D01*
D02*
G37*
%LPD*%
D11*
X141864Y229611D02*
X146440Y225035D01*
X141864Y229611D02*
Y236494D01*
X146440Y225035D02*
X218145D01*
X135255Y229109D02*
X142828Y221535D01*
X135255Y239014D02*
X141244Y245003D01*
X135255Y229109D02*
Y239014D01*
X142828Y221535D02*
X212170D01*
X139446Y217805D02*
X179730D01*
X116078Y241173D02*
Y278257D01*
Y241173D02*
X139446Y217805D01*
X137033Y214122D02*
X174625D01*
X109855Y241300D02*
Y284480D01*
Y241300D02*
X137033Y214122D01*
X103632Y241681D02*
X139954Y205359D01*
X103632Y241681D02*
Y290830D01*
X139954Y191008D02*
Y205359D01*
X223017Y246654D02*
X234208D01*
X241173Y253619D01*
Y309880D01*
X225933Y325120D02*
X241173Y309880D01*
X212598Y362331D02*
X225933Y348996D01*
Y325120D02*
Y348996D01*
X180848Y362331D02*
X212598D01*
X97663Y214630D02*
Y274828D01*
X97917Y275082D01*
X173736Y70000D02*
X174681Y70945D01*
X198862Y189885D02*
X220604D01*
X174625Y214122D02*
X198862Y189885D01*
X179730Y217805D02*
X184917Y212618D01*
X313690Y253365D02*
X331470Y235585D01*
X293370Y253365D02*
X313690D01*
X234569Y165481D02*
Y239903D01*
X188105Y147556D02*
X216644D01*
X234569Y165481D01*
X219660Y223520D02*
X220472D01*
X218145Y225035D02*
X219660Y223520D01*
X212170Y221535D02*
X219583Y214122D01*
X227076Y211836D02*
Y233426D01*
X141244Y245003D02*
X141737D01*
X331470Y187960D02*
Y235585D01*
X109887Y111284D02*
X130969D01*
X132207Y112522D01*
X199243Y211348D02*
X210825D01*
X192024Y205105D02*
X220345D01*
X227076Y211836D01*
D19*
X102997Y233426D02*
X126111Y210312D01*
X126746D01*
X205622Y297298D02*
X206209Y297886D01*
X0Y50000D02*
G03*
X50000Y0I50000J0D01*
G01*
X400000D02*
G03*
X450000Y50000I0J50000D01*
G01*
Y450000D02*
G03*
X400000Y500000I-50000J0D01*
G01*
X50000D02*
G03*
X0Y450000I0J-50000D01*
G01*
X50000Y0D02*
X400000D01*
X50000Y500000D02*
X400000D01*
X450000Y50000D02*
Y450000D01*
X0Y50000D02*
Y450000D01*
D64*
X190627Y257429D02*
Y261600D01*
Y251714D02*
Y255885D01*
X189230Y260477D02*
Y264648D01*
X190627Y245872D02*
Y250043D01*
X184531Y245872D02*
Y250043D01*
X183515Y260096D02*
Y264267D01*
X178308Y259715D02*
Y263886D01*
X172720Y257429D02*
Y263652D01*
X181991Y249047D02*
Y253218D01*
X178816Y245872D02*
Y250043D01*
X173385Y245660D02*
Y249830D01*
X174879Y247142D02*
Y251313D01*
X169983Y183538D02*
Y187709D01*
X175317Y186840D02*
Y191011D01*
X179635Y189761D02*
Y193932D01*
X164776Y198397D02*
Y202568D01*
X160712Y195603D02*
Y199774D01*
X155632Y191793D02*
Y195964D01*
X184028Y298089D02*
Y302260D01*
X177043Y297200D02*
Y301371D01*
X175817Y292833D02*
Y297004D01*
X178821Y290850D02*
Y295021D01*
X182250Y290850D02*
Y295021D01*
X186822Y292628D02*
Y296799D01*
X191273Y294651D02*
Y298822D01*
X191648Y297073D02*
Y301244D01*
X197871Y298216D02*
Y302387D01*
X194823Y294406D02*
Y298577D01*
X200538Y295168D02*
Y299339D01*
X203846Y294934D02*
Y299105D01*
X204221Y297581D02*
Y301752D01*
X207396Y296565D02*
Y300736D01*
X208539Y294025D02*
Y298196D01*
X28072Y206776D02*
Y210947D01*
X23881Y202966D02*
Y207137D01*
X43185Y184759D02*
Y188930D01*
X40101Y192226D02*
Y196397D01*
X39121Y202585D02*
Y206756D01*
X38640Y209919D02*
Y214090D01*
X37829Y216412D02*
Y220583D01*
X37724Y224556D02*
Y228727D01*
X23119Y217825D02*
Y221996D01*
X25278Y224175D02*
Y228346D01*
X30739Y230398D02*
Y234569D01*
X18547Y232176D02*
Y236347D01*
X23707Y233943D02*
Y238114D01*
X19817Y246146D02*
Y250317D01*
X25492Y245630D02*
Y249801D01*
X37216Y236240D02*
Y240411D01*
X35819Y242590D02*
Y246761D01*
X35184Y249956D02*
Y254127D01*
X32009Y254020D02*
Y258191D01*
X28252Y255856D02*
Y260027D01*
X22865Y256941D02*
Y261112D01*
X17404Y256687D02*
Y260858D01*
X12669Y254395D02*
Y258566D01*
X10038Y250337D02*
Y254508D01*
X10927Y242971D02*
Y247142D01*
X9784Y235351D02*
Y239522D01*
X9403Y228112D02*
Y232283D01*
X9747Y220632D02*
Y224803D01*
Y213490D02*
Y217661D01*
X10546Y206014D02*
Y210185D01*
X10292Y200172D02*
Y204343D01*
X9530Y194203D02*
Y198374D01*
X14229Y192171D02*
Y196342D01*
X10673Y185948D02*
Y190119D01*
X11562Y177820D02*
Y181991D01*
X43185Y163342D02*
Y167513D01*
X39121Y165628D02*
Y169799D01*
X35438Y167406D02*
Y171577D01*
X30866Y170200D02*
Y174371D01*
X26294Y172105D02*
Y176276D01*
X22611Y174010D02*
Y178181D01*
X18547Y177312D02*
Y181483D01*
X111130Y133878D02*
Y138049D01*
X106431Y135275D02*
Y139446D01*
X101859Y135783D02*
Y139954D01*
X90937Y140990D02*
Y145161D01*
X94112Y139593D02*
Y143764D01*
X90958Y131136D02*
Y135307D01*
X86746Y132989D02*
Y137160D01*
X82428Y136164D02*
Y140335D01*
X81539Y141117D02*
Y145288D01*
X148341Y135148D02*
Y139319D01*
X157358Y141371D02*
Y145542D01*
X154564Y136291D02*
Y140462D01*
X180345Y132735D02*
Y136906D01*
X175392Y135148D02*
Y139319D01*
X166121Y147848D02*
Y152019D01*
X163073Y144800D02*
Y148971D01*
X169931Y142260D02*
Y146431D01*
Y136291D02*
Y140462D01*
X161295Y136926D02*
Y141097D01*
X244734Y130068D02*
Y134239D01*
X240797Y134513D02*
Y138684D01*
X246512Y143022D02*
Y147193D01*
X245750Y136164D02*
Y140335D01*
X253243Y150896D02*
Y155067D01*
X254640Y145562D02*
Y149733D01*
X255783Y137561D02*
Y141732D01*
X254259Y131211D02*
Y135382D01*
X250703Y129560D02*
Y133731D01*
X249179Y338856D02*
Y343027D01*
X244607Y342158D02*
Y346329D01*
X237876Y339364D02*
Y343535D01*
X244607Y327172D02*
Y331343D01*
X239146Y333776D02*
Y337947D01*
X245110Y132715D02*
X249555Y137160D01*
Y333502D01*
X243586Y339471D02*
X249555Y333502D01*
X240289Y338729D02*
Y343916D01*
X85725Y145161D02*
X97409Y133477D01*
X164973D01*
Y132715D02*
X245110D01*
X171958Y198092D02*
Y198731D01*
X179900Y297298D02*
X205622D01*
D71*
X25908Y193548D02*
X55245Y164211D01*
X138077D02*
X171958Y198092D01*
X55245Y164211D02*
X138077D01*
D72*
X314060Y77180D02*
D03*
X265060D02*
D03*
D73*
X329184Y469646D02*
D03*
X113919D02*
D03*
D74*
X72630Y66750D02*
D03*
X130430D02*
D03*
D75*
X144780Y31750D02*
D03*
X58280D02*
D03*
D76*
X144780Y71750D02*
D03*
X58280D02*
D03*
D77*
X126746Y210312D02*
D03*
X116078Y278257D02*
D03*
X109855Y284480D02*
D03*
X103632Y290830D02*
D03*
X102997Y233426D02*
D03*
X97663Y214630D02*
D03*
X97917Y275082D02*
D03*
X189230Y106934D02*
D03*
X180848Y362331D02*
D03*
X172720Y263652D02*
D03*
X167259D02*
D03*
X178816D02*
D03*
X184531D02*
D03*
X190627D02*
D03*
X196342D02*
D03*
X167259Y251714D02*
D03*
X172720D02*
D03*
X178816D02*
D03*
X184531D02*
D03*
X190627D02*
D03*
X196342D02*
D03*
X276860Y215011D02*
D03*
X269113Y212979D02*
D03*
X273304Y214884D02*
D03*
X301625Y189992D02*
D03*
X273050Y182626D02*
D03*
X107696Y182245D02*
D03*
X107950Y186309D02*
D03*
X196342Y240030D02*
D03*
X190627D02*
D03*
X184531D02*
D03*
X178816D02*
D03*
X172720D02*
D03*
X167259D02*
D03*
X196342Y245872D02*
D03*
X190627D02*
D03*
X184531D02*
D03*
X178816D02*
D03*
X172720D02*
D03*
X167259D02*
D03*
X196342Y257429D02*
D03*
X190627D02*
D03*
X184531D02*
D03*
X178816D02*
D03*
X172720D02*
D03*
X167259D02*
D03*
X196342Y269748D02*
D03*
X190627D02*
D03*
X184531D02*
D03*
X178816D02*
D03*
X172720D02*
D03*
X167259D02*
D03*
X293370Y253365D02*
D03*
X176784Y191008D02*
D03*
X178689Y195072D02*
D03*
X177038Y199009D02*
D03*
X175006Y201930D02*
D03*
X170688Y202946D02*
D03*
X166243Y202565D02*
D03*
X167132Y197739D02*
D03*
X162179Y199771D02*
D03*
X163322Y196342D02*
D03*
X159208Y195959D02*
D03*
X164084Y192405D02*
D03*
X161163Y192659D02*
D03*
X157099Y192913D02*
D03*
X184917Y212618D02*
D03*
X186182Y293370D02*
D03*
X182626Y293497D02*
D03*
X179197D02*
D03*
X176022D02*
D03*
X89027Y143129D02*
D03*
X86614D02*
D03*
X84201Y142367D02*
D03*
X91440Y141351D02*
D03*
X89281Y140462D02*
D03*
X86995Y140081D02*
D03*
X84836Y139827D02*
D03*
X88265Y145415D02*
D03*
X82804Y145669D02*
D03*
X168656Y134366D02*
D03*
X167513Y145288D02*
D03*
X164084Y144526D02*
D03*
X166370Y142113D02*
D03*
X163957Y141097D02*
D03*
X167640Y138811D02*
D03*
X166497Y136398D02*
D03*
X163957Y137033D02*
D03*
X251079Y132207D02*
D03*
X249174Y133858D02*
D03*
X251968Y135382D02*
D03*
X252349Y138049D02*
D03*
X249301Y140589D02*
D03*
X252476Y141097D02*
D03*
X251206Y143510D02*
D03*
X248412Y143637D02*
D03*
X251333Y146304D02*
D03*
X248920Y146177D02*
D03*
X243713Y342900D02*
D03*
X241046Y343916D02*
D03*
X238252Y342011D02*
D03*
X240665Y341376D02*
D03*
X243586Y339471D02*
D03*
X242697Y336423D02*
D03*
X239522D02*
D03*
X237363Y338074D02*
D03*
X208915Y296672D02*
D03*
X206209Y297886D02*
D03*
X207772Y299212D02*
D03*
X204597Y300228D02*
D03*
X200914Y297815D02*
D03*
X181483Y300101D02*
D03*
X177419Y299847D02*
D03*
X175895Y297053D02*
D03*
X188722Y297307D02*
D03*
X183515Y297434D02*
D03*
X186055Y297180D02*
D03*
X139954Y191008D02*
D03*
X234950Y239776D02*
D03*
X210825Y211348D02*
D03*
X132207Y112522D02*
D03*
X109887Y111284D02*
D03*
X174498Y194945D02*
D03*
X171958Y198731D02*
D03*
X169926Y193421D02*
D03*
X141864Y236494D02*
D03*
X220472Y223520D02*
D03*
X219583Y214122D02*
D03*
X249555Y137160D02*
D03*
X141737Y245003D02*
D03*
X220604Y189885D02*
D03*
X192024Y205105D02*
D03*
X197744Y212872D02*
D03*
X240289Y338729D02*
D03*
X223017Y246654D02*
D03*
X164973Y133477D02*
D03*
X188105Y147556D02*
D03*
X85725Y145161D02*
D03*
X227076Y233426D02*
D03*
X204089Y297942D02*
D03*
X331470Y187960D02*
D03*
X179900Y297298D02*
D03*
D78*
X66548Y197104D02*
D03*
X66675Y207772D02*
D03*
X38735Y191897D02*
D03*
X356108Y128651D02*
D03*
X339598D02*
D03*
X173736Y110000D02*
D03*
Y90000D02*
D03*
Y70000D02*
D03*
X174860Y48876D02*
D03*
X30861Y181864D02*
D03*
X17018Y184531D02*
D03*
X25908Y193548D02*
D03*
X32131Y216281D02*
D03*
X17526Y215646D02*
D03*
X31750Y227965D02*
D03*
X17653Y227711D02*
D03*
X29718Y241935D02*
D03*
X28829Y253873D02*
D03*
X17526Y254254D02*
D03*
X18034Y240538D02*
D03*
X17399Y197993D02*
D03*
X17907Y206375D02*
D03*
X33909Y203835D02*
D03*
M02*
