G04*
G04 #@! TF.GenerationSoftware,Altium Limited,Altium Designer,20.2.3 (150)*
G04*
G04 Layer_Color=8388736*
%FSLAX44Y44*%
%MOMM*%
G71*
G04*
G04 #@! TF.SameCoordinates,529A9E34-4FC0-4C7B-B34A-3B4898198E1E*
G04*
G04*
G04 #@! TF.FilePolarity,Negative*
G04*
G01*
G75*
%ADD19C,0.2540*%
G04:AMPARAMS|DCode=36|XSize=0.9561mm|YSize=1.6098mm|CornerRadius=0.239mm|HoleSize=0mm|Usage=FLASHONLY|Rotation=90.000|XOffset=0mm|YOffset=0mm|HoleType=Round|Shape=RoundedRectangle|*
%AMROUNDEDRECTD36*
21,1,0.9561,1.1318,0,0,90.0*
21,1,0.4780,1.6098,0,0,90.0*
1,1,0.4780,0.5659,0.2390*
1,1,0.4780,0.5659,-0.2390*
1,1,0.4780,-0.5659,-0.2390*
1,1,0.4780,-0.5659,0.2390*
%
%ADD36ROUNDEDRECTD36*%
G04:AMPARAMS|DCode=38|XSize=0.6096mm|YSize=0.6096mm|CornerRadius=0.3048mm|HoleSize=0mm|Usage=FLASHONLY|Rotation=90.000|XOffset=0mm|YOffset=0mm|HoleType=Round|Shape=RoundedRectangle|*
%AMROUNDEDRECTD38*
21,1,0.6096,0.0000,0,0,90.0*
21,1,0.0000,0.6096,0,0,90.0*
1,1,0.6096,0.0000,0.0000*
1,1,0.6096,0.0000,0.0000*
1,1,0.6096,0.0000,0.0000*
1,1,0.6096,0.0000,0.0000*
%
%ADD38ROUNDEDRECTD38*%
G04:AMPARAMS|DCode=39|XSize=0.9652mm|YSize=0.762mm|CornerRadius=0.2413mm|HoleSize=0mm|Usage=FLASHONLY|Rotation=0.000|XOffset=0mm|YOffset=0mm|HoleType=Round|Shape=RoundedRectangle|*
%AMROUNDEDRECTD39*
21,1,0.9652,0.2794,0,0,0.0*
21,1,0.4826,0.7620,0,0,0.0*
1,1,0.4826,0.2413,-0.1397*
1,1,0.4826,-0.2413,-0.1397*
1,1,0.4826,-0.2413,0.1397*
1,1,0.4826,0.2413,0.1397*
%
%ADD39ROUNDEDRECTD39*%
%ADD40R,1.6032X1.3032*%
%ADD41R,1.5032X1.2032*%
G04:AMPARAMS|DCode=42|XSize=1.4732mm|YSize=0.9652mm|CornerRadius=0.2921mm|HoleSize=0mm|Usage=FLASHONLY|Rotation=0.000|XOffset=0mm|YOffset=0mm|HoleType=Round|Shape=RoundedRectangle|*
%AMROUNDEDRECTD42*
21,1,1.4732,0.3810,0,0,0.0*
21,1,0.8890,0.9652,0,0,0.0*
1,1,0.5842,0.4445,-0.1905*
1,1,0.5842,-0.4445,-0.1905*
1,1,0.5842,-0.4445,0.1905*
1,1,0.5842,0.4445,0.1905*
%
%ADD42ROUNDEDRECTD42*%
G04:AMPARAMS|DCode=43|XSize=2.2352mm|YSize=2.2352mm|CornerRadius=0.6096mm|HoleSize=0mm|Usage=FLASHONLY|Rotation=0.000|XOffset=0mm|YOffset=0mm|HoleType=Round|Shape=RoundedRectangle|*
%AMROUNDEDRECTD43*
21,1,2.2352,1.0160,0,0,0.0*
21,1,1.0160,2.2352,0,0,0.0*
1,1,1.2192,0.5080,-0.5080*
1,1,1.2192,-0.5080,-0.5080*
1,1,1.2192,-0.5080,0.5080*
1,1,1.2192,0.5080,0.5080*
%
%ADD43ROUNDEDRECTD43*%
G04:AMPARAMS|DCode=44|XSize=1.4732mm|YSize=2.0032mm|CornerRadius=0.4191mm|HoleSize=0mm|Usage=FLASHONLY|Rotation=0.000|XOffset=0mm|YOffset=0mm|HoleType=Round|Shape=RoundedRectangle|*
%AMROUNDEDRECTD44*
21,1,1.4732,1.1650,0,0,0.0*
21,1,0.6350,2.0032,0,0,0.0*
1,1,0.8382,0.3175,-0.5825*
1,1,0.8382,-0.3175,-0.5825*
1,1,0.8382,-0.3175,0.5825*
1,1,0.8382,0.3175,0.5825*
%
%ADD44ROUNDEDRECTD44*%
G04:AMPARAMS|DCode=45|XSize=0.8128mm|YSize=0.9652mm|CornerRadius=0.254mm|HoleSize=0mm|Usage=FLASHONLY|Rotation=0.000|XOffset=0mm|YOffset=0mm|HoleType=Round|Shape=RoundedRectangle|*
%AMROUNDEDRECTD45*
21,1,0.8128,0.4572,0,0,0.0*
21,1,0.3048,0.9652,0,0,0.0*
1,1,0.5080,0.1524,-0.2286*
1,1,0.5080,-0.1524,-0.2286*
1,1,0.5080,-0.1524,0.2286*
1,1,0.5080,0.1524,0.2286*
%
%ADD45ROUNDEDRECTD45*%
%ADD46R,1.3032X1.6032*%
%ADD47O,1.5032X0.7032*%
G04:AMPARAMS|DCode=48|XSize=3.4032mm|YSize=2.5032mm|CornerRadius=0.6766mm|HoleSize=0mm|Usage=FLASHONLY|Rotation=270.000|XOffset=0mm|YOffset=0mm|HoleType=Round|Shape=RoundedRectangle|*
%AMROUNDEDRECTD48*
21,1,3.4032,1.1500,0,0,270.0*
21,1,2.0500,2.5032,0,0,270.0*
1,1,1.3532,-0.5750,-1.0250*
1,1,1.3532,-0.5750,1.0250*
1,1,1.3532,0.5750,1.0250*
1,1,1.3532,0.5750,-1.0250*
%
%ADD48ROUNDEDRECTD48*%
G04:AMPARAMS|DCode=49|XSize=4.0132mm|YSize=2.2352mm|CornerRadius=0.6096mm|HoleSize=0mm|Usage=FLASHONLY|Rotation=270.000|XOffset=0mm|YOffset=0mm|HoleType=Round|Shape=RoundedRectangle|*
%AMROUNDEDRECTD49*
21,1,4.0132,1.0160,0,0,270.0*
21,1,2.7940,2.2352,0,0,270.0*
1,1,1.2192,-0.5080,-1.3970*
1,1,1.2192,-0.5080,1.3970*
1,1,1.2192,0.5080,1.3970*
1,1,1.2192,0.5080,-1.3970*
%
%ADD49ROUNDEDRECTD49*%
G04:AMPARAMS|DCode=50|XSize=1.7032mm|YSize=1.2032mm|CornerRadius=0.3516mm|HoleSize=0mm|Usage=FLASHONLY|Rotation=180.000|XOffset=0mm|YOffset=0mm|HoleType=Round|Shape=RoundedRectangle|*
%AMROUNDEDRECTD50*
21,1,1.7032,0.5000,0,0,180.0*
21,1,1.0000,1.2032,0,0,180.0*
1,1,0.7032,-0.5000,0.2500*
1,1,0.7032,0.5000,0.2500*
1,1,0.7032,0.5000,-0.2500*
1,1,0.7032,-0.5000,-0.2500*
%
%ADD50ROUNDEDRECTD50*%
G04:AMPARAMS|DCode=51|XSize=1.0432mm|YSize=0.4232mm|CornerRadius=0.1566mm|HoleSize=0mm|Usage=FLASHONLY|Rotation=180.000|XOffset=0mm|YOffset=0mm|HoleType=Round|Shape=RoundedRectangle|*
%AMROUNDEDRECTD51*
21,1,1.0432,0.1100,0,0,180.0*
21,1,0.7300,0.4232,0,0,180.0*
1,1,0.3132,-0.3650,0.0550*
1,1,0.3132,0.3650,0.0550*
1,1,0.3132,0.3650,-0.0550*
1,1,0.3132,-0.3650,-0.0550*
%
%ADD51ROUNDEDRECTD51*%
G04:AMPARAMS|DCode=52|XSize=1.0432mm|YSize=0.4232mm|CornerRadius=0.1566mm|HoleSize=0mm|Usage=FLASHONLY|Rotation=90.000|XOffset=0mm|YOffset=0mm|HoleType=Round|Shape=RoundedRectangle|*
%AMROUNDEDRECTD52*
21,1,1.0432,0.1100,0,0,90.0*
21,1,0.7300,0.4232,0,0,90.0*
1,1,0.3132,0.0550,0.3650*
1,1,0.3132,0.0550,-0.3650*
1,1,0.3132,-0.0550,-0.3650*
1,1,0.3132,-0.0550,0.3650*
%
%ADD52ROUNDEDRECTD52*%
G04:AMPARAMS|DCode=53|XSize=4.2672mm|YSize=4.2672mm|CornerRadius=1.1176mm|HoleSize=0mm|Usage=FLASHONLY|Rotation=90.000|XOffset=0mm|YOffset=0mm|HoleType=Round|Shape=RoundedRectangle|*
%AMROUNDEDRECTD53*
21,1,4.2672,2.0320,0,0,90.0*
21,1,2.0320,4.2672,0,0,90.0*
1,1,2.2352,1.0160,1.0160*
1,1,2.2352,1.0160,-1.0160*
1,1,2.2352,-1.0160,-1.0160*
1,1,2.2352,-1.0160,1.0160*
%
%ADD53ROUNDEDRECTD53*%
G04:AMPARAMS|DCode=54|XSize=1.5032mm|YSize=1.1032mm|CornerRadius=0.3266mm|HoleSize=0mm|Usage=FLASHONLY|Rotation=180.000|XOffset=0mm|YOffset=0mm|HoleType=Round|Shape=RoundedRectangle|*
%AMROUNDEDRECTD54*
21,1,1.5032,0.4500,0,0,180.0*
21,1,0.8500,1.1032,0,0,180.0*
1,1,0.6532,-0.4250,0.2250*
1,1,0.6532,0.4250,0.2250*
1,1,0.6532,0.4250,-0.2250*
1,1,0.6532,-0.4250,-0.2250*
%
%ADD54ROUNDEDRECTD54*%
G04:AMPARAMS|DCode=55|XSize=1.7032mm|YSize=0.5032mm|CornerRadius=0.1766mm|HoleSize=0mm|Usage=FLASHONLY|Rotation=90.000|XOffset=0mm|YOffset=0mm|HoleType=Round|Shape=RoundedRectangle|*
%AMROUNDEDRECTD55*
21,1,1.7032,0.1500,0,0,90.0*
21,1,1.3500,0.5032,0,0,90.0*
1,1,0.3532,0.0750,0.6750*
1,1,0.3532,0.0750,-0.6750*
1,1,0.3532,-0.0750,-0.6750*
1,1,0.3532,-0.0750,0.6750*
%
%ADD55ROUNDEDRECTD55*%
%ADD56C,0.8032*%
%ADD57C,5.2032*%
%ADD58C,0.8532*%
%ADD59O,1.2032X1.8032*%
%ADD60O,1.2032X2.3032*%
%ADD61C,0.7032*%
%ADD62C,1.4732*%
D19*
X0Y50000D02*
G03*
X50000Y0I50000J0D01*
G01*
X400000D02*
G03*
X450000Y50000I0J50000D01*
G01*
Y450000D02*
G03*
X400000Y500000I-50000J0D01*
G01*
X50000D02*
G03*
X0Y450000I0J-50000D01*
G01*
X50000Y0D02*
X400000D01*
X50000Y500000D02*
X400000D01*
X450000Y50000D02*
Y450000D01*
X0Y50000D02*
Y450000D01*
D36*
X218440Y327660D02*
D03*
Y301638D02*
D03*
D38*
X173736Y90000D02*
D03*
Y70000D02*
D03*
Y50000D02*
D03*
Y110000D02*
D03*
D39*
X189230Y158750D02*
D03*
Y173990D02*
D03*
X273050Y158750D02*
D03*
Y173990D02*
D03*
X107950Y158750D02*
D03*
Y173990D02*
D03*
X198120Y322580D02*
D03*
Y307340D02*
D03*
X186690Y322580D02*
D03*
Y307340D02*
D03*
X175260Y322580D02*
D03*
Y307340D02*
D03*
X163830Y322580D02*
D03*
Y307340D02*
D03*
X274320Y223520D02*
D03*
Y238760D02*
D03*
D40*
X355600Y221186D02*
D03*
Y241186D02*
D03*
X334010Y221186D02*
D03*
Y241186D02*
D03*
X240030Y324960D02*
D03*
Y304960D02*
D03*
X209550Y407510D02*
D03*
Y387510D02*
D03*
X293370Y241186D02*
D03*
Y221186D02*
D03*
X377190Y241186D02*
D03*
Y221186D02*
D03*
X243840Y387510D02*
D03*
Y407510D02*
D03*
D41*
X313690Y240186D02*
D03*
Y222186D02*
D03*
X266700Y322580D02*
D03*
Y304580D02*
D03*
X285750Y306580D02*
D03*
Y324580D02*
D03*
X304800Y322580D02*
D03*
Y304580D02*
D03*
X323850Y306580D02*
D03*
Y324580D02*
D03*
X342900Y322580D02*
D03*
Y304580D02*
D03*
D42*
X360680Y173228D02*
D03*
X317500D02*
D03*
X360680Y156972D02*
D03*
X317500D02*
D03*
D43*
X213310Y80560D02*
D03*
X365810D02*
D03*
Y24560D02*
D03*
X213310D02*
D03*
D44*
X254560Y107940D02*
D03*
X279560D02*
D03*
X299560D02*
D03*
X324560D02*
D03*
D45*
X240538Y154432D02*
D03*
X259842D02*
D03*
Y178308D02*
D03*
X250190Y154432D02*
D03*
X240538Y178308D02*
D03*
X250190D02*
D03*
X155448Y154432D02*
D03*
X174752D02*
D03*
Y178308D02*
D03*
X165100Y154432D02*
D03*
X155448Y178308D02*
D03*
X165100D02*
D03*
X74168Y154432D02*
D03*
X93472D02*
D03*
Y178308D02*
D03*
X83820Y154432D02*
D03*
X74168Y178308D02*
D03*
X83820D02*
D03*
D46*
X86200Y287020D02*
D03*
X66200D02*
D03*
X66040Y222250D02*
D03*
X86040D02*
D03*
X66040Y242570D02*
D03*
X86040D02*
D03*
X66040Y262890D02*
D03*
X86040D02*
D03*
D47*
X275760Y417830D02*
D03*
Y405130D02*
D03*
Y392430D02*
D03*
Y379730D02*
D03*
X328760Y417830D02*
D03*
Y405130D02*
D03*
Y392430D02*
D03*
Y379730D02*
D03*
D48*
X302260Y398780D02*
D03*
D49*
X146290Y384683D02*
D03*
X49290D02*
D03*
D50*
X187960Y384843D02*
D03*
X187961Y410244D02*
D03*
D51*
X210960Y232000D02*
D03*
Y236000D02*
D03*
Y240000D02*
D03*
Y244000D02*
D03*
Y248000D02*
D03*
Y252000D02*
D03*
Y256000D02*
D03*
Y260000D02*
D03*
Y264000D02*
D03*
Y268000D02*
D03*
Y272000D02*
D03*
Y276000D02*
D03*
X152260D02*
D03*
Y272000D02*
D03*
Y268000D02*
D03*
Y264000D02*
D03*
Y260000D02*
D03*
Y256000D02*
D03*
Y252000D02*
D03*
Y248000D02*
D03*
Y244000D02*
D03*
Y240000D02*
D03*
Y236000D02*
D03*
Y232000D02*
D03*
D52*
X159610Y224650D02*
D03*
X163610D02*
D03*
X167610D02*
D03*
X171610D02*
D03*
X175610D02*
D03*
X179610D02*
D03*
X183610D02*
D03*
X187610D02*
D03*
X191610D02*
D03*
X195610D02*
D03*
X199610D02*
D03*
X203610D02*
D03*
Y283350D02*
D03*
X199610D02*
D03*
X195610D02*
D03*
X191610D02*
D03*
X187610D02*
D03*
X183610D02*
D03*
X179610D02*
D03*
X175610D02*
D03*
X171610D02*
D03*
X167610D02*
D03*
X163610D02*
D03*
X159610D02*
D03*
D53*
X181610Y254000D02*
D03*
D54*
X256540Y220640D02*
D03*
Y241640D02*
D03*
D55*
X135030Y82150D02*
D03*
X132030D02*
D03*
X127030D02*
D03*
X124030D02*
D03*
X119030D02*
D03*
X114030D02*
D03*
X109030D02*
D03*
X104030D02*
D03*
X99030D02*
D03*
X94030D02*
D03*
X89030D02*
D03*
X84030D02*
D03*
X79030D02*
D03*
X76030D02*
D03*
X71030D02*
D03*
X68030D02*
D03*
D56*
X314060Y77180D02*
D03*
X265060D02*
D03*
D57*
X329184Y469646D02*
D03*
X113919D02*
D03*
D58*
X72630Y66750D02*
D03*
X130430D02*
D03*
D59*
X144780Y31750D02*
D03*
X58280D02*
D03*
D60*
X144780Y71750D02*
D03*
X58280D02*
D03*
D61*
X126746Y210312D02*
D03*
X116078Y278257D02*
D03*
X109855Y284480D02*
D03*
X103632Y290830D02*
D03*
X102997Y233426D02*
D03*
X97663Y214630D02*
D03*
X97917Y275082D02*
D03*
X189230Y106934D02*
D03*
X180848Y362331D02*
D03*
X172720Y263652D02*
D03*
X167259D02*
D03*
X178816D02*
D03*
X184531D02*
D03*
X190627D02*
D03*
X196342D02*
D03*
X167259Y251714D02*
D03*
X172720D02*
D03*
X178816D02*
D03*
X184531D02*
D03*
X190627D02*
D03*
X196342D02*
D03*
X276860Y215011D02*
D03*
X269113Y212979D02*
D03*
X273304Y214884D02*
D03*
X301625Y189992D02*
D03*
X273050Y182626D02*
D03*
X107696Y182245D02*
D03*
X107950Y186309D02*
D03*
X196342Y240030D02*
D03*
X190627D02*
D03*
X184531D02*
D03*
X178816D02*
D03*
X172720D02*
D03*
X167259D02*
D03*
X196342Y245872D02*
D03*
X190627D02*
D03*
X184531D02*
D03*
X178816D02*
D03*
X172720D02*
D03*
X167259D02*
D03*
X196342Y257429D02*
D03*
X190627D02*
D03*
X184531D02*
D03*
X178816D02*
D03*
X172720D02*
D03*
X167259D02*
D03*
X196342Y269748D02*
D03*
X190627D02*
D03*
X184531D02*
D03*
X178816D02*
D03*
X172720D02*
D03*
X167259D02*
D03*
X293370Y253365D02*
D03*
X176784Y191008D02*
D03*
X178689Y195072D02*
D03*
X177038Y199009D02*
D03*
X175006Y201930D02*
D03*
X170688Y202946D02*
D03*
X166243Y202565D02*
D03*
X167132Y197739D02*
D03*
X162179Y199771D02*
D03*
X163322Y196342D02*
D03*
X159208Y195959D02*
D03*
X164084Y192405D02*
D03*
X161163Y192659D02*
D03*
X157099Y192913D02*
D03*
X184917Y212618D02*
D03*
X186182Y293370D02*
D03*
X182626Y293497D02*
D03*
X179197D02*
D03*
X176022D02*
D03*
X89027Y143129D02*
D03*
X86614D02*
D03*
X84201Y142367D02*
D03*
X91440Y141351D02*
D03*
X89281Y140462D02*
D03*
X86995Y140081D02*
D03*
X84836Y139827D02*
D03*
X88265Y145415D02*
D03*
X82804Y145669D02*
D03*
X168656Y134366D02*
D03*
X167513Y145288D02*
D03*
X164084Y144526D02*
D03*
X166370Y142113D02*
D03*
X163957Y141097D02*
D03*
X167640Y138811D02*
D03*
X166497Y136398D02*
D03*
X163957Y137033D02*
D03*
X251079Y132207D02*
D03*
X249174Y133858D02*
D03*
X251968Y135382D02*
D03*
X252349Y138049D02*
D03*
X249301Y140589D02*
D03*
X252476Y141097D02*
D03*
X251206Y143510D02*
D03*
X248412Y143637D02*
D03*
X251333Y146304D02*
D03*
X248920Y146177D02*
D03*
X243713Y342900D02*
D03*
X241046Y343916D02*
D03*
X238252Y342011D02*
D03*
X240665Y341376D02*
D03*
X243586Y339471D02*
D03*
X242697Y336423D02*
D03*
X239522D02*
D03*
X237363Y338074D02*
D03*
X208915Y296672D02*
D03*
X206209Y297886D02*
D03*
X207772Y299212D02*
D03*
X204597Y300228D02*
D03*
X200914Y297815D02*
D03*
X181483Y300101D02*
D03*
X177419Y299847D02*
D03*
X175895Y297053D02*
D03*
X188722Y297307D02*
D03*
X183515Y297434D02*
D03*
X186055Y297180D02*
D03*
X139954Y191008D02*
D03*
X234950Y239776D02*
D03*
X210825Y211348D02*
D03*
X132207Y112522D02*
D03*
X109887Y111284D02*
D03*
X174498Y194945D02*
D03*
X171958Y198731D02*
D03*
X169926Y193421D02*
D03*
X141864Y236494D02*
D03*
X220472Y223520D02*
D03*
X219583Y214122D02*
D03*
X249555Y137160D02*
D03*
X141737Y245003D02*
D03*
X220604Y189885D02*
D03*
X192024Y205105D02*
D03*
X197744Y212872D02*
D03*
X240289Y338729D02*
D03*
X223017Y246654D02*
D03*
X164973Y133477D02*
D03*
X188105Y147556D02*
D03*
X85725Y145161D02*
D03*
X227076Y233426D02*
D03*
X204089Y297942D02*
D03*
X331470Y187960D02*
D03*
X179900Y297298D02*
D03*
D62*
X66548Y197104D02*
D03*
X66675Y207772D02*
D03*
X38735Y191897D02*
D03*
X356108Y128651D02*
D03*
X339598D02*
D03*
X173736Y110000D02*
D03*
Y90000D02*
D03*
Y70000D02*
D03*
X174860Y48876D02*
D03*
X30861Y181864D02*
D03*
X17018Y184531D02*
D03*
X25908Y193548D02*
D03*
X32131Y216281D02*
D03*
X17526Y215646D02*
D03*
X31750Y227965D02*
D03*
X17653Y227711D02*
D03*
X29718Y241935D02*
D03*
X28829Y253873D02*
D03*
X17526Y254254D02*
D03*
X18034Y240538D02*
D03*
X17399Y197993D02*
D03*
X17907Y206375D02*
D03*
X33909Y203835D02*
D03*
M02*
