G04*
G04 #@! TF.GenerationSoftware,Altium Limited,Altium Designer,20.2.3 (150)*
G04*
G04 Layer_Color=32768*
%FSLAX44Y44*%
%MOMM*%
G71*
G04*
G04 #@! TF.SameCoordinates,529A9E34-4FC0-4C7B-B34A-3B4898198E1E*
G04*
G04*
G04 #@! TF.FilePolarity,Positive*
G04*
G01*
G75*
%ADD11C,0.2000*%
%ADD18C,0.1000*%
%ADD19C,0.2540*%
%ADD80C,0.0500*%
D11*
X208940Y295858D02*
X227940D01*
Y333440D01*
X208940D02*
X227940D01*
X208940Y295858D02*
Y333440D01*
D18*
X302260Y393780D02*
Y403780D01*
X297260Y398780D02*
X307260D01*
X260260Y426780D02*
X344260D01*
X260260Y367030D02*
X344260D01*
X260260D02*
Y426780D01*
X344260Y367030D02*
Y426780D01*
X213440Y314649D02*
X223440D01*
X218440Y309649D02*
Y319649D01*
D19*
X0Y50000D02*
G03*
X50000Y0I50000J0D01*
G01*
X400000D02*
G03*
X450000Y50000I0J50000D01*
G01*
Y450000D02*
G03*
X400000Y500000I-50000J0D01*
G01*
X50000D02*
G03*
X0Y450000I0J-50000D01*
G01*
X50000Y0D02*
X400000D01*
X50000Y500000D02*
X400000D01*
X450000Y50000D02*
Y450000D01*
X0Y50000D02*
Y450000D01*
D80*
X36830Y333883D02*
X158750D01*
X36830D02*
Y435483D01*
X158750D01*
Y333883D02*
Y435483D01*
X217660Y217950D02*
Y290050D01*
X145560Y217950D02*
Y290050D01*
Y217950D02*
X217660D01*
X145560Y290050D02*
X217660D01*
M02*
