G04*
G04 #@! TF.GenerationSoftware,Altium Limited,Altium Designer,20.2.3 (150)*
G04*
G04 Layer_Color=8388736*
%FSLAX44Y44*%
%MOMM*%
G71*
G04*
G04 #@! TF.SameCoordinates,C1CC25AD-0FF3-43E4-BDA3-AC1D03E08D52*
G04*
G04*
G04 #@! TF.FilePolarity,Negative*
G04*
G01*
G75*
G04:AMPARAMS|DCode=27|XSize=0.9561mm|YSize=1.6098mm|CornerRadius=0.239mm|HoleSize=0mm|Usage=FLASHONLY|Rotation=90.000|XOffset=0mm|YOffset=0mm|HoleType=Round|Shape=RoundedRectangle|*
%AMROUNDEDRECTD27*
21,1,0.9561,1.1318,0,0,90.0*
21,1,0.4780,1.6098,0,0,90.0*
1,1,0.4780,0.5659,0.2390*
1,1,0.4780,0.5659,-0.2390*
1,1,0.4780,-0.5659,-0.2390*
1,1,0.4780,-0.5659,0.2390*
%
%ADD27ROUNDEDRECTD27*%
%ADD31C,0.2540*%
%ADD39C,0.2540*%
G04:AMPARAMS|DCode=55|XSize=0.6096mm|YSize=0.6096mm|CornerRadius=0.3048mm|HoleSize=0mm|Usage=FLASHONLY|Rotation=90.000|XOffset=0mm|YOffset=0mm|HoleType=Round|Shape=RoundedRectangle|*
%AMROUNDEDRECTD55*
21,1,0.6096,0.0000,0,0,90.0*
21,1,0.0000,0.6096,0,0,90.0*
1,1,0.6096,0.0000,0.0000*
1,1,0.6096,0.0000,0.0000*
1,1,0.6096,0.0000,0.0000*
1,1,0.6096,0.0000,0.0000*
%
%ADD55ROUNDEDRECTD55*%
G04:AMPARAMS|DCode=56|XSize=0.9652mm|YSize=0.762mm|CornerRadius=0.2413mm|HoleSize=0mm|Usage=FLASHONLY|Rotation=0.000|XOffset=0mm|YOffset=0mm|HoleType=Round|Shape=RoundedRectangle|*
%AMROUNDEDRECTD56*
21,1,0.9652,0.2794,0,0,0.0*
21,1,0.4826,0.7620,0,0,0.0*
1,1,0.4826,0.2413,-0.1397*
1,1,0.4826,-0.2413,-0.1397*
1,1,0.4826,-0.2413,0.1397*
1,1,0.4826,0.2413,0.1397*
%
%ADD56ROUNDEDRECTD56*%
%ADD57R,1.6032X1.3032*%
%ADD58R,1.5032X1.2032*%
G04:AMPARAMS|DCode=59|XSize=1.4732mm|YSize=0.9652mm|CornerRadius=0.2921mm|HoleSize=0mm|Usage=FLASHONLY|Rotation=0.000|XOffset=0mm|YOffset=0mm|HoleType=Round|Shape=RoundedRectangle|*
%AMROUNDEDRECTD59*
21,1,1.4732,0.3810,0,0,0.0*
21,1,0.8890,0.9652,0,0,0.0*
1,1,0.5842,0.4445,-0.1905*
1,1,0.5842,-0.4445,-0.1905*
1,1,0.5842,-0.4445,0.1905*
1,1,0.5842,0.4445,0.1905*
%
%ADD59ROUNDEDRECTD59*%
G04:AMPARAMS|DCode=60|XSize=2.2352mm|YSize=2.2352mm|CornerRadius=0.6096mm|HoleSize=0mm|Usage=FLASHONLY|Rotation=0.000|XOffset=0mm|YOffset=0mm|HoleType=Round|Shape=RoundedRectangle|*
%AMROUNDEDRECTD60*
21,1,2.2352,1.0160,0,0,0.0*
21,1,1.0160,2.2352,0,0,0.0*
1,1,1.2192,0.5080,-0.5080*
1,1,1.2192,-0.5080,-0.5080*
1,1,1.2192,-0.5080,0.5080*
1,1,1.2192,0.5080,0.5080*
%
%ADD60ROUNDEDRECTD60*%
G04:AMPARAMS|DCode=61|XSize=1.4732mm|YSize=2.0032mm|CornerRadius=0.4191mm|HoleSize=0mm|Usage=FLASHONLY|Rotation=0.000|XOffset=0mm|YOffset=0mm|HoleType=Round|Shape=RoundedRectangle|*
%AMROUNDEDRECTD61*
21,1,1.4732,1.1650,0,0,0.0*
21,1,0.6350,2.0032,0,0,0.0*
1,1,0.8382,0.3175,-0.5825*
1,1,0.8382,-0.3175,-0.5825*
1,1,0.8382,-0.3175,0.5825*
1,1,0.8382,0.3175,0.5825*
%
%ADD61ROUNDEDRECTD61*%
G04:AMPARAMS|DCode=62|XSize=0.8128mm|YSize=0.9652mm|CornerRadius=0.254mm|HoleSize=0mm|Usage=FLASHONLY|Rotation=0.000|XOffset=0mm|YOffset=0mm|HoleType=Round|Shape=RoundedRectangle|*
%AMROUNDEDRECTD62*
21,1,0.8128,0.4572,0,0,0.0*
21,1,0.3048,0.9652,0,0,0.0*
1,1,0.5080,0.1524,-0.2286*
1,1,0.5080,-0.1524,-0.2286*
1,1,0.5080,-0.1524,0.2286*
1,1,0.5080,0.1524,0.2286*
%
%ADD62ROUNDEDRECTD62*%
%ADD63R,1.3032X1.6032*%
%ADD64O,1.5032X0.7032*%
G04:AMPARAMS|DCode=65|XSize=3.4032mm|YSize=2.5032mm|CornerRadius=0.6766mm|HoleSize=0mm|Usage=FLASHONLY|Rotation=270.000|XOffset=0mm|YOffset=0mm|HoleType=Round|Shape=RoundedRectangle|*
%AMROUNDEDRECTD65*
21,1,3.4032,1.1500,0,0,270.0*
21,1,2.0500,2.5032,0,0,270.0*
1,1,1.3532,-0.5750,-1.0250*
1,1,1.3532,-0.5750,1.0250*
1,1,1.3532,0.5750,1.0250*
1,1,1.3532,0.5750,-1.0250*
%
%ADD65ROUNDEDRECTD65*%
G04:AMPARAMS|DCode=66|XSize=4.0132mm|YSize=2.2352mm|CornerRadius=0.6096mm|HoleSize=0mm|Usage=FLASHONLY|Rotation=270.000|XOffset=0mm|YOffset=0mm|HoleType=Round|Shape=RoundedRectangle|*
%AMROUNDEDRECTD66*
21,1,4.0132,1.0160,0,0,270.0*
21,1,2.7940,2.2352,0,0,270.0*
1,1,1.2192,-0.5080,-1.3970*
1,1,1.2192,-0.5080,1.3970*
1,1,1.2192,0.5080,1.3970*
1,1,1.2192,0.5080,-1.3970*
%
%ADD66ROUNDEDRECTD66*%
G04:AMPARAMS|DCode=67|XSize=1.7032mm|YSize=1.2032mm|CornerRadius=0.3516mm|HoleSize=0mm|Usage=FLASHONLY|Rotation=180.000|XOffset=0mm|YOffset=0mm|HoleType=Round|Shape=RoundedRectangle|*
%AMROUNDEDRECTD67*
21,1,1.7032,0.5000,0,0,180.0*
21,1,1.0000,1.2032,0,0,180.0*
1,1,0.7032,-0.5000,0.2500*
1,1,0.7032,0.5000,0.2500*
1,1,0.7032,0.5000,-0.2500*
1,1,0.7032,-0.5000,-0.2500*
%
%ADD67ROUNDEDRECTD67*%
G04:AMPARAMS|DCode=68|XSize=1.0432mm|YSize=0.4232mm|CornerRadius=0.1566mm|HoleSize=0mm|Usage=FLASHONLY|Rotation=180.000|XOffset=0mm|YOffset=0mm|HoleType=Round|Shape=RoundedRectangle|*
%AMROUNDEDRECTD68*
21,1,1.0432,0.1100,0,0,180.0*
21,1,0.7300,0.4232,0,0,180.0*
1,1,0.3132,-0.3650,0.0550*
1,1,0.3132,0.3650,0.0550*
1,1,0.3132,0.3650,-0.0550*
1,1,0.3132,-0.3650,-0.0550*
%
%ADD68ROUNDEDRECTD68*%
G04:AMPARAMS|DCode=69|XSize=1.0432mm|YSize=0.4232mm|CornerRadius=0.1566mm|HoleSize=0mm|Usage=FLASHONLY|Rotation=90.000|XOffset=0mm|YOffset=0mm|HoleType=Round|Shape=RoundedRectangle|*
%AMROUNDEDRECTD69*
21,1,1.0432,0.1100,0,0,90.0*
21,1,0.7300,0.4232,0,0,90.0*
1,1,0.3132,0.0550,0.3650*
1,1,0.3132,0.0550,-0.3650*
1,1,0.3132,-0.0550,-0.3650*
1,1,0.3132,-0.0550,0.3650*
%
%ADD69ROUNDEDRECTD69*%
G04:AMPARAMS|DCode=70|XSize=4.2672mm|YSize=4.2672mm|CornerRadius=1.1176mm|HoleSize=0mm|Usage=FLASHONLY|Rotation=90.000|XOffset=0mm|YOffset=0mm|HoleType=Round|Shape=RoundedRectangle|*
%AMROUNDEDRECTD70*
21,1,4.2672,2.0320,0,0,90.0*
21,1,2.0320,4.2672,0,0,90.0*
1,1,2.2352,1.0160,1.0160*
1,1,2.2352,1.0160,-1.0160*
1,1,2.2352,-1.0160,-1.0160*
1,1,2.2352,-1.0160,1.0160*
%
%ADD70ROUNDEDRECTD70*%
G04:AMPARAMS|DCode=71|XSize=1.5032mm|YSize=1.1032mm|CornerRadius=0.3266mm|HoleSize=0mm|Usage=FLASHONLY|Rotation=180.000|XOffset=0mm|YOffset=0mm|HoleType=Round|Shape=RoundedRectangle|*
%AMROUNDEDRECTD71*
21,1,1.5032,0.4500,0,0,180.0*
21,1,0.8500,1.1032,0,0,180.0*
1,1,0.6532,-0.4250,0.2250*
1,1,0.6532,0.4250,0.2250*
1,1,0.6532,0.4250,-0.2250*
1,1,0.6532,-0.4250,-0.2250*
%
%ADD71ROUNDEDRECTD71*%
G04:AMPARAMS|DCode=72|XSize=1.7032mm|YSize=0.5032mm|CornerRadius=0.1766mm|HoleSize=0mm|Usage=FLASHONLY|Rotation=90.000|XOffset=0mm|YOffset=0mm|HoleType=Round|Shape=RoundedRectangle|*
%AMROUNDEDRECTD72*
21,1,1.7032,0.1500,0,0,90.0*
21,1,1.3500,0.5032,0,0,90.0*
1,1,0.3532,0.0750,0.6750*
1,1,0.3532,0.0750,-0.6750*
1,1,0.3532,-0.0750,-0.6750*
1,1,0.3532,-0.0750,0.6750*
%
%ADD72ROUNDEDRECTD72*%
%ADD73C,0.8032*%
%ADD74C,5.2032*%
%ADD75C,0.8532*%
%ADD76O,1.2032X1.8032*%
%ADD77O,1.2032X2.3032*%
%ADD78C,0.7032*%
%ADD79C,1.4732*%
D27*
X218440Y327660D02*
D03*
Y301638D02*
D03*
X668440Y327660D02*
D03*
Y301638D02*
D03*
X218440Y827660D02*
D03*
Y801638D02*
D03*
X668440Y827660D02*
D03*
Y801638D02*
D03*
D31*
X50000Y1000000D02*
G03*
X0Y950000I0J-50000D01*
G01*
X450000D02*
G03*
X400000Y1000000I-50000J0D01*
G01*
X0Y550000D02*
G03*
X50000Y500000I50000J0D01*
G01*
X500000Y1000000D02*
G03*
X450000Y950000I0J-50000D01*
G01*
X900000D02*
G03*
X850000Y1000000I-50000J0D01*
G01*
Y500000D02*
G03*
X900000Y550000I0J50000D01*
G01*
Y450000D02*
G03*
X850000Y500000I-50000J0D01*
G01*
Y0D02*
G03*
X900000Y50000I0J50000D01*
G01*
X450000D02*
G03*
X500000Y0I50000J0D01*
G01*
X50000Y500000D02*
G03*
X0Y450000I0J-50000D01*
G01*
X400000Y0D02*
G03*
X450000Y50000I0J50000D01*
G01*
X0D02*
G03*
X50000Y0I50000J0D01*
G01*
X900000Y50000D02*
Y450000D01*
X0Y550000D02*
Y950000D01*
X50000Y1000000D02*
X400000D01*
X900000Y550000D02*
Y950000D01*
X500000Y1000000D02*
X850000D01*
X500000Y0D02*
X850000D01*
X0Y50000D02*
Y450000D01*
X50000Y500000D02*
X400000D01*
X50000Y0D02*
X400000D01*
X0Y50000D02*
G03*
X50000Y0I50000J0D01*
G01*
X400000D02*
G03*
X450000Y50000I0J50000D01*
G01*
Y450000D02*
G03*
X400000Y500000I-50000J0D01*
G01*
X50000D02*
G03*
X0Y450000I0J-50000D01*
G01*
X50000Y0D02*
X400000D01*
X50000Y500000D02*
X400000D01*
X450000Y50000D02*
Y450000D01*
X0Y50000D02*
Y450000D01*
X450000Y50000D02*
G03*
X500000Y0I50000J0D01*
G01*
X850000D02*
G03*
X900000Y50000I0J50000D01*
G01*
Y450000D02*
G03*
X850000Y500000I-50000J0D01*
G01*
X500000D02*
G03*
X450000Y450000I0J-50000D01*
G01*
X500000Y0D02*
X850000D01*
X500000Y500000D02*
X850000D01*
X900000Y50000D02*
Y450000D01*
X450000Y50000D02*
Y450000D01*
X0Y550000D02*
G03*
X50000Y500000I50000J0D01*
G01*
X400000D02*
G03*
X450000Y550000I0J50000D01*
G01*
Y950000D02*
G03*
X400000Y1000000I-50000J0D01*
G01*
X50000D02*
G03*
X0Y950000I0J-50000D01*
G01*
X50000Y500000D02*
X400000D01*
X50000Y1000000D02*
X400000D01*
X450000Y550000D02*
Y950000D01*
X0Y550000D02*
Y950000D01*
X450000Y550000D02*
G03*
X500000Y500000I50000J0D01*
G01*
X850000D02*
G03*
X900000Y550000I0J50000D01*
G01*
Y950000D02*
G03*
X850000Y1000000I-50000J0D01*
G01*
X500000D02*
G03*
X450000Y950000I0J-50000D01*
G01*
X500000Y500000D02*
X850000D01*
X500000Y1000000D02*
X850000D01*
X900000Y550000D02*
Y950000D01*
X450000Y550000D02*
Y950000D01*
D39*
X900000Y50000D02*
D03*
D55*
X173736Y90000D02*
D03*
Y70000D02*
D03*
Y50000D02*
D03*
Y110000D02*
D03*
X623736Y90000D02*
D03*
Y70000D02*
D03*
Y50000D02*
D03*
Y110000D02*
D03*
X173736Y590000D02*
D03*
Y570000D02*
D03*
Y550000D02*
D03*
Y610000D02*
D03*
X623736Y590000D02*
D03*
Y570000D02*
D03*
Y550000D02*
D03*
Y610000D02*
D03*
D56*
X189230Y158750D02*
D03*
Y173990D02*
D03*
X273050Y158750D02*
D03*
Y173990D02*
D03*
X107950Y158750D02*
D03*
Y173990D02*
D03*
X198120Y322580D02*
D03*
Y307340D02*
D03*
X186690Y322580D02*
D03*
Y307340D02*
D03*
X175260Y322580D02*
D03*
Y307340D02*
D03*
X163830Y322580D02*
D03*
Y307340D02*
D03*
X274320Y223520D02*
D03*
Y238760D02*
D03*
X639230Y158750D02*
D03*
Y173990D02*
D03*
X723050Y158750D02*
D03*
Y173990D02*
D03*
X557950Y158750D02*
D03*
Y173990D02*
D03*
X648120Y322580D02*
D03*
Y307340D02*
D03*
X636690Y322580D02*
D03*
Y307340D02*
D03*
X625260Y322580D02*
D03*
Y307340D02*
D03*
X613830Y322580D02*
D03*
Y307340D02*
D03*
X724320Y223520D02*
D03*
Y238760D02*
D03*
X189230Y658750D02*
D03*
Y673990D02*
D03*
X273050Y658750D02*
D03*
Y673990D02*
D03*
X107950Y658750D02*
D03*
Y673990D02*
D03*
X198120Y822580D02*
D03*
Y807340D02*
D03*
X186690Y822580D02*
D03*
Y807340D02*
D03*
X175260Y822580D02*
D03*
Y807340D02*
D03*
X163830Y822580D02*
D03*
Y807340D02*
D03*
X274320Y723520D02*
D03*
Y738760D02*
D03*
X639230Y658750D02*
D03*
Y673990D02*
D03*
X723050Y658750D02*
D03*
Y673990D02*
D03*
X557950Y658750D02*
D03*
Y673990D02*
D03*
X648120Y822580D02*
D03*
Y807340D02*
D03*
X636690Y822580D02*
D03*
Y807340D02*
D03*
X625260Y822580D02*
D03*
Y807340D02*
D03*
X613830Y822580D02*
D03*
Y807340D02*
D03*
X724320Y723520D02*
D03*
Y738760D02*
D03*
D57*
X355600Y221186D02*
D03*
Y241186D02*
D03*
X334010Y221186D02*
D03*
Y241186D02*
D03*
X240030Y324960D02*
D03*
Y304960D02*
D03*
X209550Y407510D02*
D03*
Y387510D02*
D03*
X293370Y241186D02*
D03*
Y221186D02*
D03*
X377190Y241186D02*
D03*
Y221186D02*
D03*
X243840Y387510D02*
D03*
Y407510D02*
D03*
X805600Y221186D02*
D03*
Y241186D02*
D03*
X784010Y221186D02*
D03*
Y241186D02*
D03*
X690030Y324960D02*
D03*
Y304960D02*
D03*
X659550Y407510D02*
D03*
Y387510D02*
D03*
X743370Y241186D02*
D03*
Y221186D02*
D03*
X827190Y241186D02*
D03*
Y221186D02*
D03*
X693840Y387510D02*
D03*
Y407510D02*
D03*
X355600Y721186D02*
D03*
Y741186D02*
D03*
X334010Y721186D02*
D03*
Y741186D02*
D03*
X240030Y824960D02*
D03*
Y804960D02*
D03*
X209550Y907510D02*
D03*
Y887510D02*
D03*
X293370Y741186D02*
D03*
Y721186D02*
D03*
X377190Y741186D02*
D03*
Y721186D02*
D03*
X243840Y887510D02*
D03*
Y907510D02*
D03*
X805600Y721186D02*
D03*
Y741186D02*
D03*
X784010Y721186D02*
D03*
Y741186D02*
D03*
X690030Y824960D02*
D03*
Y804960D02*
D03*
X659550Y907510D02*
D03*
Y887510D02*
D03*
X743370Y741186D02*
D03*
Y721186D02*
D03*
X827190Y741186D02*
D03*
Y721186D02*
D03*
X693840Y887510D02*
D03*
Y907510D02*
D03*
D58*
X313690Y240186D02*
D03*
Y222186D02*
D03*
X266700Y322580D02*
D03*
Y304580D02*
D03*
X285750Y306580D02*
D03*
Y324580D02*
D03*
X304800Y322580D02*
D03*
Y304580D02*
D03*
X323850Y306580D02*
D03*
Y324580D02*
D03*
X342900Y322580D02*
D03*
Y304580D02*
D03*
X763690Y240186D02*
D03*
Y222186D02*
D03*
X716700Y322580D02*
D03*
Y304580D02*
D03*
X735750Y306580D02*
D03*
Y324580D02*
D03*
X754800Y322580D02*
D03*
Y304580D02*
D03*
X773850Y306580D02*
D03*
Y324580D02*
D03*
X792900Y322580D02*
D03*
Y304580D02*
D03*
X313690Y740186D02*
D03*
Y722186D02*
D03*
X266700Y822580D02*
D03*
Y804580D02*
D03*
X285750Y806580D02*
D03*
Y824580D02*
D03*
X304800Y822580D02*
D03*
Y804580D02*
D03*
X323850Y806580D02*
D03*
Y824580D02*
D03*
X342900Y822580D02*
D03*
Y804580D02*
D03*
X763690Y740186D02*
D03*
Y722186D02*
D03*
X716700Y822580D02*
D03*
Y804580D02*
D03*
X735750Y806580D02*
D03*
Y824580D02*
D03*
X754800Y822580D02*
D03*
Y804580D02*
D03*
X773850Y806580D02*
D03*
Y824580D02*
D03*
X792900Y822580D02*
D03*
Y804580D02*
D03*
D59*
X360680Y173228D02*
D03*
X317500D02*
D03*
X360680Y156972D02*
D03*
X317500D02*
D03*
X810680Y173228D02*
D03*
X767500D02*
D03*
X810680Y156972D02*
D03*
X767500D02*
D03*
X360680Y673228D02*
D03*
X317500D02*
D03*
X360680Y656972D02*
D03*
X317500D02*
D03*
X810680Y673228D02*
D03*
X767500D02*
D03*
X810680Y656972D02*
D03*
X767500D02*
D03*
D60*
X213310Y80560D02*
D03*
X365810D02*
D03*
Y24560D02*
D03*
X213310D02*
D03*
X663310Y80560D02*
D03*
X815810D02*
D03*
Y24560D02*
D03*
X663310D02*
D03*
X213310Y580560D02*
D03*
X365810D02*
D03*
Y524560D02*
D03*
X213310D02*
D03*
X663310Y580560D02*
D03*
X815810D02*
D03*
Y524560D02*
D03*
X663310D02*
D03*
D61*
X254560Y107940D02*
D03*
X279560D02*
D03*
X299560D02*
D03*
X324560D02*
D03*
X704560D02*
D03*
X729560D02*
D03*
X749560D02*
D03*
X774560D02*
D03*
X254560Y607940D02*
D03*
X279560D02*
D03*
X299560D02*
D03*
X324560D02*
D03*
X704560D02*
D03*
X729560D02*
D03*
X749560D02*
D03*
X774560D02*
D03*
D62*
X240538Y154432D02*
D03*
X259842D02*
D03*
Y178308D02*
D03*
X250190Y154432D02*
D03*
X240538Y178308D02*
D03*
X250190D02*
D03*
X155448Y154432D02*
D03*
X174752D02*
D03*
Y178308D02*
D03*
X165100Y154432D02*
D03*
X155448Y178308D02*
D03*
X165100D02*
D03*
X74168Y154432D02*
D03*
X93472D02*
D03*
Y178308D02*
D03*
X83820Y154432D02*
D03*
X74168Y178308D02*
D03*
X83820D02*
D03*
X690538Y154432D02*
D03*
X709842D02*
D03*
Y178308D02*
D03*
X700190Y154432D02*
D03*
X690538Y178308D02*
D03*
X700190D02*
D03*
X605448Y154432D02*
D03*
X624752D02*
D03*
Y178308D02*
D03*
X615100Y154432D02*
D03*
X605448Y178308D02*
D03*
X615100D02*
D03*
X524168Y154432D02*
D03*
X543472D02*
D03*
Y178308D02*
D03*
X533820Y154432D02*
D03*
X524168Y178308D02*
D03*
X533820D02*
D03*
X240538Y654432D02*
D03*
X259842D02*
D03*
Y678308D02*
D03*
X250190Y654432D02*
D03*
X240538Y678308D02*
D03*
X250190D02*
D03*
X155448Y654432D02*
D03*
X174752D02*
D03*
Y678308D02*
D03*
X165100Y654432D02*
D03*
X155448Y678308D02*
D03*
X165100D02*
D03*
X74168Y654432D02*
D03*
X93472D02*
D03*
Y678308D02*
D03*
X83820Y654432D02*
D03*
X74168Y678308D02*
D03*
X83820D02*
D03*
X690538Y654432D02*
D03*
X709842D02*
D03*
Y678308D02*
D03*
X700190Y654432D02*
D03*
X690538Y678308D02*
D03*
X700190D02*
D03*
X605448Y654432D02*
D03*
X624752D02*
D03*
Y678308D02*
D03*
X615100Y654432D02*
D03*
X605448Y678308D02*
D03*
X615100D02*
D03*
X524168Y654432D02*
D03*
X543472D02*
D03*
Y678308D02*
D03*
X533820Y654432D02*
D03*
X524168Y678308D02*
D03*
X533820D02*
D03*
D63*
X86200Y287020D02*
D03*
X66200D02*
D03*
X66040Y222250D02*
D03*
X86040D02*
D03*
X66040Y242570D02*
D03*
X86040D02*
D03*
X66040Y262890D02*
D03*
X86040D02*
D03*
X536200Y287020D02*
D03*
X516200D02*
D03*
X516040Y222250D02*
D03*
X536040D02*
D03*
X516040Y242570D02*
D03*
X536040D02*
D03*
X516040Y262890D02*
D03*
X536040D02*
D03*
X86200Y787020D02*
D03*
X66200D02*
D03*
X66040Y722250D02*
D03*
X86040D02*
D03*
X66040Y742570D02*
D03*
X86040D02*
D03*
X66040Y762890D02*
D03*
X86040D02*
D03*
X536200Y787020D02*
D03*
X516200D02*
D03*
X516040Y722250D02*
D03*
X536040D02*
D03*
X516040Y742570D02*
D03*
X536040D02*
D03*
X516040Y762890D02*
D03*
X536040D02*
D03*
D64*
X275760Y417830D02*
D03*
Y405130D02*
D03*
Y392430D02*
D03*
Y379730D02*
D03*
X328760Y417830D02*
D03*
Y405130D02*
D03*
Y392430D02*
D03*
Y379730D02*
D03*
X725760Y417830D02*
D03*
Y405130D02*
D03*
Y392430D02*
D03*
Y379730D02*
D03*
X778760Y417830D02*
D03*
Y405130D02*
D03*
Y392430D02*
D03*
Y379730D02*
D03*
X275760Y917830D02*
D03*
Y905130D02*
D03*
Y892430D02*
D03*
Y879730D02*
D03*
X328760Y917830D02*
D03*
Y905130D02*
D03*
Y892430D02*
D03*
Y879730D02*
D03*
X725760Y917830D02*
D03*
Y905130D02*
D03*
Y892430D02*
D03*
Y879730D02*
D03*
X778760Y917830D02*
D03*
Y905130D02*
D03*
Y892430D02*
D03*
Y879730D02*
D03*
D65*
X302260Y398780D02*
D03*
X752260D02*
D03*
X302260Y898780D02*
D03*
X752260D02*
D03*
D66*
X146290Y384683D02*
D03*
X49290D02*
D03*
X596290D02*
D03*
X499290D02*
D03*
X146290Y884683D02*
D03*
X49290D02*
D03*
X596290D02*
D03*
X499290D02*
D03*
D67*
X187960Y384843D02*
D03*
X187961Y410244D02*
D03*
X637960Y384843D02*
D03*
X637961Y410244D02*
D03*
X187960Y884843D02*
D03*
X187961Y910244D02*
D03*
X637960Y884843D02*
D03*
X637961Y910244D02*
D03*
D68*
X210960Y232000D02*
D03*
Y236000D02*
D03*
Y240000D02*
D03*
Y244000D02*
D03*
Y248000D02*
D03*
Y252000D02*
D03*
Y256000D02*
D03*
Y260000D02*
D03*
Y264000D02*
D03*
Y268000D02*
D03*
Y272000D02*
D03*
Y276000D02*
D03*
X152260D02*
D03*
Y272000D02*
D03*
Y268000D02*
D03*
Y264000D02*
D03*
Y260000D02*
D03*
Y256000D02*
D03*
Y252000D02*
D03*
Y248000D02*
D03*
Y244000D02*
D03*
Y240000D02*
D03*
Y236000D02*
D03*
Y232000D02*
D03*
X660960D02*
D03*
Y236000D02*
D03*
Y240000D02*
D03*
Y244000D02*
D03*
Y248000D02*
D03*
Y252000D02*
D03*
Y256000D02*
D03*
Y260000D02*
D03*
Y264000D02*
D03*
Y268000D02*
D03*
Y272000D02*
D03*
Y276000D02*
D03*
X602260D02*
D03*
Y272000D02*
D03*
Y268000D02*
D03*
Y264000D02*
D03*
Y260000D02*
D03*
Y256000D02*
D03*
Y252000D02*
D03*
Y248000D02*
D03*
Y244000D02*
D03*
Y240000D02*
D03*
Y236000D02*
D03*
Y232000D02*
D03*
X210960Y732000D02*
D03*
Y736000D02*
D03*
Y740000D02*
D03*
Y744000D02*
D03*
Y748000D02*
D03*
Y752000D02*
D03*
Y756000D02*
D03*
Y760000D02*
D03*
Y764000D02*
D03*
Y768000D02*
D03*
Y772000D02*
D03*
Y776000D02*
D03*
X152260D02*
D03*
Y772000D02*
D03*
Y768000D02*
D03*
Y764000D02*
D03*
Y760000D02*
D03*
Y756000D02*
D03*
Y752000D02*
D03*
Y748000D02*
D03*
Y744000D02*
D03*
Y740000D02*
D03*
Y736000D02*
D03*
Y732000D02*
D03*
X660960D02*
D03*
Y736000D02*
D03*
Y740000D02*
D03*
Y744000D02*
D03*
Y748000D02*
D03*
Y752000D02*
D03*
Y756000D02*
D03*
Y760000D02*
D03*
Y764000D02*
D03*
Y768000D02*
D03*
Y772000D02*
D03*
Y776000D02*
D03*
X602260D02*
D03*
Y772000D02*
D03*
Y768000D02*
D03*
Y764000D02*
D03*
Y760000D02*
D03*
Y756000D02*
D03*
Y752000D02*
D03*
Y748000D02*
D03*
Y744000D02*
D03*
Y740000D02*
D03*
Y736000D02*
D03*
Y732000D02*
D03*
D69*
X159610Y224650D02*
D03*
X163610D02*
D03*
X167610D02*
D03*
X171610D02*
D03*
X175610D02*
D03*
X179610D02*
D03*
X183610D02*
D03*
X187610D02*
D03*
X191610D02*
D03*
X195610D02*
D03*
X199610D02*
D03*
X203610D02*
D03*
Y283350D02*
D03*
X199610D02*
D03*
X195610D02*
D03*
X191610D02*
D03*
X187610D02*
D03*
X183610D02*
D03*
X179610D02*
D03*
X175610D02*
D03*
X171610D02*
D03*
X167610D02*
D03*
X163610D02*
D03*
X159610D02*
D03*
X609610Y224650D02*
D03*
X613610D02*
D03*
X617610D02*
D03*
X621610D02*
D03*
X625610D02*
D03*
X629610D02*
D03*
X633610D02*
D03*
X637610D02*
D03*
X641610D02*
D03*
X645610D02*
D03*
X649610D02*
D03*
X653610D02*
D03*
Y283350D02*
D03*
X649610D02*
D03*
X645610D02*
D03*
X641610D02*
D03*
X637610D02*
D03*
X633610D02*
D03*
X629610D02*
D03*
X625610D02*
D03*
X621610D02*
D03*
X617610D02*
D03*
X613610D02*
D03*
X609610D02*
D03*
X159610Y724650D02*
D03*
X163610D02*
D03*
X167610D02*
D03*
X171610D02*
D03*
X175610D02*
D03*
X179610D02*
D03*
X183610D02*
D03*
X187610D02*
D03*
X191610D02*
D03*
X195610D02*
D03*
X199610D02*
D03*
X203610D02*
D03*
Y783350D02*
D03*
X199610D02*
D03*
X195610D02*
D03*
X191610D02*
D03*
X187610D02*
D03*
X183610D02*
D03*
X179610D02*
D03*
X175610D02*
D03*
X171610D02*
D03*
X167610D02*
D03*
X163610D02*
D03*
X159610D02*
D03*
X609610Y724650D02*
D03*
X613610D02*
D03*
X617610D02*
D03*
X621610D02*
D03*
X625610D02*
D03*
X629610D02*
D03*
X633610D02*
D03*
X637610D02*
D03*
X641610D02*
D03*
X645610D02*
D03*
X649610D02*
D03*
X653610D02*
D03*
Y783350D02*
D03*
X649610D02*
D03*
X645610D02*
D03*
X641610D02*
D03*
X637610D02*
D03*
X633610D02*
D03*
X629610D02*
D03*
X625610D02*
D03*
X621610D02*
D03*
X617610D02*
D03*
X613610D02*
D03*
X609610D02*
D03*
D70*
X181610Y254000D02*
D03*
X631610D02*
D03*
X181610Y754000D02*
D03*
X631610D02*
D03*
D71*
X256540Y220640D02*
D03*
Y241640D02*
D03*
X706540Y220640D02*
D03*
Y241640D02*
D03*
X256540Y720640D02*
D03*
Y741640D02*
D03*
X706540Y720640D02*
D03*
Y741640D02*
D03*
D72*
X135030Y82150D02*
D03*
X132030D02*
D03*
X127030D02*
D03*
X124030D02*
D03*
X119030D02*
D03*
X114030D02*
D03*
X109030D02*
D03*
X104030D02*
D03*
X99030D02*
D03*
X94030D02*
D03*
X89030D02*
D03*
X84030D02*
D03*
X79030D02*
D03*
X76030D02*
D03*
X71030D02*
D03*
X68030D02*
D03*
X585030D02*
D03*
X582030D02*
D03*
X577030D02*
D03*
X574030D02*
D03*
X569030D02*
D03*
X564030D02*
D03*
X559030D02*
D03*
X554030D02*
D03*
X549030D02*
D03*
X544030D02*
D03*
X539030D02*
D03*
X534030D02*
D03*
X529030D02*
D03*
X526030D02*
D03*
X521030D02*
D03*
X518030D02*
D03*
X135030Y582150D02*
D03*
X132030D02*
D03*
X127030D02*
D03*
X124030D02*
D03*
X119030D02*
D03*
X114030D02*
D03*
X109030D02*
D03*
X104030D02*
D03*
X99030D02*
D03*
X94030D02*
D03*
X89030D02*
D03*
X84030D02*
D03*
X79030D02*
D03*
X76030D02*
D03*
X71030D02*
D03*
X68030D02*
D03*
X585030D02*
D03*
X582030D02*
D03*
X577030D02*
D03*
X574030D02*
D03*
X569030D02*
D03*
X564030D02*
D03*
X559030D02*
D03*
X554030D02*
D03*
X549030D02*
D03*
X544030D02*
D03*
X539030D02*
D03*
X534030D02*
D03*
X529030D02*
D03*
X526030D02*
D03*
X521030D02*
D03*
X518030D02*
D03*
D73*
X314060Y77180D02*
D03*
X265060D02*
D03*
X764060D02*
D03*
X715060D02*
D03*
X314060Y577180D02*
D03*
X265060D02*
D03*
X764060D02*
D03*
X715060D02*
D03*
D74*
X329184Y469646D02*
D03*
X113919D02*
D03*
X779184D02*
D03*
X563919D02*
D03*
X329184Y969646D02*
D03*
X113919D02*
D03*
X779184D02*
D03*
X563919D02*
D03*
D75*
X72630Y66750D02*
D03*
X130430D02*
D03*
X522630D02*
D03*
X580430D02*
D03*
X72630Y566750D02*
D03*
X130430D02*
D03*
X522630D02*
D03*
X580430D02*
D03*
D76*
X144780Y31750D02*
D03*
X58280D02*
D03*
X594780D02*
D03*
X508280D02*
D03*
X144780Y531750D02*
D03*
X58280D02*
D03*
X594780D02*
D03*
X508280D02*
D03*
D77*
X144780Y71750D02*
D03*
X58280D02*
D03*
X594780D02*
D03*
X508280D02*
D03*
X144780Y571750D02*
D03*
X58280D02*
D03*
X594780D02*
D03*
X508280D02*
D03*
D78*
X126746Y210312D02*
D03*
X116078Y278257D02*
D03*
X109855Y284480D02*
D03*
X103632Y290830D02*
D03*
X102997Y233426D02*
D03*
X97663Y214630D02*
D03*
X97917Y275082D02*
D03*
X189230Y106934D02*
D03*
X180848Y362331D02*
D03*
X172720Y263652D02*
D03*
X167259D02*
D03*
X178816D02*
D03*
X184531D02*
D03*
X190627D02*
D03*
X196342D02*
D03*
X167259Y251714D02*
D03*
X172720D02*
D03*
X178816D02*
D03*
X184531D02*
D03*
X190627D02*
D03*
X196342D02*
D03*
X276860Y215011D02*
D03*
X269113Y212979D02*
D03*
X273304Y214884D02*
D03*
X301625Y189992D02*
D03*
X273050Y182626D02*
D03*
X107696Y182245D02*
D03*
X107950Y186309D02*
D03*
X196342Y240030D02*
D03*
X190627D02*
D03*
X184531D02*
D03*
X178816D02*
D03*
X172720D02*
D03*
X167259D02*
D03*
X196342Y245872D02*
D03*
X190627D02*
D03*
X184531D02*
D03*
X178816D02*
D03*
X172720D02*
D03*
X167259D02*
D03*
X196342Y257429D02*
D03*
X190627D02*
D03*
X184531D02*
D03*
X178816D02*
D03*
X172720D02*
D03*
X167259D02*
D03*
X196342Y269748D02*
D03*
X190627D02*
D03*
X184531D02*
D03*
X178816D02*
D03*
X172720D02*
D03*
X167259D02*
D03*
X293370Y253365D02*
D03*
X176784Y191008D02*
D03*
X178689Y195072D02*
D03*
X177038Y199009D02*
D03*
X175006Y201930D02*
D03*
X170688Y202946D02*
D03*
X166243Y202565D02*
D03*
X167132Y197739D02*
D03*
X162179Y199771D02*
D03*
X163322Y196342D02*
D03*
X159208Y195959D02*
D03*
X164084Y192405D02*
D03*
X161163Y192659D02*
D03*
X157099Y192913D02*
D03*
X184917Y212618D02*
D03*
X186182Y293370D02*
D03*
X182626Y293497D02*
D03*
X179197D02*
D03*
X176022D02*
D03*
X89027Y143129D02*
D03*
X86614D02*
D03*
X84201Y142367D02*
D03*
X91440Y141351D02*
D03*
X89281Y140462D02*
D03*
X86995Y140081D02*
D03*
X84836Y139827D02*
D03*
X88265Y145415D02*
D03*
X82804Y145669D02*
D03*
X168656Y134366D02*
D03*
X167513Y145288D02*
D03*
X164084Y144526D02*
D03*
X166370Y142113D02*
D03*
X163957Y141097D02*
D03*
X167640Y138811D02*
D03*
X166497Y136398D02*
D03*
X163957Y137033D02*
D03*
X251079Y132207D02*
D03*
X249174Y133858D02*
D03*
X251968Y135382D02*
D03*
X252349Y138049D02*
D03*
X249301Y140589D02*
D03*
X252476Y141097D02*
D03*
X251206Y143510D02*
D03*
X248412Y143637D02*
D03*
X251333Y146304D02*
D03*
X248920Y146177D02*
D03*
X243713Y342900D02*
D03*
X241046Y343916D02*
D03*
X238252Y342011D02*
D03*
X240665Y341376D02*
D03*
X243586Y339471D02*
D03*
X242697Y336423D02*
D03*
X239522D02*
D03*
X237363Y338074D02*
D03*
X208915Y296672D02*
D03*
X206209Y297886D02*
D03*
X207772Y299212D02*
D03*
X204597Y300228D02*
D03*
X200914Y297815D02*
D03*
X181483Y300101D02*
D03*
X177419Y299847D02*
D03*
X175895Y297053D02*
D03*
X188722Y297307D02*
D03*
X183515Y297434D02*
D03*
X186055Y297180D02*
D03*
X139954Y191008D02*
D03*
X234950Y239776D02*
D03*
X210825Y211348D02*
D03*
X132207Y112522D02*
D03*
X109887Y111284D02*
D03*
X174498Y194945D02*
D03*
X171958Y198731D02*
D03*
X169926Y193421D02*
D03*
X141864Y236494D02*
D03*
X220472Y223520D02*
D03*
X219583Y214122D02*
D03*
X249555Y137160D02*
D03*
X141737Y245003D02*
D03*
X220604Y189885D02*
D03*
X192024Y205105D02*
D03*
X197744Y212872D02*
D03*
X240289Y338729D02*
D03*
X223017Y246654D02*
D03*
X164973Y133477D02*
D03*
X188105Y147556D02*
D03*
X85725Y145161D02*
D03*
X227076Y233426D02*
D03*
X204089Y297942D02*
D03*
X331470Y187960D02*
D03*
X179900Y297298D02*
D03*
X576746Y210312D02*
D03*
X566078Y278257D02*
D03*
X559855Y284480D02*
D03*
X553632Y290830D02*
D03*
X552997Y233426D02*
D03*
X547663Y214630D02*
D03*
X547917Y275082D02*
D03*
X639230Y106934D02*
D03*
X630848Y362331D02*
D03*
X622720Y263652D02*
D03*
X617259D02*
D03*
X628816D02*
D03*
X634531D02*
D03*
X640627D02*
D03*
X646342D02*
D03*
X617259Y251714D02*
D03*
X622720D02*
D03*
X628816D02*
D03*
X634531D02*
D03*
X640627D02*
D03*
X646342D02*
D03*
X726860Y215011D02*
D03*
X719113Y212979D02*
D03*
X723304Y214884D02*
D03*
X751625Y189992D02*
D03*
X723050Y182626D02*
D03*
X557696Y182245D02*
D03*
X557950Y186309D02*
D03*
X646342Y240030D02*
D03*
X640627D02*
D03*
X634531D02*
D03*
X628816D02*
D03*
X622720D02*
D03*
X617259D02*
D03*
X646342Y245872D02*
D03*
X640627D02*
D03*
X634531D02*
D03*
X628816D02*
D03*
X622720D02*
D03*
X617259D02*
D03*
X646342Y257429D02*
D03*
X640627D02*
D03*
X634531D02*
D03*
X628816D02*
D03*
X622720D02*
D03*
X617259D02*
D03*
X646342Y269748D02*
D03*
X640627D02*
D03*
X634531D02*
D03*
X628816D02*
D03*
X622720D02*
D03*
X617259D02*
D03*
X743370Y253365D02*
D03*
X626784Y191008D02*
D03*
X628689Y195072D02*
D03*
X627038Y199009D02*
D03*
X625006Y201930D02*
D03*
X620688Y202946D02*
D03*
X616243Y202565D02*
D03*
X617132Y197739D02*
D03*
X612179Y199771D02*
D03*
X613322Y196342D02*
D03*
X609208Y195959D02*
D03*
X614084Y192405D02*
D03*
X611163Y192659D02*
D03*
X607099Y192913D02*
D03*
X634917Y212618D02*
D03*
X636182Y293370D02*
D03*
X632626Y293497D02*
D03*
X629197D02*
D03*
X626022D02*
D03*
X539027Y143129D02*
D03*
X536614D02*
D03*
X534201Y142367D02*
D03*
X541440Y141351D02*
D03*
X539281Y140462D02*
D03*
X536995Y140081D02*
D03*
X534836Y139827D02*
D03*
X538265Y145415D02*
D03*
X532804Y145669D02*
D03*
X618656Y134366D02*
D03*
X617513Y145288D02*
D03*
X614084Y144526D02*
D03*
X616370Y142113D02*
D03*
X613957Y141097D02*
D03*
X617640Y138811D02*
D03*
X616497Y136398D02*
D03*
X613957Y137033D02*
D03*
X701079Y132207D02*
D03*
X699174Y133858D02*
D03*
X701968Y135382D02*
D03*
X702349Y138049D02*
D03*
X699301Y140589D02*
D03*
X702476Y141097D02*
D03*
X701206Y143510D02*
D03*
X698412Y143637D02*
D03*
X701333Y146304D02*
D03*
X698920Y146177D02*
D03*
X693713Y342900D02*
D03*
X691046Y343916D02*
D03*
X688252Y342011D02*
D03*
X690665Y341376D02*
D03*
X693586Y339471D02*
D03*
X692697Y336423D02*
D03*
X689522D02*
D03*
X687363Y338074D02*
D03*
X658915Y296672D02*
D03*
X656209Y297886D02*
D03*
X657772Y299212D02*
D03*
X654597Y300228D02*
D03*
X650914Y297815D02*
D03*
X631483Y300101D02*
D03*
X627419Y299847D02*
D03*
X625895Y297053D02*
D03*
X638722Y297307D02*
D03*
X633515Y297434D02*
D03*
X636055Y297180D02*
D03*
X589954Y191008D02*
D03*
X684950Y239776D02*
D03*
X660825Y211348D02*
D03*
X582207Y112522D02*
D03*
X559887Y111284D02*
D03*
X624498Y194945D02*
D03*
X621958Y198731D02*
D03*
X619926Y193421D02*
D03*
X591864Y236494D02*
D03*
X670472Y223520D02*
D03*
X669583Y214122D02*
D03*
X699555Y137160D02*
D03*
X591737Y245003D02*
D03*
X670604Y189885D02*
D03*
X642024Y205105D02*
D03*
X647744Y212872D02*
D03*
X690289Y338729D02*
D03*
X673017Y246654D02*
D03*
X614973Y133477D02*
D03*
X638105Y147556D02*
D03*
X535725Y145161D02*
D03*
X677076Y233426D02*
D03*
X654089Y297942D02*
D03*
X781470Y187960D02*
D03*
X629899Y297298D02*
D03*
X126746Y710312D02*
D03*
X116078Y778257D02*
D03*
X109855Y784480D02*
D03*
X103632Y790830D02*
D03*
X102997Y733426D02*
D03*
X97663Y714630D02*
D03*
X97917Y775082D02*
D03*
X189230Y606934D02*
D03*
X180848Y862331D02*
D03*
X172720Y763652D02*
D03*
X167259D02*
D03*
X178816D02*
D03*
X184531D02*
D03*
X190627D02*
D03*
X196342D02*
D03*
X167259Y751714D02*
D03*
X172720D02*
D03*
X178816D02*
D03*
X184531D02*
D03*
X190627D02*
D03*
X196342D02*
D03*
X276860Y715011D02*
D03*
X269113Y712979D02*
D03*
X273304Y714884D02*
D03*
X301625Y689992D02*
D03*
X273050Y682626D02*
D03*
X107696Y682245D02*
D03*
X107950Y686309D02*
D03*
X196342Y740030D02*
D03*
X190627D02*
D03*
X184531D02*
D03*
X178816D02*
D03*
X172720D02*
D03*
X167259D02*
D03*
X196342Y745872D02*
D03*
X190627D02*
D03*
X184531D02*
D03*
X178816D02*
D03*
X172720D02*
D03*
X167259D02*
D03*
X196342Y757429D02*
D03*
X190627D02*
D03*
X184531D02*
D03*
X178816D02*
D03*
X172720D02*
D03*
X167259D02*
D03*
X196342Y769748D02*
D03*
X190627D02*
D03*
X184531D02*
D03*
X178816D02*
D03*
X172720D02*
D03*
X167259D02*
D03*
X293370Y753365D02*
D03*
X176784Y691008D02*
D03*
X178689Y695072D02*
D03*
X177038Y699009D02*
D03*
X175006Y701930D02*
D03*
X170688Y702946D02*
D03*
X166243Y702565D02*
D03*
X167132Y697739D02*
D03*
X162179Y699771D02*
D03*
X163322Y696342D02*
D03*
X159208Y695959D02*
D03*
X164084Y692405D02*
D03*
X161163Y692659D02*
D03*
X157099Y692913D02*
D03*
X184917Y712618D02*
D03*
X186182Y793370D02*
D03*
X182626Y793497D02*
D03*
X179197D02*
D03*
X176022D02*
D03*
X89027Y643129D02*
D03*
X86614D02*
D03*
X84201Y642367D02*
D03*
X91440Y641351D02*
D03*
X89281Y640462D02*
D03*
X86995Y640081D02*
D03*
X84836Y639827D02*
D03*
X88265Y645415D02*
D03*
X82804Y645669D02*
D03*
X168656Y634366D02*
D03*
X167513Y645288D02*
D03*
X164084Y644526D02*
D03*
X166370Y642113D02*
D03*
X163957Y641097D02*
D03*
X167640Y638811D02*
D03*
X166497Y636398D02*
D03*
X163957Y637033D02*
D03*
X251079Y632207D02*
D03*
X249174Y633858D02*
D03*
X251968Y635382D02*
D03*
X252349Y638049D02*
D03*
X249301Y640589D02*
D03*
X252476Y641097D02*
D03*
X251206Y643510D02*
D03*
X248412Y643637D02*
D03*
X251333Y646304D02*
D03*
X248920Y646177D02*
D03*
X243713Y842900D02*
D03*
X241046Y843916D02*
D03*
X238252Y842011D02*
D03*
X240665Y841376D02*
D03*
X243586Y839471D02*
D03*
X242697Y836423D02*
D03*
X239522D02*
D03*
X237363Y838074D02*
D03*
X208915Y796672D02*
D03*
X206209Y797886D02*
D03*
X207772Y799212D02*
D03*
X204597Y800228D02*
D03*
X200914Y797815D02*
D03*
X181483Y800101D02*
D03*
X177419Y799847D02*
D03*
X175895Y797053D02*
D03*
X188722Y797307D02*
D03*
X183515Y797434D02*
D03*
X186055Y797180D02*
D03*
X139954Y691008D02*
D03*
X234950Y739776D02*
D03*
X210825Y711348D02*
D03*
X132207Y612522D02*
D03*
X109887Y611284D02*
D03*
X174498Y694945D02*
D03*
X171958Y698731D02*
D03*
X169926Y693421D02*
D03*
X141864Y736494D02*
D03*
X220472Y723520D02*
D03*
X219583Y714122D02*
D03*
X249555Y637160D02*
D03*
X141737Y745003D02*
D03*
X220604Y689885D02*
D03*
X192024Y705105D02*
D03*
X197744Y712872D02*
D03*
X240289Y838729D02*
D03*
X223017Y746654D02*
D03*
X164973Y633477D02*
D03*
X188105Y647556D02*
D03*
X85725Y645161D02*
D03*
X227076Y733426D02*
D03*
X204089Y797942D02*
D03*
X331470Y687960D02*
D03*
X179900Y797298D02*
D03*
X576746Y710312D02*
D03*
X566078Y778257D02*
D03*
X559855Y784480D02*
D03*
X553632Y790830D02*
D03*
X552997Y733426D02*
D03*
X547663Y714630D02*
D03*
X547917Y775082D02*
D03*
X639230Y606934D02*
D03*
X630848Y862331D02*
D03*
X622720Y763652D02*
D03*
X617259D02*
D03*
X628816D02*
D03*
X634531D02*
D03*
X640627D02*
D03*
X646342D02*
D03*
X617259Y751714D02*
D03*
X622720D02*
D03*
X628816D02*
D03*
X634531D02*
D03*
X640627D02*
D03*
X646342D02*
D03*
X726860Y715011D02*
D03*
X719113Y712979D02*
D03*
X723304Y714884D02*
D03*
X751625Y689992D02*
D03*
X723050Y682626D02*
D03*
X557696Y682245D02*
D03*
X557950Y686309D02*
D03*
X646342Y740030D02*
D03*
X640627D02*
D03*
X634531D02*
D03*
X628816D02*
D03*
X622720D02*
D03*
X617259D02*
D03*
X646342Y745872D02*
D03*
X640627D02*
D03*
X634531D02*
D03*
X628816D02*
D03*
X622720D02*
D03*
X617259D02*
D03*
X646342Y757429D02*
D03*
X640627D02*
D03*
X634531D02*
D03*
X628816D02*
D03*
X622720D02*
D03*
X617259D02*
D03*
X646342Y769748D02*
D03*
X640627D02*
D03*
X634531D02*
D03*
X628816D02*
D03*
X622720D02*
D03*
X617259D02*
D03*
X743370Y753365D02*
D03*
X626784Y691008D02*
D03*
X628689Y695072D02*
D03*
X627038Y699009D02*
D03*
X625006Y701930D02*
D03*
X620688Y702946D02*
D03*
X616243Y702565D02*
D03*
X617132Y697739D02*
D03*
X612179Y699771D02*
D03*
X613322Y696342D02*
D03*
X609208Y695959D02*
D03*
X614084Y692405D02*
D03*
X611163Y692659D02*
D03*
X607099Y692913D02*
D03*
X634917Y712618D02*
D03*
X636182Y793370D02*
D03*
X632626Y793497D02*
D03*
X629197D02*
D03*
X626022D02*
D03*
X539027Y643129D02*
D03*
X536614D02*
D03*
X534201Y642367D02*
D03*
X541440Y641351D02*
D03*
X539281Y640462D02*
D03*
X536995Y640081D02*
D03*
X534836Y639827D02*
D03*
X538265Y645415D02*
D03*
X532804Y645669D02*
D03*
X618656Y634366D02*
D03*
X617513Y645288D02*
D03*
X614084Y644526D02*
D03*
X616370Y642113D02*
D03*
X613957Y641097D02*
D03*
X617640Y638811D02*
D03*
X616497Y636398D02*
D03*
X613957Y637033D02*
D03*
X701079Y632207D02*
D03*
X699174Y633858D02*
D03*
X701968Y635382D02*
D03*
X702349Y638049D02*
D03*
X699301Y640589D02*
D03*
X702476Y641097D02*
D03*
X701206Y643510D02*
D03*
X698412Y643637D02*
D03*
X701333Y646304D02*
D03*
X698920Y646177D02*
D03*
X693713Y842900D02*
D03*
X691046Y843916D02*
D03*
X688252Y842011D02*
D03*
X690665Y841376D02*
D03*
X693586Y839471D02*
D03*
X692697Y836423D02*
D03*
X689522D02*
D03*
X687363Y838074D02*
D03*
X658915Y796672D02*
D03*
X656209Y797886D02*
D03*
X657772Y799212D02*
D03*
X654597Y800228D02*
D03*
X650914Y797815D02*
D03*
X631483Y800101D02*
D03*
X627419Y799847D02*
D03*
X625895Y797053D02*
D03*
X638722Y797307D02*
D03*
X633515Y797434D02*
D03*
X636055Y797180D02*
D03*
X589954Y691008D02*
D03*
X684950Y739776D02*
D03*
X660825Y711348D02*
D03*
X582207Y612522D02*
D03*
X559887Y611284D02*
D03*
X624498Y694945D02*
D03*
X621958Y698731D02*
D03*
X619926Y693421D02*
D03*
X591864Y736494D02*
D03*
X670472Y723520D02*
D03*
X669583Y714122D02*
D03*
X699555Y637160D02*
D03*
X591737Y745003D02*
D03*
X670604Y689885D02*
D03*
X642024Y705105D02*
D03*
X647744Y712872D02*
D03*
X690289Y838729D02*
D03*
X673017Y746654D02*
D03*
X614973Y633477D02*
D03*
X638105Y647556D02*
D03*
X535725Y645161D02*
D03*
X677076Y733426D02*
D03*
X654089Y797942D02*
D03*
X781470Y687960D02*
D03*
X629899Y797298D02*
D03*
D79*
X66548Y197104D02*
D03*
X66675Y207772D02*
D03*
X38735Y191897D02*
D03*
X356108Y128651D02*
D03*
X339598D02*
D03*
X173736Y110000D02*
D03*
Y90000D02*
D03*
Y70000D02*
D03*
X174860Y48876D02*
D03*
X30861Y181864D02*
D03*
X17018Y184531D02*
D03*
X25908Y193548D02*
D03*
X32131Y216281D02*
D03*
X17526Y215646D02*
D03*
X31750Y227965D02*
D03*
X17653Y227711D02*
D03*
X29718Y241935D02*
D03*
X28829Y253873D02*
D03*
X17526Y254254D02*
D03*
X18034Y240538D02*
D03*
X17399Y197993D02*
D03*
X17907Y206375D02*
D03*
X33909Y203835D02*
D03*
X516548Y197104D02*
D03*
X516675Y207772D02*
D03*
X488735Y191897D02*
D03*
X806108Y128651D02*
D03*
X789598D02*
D03*
X623736Y110000D02*
D03*
Y90000D02*
D03*
Y70000D02*
D03*
X624860Y48876D02*
D03*
X480861Y181864D02*
D03*
X467018Y184531D02*
D03*
X475908Y193548D02*
D03*
X482131Y216281D02*
D03*
X467526Y215646D02*
D03*
X481750Y227965D02*
D03*
X467653Y227711D02*
D03*
X479718Y241935D02*
D03*
X478829Y253873D02*
D03*
X467526Y254254D02*
D03*
X468034Y240538D02*
D03*
X467399Y197993D02*
D03*
X467907Y206375D02*
D03*
X483909Y203835D02*
D03*
X66548Y697104D02*
D03*
X66675Y707772D02*
D03*
X38735Y691897D02*
D03*
X356108Y628651D02*
D03*
X339598D02*
D03*
X173736Y610000D02*
D03*
Y590000D02*
D03*
Y570000D02*
D03*
X174860Y548876D02*
D03*
X30861Y681864D02*
D03*
X17018Y684531D02*
D03*
X25908Y693548D02*
D03*
X32131Y716281D02*
D03*
X17526Y715646D02*
D03*
X31750Y727965D02*
D03*
X17653Y727711D02*
D03*
X29718Y741935D02*
D03*
X28829Y753873D02*
D03*
X17526Y754254D02*
D03*
X18034Y740538D02*
D03*
X17399Y697993D02*
D03*
X17907Y706375D02*
D03*
X33909Y703835D02*
D03*
X516548Y697104D02*
D03*
X516675Y707772D02*
D03*
X488735Y691897D02*
D03*
X806108Y628651D02*
D03*
X789598D02*
D03*
X623736Y610000D02*
D03*
Y590000D02*
D03*
Y570000D02*
D03*
X624860Y548876D02*
D03*
X480861Y681864D02*
D03*
X467018Y684531D02*
D03*
X475908Y693548D02*
D03*
X482131Y716281D02*
D03*
X467526Y715646D02*
D03*
X481750Y727965D02*
D03*
X467653Y727711D02*
D03*
X479718Y741935D02*
D03*
X478829Y753873D02*
D03*
X467526Y754254D02*
D03*
X468034Y740538D02*
D03*
X467399Y697993D02*
D03*
X467907Y706375D02*
D03*
X483909Y703835D02*
D03*
M02*
