M48
;Layer_Color=9474304
;FILE_FORMAT=4:4
METRIC,LZ
;TYPE=PLATED
T1F00S00C0.3110
T3F00S00C0.6500
T4F00S00C0.7112
T5F00S00C3.0000
;TYPE=NON_PLATED
T6F00S00C1.5000
%
T01
X00109887Y00111284
X00132207Y00112522
X0009144Y00141351
X00089281Y00140462
X00086995Y00140081
X00084836Y00139827
X00163957Y00141097
Y00137033
X00166497Y00136398
X0016764Y00138811
X00168656Y00134366
X00164973Y00133477
X0018923Y00106934
X00249174Y00133858
X00251079Y00132207
X00251968Y00135382
X00252349Y00138049
X00252476Y00141097
X00249301Y00140589
X00249555Y0013716
X00534836Y00139827
X00536995Y00140081
X00539281Y00140462
X0054144Y00141351
X00559887Y00111284
X00582207Y00112522
X00614973Y00133477
X00616497Y00136398
X00613957Y00137033
Y00141097
X0061764Y00138811
X00618656Y00134366
X0063923Y00106934
X00699174Y00133858
X00701079Y00132207
X00701968Y00135382
X00702349Y00138049
X00702476Y00141097
X00699301Y00140589
X00699555Y0013716
X00698412Y00143637
X00701206Y0014351
X00701333Y00146304
X0069892Y00146177
X0072305Y00182626
X00723304Y00214884
X0072686Y00215011
X00719113Y00212979
X00669583Y00214122
X00670472Y0022352
X00677076Y00233426
X0068495Y00239776
X00673017Y00246654
X00646342Y00245872
X00640627
Y00251714
X00646342
Y00257429
X00640627
X00634531
Y00251714
X00628816
Y00257429
X0062272
X00617259
Y00251714
X0062272
Y00245872
X00617259
Y0024003
X0062272
X00628816
X00634531
Y00245872
X00628816
X00640627Y0024003
X00646342
Y00263652
X00640627
X00634531
X00628816
X0062272
X00617259
Y00269748
X0062272
X00628816
X00634531
X00640627
X00646342
X00650914Y00297815
X00654089Y00297942
X00656209Y00297886
X00657772Y00299212
X00658915Y00296672
X00654597Y00300228
X00638722Y00297307
X00636055Y0029718
X00633515Y00297434
X00629899Y00297298
X00625895Y00297053
X00626022Y00293497
X00629197
X00632626
X00636182Y0029337
X00631483Y00300101
X00627419Y00299847
X00630848Y00362331
X00688252Y00342011
X00690665Y00341376
X00691046Y00343916
X00693713Y003429
X00693586Y00339471
X00692697Y00336423
X00689522
X00690289Y00338729
X00687363Y00338074
X0074337Y00253365
X00751625Y00189992
X0078147Y0018796
X00670604Y00189885
X00660825Y00211348
X00647744Y00212872
X00634917Y00212618
X00642024Y00205105
X00625006Y0020193
X00627038Y00199009
X00621958Y00198731
X00620688Y00202946
X00616243Y00202565
X00617132Y00197739
X00613322Y00196342
X00609208Y00195959
X00607099Y00192913
X00611163Y00192659
X00614084Y00192405
X00619926Y00193421
X00624498Y00194945
X00628689Y00195072
X00626784Y00191008
X00612179Y00199771
X00589954Y00191008
X00576746Y00210312
X00547663Y0021463
X00552997Y00233426
X00591864Y00236494
X00591737Y00245003
X00566078Y00278257
X00559855Y0028448
X00553632Y0029083
X00547917Y00275082
X0055795Y00186309
X00557696Y00182245
X00539027Y00143129
X00614084Y00144526
X00617513Y00145288
X0061637Y00142113
X00638105Y00147556
X00538265Y00145415
X00535725Y00145161
X00536614Y00143129
X00534201Y00142367
X00532804Y00145669
X0033147Y0018796
X00301625Y00189992
X0027305Y00182626
X00273304Y00214884
X0027686Y00215011
X00269113Y00212979
X00219583Y00214122
X00220472Y0022352
X00227076Y00233426
X0023495Y00239776
X00223017Y00246654
X00196342Y00245872
X00190627
Y00251714
X00196342
Y00257429
X00190627
X00184531
Y00251714
X00178816
Y00257429
X0017272
X00167259
Y00251714
X0017272
Y00245872
X00167259
Y0024003
X0017272
X00178816
X00184531
Y00245872
X00178816
X00190627Y0024003
X00196342
Y00263652
X00190627
X00184531
X00178816
X0017272
X00167259
Y00269748
X0017272
X00178816
X00184531
X00190627
X00196342
X00200914Y00297815
X00204089Y00297942
X00206209Y00297886
X00207772Y00299212
X00208915Y00296672
X00204597Y00300228
X00188722Y00297307
X00186055Y0029718
X00183515Y00297434
X001799Y00297298
X00175895Y00297053
X00176022Y00293497
X00179197
X00182626
X00186182Y0029337
X00181483Y00300101
X00177419Y00299847
X00180848Y00362331
X00238252Y00342011
X00240665Y00341376
X00241046Y00343916
X00243713Y003429
X00243586Y00339471
X00242697Y00336423
X00239522
X00240289Y00338729
X00237363Y00338074
X0029337Y00253365
X00210825Y00211348
X00197744Y00212872
X00184917Y00212618
X00192024Y00205105
X00175006Y0020193
X00177038Y00199009
X00171958Y00198731
X00170688Y00202946
X00166243Y00202565
X00167132Y00197739
X00163322Y00196342
X00159208Y00195959
X00157099Y00192913
X00161163Y00192659
X00164084Y00192405
X00169926Y00193421
X00174498Y00194945
X00178689Y00195072
X00176784Y00191008
X00162179Y00199771
X00141864Y00236494
X00141737Y00245003
X00164084Y00144526
X00167513Y00145288
X0016637Y00142113
X00188105Y00147556
X0024892Y00146177
X00251333Y00146304
X00251206Y0014351
X00248412Y00143637
X00220604Y00189885
X00139954Y00191008
X00126746Y00210312
X00097663Y0021463
X00102997Y00233426
X00097917Y00275082
X00116078Y00278257
X00109855Y0028448
X00103632Y0029083
X0010795Y00186309
X00107696Y00182245
X00088265Y00145415
X00085725Y00145161
X00086614Y00143129
X00089027
X00084201Y00142367
X00082804Y00145669
X00109887Y00611284
X00132207Y00612522
X0009144Y00641351
X00089281Y00640462
X00086995Y00640081
X00084836Y00639827
X00084201Y00642367
X00086614Y00643129
X00089027
X00088265Y00645415
X00085725Y00645161
X00082804Y00645669
X00107696Y00682245
X0010795Y00686309
X00139954Y00691008
X00126746Y00710312
X00097663Y0071463
X00102997Y00733426
X00097917Y00775082
X00116078Y00778257
X00109855Y0078448
X00103632Y0079083
X00176022Y00793497
X00179197
X00182626
X00186182Y0079337
X00186055Y0079718
X00188722Y00797307
X00183515Y00797434
X001799Y00797298
X00175895Y00797053
X00177419Y00799847
X00181483Y00800101
X00200914Y00797815
X00204089Y00797942
X00206209Y00797886
X00207772Y00799212
X00208915Y00796672
X00204597Y00800228
X00196342Y00769748
X00190627
Y00763652
X00196342
Y00757429
Y00751714
X00190627
Y00757429
X00184531
Y00751714
X00178816
Y00757429
X0017272
X00167259
Y00751714
X0017272
Y00745872
X00167259
Y0074003
X0017272
X00178816
X00184531
Y00745872
X00178816
X00190627
X00196342
Y0074003
X00190627
X00184531Y00763652
X00178816
X0017272
X00167259
Y00769748
X0017272
X00178816
X00184531
X00184917Y00712618
X00197744Y00712872
X00192024Y00705105
X00175006Y0070193
X00177038Y00699009
X00171958Y00698731
X00170688Y00702946
X00166243Y00702565
X00167132Y00697739
X00163322Y00696342
X00159208Y00695959
X00157099Y00692913
X00161163Y00692659
X00164084Y00692405
X00169926Y00693421
X00174498Y00694945
X00178689Y00695072
X00176784Y00691008
X00162179Y00699771
X00141864Y00736494
X00141737Y00745003
X00223017Y00746654
X00227076Y00733426
X0023495Y00739776
X00220472Y0072352
X00219583Y00714122
X00210825Y00711348
X00220604Y00689885
X0027305Y00682626
X00273304Y00714884
X0027686Y00715011
X00269113Y00712979
X00301625Y00689992
X0033147Y0068796
X0029337Y00753365
X00242697Y00836423
X00239522
X00240289Y00838729
X00240665Y00841376
X00241046Y00843916
X00243713Y008429
X00243586Y00839471
X00237363Y00838074
X00238252Y00842011
X00180848Y00862331
X00188105Y00647556
X00167513Y00645288
X00164084Y00644526
X00163957Y00641097
X0016637Y00642113
X0016764Y00638811
X00166497Y00636398
X00163957Y00637033
X00164973Y00633477
X00168656Y00634366
X0018923Y00606934
X00249174Y00633858
X00251079Y00632207
X00251968Y00635382
X00252349Y00638049
X00252476Y00641097
X00249301Y00640589
X00249555Y0063716
X00248412Y00643637
X00251206Y0064351
X00251333Y00646304
X0024892Y00646177
X00532804Y00645669
X00535725Y00645161
X00538265Y00645415
X00536614Y00643129
X00534201Y00642367
X00534836Y00639827
X00536995Y00640081
X00539281Y00640462
X00539027Y00643129
X0054144Y00641351
X00559887Y00611284
X00582207Y00612522
X00614973Y00633477
X00616497Y00636398
X00613957Y00637033
Y00641097
X0061637Y00642113
X00617513Y00645288
X00614084Y00644526
X0061764Y00638811
X00618656Y00634366
X00638105Y00647556
X0063923Y00606934
X00699174Y00633858
X00701079Y00632207
X00701968Y00635382
X00702349Y00638049
X00702476Y00641097
X00699301Y00640589
X00699555Y0063716
X00698412Y00643637
X00701206Y0064351
X00701333Y00646304
X0069892Y00646177
X0072305Y00682626
X00723304Y00714884
X0072686Y00715011
X00719113Y00712979
X00669583Y00714122
X00670472Y0072352
X00677076Y00733426
X0068495Y00739776
X00673017Y00746654
X00646342Y00745872
X00640627
Y00751714
X00646342
Y00757429
X00640627
X00634531
Y00751714
X00628816
Y00757429
X0062272
X00617259
Y00751714
X0062272
Y00745872
X00617259
Y0074003
X0062272
X00628816
X00634531
Y00745872
X00628816
X00640627Y0074003
X00646342
Y00763652
X00640627
X00634531
X00628816
X0062272
X00617259
Y00769748
X0062272
X00628816
X00634531
X00640627
X00646342
X00650914Y00797815
X00654089Y00797942
X00656209Y00797886
X00657772Y00799212
X00658915Y00796672
X00654597Y00800228
X00638722Y00797307
X00636055Y0079718
X00633515Y00797434
X00629899Y00797298
X00625895Y00797053
X00626022Y00793497
X00629197
X00632626
X00636182Y0079337
X00631483Y00800101
X00627419Y00799847
X00630848Y00862331
X00688252Y00842011
X00690665Y00841376
X00691046Y00843916
X00693713Y008429
X00693586Y00839471
X00692697Y00836423
X00689522
X00690289Y00838729
X00687363Y00838074
X0074337Y00753365
X00751625Y00689992
X0078147Y0068796
X00670604Y00689885
X00660825Y00711348
X00647744Y00712872
X00634917Y00712618
X00642024Y00705105
X00625006Y0070193
X00627038Y00699009
X00621958Y00698731
X00620688Y00702946
X00616243Y00702565
X00617132Y00697739
X00613322Y00696342
X00609208Y00695959
X00607099Y00692913
X00611163Y00692659
X00614084Y00692405
X00619926Y00693421
X00624498Y00694945
X00628689Y00695072
X00626784Y00691008
X00612179Y00699771
X00589954Y00691008
X00576746Y00710312
X00547663Y0071463
X00552997Y00733426
X00591864Y00736494
X00591737Y00745003
X00566078Y00778257
X00559855Y0078448
X00553632Y0079083
X00547917Y00775082
X0055795Y00686309
X00557696Y00682245
T03
X0007263Y0006675
X0013043
X0052263
X0058043
X0013043Y0056675
X0007263
X0052263
X0058043
T04
X0017486Y00048876
X00173736Y0007
Y0009
Y0011
X00339598Y00128651
X00356108
X00623736Y0011
Y0009
Y0007
X0062486Y00048876
X00789598Y00128651
X00806108
X00516548Y00197104
X00516675Y00207772
X00483909Y00203835
X00482131Y00216281
X0048175Y00227965
X00467653Y00227711
X00467526Y00215646
X00467907Y00206375
X00467399Y00197993
X00475908Y00193548
X00488735Y00191897
X00480861Y00181864
X00467018Y00184531
X00468034Y00240538
X00479718Y00241935
X00478829Y00253873
X00467526Y00254254
X00028829Y00253873
X00017526Y00254254
X00018034Y00240538
X00029718Y00241935
X0003175Y00227965
X00032131Y00216281
X00033909Y00203835
X00038735Y00191897
X00025908Y00193548
X00017399Y00197993
X00017907Y00206375
X00017526Y00215646
X00017653Y00227711
X00017018Y00184531
X00030861Y00181864
X00066548Y00197104
X00066675Y00207772
X00066548Y00697104
X00066675Y00707772
X00033909Y00703835
X00032131Y00716281
X0003175Y00727965
X00017653Y00727711
X00017526Y00715646
X00017907Y00706375
X00017399Y00697993
X00025908Y00693548
X00038735Y00691897
X00030861Y00681864
X00017018Y00684531
X00018034Y00740538
X00029718Y00741935
X00028829Y00753873
X00017526Y00754254
X00173736Y0061
Y0059
Y0057
X0017486Y00548876
X00339598Y00628651
X00356108
X00467018Y00684531
X00467399Y00697993
X00467907Y00706375
X00467526Y00715646
X00467653Y00727711
X00468034Y00740538
X00479718Y00741935
X00478829Y00753873
X00467526Y00754254
X0048175Y00727965
X00482131Y00716281
X00483909Y00703835
X00488735Y00691897
X00475908Y00693548
X00480861Y00681864
X00516548Y00697104
X00516675Y00707772
X00623736Y0061
Y0059
Y0057
X0062486Y00548876
X00789598Y00628651
X00806108
T05
X00563919Y00469646
X00779184
X00329184
X00113919
X00563919Y00969646
X00779184
X00329184
X00113919
T06
X0026506Y0007718
X0031406
X0071506
X0076406
X0031406Y0057718
X0026506
X0071506
X0076406
M30
