G04*
G04 #@! TF.GenerationSoftware,Altium Limited,Altium Designer,20.2.3 (150)*
G04*
G04 Layer_Color=255*
%FSLAX44Y44*%
%MOMM*%
G71*
G04*
G04 #@! TF.SameCoordinates,C1CC25AD-0FF3-43E4-BDA3-AC1D03E08D52*
G04*
G04*
G04 #@! TF.FilePolarity,Positive*
G04*
G01*
G75*
G04:AMPARAMS|DCode=10|XSize=0.4064mm|YSize=0.4064mm|CornerRadius=0.2032mm|HoleSize=0mm|Usage=FLASHONLY|Rotation=90.000|XOffset=0mm|YOffset=0mm|HoleType=Round|Shape=RoundedRectangle|*
%AMROUNDEDRECTD10*
21,1,0.4064,0.0000,0,0,90.0*
21,1,0.0000,0.4064,0,0,90.0*
1,1,0.4064,0.0000,0.0000*
1,1,0.4064,0.0000,0.0000*
1,1,0.4064,0.0000,0.0000*
1,1,0.4064,0.0000,0.0000*
%
%ADD10ROUNDEDRECTD10*%
G04:AMPARAMS|DCode=11|XSize=0.762mm|YSize=0.5588mm|CornerRadius=0.1397mm|HoleSize=0mm|Usage=FLASHONLY|Rotation=0.000|XOffset=0mm|YOffset=0mm|HoleType=Round|Shape=RoundedRectangle|*
%AMROUNDEDRECTD11*
21,1,0.7620,0.2794,0,0,0.0*
21,1,0.4826,0.5588,0,0,0.0*
1,1,0.2794,0.2413,-0.1397*
1,1,0.2794,-0.2413,-0.1397*
1,1,0.2794,-0.2413,0.1397*
1,1,0.2794,0.2413,0.1397*
%
%ADD11ROUNDEDRECTD11*%
%ADD12R,1.4000X1.1000*%
%ADD13R,1.3000X1.0000*%
G04:AMPARAMS|DCode=14|XSize=1.27mm|YSize=0.762mm|CornerRadius=0.1905mm|HoleSize=0mm|Usage=FLASHONLY|Rotation=0.000|XOffset=0mm|YOffset=0mm|HoleType=Round|Shape=RoundedRectangle|*
%AMROUNDEDRECTD14*
21,1,1.2700,0.3810,0,0,0.0*
21,1,0.8890,0.7620,0,0,0.0*
1,1,0.3810,0.4445,-0.1905*
1,1,0.3810,-0.4445,-0.1905*
1,1,0.3810,-0.4445,0.1905*
1,1,0.3810,0.4445,0.1905*
%
%ADD14ROUNDEDRECTD14*%
G04:AMPARAMS|DCode=15|XSize=2.032mm|YSize=2.032mm|CornerRadius=0.508mm|HoleSize=0mm|Usage=FLASHONLY|Rotation=0.000|XOffset=0mm|YOffset=0mm|HoleType=Round|Shape=RoundedRectangle|*
%AMROUNDEDRECTD15*
21,1,2.0320,1.0160,0,0,0.0*
21,1,1.0160,2.0320,0,0,0.0*
1,1,1.0160,0.5080,-0.5080*
1,1,1.0160,-0.5080,-0.5080*
1,1,1.0160,-0.5080,0.5080*
1,1,1.0160,0.5080,0.5080*
%
%ADD15ROUNDEDRECTD15*%
G04:AMPARAMS|DCode=16|XSize=1.27mm|YSize=1.8mm|CornerRadius=0.3175mm|HoleSize=0mm|Usage=FLASHONLY|Rotation=0.000|XOffset=0mm|YOffset=0mm|HoleType=Round|Shape=RoundedRectangle|*
%AMROUNDEDRECTD16*
21,1,1.2700,1.1650,0,0,0.0*
21,1,0.6350,1.8000,0,0,0.0*
1,1,0.6350,0.3175,-0.5825*
1,1,0.6350,-0.3175,-0.5825*
1,1,0.6350,-0.3175,0.5825*
1,1,0.6350,0.3175,0.5825*
%
%ADD16ROUNDEDRECTD16*%
G04:AMPARAMS|DCode=17|XSize=0.6096mm|YSize=0.762mm|CornerRadius=0.1524mm|HoleSize=0mm|Usage=FLASHONLY|Rotation=0.000|XOffset=0mm|YOffset=0mm|HoleType=Round|Shape=RoundedRectangle|*
%AMROUNDEDRECTD17*
21,1,0.6096,0.4572,0,0,0.0*
21,1,0.3048,0.7620,0,0,0.0*
1,1,0.3048,0.1524,-0.2286*
1,1,0.3048,-0.1524,-0.2286*
1,1,0.3048,-0.1524,0.2286*
1,1,0.3048,0.1524,0.2286*
%
%ADD17ROUNDEDRECTD17*%
%ADD18R,1.1000X1.4000*%
%ADD19O,1.3000X0.5000*%
G04:AMPARAMS|DCode=20|XSize=3.2mm|YSize=2.3mm|CornerRadius=0.575mm|HoleSize=0mm|Usage=FLASHONLY|Rotation=270.000|XOffset=0mm|YOffset=0mm|HoleType=Round|Shape=RoundedRectangle|*
%AMROUNDEDRECTD20*
21,1,3.2000,1.1500,0,0,270.0*
21,1,2.0500,2.3000,0,0,270.0*
1,1,1.1500,-0.5750,-1.0250*
1,1,1.1500,-0.5750,1.0250*
1,1,1.1500,0.5750,1.0250*
1,1,1.1500,0.5750,-1.0250*
%
%ADD20ROUNDEDRECTD20*%
G04:AMPARAMS|DCode=21|XSize=3.81mm|YSize=2.032mm|CornerRadius=0.508mm|HoleSize=0mm|Usage=FLASHONLY|Rotation=270.000|XOffset=0mm|YOffset=0mm|HoleType=Round|Shape=RoundedRectangle|*
%AMROUNDEDRECTD21*
21,1,3.8100,1.0160,0,0,270.0*
21,1,2.7940,2.0320,0,0,270.0*
1,1,1.0160,-0.5080,-1.3970*
1,1,1.0160,-0.5080,1.3970*
1,1,1.0160,0.5080,1.3970*
1,1,1.0160,0.5080,-1.3970*
%
%ADD21ROUNDEDRECTD21*%
G04:AMPARAMS|DCode=22|XSize=1.5mm|YSize=1mm|CornerRadius=0.25mm|HoleSize=0mm|Usage=FLASHONLY|Rotation=180.000|XOffset=0mm|YOffset=0mm|HoleType=Round|Shape=RoundedRectangle|*
%AMROUNDEDRECTD22*
21,1,1.5000,0.5000,0,0,180.0*
21,1,1.0000,1.0000,0,0,180.0*
1,1,0.5000,-0.5000,0.2500*
1,1,0.5000,0.5000,0.2500*
1,1,0.5000,0.5000,-0.2500*
1,1,0.5000,-0.5000,-0.2500*
%
%ADD22ROUNDEDRECTD22*%
G04:AMPARAMS|DCode=23|XSize=0.84mm|YSize=0.22mm|CornerRadius=0.055mm|HoleSize=0mm|Usage=FLASHONLY|Rotation=180.000|XOffset=0mm|YOffset=0mm|HoleType=Round|Shape=RoundedRectangle|*
%AMROUNDEDRECTD23*
21,1,0.8400,0.1100,0,0,180.0*
21,1,0.7300,0.2200,0,0,180.0*
1,1,0.1100,-0.3650,0.0550*
1,1,0.1100,0.3650,0.0550*
1,1,0.1100,0.3650,-0.0550*
1,1,0.1100,-0.3650,-0.0550*
%
%ADD23ROUNDEDRECTD23*%
G04:AMPARAMS|DCode=24|XSize=0.84mm|YSize=0.22mm|CornerRadius=0.055mm|HoleSize=0mm|Usage=FLASHONLY|Rotation=90.000|XOffset=0mm|YOffset=0mm|HoleType=Round|Shape=RoundedRectangle|*
%AMROUNDEDRECTD24*
21,1,0.8400,0.1100,0,0,90.0*
21,1,0.7300,0.2200,0,0,90.0*
1,1,0.1100,0.0550,0.3650*
1,1,0.1100,0.0550,-0.3650*
1,1,0.1100,-0.0550,-0.3650*
1,1,0.1100,-0.0550,0.3650*
%
%ADD24ROUNDEDRECTD24*%
G04:AMPARAMS|DCode=25|XSize=4.064mm|YSize=4.064mm|CornerRadius=1.016mm|HoleSize=0mm|Usage=FLASHONLY|Rotation=90.000|XOffset=0mm|YOffset=0mm|HoleType=Round|Shape=RoundedRectangle|*
%AMROUNDEDRECTD25*
21,1,4.0640,2.0320,0,0,90.0*
21,1,2.0320,4.0640,0,0,90.0*
1,1,2.0320,1.0160,1.0160*
1,1,2.0320,1.0160,-1.0160*
1,1,2.0320,-1.0160,-1.0160*
1,1,2.0320,-1.0160,1.0160*
%
%ADD25ROUNDEDRECTD25*%
G04:AMPARAMS|DCode=26|XSize=1.3mm|YSize=0.9mm|CornerRadius=0.225mm|HoleSize=0mm|Usage=FLASHONLY|Rotation=180.000|XOffset=0mm|YOffset=0mm|HoleType=Round|Shape=RoundedRectangle|*
%AMROUNDEDRECTD26*
21,1,1.3000,0.4500,0,0,180.0*
21,1,0.8500,0.9000,0,0,180.0*
1,1,0.4500,-0.4250,0.2250*
1,1,0.4500,0.4250,0.2250*
1,1,0.4500,0.4250,-0.2250*
1,1,0.4500,-0.4250,-0.2250*
%
%ADD26ROUNDEDRECTD26*%
G04:AMPARAMS|DCode=27|XSize=0.9561mm|YSize=1.6098mm|CornerRadius=0.239mm|HoleSize=0mm|Usage=FLASHONLY|Rotation=90.000|XOffset=0mm|YOffset=0mm|HoleType=Round|Shape=RoundedRectangle|*
%AMROUNDEDRECTD27*
21,1,0.9561,1.1318,0,0,90.0*
21,1,0.4780,1.6098,0,0,90.0*
1,1,0.4780,0.5659,0.2390*
1,1,0.4780,0.5659,-0.2390*
1,1,0.4780,-0.5659,-0.2390*
1,1,0.4780,-0.5659,0.2390*
%
%ADD27ROUNDEDRECTD27*%
G04:AMPARAMS|DCode=28|XSize=1.5mm|YSize=0.3mm|CornerRadius=0.075mm|HoleSize=0mm|Usage=FLASHONLY|Rotation=90.000|XOffset=0mm|YOffset=0mm|HoleType=Round|Shape=RoundedRectangle|*
%AMROUNDEDRECTD28*
21,1,1.5000,0.1500,0,0,90.0*
21,1,1.3500,0.3000,0,0,90.0*
1,1,0.1500,0.0750,0.6750*
1,1,0.1500,0.0750,-0.6750*
1,1,0.1500,-0.0750,-0.6750*
1,1,0.1500,-0.0750,0.6750*
%
%ADD28ROUNDEDRECTD28*%
%ADD31C,0.2540*%
%ADD39C,0.2540*%
%ADD40C,0.6000*%
%ADD41C,5.0000*%
%ADD42C,0.6500*%
%ADD43O,1.0000X1.6000*%
%ADD44O,1.0000X2.1000*%
D10*
X173736Y90000D02*
D03*
Y70000D02*
D03*
Y50000D02*
D03*
Y110000D02*
D03*
X623736Y90000D02*
D03*
Y70000D02*
D03*
Y50000D02*
D03*
Y110000D02*
D03*
X173736Y590000D02*
D03*
Y570000D02*
D03*
Y550000D02*
D03*
Y610000D02*
D03*
X623736Y590000D02*
D03*
Y570000D02*
D03*
Y550000D02*
D03*
Y610000D02*
D03*
D11*
X189230Y158750D02*
D03*
Y173990D02*
D03*
X273050Y158750D02*
D03*
Y173990D02*
D03*
X107950Y158750D02*
D03*
Y173990D02*
D03*
X198120Y322580D02*
D03*
Y307340D02*
D03*
X186690Y322580D02*
D03*
Y307340D02*
D03*
X175260Y322580D02*
D03*
Y307340D02*
D03*
X163830Y322580D02*
D03*
Y307340D02*
D03*
X274320Y223520D02*
D03*
Y238760D02*
D03*
X639230Y158750D02*
D03*
Y173990D02*
D03*
X723050Y158750D02*
D03*
Y173990D02*
D03*
X557950Y158750D02*
D03*
Y173990D02*
D03*
X648120Y322580D02*
D03*
Y307340D02*
D03*
X636690Y322580D02*
D03*
Y307340D02*
D03*
X625260Y322580D02*
D03*
Y307340D02*
D03*
X613830Y322580D02*
D03*
Y307340D02*
D03*
X724320Y223520D02*
D03*
Y238760D02*
D03*
X189230Y658750D02*
D03*
Y673990D02*
D03*
X273050Y658750D02*
D03*
Y673990D02*
D03*
X107950Y658750D02*
D03*
Y673990D02*
D03*
X198120Y822580D02*
D03*
Y807340D02*
D03*
X186690Y822580D02*
D03*
Y807340D02*
D03*
X175260Y822580D02*
D03*
Y807340D02*
D03*
X163830Y822580D02*
D03*
Y807340D02*
D03*
X274320Y723520D02*
D03*
Y738760D02*
D03*
X639230Y658750D02*
D03*
Y673990D02*
D03*
X723050Y658750D02*
D03*
Y673990D02*
D03*
X557950Y658750D02*
D03*
Y673990D02*
D03*
X648120Y822580D02*
D03*
Y807340D02*
D03*
X636690Y822580D02*
D03*
Y807340D02*
D03*
X625260Y822580D02*
D03*
Y807340D02*
D03*
X613830Y822580D02*
D03*
Y807340D02*
D03*
X724320Y723520D02*
D03*
Y738760D02*
D03*
D12*
X355600Y221186D02*
D03*
Y241186D02*
D03*
X334010Y221186D02*
D03*
Y241186D02*
D03*
X240030Y324960D02*
D03*
Y304960D02*
D03*
X209550Y407510D02*
D03*
Y387510D02*
D03*
X293370Y241186D02*
D03*
Y221186D02*
D03*
X377190Y241186D02*
D03*
Y221186D02*
D03*
X243840Y387510D02*
D03*
Y407510D02*
D03*
X805600Y221186D02*
D03*
Y241186D02*
D03*
X784010Y221186D02*
D03*
Y241186D02*
D03*
X690030Y324960D02*
D03*
Y304960D02*
D03*
X659550Y407510D02*
D03*
Y387510D02*
D03*
X743370Y241186D02*
D03*
Y221186D02*
D03*
X827190Y241186D02*
D03*
Y221186D02*
D03*
X693840Y387510D02*
D03*
Y407510D02*
D03*
X355600Y721186D02*
D03*
Y741186D02*
D03*
X334010Y721186D02*
D03*
Y741186D02*
D03*
X240030Y824960D02*
D03*
Y804960D02*
D03*
X209550Y907510D02*
D03*
Y887510D02*
D03*
X293370Y741186D02*
D03*
Y721186D02*
D03*
X377190Y741186D02*
D03*
Y721186D02*
D03*
X243840Y887510D02*
D03*
Y907510D02*
D03*
X805600Y721186D02*
D03*
Y741186D02*
D03*
X784010Y721186D02*
D03*
Y741186D02*
D03*
X690030Y824960D02*
D03*
Y804960D02*
D03*
X659550Y907510D02*
D03*
Y887510D02*
D03*
X743370Y741186D02*
D03*
Y721186D02*
D03*
X827190Y741186D02*
D03*
Y721186D02*
D03*
X693840Y887510D02*
D03*
Y907510D02*
D03*
D13*
X313690Y240186D02*
D03*
Y222186D02*
D03*
X266700Y322580D02*
D03*
Y304580D02*
D03*
X285750Y306580D02*
D03*
Y324580D02*
D03*
X304800Y322580D02*
D03*
Y304580D02*
D03*
X323850Y306580D02*
D03*
Y324580D02*
D03*
X342900Y322580D02*
D03*
Y304580D02*
D03*
X763690Y240186D02*
D03*
Y222186D02*
D03*
X716700Y322580D02*
D03*
Y304580D02*
D03*
X735750Y306580D02*
D03*
Y324580D02*
D03*
X754800Y322580D02*
D03*
Y304580D02*
D03*
X773850Y306580D02*
D03*
Y324580D02*
D03*
X792900Y322580D02*
D03*
Y304580D02*
D03*
X313690Y740186D02*
D03*
Y722186D02*
D03*
X266700Y822580D02*
D03*
Y804580D02*
D03*
X285750Y806580D02*
D03*
Y824580D02*
D03*
X304800Y822580D02*
D03*
Y804580D02*
D03*
X323850Y806580D02*
D03*
Y824580D02*
D03*
X342900Y822580D02*
D03*
Y804580D02*
D03*
X763690Y740186D02*
D03*
Y722186D02*
D03*
X716700Y822580D02*
D03*
Y804580D02*
D03*
X735750Y806580D02*
D03*
Y824580D02*
D03*
X754800Y822580D02*
D03*
Y804580D02*
D03*
X773850Y806580D02*
D03*
Y824580D02*
D03*
X792900Y822580D02*
D03*
Y804580D02*
D03*
D14*
X360680Y173228D02*
D03*
X317500D02*
D03*
X360680Y156972D02*
D03*
X317500D02*
D03*
X810680Y173228D02*
D03*
X767500D02*
D03*
X810680Y156972D02*
D03*
X767500D02*
D03*
X360680Y673228D02*
D03*
X317500D02*
D03*
X360680Y656972D02*
D03*
X317500D02*
D03*
X810680Y673228D02*
D03*
X767500D02*
D03*
X810680Y656972D02*
D03*
X767500D02*
D03*
D15*
X213310Y80560D02*
D03*
X365810D02*
D03*
Y24560D02*
D03*
X213310D02*
D03*
X663310Y80560D02*
D03*
X815810D02*
D03*
Y24560D02*
D03*
X663310D02*
D03*
X213310Y580560D02*
D03*
X365810D02*
D03*
Y524560D02*
D03*
X213310D02*
D03*
X663310Y580560D02*
D03*
X815810D02*
D03*
Y524560D02*
D03*
X663310D02*
D03*
D16*
X254560Y107940D02*
D03*
X279560D02*
D03*
X299560D02*
D03*
X324560D02*
D03*
X704560D02*
D03*
X729560D02*
D03*
X749560D02*
D03*
X774560D02*
D03*
X254560Y607940D02*
D03*
X279560D02*
D03*
X299560D02*
D03*
X324560D02*
D03*
X704560D02*
D03*
X729560D02*
D03*
X749560D02*
D03*
X774560D02*
D03*
D17*
X240538Y154432D02*
D03*
X259842D02*
D03*
Y178308D02*
D03*
X250190Y154432D02*
D03*
X240538Y178308D02*
D03*
X250190D02*
D03*
X155448Y154432D02*
D03*
X174752D02*
D03*
Y178308D02*
D03*
X165100Y154432D02*
D03*
X155448Y178308D02*
D03*
X165100D02*
D03*
X74168Y154432D02*
D03*
X93472D02*
D03*
Y178308D02*
D03*
X83820Y154432D02*
D03*
X74168Y178308D02*
D03*
X83820D02*
D03*
X690538Y154432D02*
D03*
X709842D02*
D03*
Y178308D02*
D03*
X700190Y154432D02*
D03*
X690538Y178308D02*
D03*
X700190D02*
D03*
X605448Y154432D02*
D03*
X624752D02*
D03*
Y178308D02*
D03*
X615100Y154432D02*
D03*
X605448Y178308D02*
D03*
X615100D02*
D03*
X524168Y154432D02*
D03*
X543472D02*
D03*
Y178308D02*
D03*
X533820Y154432D02*
D03*
X524168Y178308D02*
D03*
X533820D02*
D03*
X240538Y654432D02*
D03*
X259842D02*
D03*
Y678308D02*
D03*
X250190Y654432D02*
D03*
X240538Y678308D02*
D03*
X250190D02*
D03*
X155448Y654432D02*
D03*
X174752D02*
D03*
Y678308D02*
D03*
X165100Y654432D02*
D03*
X155448Y678308D02*
D03*
X165100D02*
D03*
X74168Y654432D02*
D03*
X93472D02*
D03*
Y678308D02*
D03*
X83820Y654432D02*
D03*
X74168Y678308D02*
D03*
X83820D02*
D03*
X690538Y654432D02*
D03*
X709842D02*
D03*
Y678308D02*
D03*
X700190Y654432D02*
D03*
X690538Y678308D02*
D03*
X700190D02*
D03*
X605448Y654432D02*
D03*
X624752D02*
D03*
Y678308D02*
D03*
X615100Y654432D02*
D03*
X605448Y678308D02*
D03*
X615100D02*
D03*
X524168Y654432D02*
D03*
X543472D02*
D03*
Y678308D02*
D03*
X533820Y654432D02*
D03*
X524168Y678308D02*
D03*
X533820D02*
D03*
D18*
X86200Y287020D02*
D03*
X66200D02*
D03*
X66040Y222250D02*
D03*
X86040D02*
D03*
X66040Y242570D02*
D03*
X86040D02*
D03*
X66040Y262890D02*
D03*
X86040D02*
D03*
X536200Y287020D02*
D03*
X516200D02*
D03*
X516040Y222250D02*
D03*
X536040D02*
D03*
X516040Y242570D02*
D03*
X536040D02*
D03*
X516040Y262890D02*
D03*
X536040D02*
D03*
X86200Y787020D02*
D03*
X66200D02*
D03*
X66040Y722250D02*
D03*
X86040D02*
D03*
X66040Y742570D02*
D03*
X86040D02*
D03*
X66040Y762890D02*
D03*
X86040D02*
D03*
X536200Y787020D02*
D03*
X516200D02*
D03*
X516040Y722250D02*
D03*
X536040D02*
D03*
X516040Y742570D02*
D03*
X536040D02*
D03*
X516040Y762890D02*
D03*
X536040D02*
D03*
D19*
X275760Y417830D02*
D03*
Y405130D02*
D03*
Y392430D02*
D03*
Y379730D02*
D03*
X328760Y417830D02*
D03*
Y405130D02*
D03*
Y392430D02*
D03*
Y379730D02*
D03*
X725760Y417830D02*
D03*
Y405130D02*
D03*
Y392430D02*
D03*
Y379730D02*
D03*
X778760Y417830D02*
D03*
Y405130D02*
D03*
Y392430D02*
D03*
Y379730D02*
D03*
X275760Y917830D02*
D03*
Y905130D02*
D03*
Y892430D02*
D03*
Y879730D02*
D03*
X328760Y917830D02*
D03*
Y905130D02*
D03*
Y892430D02*
D03*
Y879730D02*
D03*
X725760Y917830D02*
D03*
Y905130D02*
D03*
Y892430D02*
D03*
Y879730D02*
D03*
X778760Y917830D02*
D03*
Y905130D02*
D03*
Y892430D02*
D03*
Y879730D02*
D03*
D20*
X302260Y398780D02*
D03*
X752260D02*
D03*
X302260Y898780D02*
D03*
X752260D02*
D03*
D21*
X146290Y384683D02*
D03*
X49290D02*
D03*
X596290D02*
D03*
X499290D02*
D03*
X146290Y884683D02*
D03*
X49290D02*
D03*
X596290D02*
D03*
X499290D02*
D03*
D22*
X187960Y384843D02*
D03*
X187961Y410244D02*
D03*
X637960Y384843D02*
D03*
X637961Y410244D02*
D03*
X187960Y884843D02*
D03*
X187961Y910244D02*
D03*
X637960Y884843D02*
D03*
X637961Y910244D02*
D03*
D23*
X210960Y232000D02*
D03*
Y236000D02*
D03*
Y240000D02*
D03*
Y244000D02*
D03*
Y248000D02*
D03*
Y252000D02*
D03*
Y256000D02*
D03*
Y260000D02*
D03*
Y264000D02*
D03*
Y268000D02*
D03*
Y272000D02*
D03*
Y276000D02*
D03*
X152260D02*
D03*
Y272000D02*
D03*
Y268000D02*
D03*
Y264000D02*
D03*
Y260000D02*
D03*
Y256000D02*
D03*
Y252000D02*
D03*
Y248000D02*
D03*
Y244000D02*
D03*
Y240000D02*
D03*
Y236000D02*
D03*
Y232000D02*
D03*
X660960D02*
D03*
Y236000D02*
D03*
Y240000D02*
D03*
Y244000D02*
D03*
Y248000D02*
D03*
Y252000D02*
D03*
Y256000D02*
D03*
Y260000D02*
D03*
Y264000D02*
D03*
Y268000D02*
D03*
Y272000D02*
D03*
Y276000D02*
D03*
X602260D02*
D03*
Y272000D02*
D03*
Y268000D02*
D03*
Y264000D02*
D03*
Y260000D02*
D03*
Y256000D02*
D03*
Y252000D02*
D03*
Y248000D02*
D03*
Y244000D02*
D03*
Y240000D02*
D03*
Y236000D02*
D03*
Y232000D02*
D03*
X210960Y732000D02*
D03*
Y736000D02*
D03*
Y740000D02*
D03*
Y744000D02*
D03*
Y748000D02*
D03*
Y752000D02*
D03*
Y756000D02*
D03*
Y760000D02*
D03*
Y764000D02*
D03*
Y768000D02*
D03*
Y772000D02*
D03*
Y776000D02*
D03*
X152260D02*
D03*
Y772000D02*
D03*
Y768000D02*
D03*
Y764000D02*
D03*
Y760000D02*
D03*
Y756000D02*
D03*
Y752000D02*
D03*
Y748000D02*
D03*
Y744000D02*
D03*
Y740000D02*
D03*
Y736000D02*
D03*
Y732000D02*
D03*
X660960D02*
D03*
Y736000D02*
D03*
Y740000D02*
D03*
Y744000D02*
D03*
Y748000D02*
D03*
Y752000D02*
D03*
Y756000D02*
D03*
Y760000D02*
D03*
Y764000D02*
D03*
Y768000D02*
D03*
Y772000D02*
D03*
Y776000D02*
D03*
X602260D02*
D03*
Y772000D02*
D03*
Y768000D02*
D03*
Y764000D02*
D03*
Y760000D02*
D03*
Y756000D02*
D03*
Y752000D02*
D03*
Y748000D02*
D03*
Y744000D02*
D03*
Y740000D02*
D03*
Y736000D02*
D03*
Y732000D02*
D03*
D24*
X159610Y224650D02*
D03*
X163610D02*
D03*
X167610D02*
D03*
X171610D02*
D03*
X175610D02*
D03*
X179610D02*
D03*
X183610D02*
D03*
X187610D02*
D03*
X191610D02*
D03*
X195610D02*
D03*
X199610D02*
D03*
X203610D02*
D03*
Y283350D02*
D03*
X199610D02*
D03*
X195610D02*
D03*
X191610D02*
D03*
X187610D02*
D03*
X183610D02*
D03*
X179610D02*
D03*
X175610D02*
D03*
X171610D02*
D03*
X167610D02*
D03*
X163610D02*
D03*
X159610D02*
D03*
X609610Y224650D02*
D03*
X613610D02*
D03*
X617610D02*
D03*
X621610D02*
D03*
X625610D02*
D03*
X629610D02*
D03*
X633610D02*
D03*
X637610D02*
D03*
X641610D02*
D03*
X645610D02*
D03*
X649610D02*
D03*
X653610D02*
D03*
Y283350D02*
D03*
X649610D02*
D03*
X645610D02*
D03*
X641610D02*
D03*
X637610D02*
D03*
X633610D02*
D03*
X629610D02*
D03*
X625610D02*
D03*
X621610D02*
D03*
X617610D02*
D03*
X613610D02*
D03*
X609610D02*
D03*
X159610Y724650D02*
D03*
X163610D02*
D03*
X167610D02*
D03*
X171610D02*
D03*
X175610D02*
D03*
X179610D02*
D03*
X183610D02*
D03*
X187610D02*
D03*
X191610D02*
D03*
X195610D02*
D03*
X199610D02*
D03*
X203610D02*
D03*
Y783350D02*
D03*
X199610D02*
D03*
X195610D02*
D03*
X191610D02*
D03*
X187610D02*
D03*
X183610D02*
D03*
X179610D02*
D03*
X175610D02*
D03*
X171610D02*
D03*
X167610D02*
D03*
X163610D02*
D03*
X159610D02*
D03*
X609610Y724650D02*
D03*
X613610D02*
D03*
X617610D02*
D03*
X621610D02*
D03*
X625610D02*
D03*
X629610D02*
D03*
X633610D02*
D03*
X637610D02*
D03*
X641610D02*
D03*
X645610D02*
D03*
X649610D02*
D03*
X653610D02*
D03*
Y783350D02*
D03*
X649610D02*
D03*
X645610D02*
D03*
X641610D02*
D03*
X637610D02*
D03*
X633610D02*
D03*
X629610D02*
D03*
X625610D02*
D03*
X621610D02*
D03*
X617610D02*
D03*
X613610D02*
D03*
X609610D02*
D03*
D25*
X181610Y254000D02*
D03*
X631610D02*
D03*
X181610Y754000D02*
D03*
X631610D02*
D03*
D26*
X256540Y220640D02*
D03*
Y241640D02*
D03*
X706540Y220640D02*
D03*
Y241640D02*
D03*
X256540Y720640D02*
D03*
Y741640D02*
D03*
X706540Y720640D02*
D03*
Y741640D02*
D03*
D27*
X218440Y327660D02*
D03*
Y301638D02*
D03*
X668440Y327660D02*
D03*
Y301638D02*
D03*
X218440Y827660D02*
D03*
Y801638D02*
D03*
X668440Y827660D02*
D03*
Y801638D02*
D03*
D28*
X135030Y82150D02*
D03*
X132030D02*
D03*
X127030D02*
D03*
X124030D02*
D03*
X119030D02*
D03*
X114030D02*
D03*
X109030D02*
D03*
X104030D02*
D03*
X99030D02*
D03*
X94030D02*
D03*
X89030D02*
D03*
X84030D02*
D03*
X79030D02*
D03*
X76030D02*
D03*
X71030D02*
D03*
X68030D02*
D03*
X585030D02*
D03*
X582030D02*
D03*
X577030D02*
D03*
X574030D02*
D03*
X569030D02*
D03*
X564030D02*
D03*
X559030D02*
D03*
X554030D02*
D03*
X549030D02*
D03*
X544030D02*
D03*
X539030D02*
D03*
X534030D02*
D03*
X529030D02*
D03*
X526030D02*
D03*
X521030D02*
D03*
X518030D02*
D03*
X135030Y582150D02*
D03*
X132030D02*
D03*
X127030D02*
D03*
X124030D02*
D03*
X119030D02*
D03*
X114030D02*
D03*
X109030D02*
D03*
X104030D02*
D03*
X99030D02*
D03*
X94030D02*
D03*
X89030D02*
D03*
X84030D02*
D03*
X79030D02*
D03*
X76030D02*
D03*
X71030D02*
D03*
X68030D02*
D03*
X585030D02*
D03*
X582030D02*
D03*
X577030D02*
D03*
X574030D02*
D03*
X569030D02*
D03*
X564030D02*
D03*
X559030D02*
D03*
X554030D02*
D03*
X549030D02*
D03*
X544030D02*
D03*
X539030D02*
D03*
X534030D02*
D03*
X529030D02*
D03*
X526030D02*
D03*
X521030D02*
D03*
X518030D02*
D03*
D31*
X50000Y1000000D02*
G03*
X0Y950000I0J-50000D01*
G01*
X450000D02*
G03*
X400000Y1000000I-50000J0D01*
G01*
X0Y550000D02*
G03*
X50000Y500000I50000J0D01*
G01*
X500000Y1000000D02*
G03*
X450000Y950000I0J-50000D01*
G01*
X900000D02*
G03*
X850000Y1000000I-50000J0D01*
G01*
Y500000D02*
G03*
X900000Y550000I0J50000D01*
G01*
Y450000D02*
G03*
X850000Y500000I-50000J0D01*
G01*
Y0D02*
G03*
X900000Y50000I0J50000D01*
G01*
X450000D02*
G03*
X500000Y0I50000J0D01*
G01*
X50000Y500000D02*
G03*
X0Y450000I0J-50000D01*
G01*
X400000Y0D02*
G03*
X450000Y50000I0J50000D01*
G01*
X0D02*
G03*
X50000Y0I50000J0D01*
G01*
X900000Y50000D02*
Y450000D01*
X0Y550000D02*
Y950000D01*
X50000Y1000000D02*
X400000D01*
X900000Y550000D02*
Y950000D01*
X500000Y1000000D02*
X850000D01*
X500000Y0D02*
X850000D01*
X0Y50000D02*
Y450000D01*
X50000Y500000D02*
X400000D01*
X50000Y0D02*
X400000D01*
X0Y50000D02*
G03*
X50000Y0I50000J0D01*
G01*
X400000D02*
G03*
X450000Y50000I0J50000D01*
G01*
Y450000D02*
G03*
X400000Y500000I-50000J0D01*
G01*
X50000D02*
G03*
X0Y450000I0J-50000D01*
G01*
X50000Y0D02*
X400000D01*
X50000Y500000D02*
X400000D01*
X450000Y50000D02*
Y450000D01*
X0Y50000D02*
Y450000D01*
X450000Y50000D02*
G03*
X500000Y0I50000J0D01*
G01*
X850000D02*
G03*
X900000Y50000I0J50000D01*
G01*
Y450000D02*
G03*
X850000Y500000I-50000J0D01*
G01*
X500000D02*
G03*
X450000Y450000I0J-50000D01*
G01*
X500000Y0D02*
X850000D01*
X500000Y500000D02*
X850000D01*
X900000Y50000D02*
Y450000D01*
X450000Y50000D02*
Y450000D01*
X0Y550000D02*
G03*
X50000Y500000I50000J0D01*
G01*
X400000D02*
G03*
X450000Y550000I0J50000D01*
G01*
Y950000D02*
G03*
X400000Y1000000I-50000J0D01*
G01*
X50000D02*
G03*
X0Y950000I0J-50000D01*
G01*
X50000Y500000D02*
X400000D01*
X50000Y1000000D02*
X400000D01*
X450000Y550000D02*
Y950000D01*
X0Y550000D02*
Y950000D01*
X450000Y550000D02*
G03*
X500000Y500000I50000J0D01*
G01*
X850000D02*
G03*
X900000Y550000I0J50000D01*
G01*
Y950000D02*
G03*
X850000Y1000000I-50000J0D01*
G01*
X500000D02*
G03*
X450000Y950000I0J-50000D01*
G01*
X500000Y500000D02*
X850000D01*
X500000Y1000000D02*
X850000D01*
X900000Y550000D02*
Y950000D01*
X450000Y550000D02*
Y950000D01*
D39*
X900000Y50000D02*
D03*
D40*
X314060Y77180D02*
D03*
X265060D02*
D03*
X764060D02*
D03*
X715060D02*
D03*
X314060Y577180D02*
D03*
X265060D02*
D03*
X764060D02*
D03*
X715060D02*
D03*
D41*
X329184Y469646D02*
D03*
X113919D02*
D03*
X779184D02*
D03*
X563919D02*
D03*
X329184Y969646D02*
D03*
X113919D02*
D03*
X779184D02*
D03*
X563919D02*
D03*
D42*
X72630Y66750D02*
D03*
X130430D02*
D03*
X522630D02*
D03*
X580430D02*
D03*
X72630Y566750D02*
D03*
X130430D02*
D03*
X522630D02*
D03*
X580430D02*
D03*
D43*
X144780Y31750D02*
D03*
X58280D02*
D03*
X594780D02*
D03*
X508280D02*
D03*
X144780Y531750D02*
D03*
X58280D02*
D03*
X594780D02*
D03*
X508280D02*
D03*
D44*
X144780Y71750D02*
D03*
X58280D02*
D03*
X594780D02*
D03*
X508280D02*
D03*
X144780Y571750D02*
D03*
X58280D02*
D03*
X594780D02*
D03*
X508280D02*
D03*
M02*
