G04*
G04 #@! TF.GenerationSoftware,Altium Limited,Altium Designer,20.2.3 (150)*
G04*
G04 Layer_Color=2752767*
%FSLAX44Y44*%
%MOMM*%
G71*
G04*
G04 #@! TF.SameCoordinates,C1CC25AD-0FF3-43E4-BDA3-AC1D03E08D52*
G04*
G04*
G04 #@! TF.FilePolarity,Positive*
G04*
G01*
G75*
%ADD31C,0.2540*%
%ADD39C,0.2540*%
%ADD80C,0.0508*%
%ADD82C,0.0677*%
D31*
X50000Y1000000D02*
G03*
X0Y950000I0J-50000D01*
G01*
X450000D02*
G03*
X400000Y1000000I-50000J0D01*
G01*
X0Y550000D02*
G03*
X50000Y500000I50000J0D01*
G01*
X500000Y1000000D02*
G03*
X450000Y950000I0J-50000D01*
G01*
X900000D02*
G03*
X850000Y1000000I-50000J0D01*
G01*
Y500000D02*
G03*
X900000Y550000I0J50000D01*
G01*
Y450000D02*
G03*
X850000Y500000I-50000J0D01*
G01*
Y0D02*
G03*
X900000Y50000I0J50000D01*
G01*
X450000D02*
G03*
X500000Y0I50000J0D01*
G01*
X50000Y500000D02*
G03*
X0Y450000I0J-50000D01*
G01*
X400000Y0D02*
G03*
X450000Y50000I0J50000D01*
G01*
X0D02*
G03*
X50000Y0I50000J0D01*
G01*
X900000Y50000D02*
Y450000D01*
X0Y550000D02*
Y950000D01*
X50000Y1000000D02*
X400000D01*
X900000Y550000D02*
Y950000D01*
X500000Y1000000D02*
X850000D01*
X500000Y0D02*
X850000D01*
X0Y50000D02*
Y450000D01*
X50000Y500000D02*
X400000D01*
X50000Y0D02*
X400000D01*
X0Y50000D02*
G03*
X50000Y0I50000J0D01*
G01*
X400000D02*
G03*
X450000Y50000I0J50000D01*
G01*
Y450000D02*
G03*
X400000Y500000I-50000J0D01*
G01*
X50000D02*
G03*
X0Y450000I0J-50000D01*
G01*
X50000Y0D02*
X400000D01*
X50000Y500000D02*
X400000D01*
X450000Y50000D02*
Y450000D01*
X0Y50000D02*
Y450000D01*
X450000Y50000D02*
G03*
X500000Y0I50000J0D01*
G01*
X850000D02*
G03*
X900000Y50000I0J50000D01*
G01*
Y450000D02*
G03*
X850000Y500000I-50000J0D01*
G01*
X500000D02*
G03*
X450000Y450000I0J-50000D01*
G01*
X500000Y0D02*
X850000D01*
X500000Y500000D02*
X850000D01*
X900000Y50000D02*
Y450000D01*
X450000Y50000D02*
Y450000D01*
X0Y550000D02*
G03*
X50000Y500000I50000J0D01*
G01*
X400000D02*
G03*
X450000Y550000I0J50000D01*
G01*
Y950000D02*
G03*
X400000Y1000000I-50000J0D01*
G01*
X50000D02*
G03*
X0Y950000I0J-50000D01*
G01*
X50000Y500000D02*
X400000D01*
X50000Y1000000D02*
X400000D01*
X450000Y550000D02*
Y950000D01*
X0Y550000D02*
Y950000D01*
X450000Y550000D02*
G03*
X500000Y500000I50000J0D01*
G01*
X850000D02*
G03*
X900000Y550000I0J50000D01*
G01*
Y950000D02*
G03*
X850000Y1000000I-50000J0D01*
G01*
X500000D02*
G03*
X450000Y950000I0J-50000D01*
G01*
X500000Y500000D02*
X850000D01*
X500000Y1000000D02*
X850000D01*
X900000Y550000D02*
Y950000D01*
X450000Y550000D02*
Y950000D01*
D39*
X900000Y50000D02*
D03*
D80*
X312028Y75148D02*
Y79212D01*
X316092D01*
Y75148D01*
X312028D01*
X263028D02*
Y79212D01*
X267092D01*
Y75148D01*
X263028D01*
X72630Y64718D02*
X70598Y68782D01*
X74662D01*
X72630Y64718D01*
X130430D02*
X128398Y68782D01*
X132462D01*
X130430Y64718D01*
X144780Y29718D02*
X145796Y30734D01*
X146812D01*
X145796Y31750D01*
X146812Y32766D01*
X145796D01*
X144780Y33782D01*
X143764Y32766D01*
X142748D01*
X143764Y31750D01*
X142748Y30734D01*
X143764D01*
X144780Y29718D01*
X58280D02*
X59296Y30734D01*
X60312D01*
X59296Y31750D01*
X60312Y32766D01*
X59296D01*
X58280Y33782D01*
X57264Y32766D01*
X56248D01*
X57264Y31750D01*
X56248Y30734D01*
X57264D01*
X58280Y29718D01*
X142748Y69718D02*
X143764Y71750D01*
X142748Y73782D01*
X144780Y72766D01*
X146812Y73782D01*
X145796Y71750D01*
X146812Y69718D01*
X144780Y70734D01*
X142748Y69718D01*
X56248D02*
X57264Y71750D01*
X56248Y73782D01*
X58280Y72766D01*
X60312Y73782D01*
X59296Y71750D01*
X60312Y69718D01*
X58280Y70734D01*
X56248Y69718D01*
X125730Y209296D02*
Y208280D01*
X127762D01*
Y209296D01*
X128778D01*
Y211328D01*
X127762D01*
Y212344D01*
X125730D01*
Y211328D01*
X124714D01*
Y209296D01*
X125730D01*
X115062Y277241D02*
Y276225D01*
X117094D01*
Y277241D01*
X118110D01*
Y279273D01*
X117094D01*
Y280289D01*
X115062D01*
Y279273D01*
X114046D01*
Y277241D01*
X115062D01*
X108839Y283464D02*
Y282448D01*
X110871D01*
Y283464D01*
X111887D01*
Y285496D01*
X110871D01*
Y286512D01*
X108839D01*
Y285496D01*
X107823D01*
Y283464D01*
X108839D01*
X102616Y289814D02*
Y288798D01*
X104648D01*
Y289814D01*
X105664D01*
Y291846D01*
X104648D01*
Y292862D01*
X102616D01*
Y291846D01*
X101600D01*
Y289814D01*
X102616D01*
X101981Y232410D02*
Y231394D01*
X104013D01*
Y232410D01*
X105029D01*
Y234442D01*
X104013D01*
Y235458D01*
X101981D01*
Y234442D01*
X100965D01*
Y232410D01*
X101981D01*
X96647Y213614D02*
Y212598D01*
X98679D01*
Y213614D01*
X99695D01*
Y215646D01*
X98679D01*
Y216662D01*
X96647D01*
Y215646D01*
X95631D01*
Y213614D01*
X96647D01*
X96901Y274066D02*
Y273050D01*
X98933D01*
Y274066D01*
X99949D01*
Y276098D01*
X98933D01*
Y277114D01*
X96901D01*
Y276098D01*
X95885D01*
Y274066D01*
X96901D01*
X188214Y105918D02*
Y104902D01*
X190246D01*
Y105918D01*
X191262D01*
Y107950D01*
X190246D01*
Y108966D01*
X188214D01*
Y107950D01*
X187198D01*
Y105918D01*
X188214D01*
X179832Y361315D02*
Y360299D01*
X181864D01*
Y361315D01*
X182880D01*
Y363347D01*
X181864D01*
Y364363D01*
X179832D01*
Y363347D01*
X178816D01*
Y361315D01*
X179832D01*
X171704Y262636D02*
Y261620D01*
X173736D01*
Y262636D01*
X174752D01*
Y264668D01*
X173736D01*
Y265684D01*
X171704D01*
Y264668D01*
X170688D01*
Y262636D01*
X171704D01*
X166243D02*
Y261620D01*
X168275D01*
Y262636D01*
X169291D01*
Y264668D01*
X168275D01*
Y265684D01*
X166243D01*
Y264668D01*
X165227D01*
Y262636D01*
X166243D01*
X177800D02*
Y261620D01*
X179832D01*
Y262636D01*
X180848D01*
Y264668D01*
X179832D01*
Y265684D01*
X177800D01*
Y264668D01*
X176784D01*
Y262636D01*
X177800D01*
X183515D02*
Y261620D01*
X185547D01*
Y262636D01*
X186563D01*
Y264668D01*
X185547D01*
Y265684D01*
X183515D01*
Y264668D01*
X182499D01*
Y262636D01*
X183515D01*
X189611D02*
Y261620D01*
X191643D01*
Y262636D01*
X192659D01*
Y264668D01*
X191643D01*
Y265684D01*
X189611D01*
Y264668D01*
X188595D01*
Y262636D01*
X189611D01*
X195326D02*
Y261620D01*
X197358D01*
Y262636D01*
X198374D01*
Y264668D01*
X197358D01*
Y265684D01*
X195326D01*
Y264668D01*
X194310D01*
Y262636D01*
X195326D01*
X166243Y250698D02*
Y249682D01*
X168275D01*
Y250698D01*
X169291D01*
Y252730D01*
X168275D01*
Y253746D01*
X166243D01*
Y252730D01*
X165227D01*
Y250698D01*
X166243D01*
X171704D02*
Y249682D01*
X173736D01*
Y250698D01*
X174752D01*
Y252730D01*
X173736D01*
Y253746D01*
X171704D01*
Y252730D01*
X170688D01*
Y250698D01*
X171704D01*
X177800D02*
Y249682D01*
X179832D01*
Y250698D01*
X180848D01*
Y252730D01*
X179832D01*
Y253746D01*
X177800D01*
Y252730D01*
X176784D01*
Y250698D01*
X177800D01*
X183515D02*
Y249682D01*
X185547D01*
Y250698D01*
X186563D01*
Y252730D01*
X185547D01*
Y253746D01*
X183515D01*
Y252730D01*
X182499D01*
Y250698D01*
X183515D01*
X189611D02*
Y249682D01*
X191643D01*
Y250698D01*
X192659D01*
Y252730D01*
X191643D01*
Y253746D01*
X189611D01*
Y252730D01*
X188595D01*
Y250698D01*
X189611D01*
X195326D02*
Y249682D01*
X197358D01*
Y250698D01*
X198374D01*
Y252730D01*
X197358D01*
Y253746D01*
X195326D01*
Y252730D01*
X194310D01*
Y250698D01*
X195326D01*
X275844Y213995D02*
Y212979D01*
X277876D01*
Y213995D01*
X278892D01*
Y216027D01*
X277876D01*
Y217043D01*
X275844D01*
Y216027D01*
X274828D01*
Y213995D01*
X275844D01*
X268097Y211963D02*
Y210947D01*
X270129D01*
Y211963D01*
X271145D01*
Y213995D01*
X270129D01*
Y215011D01*
X268097D01*
Y213995D01*
X267081D01*
Y211963D01*
X268097D01*
X272288Y213868D02*
Y212852D01*
X274320D01*
Y213868D01*
X275336D01*
Y215900D01*
X274320D01*
Y216916D01*
X272288D01*
Y215900D01*
X271272D01*
Y213868D01*
X272288D01*
X300609Y188976D02*
Y187960D01*
X302641D01*
Y188976D01*
X303657D01*
Y191008D01*
X302641D01*
Y192024D01*
X300609D01*
Y191008D01*
X299593D01*
Y188976D01*
X300609D01*
X272034Y181610D02*
Y180594D01*
X274066D01*
Y181610D01*
X275082D01*
Y183642D01*
X274066D01*
Y184658D01*
X272034D01*
Y183642D01*
X271018D01*
Y181610D01*
X272034D01*
X106680Y181229D02*
Y180213D01*
X108712D01*
Y181229D01*
X109728D01*
Y183261D01*
X108712D01*
Y184277D01*
X106680D01*
Y183261D01*
X105664D01*
Y181229D01*
X106680D01*
X106934Y185293D02*
Y184277D01*
X108966D01*
Y185293D01*
X109982D01*
Y187325D01*
X108966D01*
Y188341D01*
X106934D01*
Y187325D01*
X105918D01*
Y185293D01*
X106934D01*
X64516Y195072D02*
X65532D01*
X66548Y196088D01*
X67564Y195072D01*
X68580D01*
Y196088D01*
X67564Y197104D01*
X68580Y198120D01*
Y199136D01*
X67564D01*
X66548Y198120D01*
X65532Y199136D01*
X64516D01*
Y198120D01*
X65532Y197104D01*
X64516Y196088D01*
Y195072D01*
X64643Y205740D02*
X65659D01*
X66675Y206756D01*
X67691Y205740D01*
X68707D01*
Y206756D01*
X67691Y207772D01*
X68707Y208788D01*
Y209804D01*
X67691D01*
X66675Y208788D01*
X65659Y209804D01*
X64643D01*
Y208788D01*
X65659Y207772D01*
X64643Y206756D01*
Y205740D01*
X36703Y189865D02*
X37719D01*
X38735Y190881D01*
X39751Y189865D01*
X40767D01*
Y190881D01*
X39751Y191897D01*
X40767Y192913D01*
Y193929D01*
X39751D01*
X38735Y192913D01*
X37719Y193929D01*
X36703D01*
Y192913D01*
X37719Y191897D01*
X36703Y190881D01*
Y189865D01*
X354076Y126619D02*
X355092D01*
X356108Y127635D01*
X357124Y126619D01*
X358140D01*
Y127635D01*
X357124Y128651D01*
X358140Y129667D01*
Y130683D01*
X357124D01*
X356108Y129667D01*
X355092Y130683D01*
X354076D01*
Y129667D01*
X355092Y128651D01*
X354076Y127635D01*
Y126619D01*
X337566D02*
X338582D01*
X339598Y127635D01*
X340614Y126619D01*
X341630D01*
Y127635D01*
X340614Y128651D01*
X341630Y129667D01*
Y130683D01*
X340614D01*
X339598Y129667D01*
X338582Y130683D01*
X337566D01*
Y129667D01*
X338582Y128651D01*
X337566Y127635D01*
Y126619D01*
X171704Y107968D02*
X172720D01*
X173736Y108984D01*
X174752Y107968D01*
X175768D01*
Y108984D01*
X174752Y110000D01*
X175768Y111016D01*
Y112032D01*
X174752D01*
X173736Y111016D01*
X172720Y112032D01*
X171704D01*
Y111016D01*
X172720Y110000D01*
X171704Y108984D01*
Y107968D01*
Y87968D02*
X172720D01*
X173736Y88984D01*
X174752Y87968D01*
X175768D01*
Y88984D01*
X174752Y90000D01*
X175768Y91016D01*
Y92032D01*
X174752D01*
X173736Y91016D01*
X172720Y92032D01*
X171704D01*
Y91016D01*
X172720Y90000D01*
X171704Y88984D01*
Y87968D01*
Y67968D02*
X172720D01*
X173736Y68984D01*
X174752Y67968D01*
X175768D01*
Y68984D01*
X174752Y70000D01*
X175768Y71016D01*
Y72032D01*
X174752D01*
X173736Y71016D01*
X172720Y72032D01*
X171704D01*
Y71016D01*
X172720Y70000D01*
X171704Y68984D01*
Y67968D01*
X172828Y46844D02*
X173844D01*
X174860Y47860D01*
X175876Y46844D01*
X176892D01*
Y47860D01*
X175876Y48876D01*
X176892Y49892D01*
Y50908D01*
X175876D01*
X174860Y49892D01*
X173844Y50908D01*
X172828D01*
Y49892D01*
X173844Y48876D01*
X172828Y47860D01*
Y46844D01*
X195326Y239014D02*
Y237998D01*
X197358D01*
Y239014D01*
X198374D01*
Y241046D01*
X197358D01*
Y242062D01*
X195326D01*
Y241046D01*
X194310D01*
Y239014D01*
X195326D01*
X189611D02*
Y237998D01*
X191643D01*
Y239014D01*
X192659D01*
Y241046D01*
X191643D01*
Y242062D01*
X189611D01*
Y241046D01*
X188595D01*
Y239014D01*
X189611D01*
X183515D02*
Y237998D01*
X185547D01*
Y239014D01*
X186563D01*
Y241046D01*
X185547D01*
Y242062D01*
X183515D01*
Y241046D01*
X182499D01*
Y239014D01*
X183515D01*
X177800D02*
Y237998D01*
X179832D01*
Y239014D01*
X180848D01*
Y241046D01*
X179832D01*
Y242062D01*
X177800D01*
Y241046D01*
X176784D01*
Y239014D01*
X177800D01*
X171704D02*
Y237998D01*
X173736D01*
Y239014D01*
X174752D01*
Y241046D01*
X173736D01*
Y242062D01*
X171704D01*
Y241046D01*
X170688D01*
Y239014D01*
X171704D01*
X166243D02*
Y237998D01*
X168275D01*
Y239014D01*
X169291D01*
Y241046D01*
X168275D01*
Y242062D01*
X166243D01*
Y241046D01*
X165227D01*
Y239014D01*
X166243D01*
X195326Y244856D02*
Y243840D01*
X197358D01*
Y244856D01*
X198374D01*
Y246888D01*
X197358D01*
Y247904D01*
X195326D01*
Y246888D01*
X194310D01*
Y244856D01*
X195326D01*
X189611D02*
Y243840D01*
X191643D01*
Y244856D01*
X192659D01*
Y246888D01*
X191643D01*
Y247904D01*
X189611D01*
Y246888D01*
X188595D01*
Y244856D01*
X189611D01*
X183515D02*
Y243840D01*
X185547D01*
Y244856D01*
X186563D01*
Y246888D01*
X185547D01*
Y247904D01*
X183515D01*
Y246888D01*
X182499D01*
Y244856D01*
X183515D01*
X177800D02*
Y243840D01*
X179832D01*
Y244856D01*
X180848D01*
Y246888D01*
X179832D01*
Y247904D01*
X177800D01*
Y246888D01*
X176784D01*
Y244856D01*
X177800D01*
X171704D02*
Y243840D01*
X173736D01*
Y244856D01*
X174752D01*
Y246888D01*
X173736D01*
Y247904D01*
X171704D01*
Y246888D01*
X170688D01*
Y244856D01*
X171704D01*
X166243D02*
Y243840D01*
X168275D01*
Y244856D01*
X169291D01*
Y246888D01*
X168275D01*
Y247904D01*
X166243D01*
Y246888D01*
X165227D01*
Y244856D01*
X166243D01*
X195326Y256413D02*
Y255397D01*
X197358D01*
Y256413D01*
X198374D01*
Y258445D01*
X197358D01*
Y259461D01*
X195326D01*
Y258445D01*
X194310D01*
Y256413D01*
X195326D01*
X189611D02*
Y255397D01*
X191643D01*
Y256413D01*
X192659D01*
Y258445D01*
X191643D01*
Y259461D01*
X189611D01*
Y258445D01*
X188595D01*
Y256413D01*
X189611D01*
X183515D02*
Y255397D01*
X185547D01*
Y256413D01*
X186563D01*
Y258445D01*
X185547D01*
Y259461D01*
X183515D01*
Y258445D01*
X182499D01*
Y256413D01*
X183515D01*
X177800D02*
Y255397D01*
X179832D01*
Y256413D01*
X180848D01*
Y258445D01*
X179832D01*
Y259461D01*
X177800D01*
Y258445D01*
X176784D01*
Y256413D01*
X177800D01*
X171704D02*
Y255397D01*
X173736D01*
Y256413D01*
X174752D01*
Y258445D01*
X173736D01*
Y259461D01*
X171704D01*
Y258445D01*
X170688D01*
Y256413D01*
X171704D01*
X166243D02*
Y255397D01*
X168275D01*
Y256413D01*
X169291D01*
Y258445D01*
X168275D01*
Y259461D01*
X166243D01*
Y258445D01*
X165227D01*
Y256413D01*
X166243D01*
X195326Y268732D02*
Y267716D01*
X197358D01*
Y268732D01*
X198374D01*
Y270764D01*
X197358D01*
Y271780D01*
X195326D01*
Y270764D01*
X194310D01*
Y268732D01*
X195326D01*
X189611D02*
Y267716D01*
X191643D01*
Y268732D01*
X192659D01*
Y270764D01*
X191643D01*
Y271780D01*
X189611D01*
Y270764D01*
X188595D01*
Y268732D01*
X189611D01*
X183515D02*
Y267716D01*
X185547D01*
Y268732D01*
X186563D01*
Y270764D01*
X185547D01*
Y271780D01*
X183515D01*
Y270764D01*
X182499D01*
Y268732D01*
X183515D01*
X177800D02*
Y267716D01*
X179832D01*
Y268732D01*
X180848D01*
Y270764D01*
X179832D01*
Y271780D01*
X177800D01*
Y270764D01*
X176784D01*
Y268732D01*
X177800D01*
X171704D02*
Y267716D01*
X173736D01*
Y268732D01*
X174752D01*
Y270764D01*
X173736D01*
Y271780D01*
X171704D01*
Y270764D01*
X170688D01*
Y268732D01*
X171704D01*
X166243D02*
Y267716D01*
X168275D01*
Y268732D01*
X169291D01*
Y270764D01*
X168275D01*
Y271780D01*
X166243D01*
Y270764D01*
X165227D01*
Y268732D01*
X166243D01*
X292354Y252349D02*
Y251333D01*
X294386D01*
Y252349D01*
X295402D01*
Y254381D01*
X294386D01*
Y255397D01*
X292354D01*
Y254381D01*
X291338D01*
Y252349D01*
X292354D01*
X175768Y189992D02*
Y188976D01*
X177800D01*
Y189992D01*
X178816D01*
Y192024D01*
X177800D01*
Y193040D01*
X175768D01*
Y192024D01*
X174752D01*
Y189992D01*
X175768D01*
X177673Y194056D02*
Y193040D01*
X179705D01*
Y194056D01*
X180721D01*
Y196088D01*
X179705D01*
Y197104D01*
X177673D01*
Y196088D01*
X176657D01*
Y194056D01*
X177673D01*
X176022Y197993D02*
Y196977D01*
X178054D01*
Y197993D01*
X179070D01*
Y200025D01*
X178054D01*
Y201041D01*
X176022D01*
Y200025D01*
X175006D01*
Y197993D01*
X176022D01*
X173990Y200914D02*
Y199898D01*
X176022D01*
Y200914D01*
X177038D01*
Y202946D01*
X176022D01*
Y203962D01*
X173990D01*
Y202946D01*
X172974D01*
Y200914D01*
X173990D01*
X169672Y201930D02*
Y200914D01*
X171704D01*
Y201930D01*
X172720D01*
Y203962D01*
X171704D01*
Y204978D01*
X169672D01*
Y203962D01*
X168656D01*
Y201930D01*
X169672D01*
X165227Y201549D02*
Y200533D01*
X167259D01*
Y201549D01*
X168275D01*
Y203581D01*
X167259D01*
Y204597D01*
X165227D01*
Y203581D01*
X164211D01*
Y201549D01*
X165227D01*
X166116Y196723D02*
Y195707D01*
X168148D01*
Y196723D01*
X169164D01*
Y198755D01*
X168148D01*
Y199771D01*
X166116D01*
Y198755D01*
X165100D01*
Y196723D01*
X166116D01*
X161163Y198755D02*
Y197739D01*
X163195D01*
Y198755D01*
X164211D01*
Y200787D01*
X163195D01*
Y201803D01*
X161163D01*
Y200787D01*
X160147D01*
Y198755D01*
X161163D01*
X162306Y195326D02*
Y194310D01*
X164338D01*
Y195326D01*
X165354D01*
Y197358D01*
X164338D01*
Y198374D01*
X162306D01*
Y197358D01*
X161290D01*
Y195326D01*
X162306D01*
X158192Y194943D02*
Y193927D01*
X160224D01*
Y194943D01*
X161240D01*
Y196975D01*
X160224D01*
Y197991D01*
X158192D01*
Y196975D01*
X157176D01*
Y194943D01*
X158192D01*
X163068Y191389D02*
Y190373D01*
X165100D01*
Y191389D01*
X166116D01*
Y193421D01*
X165100D01*
Y194437D01*
X163068D01*
Y193421D01*
X162052D01*
Y191389D01*
X163068D01*
X160147Y191643D02*
Y190627D01*
X162179D01*
Y191643D01*
X163195D01*
Y193675D01*
X162179D01*
Y194691D01*
X160147D01*
Y193675D01*
X159131D01*
Y191643D01*
X160147D01*
X156083Y191897D02*
Y190881D01*
X158115D01*
Y191897D01*
X159131D01*
Y193929D01*
X158115D01*
Y194945D01*
X156083D01*
Y193929D01*
X155067D01*
Y191897D01*
X156083D01*
X183901Y211602D02*
Y210586D01*
X185933D01*
Y211602D01*
X186949D01*
Y213634D01*
X185933D01*
Y214650D01*
X183901D01*
Y213634D01*
X182885D01*
Y211602D01*
X183901D01*
X185166Y292354D02*
Y291338D01*
X187198D01*
Y292354D01*
X188214D01*
Y294386D01*
X187198D01*
Y295402D01*
X185166D01*
Y294386D01*
X184150D01*
Y292354D01*
X185166D01*
X181610Y292481D02*
Y291465D01*
X183642D01*
Y292481D01*
X184658D01*
Y294513D01*
X183642D01*
Y295529D01*
X181610D01*
Y294513D01*
X180594D01*
Y292481D01*
X181610D01*
X178181D02*
Y291465D01*
X180213D01*
Y292481D01*
X181229D01*
Y294513D01*
X180213D01*
Y295529D01*
X178181D01*
Y294513D01*
X177165D01*
Y292481D01*
X178181D01*
X175006D02*
Y291465D01*
X177038D01*
Y292481D01*
X178054D01*
Y294513D01*
X177038D01*
Y295529D01*
X175006D01*
Y294513D01*
X173990D01*
Y292481D01*
X175006D01*
X88011Y142113D02*
Y141097D01*
X90043D01*
Y142113D01*
X91059D01*
Y144145D01*
X90043D01*
Y145161D01*
X88011D01*
Y144145D01*
X86995D01*
Y142113D01*
X88011D01*
X85598D02*
Y141097D01*
X87630D01*
Y142113D01*
X88646D01*
Y144145D01*
X87630D01*
Y145161D01*
X85598D01*
Y144145D01*
X84582D01*
Y142113D01*
X85598D01*
X83185Y141351D02*
Y140335D01*
X85217D01*
Y141351D01*
X86233D01*
Y143383D01*
X85217D01*
Y144399D01*
X83185D01*
Y143383D01*
X82169D01*
Y141351D01*
X83185D01*
X90424Y140335D02*
Y139319D01*
X92456D01*
Y140335D01*
X93472D01*
Y142367D01*
X92456D01*
Y143383D01*
X90424D01*
Y142367D01*
X89408D01*
Y140335D01*
X90424D01*
X88265Y139446D02*
Y138430D01*
X90297D01*
Y139446D01*
X91313D01*
Y141478D01*
X90297D01*
Y142494D01*
X88265D01*
Y141478D01*
X87249D01*
Y139446D01*
X88265D01*
X85979Y139065D02*
Y138049D01*
X88011D01*
Y139065D01*
X89027D01*
Y141097D01*
X88011D01*
Y142113D01*
X85979D01*
Y141097D01*
X84963D01*
Y139065D01*
X85979D01*
X83820Y138811D02*
Y137795D01*
X85852D01*
Y138811D01*
X86868D01*
Y140843D01*
X85852D01*
Y141859D01*
X83820D01*
Y140843D01*
X82804D01*
Y138811D01*
X83820D01*
X28829Y179832D02*
X29845D01*
X30861Y180848D01*
X31877Y179832D01*
X32893D01*
Y180848D01*
X31877Y181864D01*
X32893Y182880D01*
Y183896D01*
X31877D01*
X30861Y182880D01*
X29845Y183896D01*
X28829D01*
Y182880D01*
X29845Y181864D01*
X28829Y180848D01*
Y179832D01*
X14986Y182499D02*
X16002D01*
X17018Y183515D01*
X18034Y182499D01*
X19050D01*
Y183515D01*
X18034Y184531D01*
X19050Y185547D01*
Y186563D01*
X18034D01*
X17018Y185547D01*
X16002Y186563D01*
X14986D01*
Y185547D01*
X16002Y184531D01*
X14986Y183515D01*
Y182499D01*
X23876Y191516D02*
X24892D01*
X25908Y192532D01*
X26924Y191516D01*
X27940D01*
Y192532D01*
X26924Y193548D01*
X27940Y194564D01*
Y195580D01*
X26924D01*
X25908Y194564D01*
X24892Y195580D01*
X23876D01*
Y194564D01*
X24892Y193548D01*
X23876Y192532D01*
Y191516D01*
X30099Y214249D02*
X31115D01*
X32131Y215265D01*
X33147Y214249D01*
X34163D01*
Y215265D01*
X33147Y216281D01*
X34163Y217297D01*
Y218313D01*
X33147D01*
X32131Y217297D01*
X31115Y218313D01*
X30099D01*
Y217297D01*
X31115Y216281D01*
X30099Y215265D01*
Y214249D01*
X15494Y213614D02*
X16510D01*
X17526Y214630D01*
X18542Y213614D01*
X19558D01*
Y214630D01*
X18542Y215646D01*
X19558Y216662D01*
Y217678D01*
X18542D01*
X17526Y216662D01*
X16510Y217678D01*
X15494D01*
Y216662D01*
X16510Y215646D01*
X15494Y214630D01*
Y213614D01*
X29718Y225933D02*
X30734D01*
X31750Y226949D01*
X32766Y225933D01*
X33782D01*
Y226949D01*
X32766Y227965D01*
X33782Y228981D01*
Y229997D01*
X32766D01*
X31750Y228981D01*
X30734Y229997D01*
X29718D01*
Y228981D01*
X30734Y227965D01*
X29718Y226949D01*
Y225933D01*
X15621Y225679D02*
X16637D01*
X17653Y226695D01*
X18669Y225679D01*
X19685D01*
Y226695D01*
X18669Y227711D01*
X19685Y228727D01*
Y229743D01*
X18669D01*
X17653Y228727D01*
X16637Y229743D01*
X15621D01*
Y228727D01*
X16637Y227711D01*
X15621Y226695D01*
Y225679D01*
X27686Y239903D02*
X28702D01*
X29718Y240919D01*
X30734Y239903D01*
X31750D01*
Y240919D01*
X30734Y241935D01*
X31750Y242951D01*
Y243967D01*
X30734D01*
X29718Y242951D01*
X28702Y243967D01*
X27686D01*
Y242951D01*
X28702Y241935D01*
X27686Y240919D01*
Y239903D01*
X26797Y251841D02*
X27813D01*
X28829Y252857D01*
X29845Y251841D01*
X30861D01*
Y252857D01*
X29845Y253873D01*
X30861Y254889D01*
Y255905D01*
X29845D01*
X28829Y254889D01*
X27813Y255905D01*
X26797D01*
Y254889D01*
X27813Y253873D01*
X26797Y252857D01*
Y251841D01*
X15494Y252222D02*
X16510D01*
X17526Y253238D01*
X18542Y252222D01*
X19558D01*
Y253238D01*
X18542Y254254D01*
X19558Y255270D01*
Y256286D01*
X18542D01*
X17526Y255270D01*
X16510Y256286D01*
X15494D01*
Y255270D01*
X16510Y254254D01*
X15494Y253238D01*
Y252222D01*
X16002Y238506D02*
X17018D01*
X18034Y239522D01*
X19050Y238506D01*
X20066D01*
Y239522D01*
X19050Y240538D01*
X20066Y241554D01*
Y242570D01*
X19050D01*
X18034Y241554D01*
X17018Y242570D01*
X16002D01*
Y241554D01*
X17018Y240538D01*
X16002Y239522D01*
Y238506D01*
X15367Y195961D02*
X16383D01*
X17399Y196977D01*
X18415Y195961D01*
X19431D01*
Y196977D01*
X18415Y197993D01*
X19431Y199009D01*
Y200025D01*
X18415D01*
X17399Y199009D01*
X16383Y200025D01*
X15367D01*
Y199009D01*
X16383Y197993D01*
X15367Y196977D01*
Y195961D01*
X15875Y204343D02*
X16891D01*
X17907Y205359D01*
X18923Y204343D01*
X19939D01*
Y205359D01*
X18923Y206375D01*
X19939Y207391D01*
Y208407D01*
X18923D01*
X17907Y207391D01*
X16891Y208407D01*
X15875D01*
Y207391D01*
X16891Y206375D01*
X15875Y205359D01*
Y204343D01*
X31877Y201803D02*
X32893D01*
X33909Y202819D01*
X34925Y201803D01*
X35941D01*
Y202819D01*
X34925Y203835D01*
X35941Y204851D01*
Y205867D01*
X34925D01*
X33909Y204851D01*
X32893Y205867D01*
X31877D01*
Y204851D01*
X32893Y203835D01*
X31877Y202819D01*
Y201803D01*
X87249Y144399D02*
Y143383D01*
X89281D01*
Y144399D01*
X90297D01*
Y146431D01*
X89281D01*
Y147447D01*
X87249D01*
Y146431D01*
X86233D01*
Y144399D01*
X87249D01*
X81788Y144653D02*
Y143637D01*
X83820D01*
Y144653D01*
X84836D01*
Y146685D01*
X83820D01*
Y147701D01*
X81788D01*
Y146685D01*
X80772D01*
Y144653D01*
X81788D01*
X167640Y133350D02*
Y132334D01*
X169672D01*
Y133350D01*
X170688D01*
Y135382D01*
X169672D01*
Y136398D01*
X167640D01*
Y135382D01*
X166624D01*
Y133350D01*
X167640D01*
X166497Y144272D02*
Y143256D01*
X168529D01*
Y144272D01*
X169545D01*
Y146304D01*
X168529D01*
Y147320D01*
X166497D01*
Y146304D01*
X165481D01*
Y144272D01*
X166497D01*
X163068Y143510D02*
Y142494D01*
X165100D01*
Y143510D01*
X166116D01*
Y145542D01*
X165100D01*
Y146558D01*
X163068D01*
Y145542D01*
X162052D01*
Y143510D01*
X163068D01*
X165354Y141097D02*
Y140081D01*
X167386D01*
Y141097D01*
X168402D01*
Y143129D01*
X167386D01*
Y144145D01*
X165354D01*
Y143129D01*
X164338D01*
Y141097D01*
X165354D01*
X162941Y140081D02*
Y139065D01*
X164973D01*
Y140081D01*
X165989D01*
Y142113D01*
X164973D01*
Y143129D01*
X162941D01*
Y142113D01*
X161925D01*
Y140081D01*
X162941D01*
X166624Y137795D02*
Y136779D01*
X168656D01*
Y137795D01*
X169672D01*
Y139827D01*
X168656D01*
Y140843D01*
X166624D01*
Y139827D01*
X165608D01*
Y137795D01*
X166624D01*
X165481Y135382D02*
Y134366D01*
X167513D01*
Y135382D01*
X168529D01*
Y137414D01*
X167513D01*
Y138430D01*
X165481D01*
Y137414D01*
X164465D01*
Y135382D01*
X165481D01*
X162941Y136017D02*
Y135001D01*
X164973D01*
Y136017D01*
X165989D01*
Y138049D01*
X164973D01*
Y139065D01*
X162941D01*
Y138049D01*
X161925D01*
Y136017D01*
X162941D01*
X250063Y131191D02*
Y130175D01*
X252095D01*
Y131191D01*
X253111D01*
Y133223D01*
X252095D01*
Y134239D01*
X250063D01*
Y133223D01*
X249047D01*
Y131191D01*
X250063D01*
X248158Y132842D02*
Y131826D01*
X250190D01*
Y132842D01*
X251206D01*
Y134874D01*
X250190D01*
Y135890D01*
X248158D01*
Y134874D01*
X247142D01*
Y132842D01*
X248158D01*
X250952Y134366D02*
Y133350D01*
X252984D01*
Y134366D01*
X254000D01*
Y136398D01*
X252984D01*
Y137414D01*
X250952D01*
Y136398D01*
X249936D01*
Y134366D01*
X250952D01*
X251333Y137033D02*
Y136017D01*
X253365D01*
Y137033D01*
X254381D01*
Y139065D01*
X253365D01*
Y140081D01*
X251333D01*
Y139065D01*
X250317D01*
Y137033D01*
X251333D01*
X248285Y139573D02*
Y138557D01*
X250317D01*
Y139573D01*
X251333D01*
Y141605D01*
X250317D01*
Y142621D01*
X248285D01*
Y141605D01*
X247269D01*
Y139573D01*
X248285D01*
X251460Y140081D02*
Y139065D01*
X253492D01*
Y140081D01*
X254508D01*
Y142113D01*
X253492D01*
Y143129D01*
X251460D01*
Y142113D01*
X250444D01*
Y140081D01*
X251460D01*
X250190Y142494D02*
Y141478D01*
X252222D01*
Y142494D01*
X253238D01*
Y144526D01*
X252222D01*
Y145542D01*
X250190D01*
Y144526D01*
X249174D01*
Y142494D01*
X250190D01*
X247396Y142621D02*
Y141605D01*
X249428D01*
Y142621D01*
X250444D01*
Y144653D01*
X249428D01*
Y145669D01*
X247396D01*
Y144653D01*
X246380D01*
Y142621D01*
X247396D01*
X250317Y145288D02*
Y144272D01*
X252349D01*
Y145288D01*
X253365D01*
Y147320D01*
X252349D01*
Y148336D01*
X250317D01*
Y147320D01*
X249301D01*
Y145288D01*
X250317D01*
X247904Y145161D02*
Y144145D01*
X249936D01*
Y145161D01*
X250952D01*
Y147193D01*
X249936D01*
Y148209D01*
X247904D01*
Y147193D01*
X246888D01*
Y145161D01*
X247904D01*
X242697Y341884D02*
Y340868D01*
X244729D01*
Y341884D01*
X245745D01*
Y343916D01*
X244729D01*
Y344932D01*
X242697D01*
Y343916D01*
X241681D01*
Y341884D01*
X242697D01*
X240030Y342900D02*
Y341884D01*
X242062D01*
Y342900D01*
X243078D01*
Y344932D01*
X242062D01*
Y345948D01*
X240030D01*
Y344932D01*
X239014D01*
Y342900D01*
X240030D01*
X237236Y340995D02*
Y339979D01*
X239268D01*
Y340995D01*
X240284D01*
Y343027D01*
X239268D01*
Y344043D01*
X237236D01*
Y343027D01*
X236220D01*
Y340995D01*
X237236D01*
X239649Y340360D02*
Y339344D01*
X241681D01*
Y340360D01*
X242697D01*
Y342392D01*
X241681D01*
Y343408D01*
X239649D01*
Y342392D01*
X238633D01*
Y340360D01*
X239649D01*
X242570Y338455D02*
Y337439D01*
X244602D01*
Y338455D01*
X245618D01*
Y340487D01*
X244602D01*
Y341503D01*
X242570D01*
Y340487D01*
X241554D01*
Y338455D01*
X242570D01*
X241681Y335407D02*
Y334391D01*
X243713D01*
Y335407D01*
X244729D01*
Y337439D01*
X243713D01*
Y338455D01*
X241681D01*
Y337439D01*
X240665D01*
Y335407D01*
X241681D01*
X238506D02*
Y334391D01*
X240538D01*
Y335407D01*
X241554D01*
Y337439D01*
X240538D01*
Y338455D01*
X238506D01*
Y337439D01*
X237490D01*
Y335407D01*
X238506D01*
X236347Y337058D02*
Y336042D01*
X238379D01*
Y337058D01*
X239395D01*
Y339090D01*
X238379D01*
Y340106D01*
X236347D01*
Y339090D01*
X235331D01*
Y337058D01*
X236347D01*
X207899Y295656D02*
Y294640D01*
X209931D01*
Y295656D01*
X210947D01*
Y297688D01*
X209931D01*
Y298704D01*
X207899D01*
Y297688D01*
X206883D01*
Y295656D01*
X207899D01*
X205193Y296870D02*
Y295854D01*
X207225D01*
Y296870D01*
X208241D01*
Y298902D01*
X207225D01*
Y299918D01*
X205193D01*
Y298902D01*
X204177D01*
Y296870D01*
X205193D01*
X206756Y298196D02*
Y297180D01*
X208788D01*
Y298196D01*
X209804D01*
Y300228D01*
X208788D01*
Y301244D01*
X206756D01*
Y300228D01*
X205740D01*
Y298196D01*
X206756D01*
X203581Y299212D02*
Y298196D01*
X205613D01*
Y299212D01*
X206629D01*
Y301244D01*
X205613D01*
Y302260D01*
X203581D01*
Y301244D01*
X202565D01*
Y299212D01*
X203581D01*
X199898Y296799D02*
Y295783D01*
X201930D01*
Y296799D01*
X202946D01*
Y298831D01*
X201930D01*
Y299847D01*
X199898D01*
Y298831D01*
X198882D01*
Y296799D01*
X199898D01*
X180467Y299085D02*
Y298069D01*
X182499D01*
Y299085D01*
X183515D01*
Y301117D01*
X182499D01*
Y302133D01*
X180467D01*
Y301117D01*
X179451D01*
Y299085D01*
X180467D01*
X176403Y298831D02*
Y297815D01*
X178435D01*
Y298831D01*
X179451D01*
Y300863D01*
X178435D01*
Y301879D01*
X176403D01*
Y300863D01*
X175387D01*
Y298831D01*
X176403D01*
X174879Y296037D02*
Y295021D01*
X176911D01*
Y296037D01*
X177927D01*
Y298069D01*
X176911D01*
Y299085D01*
X174879D01*
Y298069D01*
X173863D01*
Y296037D01*
X174879D01*
X187706Y296291D02*
Y295275D01*
X189738D01*
Y296291D01*
X190754D01*
Y298323D01*
X189738D01*
Y299339D01*
X187706D01*
Y298323D01*
X186690D01*
Y296291D01*
X187706D01*
X182499Y296418D02*
Y295402D01*
X184531D01*
Y296418D01*
X185547D01*
Y298450D01*
X184531D01*
Y299466D01*
X182499D01*
Y298450D01*
X181483D01*
Y296418D01*
X182499D01*
X185039Y296164D02*
Y295148D01*
X187071D01*
Y296164D01*
X188087D01*
Y298196D01*
X187071D01*
Y299212D01*
X185039D01*
Y298196D01*
X184023D01*
Y296164D01*
X185039D01*
X138938Y189992D02*
Y188976D01*
X140970D01*
Y189992D01*
X141986D01*
Y192024D01*
X140970D01*
Y193040D01*
X138938D01*
Y192024D01*
X137922D01*
Y189992D01*
X138938D01*
X233934Y238760D02*
Y237744D01*
X235966D01*
Y238760D01*
X236982D01*
Y240792D01*
X235966D01*
Y241808D01*
X233934D01*
Y240792D01*
X232918D01*
Y238760D01*
X233934D01*
X209809Y210332D02*
Y209316D01*
X211841D01*
Y210332D01*
X212857D01*
Y212364D01*
X211841D01*
Y213380D01*
X209809D01*
Y212364D01*
X208793D01*
Y210332D01*
X209809D01*
X131191Y111506D02*
Y110490D01*
X133223D01*
Y111506D01*
X134239D01*
Y113538D01*
X133223D01*
Y114554D01*
X131191D01*
Y113538D01*
X130175D01*
Y111506D01*
X131191D01*
X108871Y110268D02*
Y109252D01*
X110903D01*
Y110268D01*
X111919D01*
Y112300D01*
X110903D01*
Y113316D01*
X108871D01*
Y112300D01*
X107855D01*
Y110268D01*
X108871D01*
X173482Y193929D02*
Y192913D01*
X175514D01*
Y193929D01*
X176530D01*
Y195961D01*
X175514D01*
Y196977D01*
X173482D01*
Y195961D01*
X172466D01*
Y193929D01*
X173482D01*
X170942Y197715D02*
Y196699D01*
X172974D01*
Y197715D01*
X173990D01*
Y199747D01*
X172974D01*
Y200763D01*
X170942D01*
Y199747D01*
X169926D01*
Y197715D01*
X170942D01*
X168910Y192405D02*
Y191389D01*
X170942D01*
Y192405D01*
X171958D01*
Y194437D01*
X170942D01*
Y195453D01*
X168910D01*
Y194437D01*
X167894D01*
Y192405D01*
X168910D01*
X140848Y235478D02*
Y234462D01*
X142880D01*
Y235478D01*
X143896D01*
Y237510D01*
X142880D01*
Y238526D01*
X140848D01*
Y237510D01*
X139832D01*
Y235478D01*
X140848D01*
X219456Y222504D02*
Y221488D01*
X221488D01*
Y222504D01*
X222504D01*
Y224536D01*
X221488D01*
Y225552D01*
X219456D01*
Y224536D01*
X218440D01*
Y222504D01*
X219456D01*
X218567Y213106D02*
Y212090D01*
X220599D01*
Y213106D01*
X221615D01*
Y215138D01*
X220599D01*
Y216154D01*
X218567D01*
Y215138D01*
X217551D01*
Y213106D01*
X218567D01*
X248539Y136144D02*
Y135128D01*
X250571D01*
Y136144D01*
X251587D01*
Y138176D01*
X250571D01*
Y139192D01*
X248539D01*
Y138176D01*
X247523D01*
Y136144D01*
X248539D01*
X140721Y243987D02*
Y242971D01*
X142753D01*
Y243987D01*
X143769D01*
Y246019D01*
X142753D01*
Y247035D01*
X140721D01*
Y246019D01*
X139705D01*
Y243987D01*
X140721D01*
X219588Y188869D02*
Y187853D01*
X221620D01*
Y188869D01*
X222636D01*
Y190901D01*
X221620D01*
Y191917D01*
X219588D01*
Y190901D01*
X218572D01*
Y188869D01*
X219588D01*
X191008Y204089D02*
Y203073D01*
X193040D01*
Y204089D01*
X194056D01*
Y206121D01*
X193040D01*
Y207137D01*
X191008D01*
Y206121D01*
X189992D01*
Y204089D01*
X191008D01*
X196728Y211856D02*
Y210840D01*
X198760D01*
Y211856D01*
X199776D01*
Y213888D01*
X198760D01*
Y214904D01*
X196728D01*
Y213888D01*
X195712D01*
Y211856D01*
X196728D01*
X239273Y337713D02*
Y336697D01*
X241305D01*
Y337713D01*
X242321D01*
Y339745D01*
X241305D01*
Y340761D01*
X239273D01*
Y339745D01*
X238257D01*
Y337713D01*
X239273D01*
X222001Y245638D02*
Y244622D01*
X224033D01*
Y245638D01*
X225049D01*
Y247670D01*
X224033D01*
Y248686D01*
X222001D01*
Y247670D01*
X220985D01*
Y245638D01*
X222001D01*
X163957Y132461D02*
Y131445D01*
X165989D01*
Y132461D01*
X167005D01*
Y134493D01*
X165989D01*
Y135509D01*
X163957D01*
Y134493D01*
X162941D01*
Y132461D01*
X163957D01*
X187089Y146540D02*
Y145524D01*
X189121D01*
Y146540D01*
X190137D01*
Y148572D01*
X189121D01*
Y149588D01*
X187089D01*
Y148572D01*
X186073D01*
Y146540D01*
X187089D01*
X84709Y144145D02*
Y143129D01*
X86741D01*
Y144145D01*
X87757D01*
Y146177D01*
X86741D01*
Y147193D01*
X84709D01*
Y146177D01*
X83693D01*
Y144145D01*
X84709D01*
X226060Y232410D02*
Y231394D01*
X228092D01*
Y232410D01*
X229108D01*
Y234442D01*
X228092D01*
Y235458D01*
X226060D01*
Y234442D01*
X225044D01*
Y232410D01*
X226060D01*
X203073Y296926D02*
Y295910D01*
X205105D01*
Y296926D01*
X206121D01*
Y298958D01*
X205105D01*
Y299974D01*
X203073D01*
Y298958D01*
X202057D01*
Y296926D01*
X203073D01*
X330454Y186944D02*
Y185928D01*
X332486D01*
Y186944D01*
X333502D01*
Y188976D01*
X332486D01*
Y189992D01*
X330454D01*
Y188976D01*
X329438D01*
Y186944D01*
X330454D01*
X178883Y296282D02*
Y295266D01*
X180916D01*
Y296282D01*
X181931D01*
Y298314D01*
X180916D01*
Y299330D01*
X178883D01*
Y298314D01*
X177868D01*
Y296282D01*
X178883D01*
X762028Y75148D02*
Y79212D01*
X766092D01*
Y75148D01*
X762028D01*
X713028D02*
Y79212D01*
X717092D01*
Y75148D01*
X713028D01*
X522630Y64718D02*
X520598Y68782D01*
X524662D01*
X522630Y64718D01*
X580430D02*
X578398Y68782D01*
X582462D01*
X580430Y64718D01*
X594780Y29718D02*
X595796Y30734D01*
X596812D01*
X595796Y31750D01*
X596812Y32766D01*
X595796D01*
X594780Y33782D01*
X593764Y32766D01*
X592748D01*
X593764Y31750D01*
X592748Y30734D01*
X593764D01*
X594780Y29718D01*
X508280D02*
X509296Y30734D01*
X510312D01*
X509296Y31750D01*
X510312Y32766D01*
X509296D01*
X508280Y33782D01*
X507264Y32766D01*
X506248D01*
X507264Y31750D01*
X506248Y30734D01*
X507264D01*
X508280Y29718D01*
X592748Y69718D02*
X593764Y71750D01*
X592748Y73782D01*
X594780Y72766D01*
X596812Y73782D01*
X595796Y71750D01*
X596812Y69718D01*
X594780Y70734D01*
X592748Y69718D01*
X506248D02*
X507264Y71750D01*
X506248Y73782D01*
X508280Y72766D01*
X510312Y73782D01*
X509296Y71750D01*
X510312Y69718D01*
X508280Y70734D01*
X506248Y69718D01*
X575730Y209296D02*
Y208280D01*
X577762D01*
Y209296D01*
X578778D01*
Y211328D01*
X577762D01*
Y212344D01*
X575730D01*
Y211328D01*
X574714D01*
Y209296D01*
X575730D01*
X565062Y277241D02*
Y276225D01*
X567094D01*
Y277241D01*
X568110D01*
Y279273D01*
X567094D01*
Y280289D01*
X565062D01*
Y279273D01*
X564046D01*
Y277241D01*
X565062D01*
X558839Y283464D02*
Y282448D01*
X560871D01*
Y283464D01*
X561887D01*
Y285496D01*
X560871D01*
Y286512D01*
X558839D01*
Y285496D01*
X557823D01*
Y283464D01*
X558839D01*
X552616Y289814D02*
Y288798D01*
X554648D01*
Y289814D01*
X555664D01*
Y291846D01*
X554648D01*
Y292862D01*
X552616D01*
Y291846D01*
X551600D01*
Y289814D01*
X552616D01*
X551981Y232410D02*
Y231394D01*
X554013D01*
Y232410D01*
X555029D01*
Y234442D01*
X554013D01*
Y235458D01*
X551981D01*
Y234442D01*
X550965D01*
Y232410D01*
X551981D01*
X546647Y213614D02*
Y212598D01*
X548679D01*
Y213614D01*
X549695D01*
Y215646D01*
X548679D01*
Y216662D01*
X546647D01*
Y215646D01*
X545631D01*
Y213614D01*
X546647D01*
X546901Y274066D02*
Y273050D01*
X548933D01*
Y274066D01*
X549949D01*
Y276098D01*
X548933D01*
Y277114D01*
X546901D01*
Y276098D01*
X545885D01*
Y274066D01*
X546901D01*
X638214Y105918D02*
Y104902D01*
X640246D01*
Y105918D01*
X641262D01*
Y107950D01*
X640246D01*
Y108966D01*
X638214D01*
Y107950D01*
X637198D01*
Y105918D01*
X638214D01*
X629832Y361315D02*
Y360299D01*
X631864D01*
Y361315D01*
X632880D01*
Y363347D01*
X631864D01*
Y364363D01*
X629832D01*
Y363347D01*
X628816D01*
Y361315D01*
X629832D01*
X621704Y262636D02*
Y261620D01*
X623736D01*
Y262636D01*
X624752D01*
Y264668D01*
X623736D01*
Y265684D01*
X621704D01*
Y264668D01*
X620688D01*
Y262636D01*
X621704D01*
X616243D02*
Y261620D01*
X618275D01*
Y262636D01*
X619291D01*
Y264668D01*
X618275D01*
Y265684D01*
X616243D01*
Y264668D01*
X615227D01*
Y262636D01*
X616243D01*
X627800D02*
Y261620D01*
X629832D01*
Y262636D01*
X630848D01*
Y264668D01*
X629832D01*
Y265684D01*
X627800D01*
Y264668D01*
X626784D01*
Y262636D01*
X627800D01*
X633515D02*
Y261620D01*
X635547D01*
Y262636D01*
X636563D01*
Y264668D01*
X635547D01*
Y265684D01*
X633515D01*
Y264668D01*
X632499D01*
Y262636D01*
X633515D01*
X639611D02*
Y261620D01*
X641643D01*
Y262636D01*
X642659D01*
Y264668D01*
X641643D01*
Y265684D01*
X639611D01*
Y264668D01*
X638595D01*
Y262636D01*
X639611D01*
X645326D02*
Y261620D01*
X647358D01*
Y262636D01*
X648374D01*
Y264668D01*
X647358D01*
Y265684D01*
X645326D01*
Y264668D01*
X644310D01*
Y262636D01*
X645326D01*
X616243Y250698D02*
Y249682D01*
X618275D01*
Y250698D01*
X619291D01*
Y252730D01*
X618275D01*
Y253746D01*
X616243D01*
Y252730D01*
X615227D01*
Y250698D01*
X616243D01*
X621704D02*
Y249682D01*
X623736D01*
Y250698D01*
X624752D01*
Y252730D01*
X623736D01*
Y253746D01*
X621704D01*
Y252730D01*
X620688D01*
Y250698D01*
X621704D01*
X627800D02*
Y249682D01*
X629832D01*
Y250698D01*
X630848D01*
Y252730D01*
X629832D01*
Y253746D01*
X627800D01*
Y252730D01*
X626784D01*
Y250698D01*
X627800D01*
X633515D02*
Y249682D01*
X635547D01*
Y250698D01*
X636563D01*
Y252730D01*
X635547D01*
Y253746D01*
X633515D01*
Y252730D01*
X632499D01*
Y250698D01*
X633515D01*
X639611D02*
Y249682D01*
X641643D01*
Y250698D01*
X642659D01*
Y252730D01*
X641643D01*
Y253746D01*
X639611D01*
Y252730D01*
X638595D01*
Y250698D01*
X639611D01*
X645326D02*
Y249682D01*
X647358D01*
Y250698D01*
X648374D01*
Y252730D01*
X647358D01*
Y253746D01*
X645326D01*
Y252730D01*
X644310D01*
Y250698D01*
X645326D01*
X725844Y213995D02*
Y212979D01*
X727876D01*
Y213995D01*
X728892D01*
Y216027D01*
X727876D01*
Y217043D01*
X725844D01*
Y216027D01*
X724828D01*
Y213995D01*
X725844D01*
X718097Y211963D02*
Y210947D01*
X720129D01*
Y211963D01*
X721145D01*
Y213995D01*
X720129D01*
Y215011D01*
X718097D01*
Y213995D01*
X717081D01*
Y211963D01*
X718097D01*
X722288Y213868D02*
Y212852D01*
X724320D01*
Y213868D01*
X725336D01*
Y215900D01*
X724320D01*
Y216916D01*
X722288D01*
Y215900D01*
X721272D01*
Y213868D01*
X722288D01*
X750609Y188976D02*
Y187960D01*
X752641D01*
Y188976D01*
X753657D01*
Y191008D01*
X752641D01*
Y192024D01*
X750609D01*
Y191008D01*
X749593D01*
Y188976D01*
X750609D01*
X722034Y181610D02*
Y180594D01*
X724066D01*
Y181610D01*
X725082D01*
Y183642D01*
X724066D01*
Y184658D01*
X722034D01*
Y183642D01*
X721018D01*
Y181610D01*
X722034D01*
X556680Y181229D02*
Y180213D01*
X558712D01*
Y181229D01*
X559728D01*
Y183261D01*
X558712D01*
Y184277D01*
X556680D01*
Y183261D01*
X555664D01*
Y181229D01*
X556680D01*
X556934Y185293D02*
Y184277D01*
X558966D01*
Y185293D01*
X559982D01*
Y187325D01*
X558966D01*
Y188341D01*
X556934D01*
Y187325D01*
X555918D01*
Y185293D01*
X556934D01*
X514516Y195072D02*
X515532D01*
X516548Y196088D01*
X517564Y195072D01*
X518580D01*
Y196088D01*
X517564Y197104D01*
X518580Y198120D01*
Y199136D01*
X517564D01*
X516548Y198120D01*
X515532Y199136D01*
X514516D01*
Y198120D01*
X515532Y197104D01*
X514516Y196088D01*
Y195072D01*
X514643Y205740D02*
X515659D01*
X516675Y206756D01*
X517691Y205740D01*
X518707D01*
Y206756D01*
X517691Y207772D01*
X518707Y208788D01*
Y209804D01*
X517691D01*
X516675Y208788D01*
X515659Y209804D01*
X514643D01*
Y208788D01*
X515659Y207772D01*
X514643Y206756D01*
Y205740D01*
X486703Y189865D02*
X487719D01*
X488735Y190881D01*
X489751Y189865D01*
X490767D01*
Y190881D01*
X489751Y191897D01*
X490767Y192913D01*
Y193929D01*
X489751D01*
X488735Y192913D01*
X487719Y193929D01*
X486703D01*
Y192913D01*
X487719Y191897D01*
X486703Y190881D01*
Y189865D01*
X804076Y126619D02*
X805092D01*
X806108Y127635D01*
X807124Y126619D01*
X808140D01*
Y127635D01*
X807124Y128651D01*
X808140Y129667D01*
Y130683D01*
X807124D01*
X806108Y129667D01*
X805092Y130683D01*
X804076D01*
Y129667D01*
X805092Y128651D01*
X804076Y127635D01*
Y126619D01*
X787566D02*
X788582D01*
X789598Y127635D01*
X790614Y126619D01*
X791630D01*
Y127635D01*
X790614Y128651D01*
X791630Y129667D01*
Y130683D01*
X790614D01*
X789598Y129667D01*
X788582Y130683D01*
X787566D01*
Y129667D01*
X788582Y128651D01*
X787566Y127635D01*
Y126619D01*
X621704Y107968D02*
X622720D01*
X623736Y108984D01*
X624752Y107968D01*
X625768D01*
Y108984D01*
X624752Y110000D01*
X625768Y111016D01*
Y112032D01*
X624752D01*
X623736Y111016D01*
X622720Y112032D01*
X621704D01*
Y111016D01*
X622720Y110000D01*
X621704Y108984D01*
Y107968D01*
Y87968D02*
X622720D01*
X623736Y88984D01*
X624752Y87968D01*
X625768D01*
Y88984D01*
X624752Y90000D01*
X625768Y91016D01*
Y92032D01*
X624752D01*
X623736Y91016D01*
X622720Y92032D01*
X621704D01*
Y91016D01*
X622720Y90000D01*
X621704Y88984D01*
Y87968D01*
Y67968D02*
X622720D01*
X623736Y68984D01*
X624752Y67968D01*
X625768D01*
Y68984D01*
X624752Y70000D01*
X625768Y71016D01*
Y72032D01*
X624752D01*
X623736Y71016D01*
X622720Y72032D01*
X621704D01*
Y71016D01*
X622720Y70000D01*
X621704Y68984D01*
Y67968D01*
X622828Y46844D02*
X623844D01*
X624860Y47860D01*
X625876Y46844D01*
X626892D01*
Y47860D01*
X625876Y48876D01*
X626892Y49892D01*
Y50908D01*
X625876D01*
X624860Y49892D01*
X623844Y50908D01*
X622828D01*
Y49892D01*
X623844Y48876D01*
X622828Y47860D01*
Y46844D01*
X645326Y239014D02*
Y237998D01*
X647358D01*
Y239014D01*
X648374D01*
Y241046D01*
X647358D01*
Y242062D01*
X645326D01*
Y241046D01*
X644310D01*
Y239014D01*
X645326D01*
X639611D02*
Y237998D01*
X641643D01*
Y239014D01*
X642659D01*
Y241046D01*
X641643D01*
Y242062D01*
X639611D01*
Y241046D01*
X638595D01*
Y239014D01*
X639611D01*
X633515D02*
Y237998D01*
X635547D01*
Y239014D01*
X636563D01*
Y241046D01*
X635547D01*
Y242062D01*
X633515D01*
Y241046D01*
X632499D01*
Y239014D01*
X633515D01*
X627800D02*
Y237998D01*
X629832D01*
Y239014D01*
X630848D01*
Y241046D01*
X629832D01*
Y242062D01*
X627800D01*
Y241046D01*
X626784D01*
Y239014D01*
X627800D01*
X621704D02*
Y237998D01*
X623736D01*
Y239014D01*
X624752D01*
Y241046D01*
X623736D01*
Y242062D01*
X621704D01*
Y241046D01*
X620688D01*
Y239014D01*
X621704D01*
X616243D02*
Y237998D01*
X618275D01*
Y239014D01*
X619291D01*
Y241046D01*
X618275D01*
Y242062D01*
X616243D01*
Y241046D01*
X615227D01*
Y239014D01*
X616243D01*
X645326Y244856D02*
Y243840D01*
X647358D01*
Y244856D01*
X648374D01*
Y246888D01*
X647358D01*
Y247904D01*
X645326D01*
Y246888D01*
X644310D01*
Y244856D01*
X645326D01*
X639611D02*
Y243840D01*
X641643D01*
Y244856D01*
X642659D01*
Y246888D01*
X641643D01*
Y247904D01*
X639611D01*
Y246888D01*
X638595D01*
Y244856D01*
X639611D01*
X633515D02*
Y243840D01*
X635547D01*
Y244856D01*
X636563D01*
Y246888D01*
X635547D01*
Y247904D01*
X633515D01*
Y246888D01*
X632499D01*
Y244856D01*
X633515D01*
X627800D02*
Y243840D01*
X629832D01*
Y244856D01*
X630848D01*
Y246888D01*
X629832D01*
Y247904D01*
X627800D01*
Y246888D01*
X626784D01*
Y244856D01*
X627800D01*
X621704D02*
Y243840D01*
X623736D01*
Y244856D01*
X624752D01*
Y246888D01*
X623736D01*
Y247904D01*
X621704D01*
Y246888D01*
X620688D01*
Y244856D01*
X621704D01*
X616243D02*
Y243840D01*
X618275D01*
Y244856D01*
X619291D01*
Y246888D01*
X618275D01*
Y247904D01*
X616243D01*
Y246888D01*
X615227D01*
Y244856D01*
X616243D01*
X645326Y256413D02*
Y255397D01*
X647358D01*
Y256413D01*
X648374D01*
Y258445D01*
X647358D01*
Y259461D01*
X645326D01*
Y258445D01*
X644310D01*
Y256413D01*
X645326D01*
X639611D02*
Y255397D01*
X641643D01*
Y256413D01*
X642659D01*
Y258445D01*
X641643D01*
Y259461D01*
X639611D01*
Y258445D01*
X638595D01*
Y256413D01*
X639611D01*
X633515D02*
Y255397D01*
X635547D01*
Y256413D01*
X636563D01*
Y258445D01*
X635547D01*
Y259461D01*
X633515D01*
Y258445D01*
X632499D01*
Y256413D01*
X633515D01*
X627800D02*
Y255397D01*
X629832D01*
Y256413D01*
X630848D01*
Y258445D01*
X629832D01*
Y259461D01*
X627800D01*
Y258445D01*
X626784D01*
Y256413D01*
X627800D01*
X621704D02*
Y255397D01*
X623736D01*
Y256413D01*
X624752D01*
Y258445D01*
X623736D01*
Y259461D01*
X621704D01*
Y258445D01*
X620688D01*
Y256413D01*
X621704D01*
X616243D02*
Y255397D01*
X618275D01*
Y256413D01*
X619291D01*
Y258445D01*
X618275D01*
Y259461D01*
X616243D01*
Y258445D01*
X615227D01*
Y256413D01*
X616243D01*
X645326Y268732D02*
Y267716D01*
X647358D01*
Y268732D01*
X648374D01*
Y270764D01*
X647358D01*
Y271780D01*
X645326D01*
Y270764D01*
X644310D01*
Y268732D01*
X645326D01*
X639611D02*
Y267716D01*
X641643D01*
Y268732D01*
X642659D01*
Y270764D01*
X641643D01*
Y271780D01*
X639611D01*
Y270764D01*
X638595D01*
Y268732D01*
X639611D01*
X633515D02*
Y267716D01*
X635547D01*
Y268732D01*
X636563D01*
Y270764D01*
X635547D01*
Y271780D01*
X633515D01*
Y270764D01*
X632499D01*
Y268732D01*
X633515D01*
X627800D02*
Y267716D01*
X629832D01*
Y268732D01*
X630848D01*
Y270764D01*
X629832D01*
Y271780D01*
X627800D01*
Y270764D01*
X626784D01*
Y268732D01*
X627800D01*
X621704D02*
Y267716D01*
X623736D01*
Y268732D01*
X624752D01*
Y270764D01*
X623736D01*
Y271780D01*
X621704D01*
Y270764D01*
X620688D01*
Y268732D01*
X621704D01*
X616243D02*
Y267716D01*
X618275D01*
Y268732D01*
X619291D01*
Y270764D01*
X618275D01*
Y271780D01*
X616243D01*
Y270764D01*
X615227D01*
Y268732D01*
X616243D01*
X742354Y252349D02*
Y251333D01*
X744386D01*
Y252349D01*
X745402D01*
Y254381D01*
X744386D01*
Y255397D01*
X742354D01*
Y254381D01*
X741338D01*
Y252349D01*
X742354D01*
X625768Y189992D02*
Y188976D01*
X627800D01*
Y189992D01*
X628816D01*
Y192024D01*
X627800D01*
Y193040D01*
X625768D01*
Y192024D01*
X624752D01*
Y189992D01*
X625768D01*
X627673Y194056D02*
Y193040D01*
X629705D01*
Y194056D01*
X630721D01*
Y196088D01*
X629705D01*
Y197104D01*
X627673D01*
Y196088D01*
X626657D01*
Y194056D01*
X627673D01*
X626022Y197993D02*
Y196977D01*
X628054D01*
Y197993D01*
X629070D01*
Y200025D01*
X628054D01*
Y201041D01*
X626022D01*
Y200025D01*
X625006D01*
Y197993D01*
X626022D01*
X623990Y200914D02*
Y199898D01*
X626022D01*
Y200914D01*
X627038D01*
Y202946D01*
X626022D01*
Y203962D01*
X623990D01*
Y202946D01*
X622974D01*
Y200914D01*
X623990D01*
X619672Y201930D02*
Y200914D01*
X621704D01*
Y201930D01*
X622720D01*
Y203962D01*
X621704D01*
Y204978D01*
X619672D01*
Y203962D01*
X618656D01*
Y201930D01*
X619672D01*
X615227Y201549D02*
Y200533D01*
X617259D01*
Y201549D01*
X618275D01*
Y203581D01*
X617259D01*
Y204597D01*
X615227D01*
Y203581D01*
X614211D01*
Y201549D01*
X615227D01*
X616116Y196723D02*
Y195707D01*
X618148D01*
Y196723D01*
X619164D01*
Y198755D01*
X618148D01*
Y199771D01*
X616116D01*
Y198755D01*
X615100D01*
Y196723D01*
X616116D01*
X611163Y198755D02*
Y197739D01*
X613195D01*
Y198755D01*
X614211D01*
Y200787D01*
X613195D01*
Y201803D01*
X611163D01*
Y200787D01*
X610147D01*
Y198755D01*
X611163D01*
X612306Y195326D02*
Y194310D01*
X614338D01*
Y195326D01*
X615354D01*
Y197358D01*
X614338D01*
Y198374D01*
X612306D01*
Y197358D01*
X611290D01*
Y195326D01*
X612306D01*
X608192Y194943D02*
Y193927D01*
X610224D01*
Y194943D01*
X611240D01*
Y196975D01*
X610224D01*
Y197991D01*
X608192D01*
Y196975D01*
X607176D01*
Y194943D01*
X608192D01*
X613068Y191389D02*
Y190373D01*
X615100D01*
Y191389D01*
X616116D01*
Y193421D01*
X615100D01*
Y194437D01*
X613068D01*
Y193421D01*
X612052D01*
Y191389D01*
X613068D01*
X610147Y191643D02*
Y190627D01*
X612179D01*
Y191643D01*
X613195D01*
Y193675D01*
X612179D01*
Y194691D01*
X610147D01*
Y193675D01*
X609131D01*
Y191643D01*
X610147D01*
X606083Y191897D02*
Y190881D01*
X608115D01*
Y191897D01*
X609131D01*
Y193929D01*
X608115D01*
Y194945D01*
X606083D01*
Y193929D01*
X605067D01*
Y191897D01*
X606083D01*
X633901Y211602D02*
Y210586D01*
X635933D01*
Y211602D01*
X636949D01*
Y213634D01*
X635933D01*
Y214650D01*
X633901D01*
Y213634D01*
X632885D01*
Y211602D01*
X633901D01*
X635166Y292354D02*
Y291338D01*
X637198D01*
Y292354D01*
X638214D01*
Y294386D01*
X637198D01*
Y295402D01*
X635166D01*
Y294386D01*
X634150D01*
Y292354D01*
X635166D01*
X631610Y292481D02*
Y291465D01*
X633642D01*
Y292481D01*
X634658D01*
Y294513D01*
X633642D01*
Y295529D01*
X631610D01*
Y294513D01*
X630594D01*
Y292481D01*
X631610D01*
X628181D02*
Y291465D01*
X630213D01*
Y292481D01*
X631229D01*
Y294513D01*
X630213D01*
Y295529D01*
X628181D01*
Y294513D01*
X627165D01*
Y292481D01*
X628181D01*
X625006D02*
Y291465D01*
X627038D01*
Y292481D01*
X628054D01*
Y294513D01*
X627038D01*
Y295529D01*
X625006D01*
Y294513D01*
X623990D01*
Y292481D01*
X625006D01*
X538011Y142113D02*
Y141097D01*
X540043D01*
Y142113D01*
X541059D01*
Y144145D01*
X540043D01*
Y145161D01*
X538011D01*
Y144145D01*
X536995D01*
Y142113D01*
X538011D01*
X535598D02*
Y141097D01*
X537630D01*
Y142113D01*
X538646D01*
Y144145D01*
X537630D01*
Y145161D01*
X535598D01*
Y144145D01*
X534582D01*
Y142113D01*
X535598D01*
X533185Y141351D02*
Y140335D01*
X535217D01*
Y141351D01*
X536233D01*
Y143383D01*
X535217D01*
Y144399D01*
X533185D01*
Y143383D01*
X532169D01*
Y141351D01*
X533185D01*
X540424Y140335D02*
Y139319D01*
X542456D01*
Y140335D01*
X543472D01*
Y142367D01*
X542456D01*
Y143383D01*
X540424D01*
Y142367D01*
X539408D01*
Y140335D01*
X540424D01*
X538265Y139446D02*
Y138430D01*
X540297D01*
Y139446D01*
X541313D01*
Y141478D01*
X540297D01*
Y142494D01*
X538265D01*
Y141478D01*
X537249D01*
Y139446D01*
X538265D01*
X535979Y139065D02*
Y138049D01*
X538011D01*
Y139065D01*
X539027D01*
Y141097D01*
X538011D01*
Y142113D01*
X535979D01*
Y141097D01*
X534963D01*
Y139065D01*
X535979D01*
X533820Y138811D02*
Y137795D01*
X535852D01*
Y138811D01*
X536868D01*
Y140843D01*
X535852D01*
Y141859D01*
X533820D01*
Y140843D01*
X532804D01*
Y138811D01*
X533820D01*
X478829Y179832D02*
X479845D01*
X480861Y180848D01*
X481877Y179832D01*
X482893D01*
Y180848D01*
X481877Y181864D01*
X482893Y182880D01*
Y183896D01*
X481877D01*
X480861Y182880D01*
X479845Y183896D01*
X478829D01*
Y182880D01*
X479845Y181864D01*
X478829Y180848D01*
Y179832D01*
X464986Y182499D02*
X466002D01*
X467018Y183515D01*
X468034Y182499D01*
X469050D01*
Y183515D01*
X468034Y184531D01*
X469050Y185547D01*
Y186563D01*
X468034D01*
X467018Y185547D01*
X466002Y186563D01*
X464986D01*
Y185547D01*
X466002Y184531D01*
X464986Y183515D01*
Y182499D01*
X473876Y191516D02*
X474892D01*
X475908Y192532D01*
X476924Y191516D01*
X477940D01*
Y192532D01*
X476924Y193548D01*
X477940Y194564D01*
Y195580D01*
X476924D01*
X475908Y194564D01*
X474892Y195580D01*
X473876D01*
Y194564D01*
X474892Y193548D01*
X473876Y192532D01*
Y191516D01*
X480099Y214249D02*
X481115D01*
X482131Y215265D01*
X483147Y214249D01*
X484163D01*
Y215265D01*
X483147Y216281D01*
X484163Y217297D01*
Y218313D01*
X483147D01*
X482131Y217297D01*
X481115Y218313D01*
X480099D01*
Y217297D01*
X481115Y216281D01*
X480099Y215265D01*
Y214249D01*
X465494Y213614D02*
X466510D01*
X467526Y214630D01*
X468542Y213614D01*
X469558D01*
Y214630D01*
X468542Y215646D01*
X469558Y216662D01*
Y217678D01*
X468542D01*
X467526Y216662D01*
X466510Y217678D01*
X465494D01*
Y216662D01*
X466510Y215646D01*
X465494Y214630D01*
Y213614D01*
X479718Y225933D02*
X480734D01*
X481750Y226949D01*
X482766Y225933D01*
X483782D01*
Y226949D01*
X482766Y227965D01*
X483782Y228981D01*
Y229997D01*
X482766D01*
X481750Y228981D01*
X480734Y229997D01*
X479718D01*
Y228981D01*
X480734Y227965D01*
X479718Y226949D01*
Y225933D01*
X465621Y225679D02*
X466637D01*
X467653Y226695D01*
X468669Y225679D01*
X469685D01*
Y226695D01*
X468669Y227711D01*
X469685Y228727D01*
Y229743D01*
X468669D01*
X467653Y228727D01*
X466637Y229743D01*
X465621D01*
Y228727D01*
X466637Y227711D01*
X465621Y226695D01*
Y225679D01*
X477686Y239903D02*
X478702D01*
X479718Y240919D01*
X480734Y239903D01*
X481750D01*
Y240919D01*
X480734Y241935D01*
X481750Y242951D01*
Y243967D01*
X480734D01*
X479718Y242951D01*
X478702Y243967D01*
X477686D01*
Y242951D01*
X478702Y241935D01*
X477686Y240919D01*
Y239903D01*
X476797Y251841D02*
X477813D01*
X478829Y252857D01*
X479845Y251841D01*
X480861D01*
Y252857D01*
X479845Y253873D01*
X480861Y254889D01*
Y255905D01*
X479845D01*
X478829Y254889D01*
X477813Y255905D01*
X476797D01*
Y254889D01*
X477813Y253873D01*
X476797Y252857D01*
Y251841D01*
X465494Y252222D02*
X466510D01*
X467526Y253238D01*
X468542Y252222D01*
X469558D01*
Y253238D01*
X468542Y254254D01*
X469558Y255270D01*
Y256286D01*
X468542D01*
X467526Y255270D01*
X466510Y256286D01*
X465494D01*
Y255270D01*
X466510Y254254D01*
X465494Y253238D01*
Y252222D01*
X466002Y238506D02*
X467018D01*
X468034Y239522D01*
X469050Y238506D01*
X470066D01*
Y239522D01*
X469050Y240538D01*
X470066Y241554D01*
Y242570D01*
X469050D01*
X468034Y241554D01*
X467018Y242570D01*
X466002D01*
Y241554D01*
X467018Y240538D01*
X466002Y239522D01*
Y238506D01*
X465367Y195961D02*
X466383D01*
X467399Y196977D01*
X468415Y195961D01*
X469431D01*
Y196977D01*
X468415Y197993D01*
X469431Y199009D01*
Y200025D01*
X468415D01*
X467399Y199009D01*
X466383Y200025D01*
X465367D01*
Y199009D01*
X466383Y197993D01*
X465367Y196977D01*
Y195961D01*
X465875Y204343D02*
X466891D01*
X467907Y205359D01*
X468923Y204343D01*
X469939D01*
Y205359D01*
X468923Y206375D01*
X469939Y207391D01*
Y208407D01*
X468923D01*
X467907Y207391D01*
X466891Y208407D01*
X465875D01*
Y207391D01*
X466891Y206375D01*
X465875Y205359D01*
Y204343D01*
X481877Y201803D02*
X482893D01*
X483909Y202819D01*
X484925Y201803D01*
X485941D01*
Y202819D01*
X484925Y203835D01*
X485941Y204851D01*
Y205867D01*
X484925D01*
X483909Y204851D01*
X482893Y205867D01*
X481877D01*
Y204851D01*
X482893Y203835D01*
X481877Y202819D01*
Y201803D01*
X537249Y144399D02*
Y143383D01*
X539281D01*
Y144399D01*
X540297D01*
Y146431D01*
X539281D01*
Y147447D01*
X537249D01*
Y146431D01*
X536233D01*
Y144399D01*
X537249D01*
X531788Y144653D02*
Y143637D01*
X533820D01*
Y144653D01*
X534836D01*
Y146685D01*
X533820D01*
Y147701D01*
X531788D01*
Y146685D01*
X530772D01*
Y144653D01*
X531788D01*
X617640Y133350D02*
Y132334D01*
X619672D01*
Y133350D01*
X620688D01*
Y135382D01*
X619672D01*
Y136398D01*
X617640D01*
Y135382D01*
X616624D01*
Y133350D01*
X617640D01*
X616497Y144272D02*
Y143256D01*
X618529D01*
Y144272D01*
X619545D01*
Y146304D01*
X618529D01*
Y147320D01*
X616497D01*
Y146304D01*
X615481D01*
Y144272D01*
X616497D01*
X613068Y143510D02*
Y142494D01*
X615100D01*
Y143510D01*
X616116D01*
Y145542D01*
X615100D01*
Y146558D01*
X613068D01*
Y145542D01*
X612052D01*
Y143510D01*
X613068D01*
X615354Y141097D02*
Y140081D01*
X617386D01*
Y141097D01*
X618402D01*
Y143129D01*
X617386D01*
Y144145D01*
X615354D01*
Y143129D01*
X614338D01*
Y141097D01*
X615354D01*
X612941Y140081D02*
Y139065D01*
X614973D01*
Y140081D01*
X615989D01*
Y142113D01*
X614973D01*
Y143129D01*
X612941D01*
Y142113D01*
X611925D01*
Y140081D01*
X612941D01*
X616624Y137795D02*
Y136779D01*
X618656D01*
Y137795D01*
X619672D01*
Y139827D01*
X618656D01*
Y140843D01*
X616624D01*
Y139827D01*
X615608D01*
Y137795D01*
X616624D01*
X615481Y135382D02*
Y134366D01*
X617513D01*
Y135382D01*
X618529D01*
Y137414D01*
X617513D01*
Y138430D01*
X615481D01*
Y137414D01*
X614465D01*
Y135382D01*
X615481D01*
X612941Y136017D02*
Y135001D01*
X614973D01*
Y136017D01*
X615989D01*
Y138049D01*
X614973D01*
Y139065D01*
X612941D01*
Y138049D01*
X611925D01*
Y136017D01*
X612941D01*
X700063Y131191D02*
Y130175D01*
X702095D01*
Y131191D01*
X703111D01*
Y133223D01*
X702095D01*
Y134239D01*
X700063D01*
Y133223D01*
X699047D01*
Y131191D01*
X700063D01*
X698158Y132842D02*
Y131826D01*
X700190D01*
Y132842D01*
X701206D01*
Y134874D01*
X700190D01*
Y135890D01*
X698158D01*
Y134874D01*
X697142D01*
Y132842D01*
X698158D01*
X700952Y134366D02*
Y133350D01*
X702984D01*
Y134366D01*
X704000D01*
Y136398D01*
X702984D01*
Y137414D01*
X700952D01*
Y136398D01*
X699936D01*
Y134366D01*
X700952D01*
X701333Y137033D02*
Y136017D01*
X703365D01*
Y137033D01*
X704381D01*
Y139065D01*
X703365D01*
Y140081D01*
X701333D01*
Y139065D01*
X700317D01*
Y137033D01*
X701333D01*
X698285Y139573D02*
Y138557D01*
X700317D01*
Y139573D01*
X701333D01*
Y141605D01*
X700317D01*
Y142621D01*
X698285D01*
Y141605D01*
X697269D01*
Y139573D01*
X698285D01*
X701460Y140081D02*
Y139065D01*
X703492D01*
Y140081D01*
X704508D01*
Y142113D01*
X703492D01*
Y143129D01*
X701460D01*
Y142113D01*
X700444D01*
Y140081D01*
X701460D01*
X700190Y142494D02*
Y141478D01*
X702222D01*
Y142494D01*
X703238D01*
Y144526D01*
X702222D01*
Y145542D01*
X700190D01*
Y144526D01*
X699174D01*
Y142494D01*
X700190D01*
X697396Y142621D02*
Y141605D01*
X699428D01*
Y142621D01*
X700444D01*
Y144653D01*
X699428D01*
Y145669D01*
X697396D01*
Y144653D01*
X696380D01*
Y142621D01*
X697396D01*
X700317Y145288D02*
Y144272D01*
X702349D01*
Y145288D01*
X703365D01*
Y147320D01*
X702349D01*
Y148336D01*
X700317D01*
Y147320D01*
X699301D01*
Y145288D01*
X700317D01*
X697904Y145161D02*
Y144145D01*
X699936D01*
Y145161D01*
X700952D01*
Y147193D01*
X699936D01*
Y148209D01*
X697904D01*
Y147193D01*
X696888D01*
Y145161D01*
X697904D01*
X692697Y341884D02*
Y340868D01*
X694729D01*
Y341884D01*
X695745D01*
Y343916D01*
X694729D01*
Y344932D01*
X692697D01*
Y343916D01*
X691681D01*
Y341884D01*
X692697D01*
X690030Y342900D02*
Y341884D01*
X692062D01*
Y342900D01*
X693078D01*
Y344932D01*
X692062D01*
Y345948D01*
X690030D01*
Y344932D01*
X689014D01*
Y342900D01*
X690030D01*
X687236Y340995D02*
Y339979D01*
X689268D01*
Y340995D01*
X690284D01*
Y343027D01*
X689268D01*
Y344043D01*
X687236D01*
Y343027D01*
X686220D01*
Y340995D01*
X687236D01*
X689649Y340360D02*
Y339344D01*
X691681D01*
Y340360D01*
X692697D01*
Y342392D01*
X691681D01*
Y343408D01*
X689649D01*
Y342392D01*
X688633D01*
Y340360D01*
X689649D01*
X692570Y338455D02*
Y337439D01*
X694602D01*
Y338455D01*
X695618D01*
Y340487D01*
X694602D01*
Y341503D01*
X692570D01*
Y340487D01*
X691554D01*
Y338455D01*
X692570D01*
X691681Y335407D02*
Y334391D01*
X693713D01*
Y335407D01*
X694729D01*
Y337439D01*
X693713D01*
Y338455D01*
X691681D01*
Y337439D01*
X690665D01*
Y335407D01*
X691681D01*
X688506D02*
Y334391D01*
X690538D01*
Y335407D01*
X691554D01*
Y337439D01*
X690538D01*
Y338455D01*
X688506D01*
Y337439D01*
X687490D01*
Y335407D01*
X688506D01*
X686347Y337058D02*
Y336042D01*
X688379D01*
Y337058D01*
X689395D01*
Y339090D01*
X688379D01*
Y340106D01*
X686347D01*
Y339090D01*
X685331D01*
Y337058D01*
X686347D01*
X657899Y295656D02*
Y294640D01*
X659931D01*
Y295656D01*
X660947D01*
Y297688D01*
X659931D01*
Y298704D01*
X657899D01*
Y297688D01*
X656883D01*
Y295656D01*
X657899D01*
X655193Y296870D02*
Y295854D01*
X657225D01*
Y296870D01*
X658241D01*
Y298902D01*
X657225D01*
Y299918D01*
X655193D01*
Y298902D01*
X654177D01*
Y296870D01*
X655193D01*
X656756Y298196D02*
Y297180D01*
X658788D01*
Y298196D01*
X659804D01*
Y300228D01*
X658788D01*
Y301244D01*
X656756D01*
Y300228D01*
X655740D01*
Y298196D01*
X656756D01*
X653581Y299212D02*
Y298196D01*
X655613D01*
Y299212D01*
X656629D01*
Y301244D01*
X655613D01*
Y302260D01*
X653581D01*
Y301244D01*
X652565D01*
Y299212D01*
X653581D01*
X649898Y296799D02*
Y295783D01*
X651930D01*
Y296799D01*
X652946D01*
Y298831D01*
X651930D01*
Y299847D01*
X649898D01*
Y298831D01*
X648882D01*
Y296799D01*
X649898D01*
X630467Y299085D02*
Y298069D01*
X632499D01*
Y299085D01*
X633515D01*
Y301117D01*
X632499D01*
Y302133D01*
X630467D01*
Y301117D01*
X629451D01*
Y299085D01*
X630467D01*
X626403Y298831D02*
Y297815D01*
X628435D01*
Y298831D01*
X629451D01*
Y300863D01*
X628435D01*
Y301879D01*
X626403D01*
Y300863D01*
X625387D01*
Y298831D01*
X626403D01*
X624879Y296037D02*
Y295021D01*
X626911D01*
Y296037D01*
X627927D01*
Y298069D01*
X626911D01*
Y299085D01*
X624879D01*
Y298069D01*
X623863D01*
Y296037D01*
X624879D01*
X637706Y296291D02*
Y295275D01*
X639738D01*
Y296291D01*
X640754D01*
Y298323D01*
X639738D01*
Y299339D01*
X637706D01*
Y298323D01*
X636690D01*
Y296291D01*
X637706D01*
X632499Y296418D02*
Y295402D01*
X634531D01*
Y296418D01*
X635547D01*
Y298450D01*
X634531D01*
Y299466D01*
X632499D01*
Y298450D01*
X631483D01*
Y296418D01*
X632499D01*
X635039Y296164D02*
Y295148D01*
X637071D01*
Y296164D01*
X638087D01*
Y298196D01*
X637071D01*
Y299212D01*
X635039D01*
Y298196D01*
X634023D01*
Y296164D01*
X635039D01*
X588938Y189992D02*
Y188976D01*
X590970D01*
Y189992D01*
X591986D01*
Y192024D01*
X590970D01*
Y193040D01*
X588938D01*
Y192024D01*
X587922D01*
Y189992D01*
X588938D01*
X683934Y238760D02*
Y237744D01*
X685966D01*
Y238760D01*
X686982D01*
Y240792D01*
X685966D01*
Y241808D01*
X683934D01*
Y240792D01*
X682918D01*
Y238760D01*
X683934D01*
X659809Y210332D02*
Y209316D01*
X661841D01*
Y210332D01*
X662857D01*
Y212364D01*
X661841D01*
Y213380D01*
X659809D01*
Y212364D01*
X658793D01*
Y210332D01*
X659809D01*
X581191Y111506D02*
Y110490D01*
X583223D01*
Y111506D01*
X584239D01*
Y113538D01*
X583223D01*
Y114554D01*
X581191D01*
Y113538D01*
X580175D01*
Y111506D01*
X581191D01*
X558871Y110268D02*
Y109252D01*
X560903D01*
Y110268D01*
X561919D01*
Y112300D01*
X560903D01*
Y113316D01*
X558871D01*
Y112300D01*
X557855D01*
Y110268D01*
X558871D01*
X623482Y193929D02*
Y192913D01*
X625514D01*
Y193929D01*
X626530D01*
Y195961D01*
X625514D01*
Y196977D01*
X623482D01*
Y195961D01*
X622466D01*
Y193929D01*
X623482D01*
X620942Y197715D02*
Y196699D01*
X622974D01*
Y197715D01*
X623990D01*
Y199747D01*
X622974D01*
Y200763D01*
X620942D01*
Y199747D01*
X619926D01*
Y197715D01*
X620942D01*
X618910Y192405D02*
Y191389D01*
X620942D01*
Y192405D01*
X621958D01*
Y194437D01*
X620942D01*
Y195453D01*
X618910D01*
Y194437D01*
X617894D01*
Y192405D01*
X618910D01*
X590848Y235478D02*
Y234462D01*
X592880D01*
Y235478D01*
X593896D01*
Y237510D01*
X592880D01*
Y238526D01*
X590848D01*
Y237510D01*
X589832D01*
Y235478D01*
X590848D01*
X669456Y222504D02*
Y221488D01*
X671488D01*
Y222504D01*
X672504D01*
Y224536D01*
X671488D01*
Y225552D01*
X669456D01*
Y224536D01*
X668440D01*
Y222504D01*
X669456D01*
X668567Y213106D02*
Y212090D01*
X670599D01*
Y213106D01*
X671615D01*
Y215138D01*
X670599D01*
Y216154D01*
X668567D01*
Y215138D01*
X667551D01*
Y213106D01*
X668567D01*
X698539Y136144D02*
Y135128D01*
X700571D01*
Y136144D01*
X701587D01*
Y138176D01*
X700571D01*
Y139192D01*
X698539D01*
Y138176D01*
X697523D01*
Y136144D01*
X698539D01*
X590721Y243987D02*
Y242971D01*
X592753D01*
Y243987D01*
X593769D01*
Y246019D01*
X592753D01*
Y247035D01*
X590721D01*
Y246019D01*
X589705D01*
Y243987D01*
X590721D01*
X669588Y188869D02*
Y187853D01*
X671620D01*
Y188869D01*
X672636D01*
Y190901D01*
X671620D01*
Y191917D01*
X669588D01*
Y190901D01*
X668572D01*
Y188869D01*
X669588D01*
X641008Y204089D02*
Y203073D01*
X643040D01*
Y204089D01*
X644056D01*
Y206121D01*
X643040D01*
Y207137D01*
X641008D01*
Y206121D01*
X639992D01*
Y204089D01*
X641008D01*
X646728Y211856D02*
Y210840D01*
X648760D01*
Y211856D01*
X649776D01*
Y213888D01*
X648760D01*
Y214904D01*
X646728D01*
Y213888D01*
X645712D01*
Y211856D01*
X646728D01*
X689273Y337713D02*
Y336697D01*
X691305D01*
Y337713D01*
X692321D01*
Y339745D01*
X691305D01*
Y340761D01*
X689273D01*
Y339745D01*
X688257D01*
Y337713D01*
X689273D01*
X672001Y245638D02*
Y244622D01*
X674033D01*
Y245638D01*
X675049D01*
Y247670D01*
X674033D01*
Y248686D01*
X672001D01*
Y247670D01*
X670985D01*
Y245638D01*
X672001D01*
X613957Y132461D02*
Y131445D01*
X615989D01*
Y132461D01*
X617005D01*
Y134493D01*
X615989D01*
Y135509D01*
X613957D01*
Y134493D01*
X612941D01*
Y132461D01*
X613957D01*
X637089Y146540D02*
Y145524D01*
X639121D01*
Y146540D01*
X640137D01*
Y148572D01*
X639121D01*
Y149588D01*
X637089D01*
Y148572D01*
X636073D01*
Y146540D01*
X637089D01*
X534709Y144145D02*
Y143129D01*
X536741D01*
Y144145D01*
X537757D01*
Y146177D01*
X536741D01*
Y147193D01*
X534709D01*
Y146177D01*
X533693D01*
Y144145D01*
X534709D01*
X676060Y232410D02*
Y231394D01*
X678092D01*
Y232410D01*
X679108D01*
Y234442D01*
X678092D01*
Y235458D01*
X676060D01*
Y234442D01*
X675044D01*
Y232410D01*
X676060D01*
X653073Y296926D02*
Y295910D01*
X655105D01*
Y296926D01*
X656121D01*
Y298958D01*
X655105D01*
Y299974D01*
X653073D01*
Y298958D01*
X652057D01*
Y296926D01*
X653073D01*
X780454Y186944D02*
Y185928D01*
X782486D01*
Y186944D01*
X783502D01*
Y188976D01*
X782486D01*
Y189992D01*
X780454D01*
Y188976D01*
X779438D01*
Y186944D01*
X780454D01*
X628884Y296282D02*
Y295266D01*
X630915D01*
Y296282D01*
X631931D01*
Y298314D01*
X630915D01*
Y299330D01*
X628884D01*
Y298314D01*
X627868D01*
Y296282D01*
X628884D01*
X312028Y575148D02*
Y579212D01*
X316092D01*
Y575148D01*
X312028D01*
X263028D02*
Y579212D01*
X267092D01*
Y575148D01*
X263028D01*
X72630Y564718D02*
X70598Y568782D01*
X74662D01*
X72630Y564718D01*
X130430D02*
X128398Y568782D01*
X132462D01*
X130430Y564718D01*
X144780Y529718D02*
X145796Y530734D01*
X146812D01*
X145796Y531750D01*
X146812Y532766D01*
X145796D01*
X144780Y533782D01*
X143764Y532766D01*
X142748D01*
X143764Y531750D01*
X142748Y530734D01*
X143764D01*
X144780Y529718D01*
X58280D02*
X59296Y530734D01*
X60312D01*
X59296Y531750D01*
X60312Y532766D01*
X59296D01*
X58280Y533782D01*
X57264Y532766D01*
X56248D01*
X57264Y531750D01*
X56248Y530734D01*
X57264D01*
X58280Y529718D01*
X142748Y569718D02*
X143764Y571750D01*
X142748Y573782D01*
X144780Y572766D01*
X146812Y573782D01*
X145796Y571750D01*
X146812Y569718D01*
X144780Y570734D01*
X142748Y569718D01*
X56248D02*
X57264Y571750D01*
X56248Y573782D01*
X58280Y572766D01*
X60312Y573782D01*
X59296Y571750D01*
X60312Y569718D01*
X58280Y570734D01*
X56248Y569718D01*
X125730Y709296D02*
Y708280D01*
X127762D01*
Y709296D01*
X128778D01*
Y711328D01*
X127762D01*
Y712344D01*
X125730D01*
Y711328D01*
X124714D01*
Y709296D01*
X125730D01*
X115062Y777241D02*
Y776225D01*
X117094D01*
Y777241D01*
X118110D01*
Y779273D01*
X117094D01*
Y780289D01*
X115062D01*
Y779273D01*
X114046D01*
Y777241D01*
X115062D01*
X108839Y783464D02*
Y782448D01*
X110871D01*
Y783464D01*
X111887D01*
Y785496D01*
X110871D01*
Y786512D01*
X108839D01*
Y785496D01*
X107823D01*
Y783464D01*
X108839D01*
X102616Y789814D02*
Y788798D01*
X104648D01*
Y789814D01*
X105664D01*
Y791846D01*
X104648D01*
Y792862D01*
X102616D01*
Y791846D01*
X101600D01*
Y789814D01*
X102616D01*
X101981Y732410D02*
Y731394D01*
X104013D01*
Y732410D01*
X105029D01*
Y734442D01*
X104013D01*
Y735458D01*
X101981D01*
Y734442D01*
X100965D01*
Y732410D01*
X101981D01*
X96647Y713614D02*
Y712598D01*
X98679D01*
Y713614D01*
X99695D01*
Y715646D01*
X98679D01*
Y716662D01*
X96647D01*
Y715646D01*
X95631D01*
Y713614D01*
X96647D01*
X96901Y774066D02*
Y773050D01*
X98933D01*
Y774066D01*
X99949D01*
Y776098D01*
X98933D01*
Y777114D01*
X96901D01*
Y776098D01*
X95885D01*
Y774066D01*
X96901D01*
X188214Y605918D02*
Y604902D01*
X190246D01*
Y605918D01*
X191262D01*
Y607950D01*
X190246D01*
Y608966D01*
X188214D01*
Y607950D01*
X187198D01*
Y605918D01*
X188214D01*
X179832Y861315D02*
Y860299D01*
X181864D01*
Y861315D01*
X182880D01*
Y863347D01*
X181864D01*
Y864363D01*
X179832D01*
Y863347D01*
X178816D01*
Y861315D01*
X179832D01*
X171704Y762636D02*
Y761620D01*
X173736D01*
Y762636D01*
X174752D01*
Y764668D01*
X173736D01*
Y765684D01*
X171704D01*
Y764668D01*
X170688D01*
Y762636D01*
X171704D01*
X166243D02*
Y761620D01*
X168275D01*
Y762636D01*
X169291D01*
Y764668D01*
X168275D01*
Y765684D01*
X166243D01*
Y764668D01*
X165227D01*
Y762636D01*
X166243D01*
X177800D02*
Y761620D01*
X179832D01*
Y762636D01*
X180848D01*
Y764668D01*
X179832D01*
Y765684D01*
X177800D01*
Y764668D01*
X176784D01*
Y762636D01*
X177800D01*
X183515D02*
Y761620D01*
X185547D01*
Y762636D01*
X186563D01*
Y764668D01*
X185547D01*
Y765684D01*
X183515D01*
Y764668D01*
X182499D01*
Y762636D01*
X183515D01*
X189611D02*
Y761620D01*
X191643D01*
Y762636D01*
X192659D01*
Y764668D01*
X191643D01*
Y765684D01*
X189611D01*
Y764668D01*
X188595D01*
Y762636D01*
X189611D01*
X195326D02*
Y761620D01*
X197358D01*
Y762636D01*
X198374D01*
Y764668D01*
X197358D01*
Y765684D01*
X195326D01*
Y764668D01*
X194310D01*
Y762636D01*
X195326D01*
X166243Y750698D02*
Y749682D01*
X168275D01*
Y750698D01*
X169291D01*
Y752730D01*
X168275D01*
Y753746D01*
X166243D01*
Y752730D01*
X165227D01*
Y750698D01*
X166243D01*
X171704D02*
Y749682D01*
X173736D01*
Y750698D01*
X174752D01*
Y752730D01*
X173736D01*
Y753746D01*
X171704D01*
Y752730D01*
X170688D01*
Y750698D01*
X171704D01*
X177800D02*
Y749682D01*
X179832D01*
Y750698D01*
X180848D01*
Y752730D01*
X179832D01*
Y753746D01*
X177800D01*
Y752730D01*
X176784D01*
Y750698D01*
X177800D01*
X183515D02*
Y749682D01*
X185547D01*
Y750698D01*
X186563D01*
Y752730D01*
X185547D01*
Y753746D01*
X183515D01*
Y752730D01*
X182499D01*
Y750698D01*
X183515D01*
X189611D02*
Y749682D01*
X191643D01*
Y750698D01*
X192659D01*
Y752730D01*
X191643D01*
Y753746D01*
X189611D01*
Y752730D01*
X188595D01*
Y750698D01*
X189611D01*
X195326D02*
Y749682D01*
X197358D01*
Y750698D01*
X198374D01*
Y752730D01*
X197358D01*
Y753746D01*
X195326D01*
Y752730D01*
X194310D01*
Y750698D01*
X195326D01*
X275844Y713995D02*
Y712979D01*
X277876D01*
Y713995D01*
X278892D01*
Y716027D01*
X277876D01*
Y717043D01*
X275844D01*
Y716027D01*
X274828D01*
Y713995D01*
X275844D01*
X268097Y711963D02*
Y710947D01*
X270129D01*
Y711963D01*
X271145D01*
Y713995D01*
X270129D01*
Y715011D01*
X268097D01*
Y713995D01*
X267081D01*
Y711963D01*
X268097D01*
X272288Y713868D02*
Y712852D01*
X274320D01*
Y713868D01*
X275336D01*
Y715900D01*
X274320D01*
Y716916D01*
X272288D01*
Y715900D01*
X271272D01*
Y713868D01*
X272288D01*
X300609Y688976D02*
Y687960D01*
X302641D01*
Y688976D01*
X303657D01*
Y691008D01*
X302641D01*
Y692024D01*
X300609D01*
Y691008D01*
X299593D01*
Y688976D01*
X300609D01*
X272034Y681610D02*
Y680594D01*
X274066D01*
Y681610D01*
X275082D01*
Y683642D01*
X274066D01*
Y684658D01*
X272034D01*
Y683642D01*
X271018D01*
Y681610D01*
X272034D01*
X106680Y681229D02*
Y680213D01*
X108712D01*
Y681229D01*
X109728D01*
Y683261D01*
X108712D01*
Y684277D01*
X106680D01*
Y683261D01*
X105664D01*
Y681229D01*
X106680D01*
X106934Y685293D02*
Y684277D01*
X108966D01*
Y685293D01*
X109982D01*
Y687325D01*
X108966D01*
Y688341D01*
X106934D01*
Y687325D01*
X105918D01*
Y685293D01*
X106934D01*
X64516Y695072D02*
X65532D01*
X66548Y696088D01*
X67564Y695072D01*
X68580D01*
Y696088D01*
X67564Y697104D01*
X68580Y698120D01*
Y699136D01*
X67564D01*
X66548Y698120D01*
X65532Y699136D01*
X64516D01*
Y698120D01*
X65532Y697104D01*
X64516Y696088D01*
Y695072D01*
X64643Y705740D02*
X65659D01*
X66675Y706756D01*
X67691Y705740D01*
X68707D01*
Y706756D01*
X67691Y707772D01*
X68707Y708788D01*
Y709804D01*
X67691D01*
X66675Y708788D01*
X65659Y709804D01*
X64643D01*
Y708788D01*
X65659Y707772D01*
X64643Y706756D01*
Y705740D01*
X36703Y689865D02*
X37719D01*
X38735Y690881D01*
X39751Y689865D01*
X40767D01*
Y690881D01*
X39751Y691897D01*
X40767Y692913D01*
Y693929D01*
X39751D01*
X38735Y692913D01*
X37719Y693929D01*
X36703D01*
Y692913D01*
X37719Y691897D01*
X36703Y690881D01*
Y689865D01*
X354076Y626619D02*
X355092D01*
X356108Y627635D01*
X357124Y626619D01*
X358140D01*
Y627635D01*
X357124Y628651D01*
X358140Y629667D01*
Y630683D01*
X357124D01*
X356108Y629667D01*
X355092Y630683D01*
X354076D01*
Y629667D01*
X355092Y628651D01*
X354076Y627635D01*
Y626619D01*
X337566D02*
X338582D01*
X339598Y627635D01*
X340614Y626619D01*
X341630D01*
Y627635D01*
X340614Y628651D01*
X341630Y629667D01*
Y630683D01*
X340614D01*
X339598Y629667D01*
X338582Y630683D01*
X337566D01*
Y629667D01*
X338582Y628651D01*
X337566Y627635D01*
Y626619D01*
X171704Y607968D02*
X172720D01*
X173736Y608984D01*
X174752Y607968D01*
X175768D01*
Y608984D01*
X174752Y610000D01*
X175768Y611016D01*
Y612032D01*
X174752D01*
X173736Y611016D01*
X172720Y612032D01*
X171704D01*
Y611016D01*
X172720Y610000D01*
X171704Y608984D01*
Y607968D01*
Y587968D02*
X172720D01*
X173736Y588984D01*
X174752Y587968D01*
X175768D01*
Y588984D01*
X174752Y590000D01*
X175768Y591016D01*
Y592032D01*
X174752D01*
X173736Y591016D01*
X172720Y592032D01*
X171704D01*
Y591016D01*
X172720Y590000D01*
X171704Y588984D01*
Y587968D01*
Y567968D02*
X172720D01*
X173736Y568984D01*
X174752Y567968D01*
X175768D01*
Y568984D01*
X174752Y570000D01*
X175768Y571016D01*
Y572032D01*
X174752D01*
X173736Y571016D01*
X172720Y572032D01*
X171704D01*
Y571016D01*
X172720Y570000D01*
X171704Y568984D01*
Y567968D01*
X172828Y546844D02*
X173844D01*
X174860Y547860D01*
X175876Y546844D01*
X176892D01*
Y547860D01*
X175876Y548876D01*
X176892Y549892D01*
Y550908D01*
X175876D01*
X174860Y549892D01*
X173844Y550908D01*
X172828D01*
Y549892D01*
X173844Y548876D01*
X172828Y547860D01*
Y546844D01*
X195326Y739014D02*
Y737998D01*
X197358D01*
Y739014D01*
X198374D01*
Y741046D01*
X197358D01*
Y742062D01*
X195326D01*
Y741046D01*
X194310D01*
Y739014D01*
X195326D01*
X189611D02*
Y737998D01*
X191643D01*
Y739014D01*
X192659D01*
Y741046D01*
X191643D01*
Y742062D01*
X189611D01*
Y741046D01*
X188595D01*
Y739014D01*
X189611D01*
X183515D02*
Y737998D01*
X185547D01*
Y739014D01*
X186563D01*
Y741046D01*
X185547D01*
Y742062D01*
X183515D01*
Y741046D01*
X182499D01*
Y739014D01*
X183515D01*
X177800D02*
Y737998D01*
X179832D01*
Y739014D01*
X180848D01*
Y741046D01*
X179832D01*
Y742062D01*
X177800D01*
Y741046D01*
X176784D01*
Y739014D01*
X177800D01*
X171704D02*
Y737998D01*
X173736D01*
Y739014D01*
X174752D01*
Y741046D01*
X173736D01*
Y742062D01*
X171704D01*
Y741046D01*
X170688D01*
Y739014D01*
X171704D01*
X166243D02*
Y737998D01*
X168275D01*
Y739014D01*
X169291D01*
Y741046D01*
X168275D01*
Y742062D01*
X166243D01*
Y741046D01*
X165227D01*
Y739014D01*
X166243D01*
X195326Y744856D02*
Y743840D01*
X197358D01*
Y744856D01*
X198374D01*
Y746888D01*
X197358D01*
Y747904D01*
X195326D01*
Y746888D01*
X194310D01*
Y744856D01*
X195326D01*
X189611D02*
Y743840D01*
X191643D01*
Y744856D01*
X192659D01*
Y746888D01*
X191643D01*
Y747904D01*
X189611D01*
Y746888D01*
X188595D01*
Y744856D01*
X189611D01*
X183515D02*
Y743840D01*
X185547D01*
Y744856D01*
X186563D01*
Y746888D01*
X185547D01*
Y747904D01*
X183515D01*
Y746888D01*
X182499D01*
Y744856D01*
X183515D01*
X177800D02*
Y743840D01*
X179832D01*
Y744856D01*
X180848D01*
Y746888D01*
X179832D01*
Y747904D01*
X177800D01*
Y746888D01*
X176784D01*
Y744856D01*
X177800D01*
X171704D02*
Y743840D01*
X173736D01*
Y744856D01*
X174752D01*
Y746888D01*
X173736D01*
Y747904D01*
X171704D01*
Y746888D01*
X170688D01*
Y744856D01*
X171704D01*
X166243D02*
Y743840D01*
X168275D01*
Y744856D01*
X169291D01*
Y746888D01*
X168275D01*
Y747904D01*
X166243D01*
Y746888D01*
X165227D01*
Y744856D01*
X166243D01*
X195326Y756413D02*
Y755397D01*
X197358D01*
Y756413D01*
X198374D01*
Y758445D01*
X197358D01*
Y759461D01*
X195326D01*
Y758445D01*
X194310D01*
Y756413D01*
X195326D01*
X189611D02*
Y755397D01*
X191643D01*
Y756413D01*
X192659D01*
Y758445D01*
X191643D01*
Y759461D01*
X189611D01*
Y758445D01*
X188595D01*
Y756413D01*
X189611D01*
X183515D02*
Y755397D01*
X185547D01*
Y756413D01*
X186563D01*
Y758445D01*
X185547D01*
Y759461D01*
X183515D01*
Y758445D01*
X182499D01*
Y756413D01*
X183515D01*
X177800D02*
Y755397D01*
X179832D01*
Y756413D01*
X180848D01*
Y758445D01*
X179832D01*
Y759461D01*
X177800D01*
Y758445D01*
X176784D01*
Y756413D01*
X177800D01*
X171704D02*
Y755397D01*
X173736D01*
Y756413D01*
X174752D01*
Y758445D01*
X173736D01*
Y759461D01*
X171704D01*
Y758445D01*
X170688D01*
Y756413D01*
X171704D01*
X166243D02*
Y755397D01*
X168275D01*
Y756413D01*
X169291D01*
Y758445D01*
X168275D01*
Y759461D01*
X166243D01*
Y758445D01*
X165227D01*
Y756413D01*
X166243D01*
X195326Y768732D02*
Y767716D01*
X197358D01*
Y768732D01*
X198374D01*
Y770764D01*
X197358D01*
Y771780D01*
X195326D01*
Y770764D01*
X194310D01*
Y768732D01*
X195326D01*
X189611D02*
Y767716D01*
X191643D01*
Y768732D01*
X192659D01*
Y770764D01*
X191643D01*
Y771780D01*
X189611D01*
Y770764D01*
X188595D01*
Y768732D01*
X189611D01*
X183515D02*
Y767716D01*
X185547D01*
Y768732D01*
X186563D01*
Y770764D01*
X185547D01*
Y771780D01*
X183515D01*
Y770764D01*
X182499D01*
Y768732D01*
X183515D01*
X177800D02*
Y767716D01*
X179832D01*
Y768732D01*
X180848D01*
Y770764D01*
X179832D01*
Y771780D01*
X177800D01*
Y770764D01*
X176784D01*
Y768732D01*
X177800D01*
X171704D02*
Y767716D01*
X173736D01*
Y768732D01*
X174752D01*
Y770764D01*
X173736D01*
Y771780D01*
X171704D01*
Y770764D01*
X170688D01*
Y768732D01*
X171704D01*
X166243D02*
Y767716D01*
X168275D01*
Y768732D01*
X169291D01*
Y770764D01*
X168275D01*
Y771780D01*
X166243D01*
Y770764D01*
X165227D01*
Y768732D01*
X166243D01*
X292354Y752349D02*
Y751333D01*
X294386D01*
Y752349D01*
X295402D01*
Y754381D01*
X294386D01*
Y755397D01*
X292354D01*
Y754381D01*
X291338D01*
Y752349D01*
X292354D01*
X175768Y689992D02*
Y688976D01*
X177800D01*
Y689992D01*
X178816D01*
Y692024D01*
X177800D01*
Y693040D01*
X175768D01*
Y692024D01*
X174752D01*
Y689992D01*
X175768D01*
X177673Y694056D02*
Y693040D01*
X179705D01*
Y694056D01*
X180721D01*
Y696088D01*
X179705D01*
Y697104D01*
X177673D01*
Y696088D01*
X176657D01*
Y694056D01*
X177673D01*
X176022Y697993D02*
Y696977D01*
X178054D01*
Y697993D01*
X179070D01*
Y700025D01*
X178054D01*
Y701041D01*
X176022D01*
Y700025D01*
X175006D01*
Y697993D01*
X176022D01*
X173990Y700914D02*
Y699898D01*
X176022D01*
Y700914D01*
X177038D01*
Y702946D01*
X176022D01*
Y703962D01*
X173990D01*
Y702946D01*
X172974D01*
Y700914D01*
X173990D01*
X169672Y701930D02*
Y700914D01*
X171704D01*
Y701930D01*
X172720D01*
Y703962D01*
X171704D01*
Y704978D01*
X169672D01*
Y703962D01*
X168656D01*
Y701930D01*
X169672D01*
X165227Y701549D02*
Y700533D01*
X167259D01*
Y701549D01*
X168275D01*
Y703581D01*
X167259D01*
Y704597D01*
X165227D01*
Y703581D01*
X164211D01*
Y701549D01*
X165227D01*
X166116Y696723D02*
Y695707D01*
X168148D01*
Y696723D01*
X169164D01*
Y698755D01*
X168148D01*
Y699771D01*
X166116D01*
Y698755D01*
X165100D01*
Y696723D01*
X166116D01*
X161163Y698755D02*
Y697739D01*
X163195D01*
Y698755D01*
X164211D01*
Y700787D01*
X163195D01*
Y701803D01*
X161163D01*
Y700787D01*
X160147D01*
Y698755D01*
X161163D01*
X162306Y695326D02*
Y694310D01*
X164338D01*
Y695326D01*
X165354D01*
Y697358D01*
X164338D01*
Y698374D01*
X162306D01*
Y697358D01*
X161290D01*
Y695326D01*
X162306D01*
X158192Y694943D02*
Y693927D01*
X160224D01*
Y694943D01*
X161240D01*
Y696975D01*
X160224D01*
Y697991D01*
X158192D01*
Y696975D01*
X157176D01*
Y694943D01*
X158192D01*
X163068Y691389D02*
Y690373D01*
X165100D01*
Y691389D01*
X166116D01*
Y693421D01*
X165100D01*
Y694437D01*
X163068D01*
Y693421D01*
X162052D01*
Y691389D01*
X163068D01*
X160147Y691643D02*
Y690627D01*
X162179D01*
Y691643D01*
X163195D01*
Y693675D01*
X162179D01*
Y694691D01*
X160147D01*
Y693675D01*
X159131D01*
Y691643D01*
X160147D01*
X156083Y691897D02*
Y690881D01*
X158115D01*
Y691897D01*
X159131D01*
Y693929D01*
X158115D01*
Y694945D01*
X156083D01*
Y693929D01*
X155067D01*
Y691897D01*
X156083D01*
X183901Y711602D02*
Y710586D01*
X185933D01*
Y711602D01*
X186949D01*
Y713634D01*
X185933D01*
Y714650D01*
X183901D01*
Y713634D01*
X182885D01*
Y711602D01*
X183901D01*
X185166Y792354D02*
Y791338D01*
X187198D01*
Y792354D01*
X188214D01*
Y794386D01*
X187198D01*
Y795402D01*
X185166D01*
Y794386D01*
X184150D01*
Y792354D01*
X185166D01*
X181610Y792481D02*
Y791465D01*
X183642D01*
Y792481D01*
X184658D01*
Y794513D01*
X183642D01*
Y795529D01*
X181610D01*
Y794513D01*
X180594D01*
Y792481D01*
X181610D01*
X178181D02*
Y791465D01*
X180213D01*
Y792481D01*
X181229D01*
Y794513D01*
X180213D01*
Y795529D01*
X178181D01*
Y794513D01*
X177165D01*
Y792481D01*
X178181D01*
X175006D02*
Y791465D01*
X177038D01*
Y792481D01*
X178054D01*
Y794513D01*
X177038D01*
Y795529D01*
X175006D01*
Y794513D01*
X173990D01*
Y792481D01*
X175006D01*
X88011Y642113D02*
Y641097D01*
X90043D01*
Y642113D01*
X91059D01*
Y644145D01*
X90043D01*
Y645161D01*
X88011D01*
Y644145D01*
X86995D01*
Y642113D01*
X88011D01*
X85598D02*
Y641097D01*
X87630D01*
Y642113D01*
X88646D01*
Y644145D01*
X87630D01*
Y645161D01*
X85598D01*
Y644145D01*
X84582D01*
Y642113D01*
X85598D01*
X83185Y641351D02*
Y640335D01*
X85217D01*
Y641351D01*
X86233D01*
Y643383D01*
X85217D01*
Y644399D01*
X83185D01*
Y643383D01*
X82169D01*
Y641351D01*
X83185D01*
X90424Y640335D02*
Y639319D01*
X92456D01*
Y640335D01*
X93472D01*
Y642367D01*
X92456D01*
Y643383D01*
X90424D01*
Y642367D01*
X89408D01*
Y640335D01*
X90424D01*
X88265Y639446D02*
Y638430D01*
X90297D01*
Y639446D01*
X91313D01*
Y641478D01*
X90297D01*
Y642494D01*
X88265D01*
Y641478D01*
X87249D01*
Y639446D01*
X88265D01*
X85979Y639065D02*
Y638049D01*
X88011D01*
Y639065D01*
X89027D01*
Y641097D01*
X88011D01*
Y642113D01*
X85979D01*
Y641097D01*
X84963D01*
Y639065D01*
X85979D01*
X83820Y638811D02*
Y637795D01*
X85852D01*
Y638811D01*
X86868D01*
Y640843D01*
X85852D01*
Y641859D01*
X83820D01*
Y640843D01*
X82804D01*
Y638811D01*
X83820D01*
X28829Y679832D02*
X29845D01*
X30861Y680848D01*
X31877Y679832D01*
X32893D01*
Y680848D01*
X31877Y681864D01*
X32893Y682880D01*
Y683896D01*
X31877D01*
X30861Y682880D01*
X29845Y683896D01*
X28829D01*
Y682880D01*
X29845Y681864D01*
X28829Y680848D01*
Y679832D01*
X14986Y682499D02*
X16002D01*
X17018Y683515D01*
X18034Y682499D01*
X19050D01*
Y683515D01*
X18034Y684531D01*
X19050Y685547D01*
Y686563D01*
X18034D01*
X17018Y685547D01*
X16002Y686563D01*
X14986D01*
Y685547D01*
X16002Y684531D01*
X14986Y683515D01*
Y682499D01*
X23876Y691516D02*
X24892D01*
X25908Y692532D01*
X26924Y691516D01*
X27940D01*
Y692532D01*
X26924Y693548D01*
X27940Y694564D01*
Y695580D01*
X26924D01*
X25908Y694564D01*
X24892Y695580D01*
X23876D01*
Y694564D01*
X24892Y693548D01*
X23876Y692532D01*
Y691516D01*
X30099Y714249D02*
X31115D01*
X32131Y715265D01*
X33147Y714249D01*
X34163D01*
Y715265D01*
X33147Y716281D01*
X34163Y717297D01*
Y718313D01*
X33147D01*
X32131Y717297D01*
X31115Y718313D01*
X30099D01*
Y717297D01*
X31115Y716281D01*
X30099Y715265D01*
Y714249D01*
X15494Y713614D02*
X16510D01*
X17526Y714630D01*
X18542Y713614D01*
X19558D01*
Y714630D01*
X18542Y715646D01*
X19558Y716662D01*
Y717678D01*
X18542D01*
X17526Y716662D01*
X16510Y717678D01*
X15494D01*
Y716662D01*
X16510Y715646D01*
X15494Y714630D01*
Y713614D01*
X29718Y725933D02*
X30734D01*
X31750Y726949D01*
X32766Y725933D01*
X33782D01*
Y726949D01*
X32766Y727965D01*
X33782Y728981D01*
Y729997D01*
X32766D01*
X31750Y728981D01*
X30734Y729997D01*
X29718D01*
Y728981D01*
X30734Y727965D01*
X29718Y726949D01*
Y725933D01*
X15621Y725679D02*
X16637D01*
X17653Y726695D01*
X18669Y725679D01*
X19685D01*
Y726695D01*
X18669Y727711D01*
X19685Y728727D01*
Y729743D01*
X18669D01*
X17653Y728727D01*
X16637Y729743D01*
X15621D01*
Y728727D01*
X16637Y727711D01*
X15621Y726695D01*
Y725679D01*
X27686Y739903D02*
X28702D01*
X29718Y740919D01*
X30734Y739903D01*
X31750D01*
Y740919D01*
X30734Y741935D01*
X31750Y742951D01*
Y743967D01*
X30734D01*
X29718Y742951D01*
X28702Y743967D01*
X27686D01*
Y742951D01*
X28702Y741935D01*
X27686Y740919D01*
Y739903D01*
X26797Y751841D02*
X27813D01*
X28829Y752857D01*
X29845Y751841D01*
X30861D01*
Y752857D01*
X29845Y753873D01*
X30861Y754889D01*
Y755905D01*
X29845D01*
X28829Y754889D01*
X27813Y755905D01*
X26797D01*
Y754889D01*
X27813Y753873D01*
X26797Y752857D01*
Y751841D01*
X15494Y752222D02*
X16510D01*
X17526Y753238D01*
X18542Y752222D01*
X19558D01*
Y753238D01*
X18542Y754254D01*
X19558Y755270D01*
Y756286D01*
X18542D01*
X17526Y755270D01*
X16510Y756286D01*
X15494D01*
Y755270D01*
X16510Y754254D01*
X15494Y753238D01*
Y752222D01*
X16002Y738506D02*
X17018D01*
X18034Y739522D01*
X19050Y738506D01*
X20066D01*
Y739522D01*
X19050Y740538D01*
X20066Y741554D01*
Y742570D01*
X19050D01*
X18034Y741554D01*
X17018Y742570D01*
X16002D01*
Y741554D01*
X17018Y740538D01*
X16002Y739522D01*
Y738506D01*
X15367Y695961D02*
X16383D01*
X17399Y696977D01*
X18415Y695961D01*
X19431D01*
Y696977D01*
X18415Y697993D01*
X19431Y699009D01*
Y700025D01*
X18415D01*
X17399Y699009D01*
X16383Y700025D01*
X15367D01*
Y699009D01*
X16383Y697993D01*
X15367Y696977D01*
Y695961D01*
X15875Y704343D02*
X16891D01*
X17907Y705359D01*
X18923Y704343D01*
X19939D01*
Y705359D01*
X18923Y706375D01*
X19939Y707391D01*
Y708407D01*
X18923D01*
X17907Y707391D01*
X16891Y708407D01*
X15875D01*
Y707391D01*
X16891Y706375D01*
X15875Y705359D01*
Y704343D01*
X31877Y701803D02*
X32893D01*
X33909Y702819D01*
X34925Y701803D01*
X35941D01*
Y702819D01*
X34925Y703835D01*
X35941Y704851D01*
Y705867D01*
X34925D01*
X33909Y704851D01*
X32893Y705867D01*
X31877D01*
Y704851D01*
X32893Y703835D01*
X31877Y702819D01*
Y701803D01*
X87249Y644399D02*
Y643383D01*
X89281D01*
Y644399D01*
X90297D01*
Y646431D01*
X89281D01*
Y647447D01*
X87249D01*
Y646431D01*
X86233D01*
Y644399D01*
X87249D01*
X81788Y644653D02*
Y643637D01*
X83820D01*
Y644653D01*
X84836D01*
Y646685D01*
X83820D01*
Y647701D01*
X81788D01*
Y646685D01*
X80772D01*
Y644653D01*
X81788D01*
X167640Y633350D02*
Y632334D01*
X169672D01*
Y633350D01*
X170688D01*
Y635382D01*
X169672D01*
Y636398D01*
X167640D01*
Y635382D01*
X166624D01*
Y633350D01*
X167640D01*
X166497Y644272D02*
Y643256D01*
X168529D01*
Y644272D01*
X169545D01*
Y646304D01*
X168529D01*
Y647320D01*
X166497D01*
Y646304D01*
X165481D01*
Y644272D01*
X166497D01*
X163068Y643510D02*
Y642494D01*
X165100D01*
Y643510D01*
X166116D01*
Y645542D01*
X165100D01*
Y646558D01*
X163068D01*
Y645542D01*
X162052D01*
Y643510D01*
X163068D01*
X165354Y641097D02*
Y640081D01*
X167386D01*
Y641097D01*
X168402D01*
Y643129D01*
X167386D01*
Y644145D01*
X165354D01*
Y643129D01*
X164338D01*
Y641097D01*
X165354D01*
X162941Y640081D02*
Y639065D01*
X164973D01*
Y640081D01*
X165989D01*
Y642113D01*
X164973D01*
Y643129D01*
X162941D01*
Y642113D01*
X161925D01*
Y640081D01*
X162941D01*
X166624Y637795D02*
Y636779D01*
X168656D01*
Y637795D01*
X169672D01*
Y639827D01*
X168656D01*
Y640843D01*
X166624D01*
Y639827D01*
X165608D01*
Y637795D01*
X166624D01*
X165481Y635382D02*
Y634366D01*
X167513D01*
Y635382D01*
X168529D01*
Y637414D01*
X167513D01*
Y638430D01*
X165481D01*
Y637414D01*
X164465D01*
Y635382D01*
X165481D01*
X162941Y636017D02*
Y635001D01*
X164973D01*
Y636017D01*
X165989D01*
Y638049D01*
X164973D01*
Y639065D01*
X162941D01*
Y638049D01*
X161925D01*
Y636017D01*
X162941D01*
X250063Y631191D02*
Y630175D01*
X252095D01*
Y631191D01*
X253111D01*
Y633223D01*
X252095D01*
Y634239D01*
X250063D01*
Y633223D01*
X249047D01*
Y631191D01*
X250063D01*
X248158Y632842D02*
Y631826D01*
X250190D01*
Y632842D01*
X251206D01*
Y634874D01*
X250190D01*
Y635890D01*
X248158D01*
Y634874D01*
X247142D01*
Y632842D01*
X248158D01*
X250952Y634366D02*
Y633350D01*
X252984D01*
Y634366D01*
X254000D01*
Y636398D01*
X252984D01*
Y637414D01*
X250952D01*
Y636398D01*
X249936D01*
Y634366D01*
X250952D01*
X251333Y637033D02*
Y636017D01*
X253365D01*
Y637033D01*
X254381D01*
Y639065D01*
X253365D01*
Y640081D01*
X251333D01*
Y639065D01*
X250317D01*
Y637033D01*
X251333D01*
X248285Y639573D02*
Y638557D01*
X250317D01*
Y639573D01*
X251333D01*
Y641605D01*
X250317D01*
Y642621D01*
X248285D01*
Y641605D01*
X247269D01*
Y639573D01*
X248285D01*
X251460Y640081D02*
Y639065D01*
X253492D01*
Y640081D01*
X254508D01*
Y642113D01*
X253492D01*
Y643129D01*
X251460D01*
Y642113D01*
X250444D01*
Y640081D01*
X251460D01*
X250190Y642494D02*
Y641478D01*
X252222D01*
Y642494D01*
X253238D01*
Y644526D01*
X252222D01*
Y645542D01*
X250190D01*
Y644526D01*
X249174D01*
Y642494D01*
X250190D01*
X247396Y642621D02*
Y641605D01*
X249428D01*
Y642621D01*
X250444D01*
Y644653D01*
X249428D01*
Y645669D01*
X247396D01*
Y644653D01*
X246380D01*
Y642621D01*
X247396D01*
X250317Y645288D02*
Y644272D01*
X252349D01*
Y645288D01*
X253365D01*
Y647320D01*
X252349D01*
Y648336D01*
X250317D01*
Y647320D01*
X249301D01*
Y645288D01*
X250317D01*
X247904Y645161D02*
Y644145D01*
X249936D01*
Y645161D01*
X250952D01*
Y647193D01*
X249936D01*
Y648209D01*
X247904D01*
Y647193D01*
X246888D01*
Y645161D01*
X247904D01*
X242697Y841884D02*
Y840868D01*
X244729D01*
Y841884D01*
X245745D01*
Y843916D01*
X244729D01*
Y844932D01*
X242697D01*
Y843916D01*
X241681D01*
Y841884D01*
X242697D01*
X240030Y842900D02*
Y841884D01*
X242062D01*
Y842900D01*
X243078D01*
Y844932D01*
X242062D01*
Y845948D01*
X240030D01*
Y844932D01*
X239014D01*
Y842900D01*
X240030D01*
X237236Y840995D02*
Y839979D01*
X239268D01*
Y840995D01*
X240284D01*
Y843027D01*
X239268D01*
Y844043D01*
X237236D01*
Y843027D01*
X236220D01*
Y840995D01*
X237236D01*
X239649Y840360D02*
Y839344D01*
X241681D01*
Y840360D01*
X242697D01*
Y842392D01*
X241681D01*
Y843408D01*
X239649D01*
Y842392D01*
X238633D01*
Y840360D01*
X239649D01*
X242570Y838455D02*
Y837439D01*
X244602D01*
Y838455D01*
X245618D01*
Y840487D01*
X244602D01*
Y841503D01*
X242570D01*
Y840487D01*
X241554D01*
Y838455D01*
X242570D01*
X241681Y835407D02*
Y834391D01*
X243713D01*
Y835407D01*
X244729D01*
Y837439D01*
X243713D01*
Y838455D01*
X241681D01*
Y837439D01*
X240665D01*
Y835407D01*
X241681D01*
X238506D02*
Y834391D01*
X240538D01*
Y835407D01*
X241554D01*
Y837439D01*
X240538D01*
Y838455D01*
X238506D01*
Y837439D01*
X237490D01*
Y835407D01*
X238506D01*
X236347Y837058D02*
Y836042D01*
X238379D01*
Y837058D01*
X239395D01*
Y839090D01*
X238379D01*
Y840106D01*
X236347D01*
Y839090D01*
X235331D01*
Y837058D01*
X236347D01*
X207899Y795656D02*
Y794640D01*
X209931D01*
Y795656D01*
X210947D01*
Y797688D01*
X209931D01*
Y798704D01*
X207899D01*
Y797688D01*
X206883D01*
Y795656D01*
X207899D01*
X205193Y796870D02*
Y795854D01*
X207225D01*
Y796870D01*
X208241D01*
Y798902D01*
X207225D01*
Y799918D01*
X205193D01*
Y798902D01*
X204177D01*
Y796870D01*
X205193D01*
X206756Y798196D02*
Y797180D01*
X208788D01*
Y798196D01*
X209804D01*
Y800228D01*
X208788D01*
Y801244D01*
X206756D01*
Y800228D01*
X205740D01*
Y798196D01*
X206756D01*
X203581Y799212D02*
Y798196D01*
X205613D01*
Y799212D01*
X206629D01*
Y801244D01*
X205613D01*
Y802260D01*
X203581D01*
Y801244D01*
X202565D01*
Y799212D01*
X203581D01*
X199898Y796799D02*
Y795783D01*
X201930D01*
Y796799D01*
X202946D01*
Y798831D01*
X201930D01*
Y799847D01*
X199898D01*
Y798831D01*
X198882D01*
Y796799D01*
X199898D01*
X180467Y799085D02*
Y798069D01*
X182499D01*
Y799085D01*
X183515D01*
Y801117D01*
X182499D01*
Y802133D01*
X180467D01*
Y801117D01*
X179451D01*
Y799085D01*
X180467D01*
X176403Y798831D02*
Y797815D01*
X178435D01*
Y798831D01*
X179451D01*
Y800863D01*
X178435D01*
Y801879D01*
X176403D01*
Y800863D01*
X175387D01*
Y798831D01*
X176403D01*
X174879Y796037D02*
Y795021D01*
X176911D01*
Y796037D01*
X177927D01*
Y798069D01*
X176911D01*
Y799085D01*
X174879D01*
Y798069D01*
X173863D01*
Y796037D01*
X174879D01*
X187706Y796291D02*
Y795275D01*
X189738D01*
Y796291D01*
X190754D01*
Y798323D01*
X189738D01*
Y799339D01*
X187706D01*
Y798323D01*
X186690D01*
Y796291D01*
X187706D01*
X182499Y796418D02*
Y795402D01*
X184531D01*
Y796418D01*
X185547D01*
Y798450D01*
X184531D01*
Y799466D01*
X182499D01*
Y798450D01*
X181483D01*
Y796418D01*
X182499D01*
X185039Y796164D02*
Y795148D01*
X187071D01*
Y796164D01*
X188087D01*
Y798196D01*
X187071D01*
Y799212D01*
X185039D01*
Y798196D01*
X184023D01*
Y796164D01*
X185039D01*
X138938Y689992D02*
Y688976D01*
X140970D01*
Y689992D01*
X141986D01*
Y692024D01*
X140970D01*
Y693040D01*
X138938D01*
Y692024D01*
X137922D01*
Y689992D01*
X138938D01*
X233934Y738760D02*
Y737744D01*
X235966D01*
Y738760D01*
X236982D01*
Y740792D01*
X235966D01*
Y741808D01*
X233934D01*
Y740792D01*
X232918D01*
Y738760D01*
X233934D01*
X209809Y710332D02*
Y709316D01*
X211841D01*
Y710332D01*
X212857D01*
Y712364D01*
X211841D01*
Y713380D01*
X209809D01*
Y712364D01*
X208793D01*
Y710332D01*
X209809D01*
X131191Y611506D02*
Y610490D01*
X133223D01*
Y611506D01*
X134239D01*
Y613538D01*
X133223D01*
Y614554D01*
X131191D01*
Y613538D01*
X130175D01*
Y611506D01*
X131191D01*
X108871Y610268D02*
Y609252D01*
X110903D01*
Y610268D01*
X111919D01*
Y612300D01*
X110903D01*
Y613316D01*
X108871D01*
Y612300D01*
X107855D01*
Y610268D01*
X108871D01*
X173482Y693929D02*
Y692913D01*
X175514D01*
Y693929D01*
X176530D01*
Y695961D01*
X175514D01*
Y696977D01*
X173482D01*
Y695961D01*
X172466D01*
Y693929D01*
X173482D01*
X170942Y697715D02*
Y696699D01*
X172974D01*
Y697715D01*
X173990D01*
Y699747D01*
X172974D01*
Y700763D01*
X170942D01*
Y699747D01*
X169926D01*
Y697715D01*
X170942D01*
X168910Y692405D02*
Y691389D01*
X170942D01*
Y692405D01*
X171958D01*
Y694437D01*
X170942D01*
Y695453D01*
X168910D01*
Y694437D01*
X167894D01*
Y692405D01*
X168910D01*
X140848Y735478D02*
Y734462D01*
X142880D01*
Y735478D01*
X143896D01*
Y737510D01*
X142880D01*
Y738526D01*
X140848D01*
Y737510D01*
X139832D01*
Y735478D01*
X140848D01*
X219456Y722504D02*
Y721488D01*
X221488D01*
Y722504D01*
X222504D01*
Y724536D01*
X221488D01*
Y725552D01*
X219456D01*
Y724536D01*
X218440D01*
Y722504D01*
X219456D01*
X218567Y713106D02*
Y712090D01*
X220599D01*
Y713106D01*
X221615D01*
Y715138D01*
X220599D01*
Y716154D01*
X218567D01*
Y715138D01*
X217551D01*
Y713106D01*
X218567D01*
X248539Y636144D02*
Y635128D01*
X250571D01*
Y636144D01*
X251587D01*
Y638176D01*
X250571D01*
Y639192D01*
X248539D01*
Y638176D01*
X247523D01*
Y636144D01*
X248539D01*
X140721Y743987D02*
Y742971D01*
X142753D01*
Y743987D01*
X143769D01*
Y746019D01*
X142753D01*
Y747035D01*
X140721D01*
Y746019D01*
X139705D01*
Y743987D01*
X140721D01*
X219588Y688869D02*
Y687853D01*
X221620D01*
Y688869D01*
X222636D01*
Y690901D01*
X221620D01*
Y691917D01*
X219588D01*
Y690901D01*
X218572D01*
Y688869D01*
X219588D01*
X191008Y704089D02*
Y703073D01*
X193040D01*
Y704089D01*
X194056D01*
Y706121D01*
X193040D01*
Y707137D01*
X191008D01*
Y706121D01*
X189992D01*
Y704089D01*
X191008D01*
X196728Y711856D02*
Y710840D01*
X198760D01*
Y711856D01*
X199776D01*
Y713888D01*
X198760D01*
Y714904D01*
X196728D01*
Y713888D01*
X195712D01*
Y711856D01*
X196728D01*
X239273Y837713D02*
Y836697D01*
X241305D01*
Y837713D01*
X242321D01*
Y839745D01*
X241305D01*
Y840761D01*
X239273D01*
Y839745D01*
X238257D01*
Y837713D01*
X239273D01*
X222001Y745638D02*
Y744622D01*
X224033D01*
Y745638D01*
X225049D01*
Y747670D01*
X224033D01*
Y748686D01*
X222001D01*
Y747670D01*
X220985D01*
Y745638D01*
X222001D01*
X163957Y632461D02*
Y631445D01*
X165989D01*
Y632461D01*
X167005D01*
Y634493D01*
X165989D01*
Y635509D01*
X163957D01*
Y634493D01*
X162941D01*
Y632461D01*
X163957D01*
X187089Y646540D02*
Y645524D01*
X189121D01*
Y646540D01*
X190137D01*
Y648572D01*
X189121D01*
Y649588D01*
X187089D01*
Y648572D01*
X186073D01*
Y646540D01*
X187089D01*
X84709Y644145D02*
Y643129D01*
X86741D01*
Y644145D01*
X87757D01*
Y646177D01*
X86741D01*
Y647193D01*
X84709D01*
Y646177D01*
X83693D01*
Y644145D01*
X84709D01*
X226060Y732410D02*
Y731394D01*
X228092D01*
Y732410D01*
X229108D01*
Y734442D01*
X228092D01*
Y735458D01*
X226060D01*
Y734442D01*
X225044D01*
Y732410D01*
X226060D01*
X203073Y796926D02*
Y795910D01*
X205105D01*
Y796926D01*
X206121D01*
Y798958D01*
X205105D01*
Y799974D01*
X203073D01*
Y798958D01*
X202057D01*
Y796926D01*
X203073D01*
X330454Y686944D02*
Y685928D01*
X332486D01*
Y686944D01*
X333502D01*
Y688976D01*
X332486D01*
Y689992D01*
X330454D01*
Y688976D01*
X329438D01*
Y686944D01*
X330454D01*
X178883Y796282D02*
Y795266D01*
X180916D01*
Y796282D01*
X181931D01*
Y798314D01*
X180916D01*
Y799330D01*
X178883D01*
Y798314D01*
X177868D01*
Y796282D01*
X178883D01*
X762028Y575148D02*
Y579212D01*
X766092D01*
Y575148D01*
X762028D01*
X713028D02*
Y579212D01*
X717092D01*
Y575148D01*
X713028D01*
X522630Y564718D02*
X520598Y568782D01*
X524662D01*
X522630Y564718D01*
X580430D02*
X578398Y568782D01*
X582462D01*
X580430Y564718D01*
X594780Y529718D02*
X595796Y530734D01*
X596812D01*
X595796Y531750D01*
X596812Y532766D01*
X595796D01*
X594780Y533782D01*
X593764Y532766D01*
X592748D01*
X593764Y531750D01*
X592748Y530734D01*
X593764D01*
X594780Y529718D01*
X508280D02*
X509296Y530734D01*
X510312D01*
X509296Y531750D01*
X510312Y532766D01*
X509296D01*
X508280Y533782D01*
X507264Y532766D01*
X506248D01*
X507264Y531750D01*
X506248Y530734D01*
X507264D01*
X508280Y529718D01*
X592748Y569718D02*
X593764Y571750D01*
X592748Y573782D01*
X594780Y572766D01*
X596812Y573782D01*
X595796Y571750D01*
X596812Y569718D01*
X594780Y570734D01*
X592748Y569718D01*
X506248D02*
X507264Y571750D01*
X506248Y573782D01*
X508280Y572766D01*
X510312Y573782D01*
X509296Y571750D01*
X510312Y569718D01*
X508280Y570734D01*
X506248Y569718D01*
X575730Y709296D02*
Y708280D01*
X577762D01*
Y709296D01*
X578778D01*
Y711328D01*
X577762D01*
Y712344D01*
X575730D01*
Y711328D01*
X574714D01*
Y709296D01*
X575730D01*
X565062Y777241D02*
Y776225D01*
X567094D01*
Y777241D01*
X568110D01*
Y779273D01*
X567094D01*
Y780289D01*
X565062D01*
Y779273D01*
X564046D01*
Y777241D01*
X565062D01*
X558839Y783464D02*
Y782448D01*
X560871D01*
Y783464D01*
X561887D01*
Y785496D01*
X560871D01*
Y786512D01*
X558839D01*
Y785496D01*
X557823D01*
Y783464D01*
X558839D01*
X552616Y789814D02*
Y788798D01*
X554648D01*
Y789814D01*
X555664D01*
Y791846D01*
X554648D01*
Y792862D01*
X552616D01*
Y791846D01*
X551600D01*
Y789814D01*
X552616D01*
X551981Y732410D02*
Y731394D01*
X554013D01*
Y732410D01*
X555029D01*
Y734442D01*
X554013D01*
Y735458D01*
X551981D01*
Y734442D01*
X550965D01*
Y732410D01*
X551981D01*
X546647Y713614D02*
Y712598D01*
X548679D01*
Y713614D01*
X549695D01*
Y715646D01*
X548679D01*
Y716662D01*
X546647D01*
Y715646D01*
X545631D01*
Y713614D01*
X546647D01*
X546901Y774066D02*
Y773050D01*
X548933D01*
Y774066D01*
X549949D01*
Y776098D01*
X548933D01*
Y777114D01*
X546901D01*
Y776098D01*
X545885D01*
Y774066D01*
X546901D01*
X638214Y605918D02*
Y604902D01*
X640246D01*
Y605918D01*
X641262D01*
Y607950D01*
X640246D01*
Y608966D01*
X638214D01*
Y607950D01*
X637198D01*
Y605918D01*
X638214D01*
X629832Y861315D02*
Y860299D01*
X631864D01*
Y861315D01*
X632880D01*
Y863347D01*
X631864D01*
Y864363D01*
X629832D01*
Y863347D01*
X628816D01*
Y861315D01*
X629832D01*
X621704Y762636D02*
Y761620D01*
X623736D01*
Y762636D01*
X624752D01*
Y764668D01*
X623736D01*
Y765684D01*
X621704D01*
Y764668D01*
X620688D01*
Y762636D01*
X621704D01*
X616243D02*
Y761620D01*
X618275D01*
Y762636D01*
X619291D01*
Y764668D01*
X618275D01*
Y765684D01*
X616243D01*
Y764668D01*
X615227D01*
Y762636D01*
X616243D01*
X627800D02*
Y761620D01*
X629832D01*
Y762636D01*
X630848D01*
Y764668D01*
X629832D01*
Y765684D01*
X627800D01*
Y764668D01*
X626784D01*
Y762636D01*
X627800D01*
X633515D02*
Y761620D01*
X635547D01*
Y762636D01*
X636563D01*
Y764668D01*
X635547D01*
Y765684D01*
X633515D01*
Y764668D01*
X632499D01*
Y762636D01*
X633515D01*
X639611D02*
Y761620D01*
X641643D01*
Y762636D01*
X642659D01*
Y764668D01*
X641643D01*
Y765684D01*
X639611D01*
Y764668D01*
X638595D01*
Y762636D01*
X639611D01*
X645326D02*
Y761620D01*
X647358D01*
Y762636D01*
X648374D01*
Y764668D01*
X647358D01*
Y765684D01*
X645326D01*
Y764668D01*
X644310D01*
Y762636D01*
X645326D01*
X616243Y750698D02*
Y749682D01*
X618275D01*
Y750698D01*
X619291D01*
Y752730D01*
X618275D01*
Y753746D01*
X616243D01*
Y752730D01*
X615227D01*
Y750698D01*
X616243D01*
X621704D02*
Y749682D01*
X623736D01*
Y750698D01*
X624752D01*
Y752730D01*
X623736D01*
Y753746D01*
X621704D01*
Y752730D01*
X620688D01*
Y750698D01*
X621704D01*
X627800D02*
Y749682D01*
X629832D01*
Y750698D01*
X630848D01*
Y752730D01*
X629832D01*
Y753746D01*
X627800D01*
Y752730D01*
X626784D01*
Y750698D01*
X627800D01*
X633515D02*
Y749682D01*
X635547D01*
Y750698D01*
X636563D01*
Y752730D01*
X635547D01*
Y753746D01*
X633515D01*
Y752730D01*
X632499D01*
Y750698D01*
X633515D01*
X639611D02*
Y749682D01*
X641643D01*
Y750698D01*
X642659D01*
Y752730D01*
X641643D01*
Y753746D01*
X639611D01*
Y752730D01*
X638595D01*
Y750698D01*
X639611D01*
X645326D02*
Y749682D01*
X647358D01*
Y750698D01*
X648374D01*
Y752730D01*
X647358D01*
Y753746D01*
X645326D01*
Y752730D01*
X644310D01*
Y750698D01*
X645326D01*
X725844Y713995D02*
Y712979D01*
X727876D01*
Y713995D01*
X728892D01*
Y716027D01*
X727876D01*
Y717043D01*
X725844D01*
Y716027D01*
X724828D01*
Y713995D01*
X725844D01*
X718097Y711963D02*
Y710947D01*
X720129D01*
Y711963D01*
X721145D01*
Y713995D01*
X720129D01*
Y715011D01*
X718097D01*
Y713995D01*
X717081D01*
Y711963D01*
X718097D01*
X722288Y713868D02*
Y712852D01*
X724320D01*
Y713868D01*
X725336D01*
Y715900D01*
X724320D01*
Y716916D01*
X722288D01*
Y715900D01*
X721272D01*
Y713868D01*
X722288D01*
X750609Y688976D02*
Y687960D01*
X752641D01*
Y688976D01*
X753657D01*
Y691008D01*
X752641D01*
Y692024D01*
X750609D01*
Y691008D01*
X749593D01*
Y688976D01*
X750609D01*
X722034Y681610D02*
Y680594D01*
X724066D01*
Y681610D01*
X725082D01*
Y683642D01*
X724066D01*
Y684658D01*
X722034D01*
Y683642D01*
X721018D01*
Y681610D01*
X722034D01*
X556680Y681229D02*
Y680213D01*
X558712D01*
Y681229D01*
X559728D01*
Y683261D01*
X558712D01*
Y684277D01*
X556680D01*
Y683261D01*
X555664D01*
Y681229D01*
X556680D01*
X556934Y685293D02*
Y684277D01*
X558966D01*
Y685293D01*
X559982D01*
Y687325D01*
X558966D01*
Y688341D01*
X556934D01*
Y687325D01*
X555918D01*
Y685293D01*
X556934D01*
X514516Y695072D02*
X515532D01*
X516548Y696088D01*
X517564Y695072D01*
X518580D01*
Y696088D01*
X517564Y697104D01*
X518580Y698120D01*
Y699136D01*
X517564D01*
X516548Y698120D01*
X515532Y699136D01*
X514516D01*
Y698120D01*
X515532Y697104D01*
X514516Y696088D01*
Y695072D01*
X514643Y705740D02*
X515659D01*
X516675Y706756D01*
X517691Y705740D01*
X518707D01*
Y706756D01*
X517691Y707772D01*
X518707Y708788D01*
Y709804D01*
X517691D01*
X516675Y708788D01*
X515659Y709804D01*
X514643D01*
Y708788D01*
X515659Y707772D01*
X514643Y706756D01*
Y705740D01*
X486703Y689865D02*
X487719D01*
X488735Y690881D01*
X489751Y689865D01*
X490767D01*
Y690881D01*
X489751Y691897D01*
X490767Y692913D01*
Y693929D01*
X489751D01*
X488735Y692913D01*
X487719Y693929D01*
X486703D01*
Y692913D01*
X487719Y691897D01*
X486703Y690881D01*
Y689865D01*
X804076Y626619D02*
X805092D01*
X806108Y627635D01*
X807124Y626619D01*
X808140D01*
Y627635D01*
X807124Y628651D01*
X808140Y629667D01*
Y630683D01*
X807124D01*
X806108Y629667D01*
X805092Y630683D01*
X804076D01*
Y629667D01*
X805092Y628651D01*
X804076Y627635D01*
Y626619D01*
X787566D02*
X788582D01*
X789598Y627635D01*
X790614Y626619D01*
X791630D01*
Y627635D01*
X790614Y628651D01*
X791630Y629667D01*
Y630683D01*
X790614D01*
X789598Y629667D01*
X788582Y630683D01*
X787566D01*
Y629667D01*
X788582Y628651D01*
X787566Y627635D01*
Y626619D01*
X621704Y607968D02*
X622720D01*
X623736Y608984D01*
X624752Y607968D01*
X625768D01*
Y608984D01*
X624752Y610000D01*
X625768Y611016D01*
Y612032D01*
X624752D01*
X623736Y611016D01*
X622720Y612032D01*
X621704D01*
Y611016D01*
X622720Y610000D01*
X621704Y608984D01*
Y607968D01*
Y587968D02*
X622720D01*
X623736Y588984D01*
X624752Y587968D01*
X625768D01*
Y588984D01*
X624752Y590000D01*
X625768Y591016D01*
Y592032D01*
X624752D01*
X623736Y591016D01*
X622720Y592032D01*
X621704D01*
Y591016D01*
X622720Y590000D01*
X621704Y588984D01*
Y587968D01*
Y567968D02*
X622720D01*
X623736Y568984D01*
X624752Y567968D01*
X625768D01*
Y568984D01*
X624752Y570000D01*
X625768Y571016D01*
Y572032D01*
X624752D01*
X623736Y571016D01*
X622720Y572032D01*
X621704D01*
Y571016D01*
X622720Y570000D01*
X621704Y568984D01*
Y567968D01*
X622828Y546844D02*
X623844D01*
X624860Y547860D01*
X625876Y546844D01*
X626892D01*
Y547860D01*
X625876Y548876D01*
X626892Y549892D01*
Y550908D01*
X625876D01*
X624860Y549892D01*
X623844Y550908D01*
X622828D01*
Y549892D01*
X623844Y548876D01*
X622828Y547860D01*
Y546844D01*
X645326Y739014D02*
Y737998D01*
X647358D01*
Y739014D01*
X648374D01*
Y741046D01*
X647358D01*
Y742062D01*
X645326D01*
Y741046D01*
X644310D01*
Y739014D01*
X645326D01*
X639611D02*
Y737998D01*
X641643D01*
Y739014D01*
X642659D01*
Y741046D01*
X641643D01*
Y742062D01*
X639611D01*
Y741046D01*
X638595D01*
Y739014D01*
X639611D01*
X633515D02*
Y737998D01*
X635547D01*
Y739014D01*
X636563D01*
Y741046D01*
X635547D01*
Y742062D01*
X633515D01*
Y741046D01*
X632499D01*
Y739014D01*
X633515D01*
X627800D02*
Y737998D01*
X629832D01*
Y739014D01*
X630848D01*
Y741046D01*
X629832D01*
Y742062D01*
X627800D01*
Y741046D01*
X626784D01*
Y739014D01*
X627800D01*
X621704D02*
Y737998D01*
X623736D01*
Y739014D01*
X624752D01*
Y741046D01*
X623736D01*
Y742062D01*
X621704D01*
Y741046D01*
X620688D01*
Y739014D01*
X621704D01*
X616243D02*
Y737998D01*
X618275D01*
Y739014D01*
X619291D01*
Y741046D01*
X618275D01*
Y742062D01*
X616243D01*
Y741046D01*
X615227D01*
Y739014D01*
X616243D01*
X645326Y744856D02*
Y743840D01*
X647358D01*
Y744856D01*
X648374D01*
Y746888D01*
X647358D01*
Y747904D01*
X645326D01*
Y746888D01*
X644310D01*
Y744856D01*
X645326D01*
X639611D02*
Y743840D01*
X641643D01*
Y744856D01*
X642659D01*
Y746888D01*
X641643D01*
Y747904D01*
X639611D01*
Y746888D01*
X638595D01*
Y744856D01*
X639611D01*
X633515D02*
Y743840D01*
X635547D01*
Y744856D01*
X636563D01*
Y746888D01*
X635547D01*
Y747904D01*
X633515D01*
Y746888D01*
X632499D01*
Y744856D01*
X633515D01*
X627800D02*
Y743840D01*
X629832D01*
Y744856D01*
X630848D01*
Y746888D01*
X629832D01*
Y747904D01*
X627800D01*
Y746888D01*
X626784D01*
Y744856D01*
X627800D01*
X621704D02*
Y743840D01*
X623736D01*
Y744856D01*
X624752D01*
Y746888D01*
X623736D01*
Y747904D01*
X621704D01*
Y746888D01*
X620688D01*
Y744856D01*
X621704D01*
X616243D02*
Y743840D01*
X618275D01*
Y744856D01*
X619291D01*
Y746888D01*
X618275D01*
Y747904D01*
X616243D01*
Y746888D01*
X615227D01*
Y744856D01*
X616243D01*
X645326Y756413D02*
Y755397D01*
X647358D01*
Y756413D01*
X648374D01*
Y758445D01*
X647358D01*
Y759461D01*
X645326D01*
Y758445D01*
X644310D01*
Y756413D01*
X645326D01*
X639611D02*
Y755397D01*
X641643D01*
Y756413D01*
X642659D01*
Y758445D01*
X641643D01*
Y759461D01*
X639611D01*
Y758445D01*
X638595D01*
Y756413D01*
X639611D01*
X633515D02*
Y755397D01*
X635547D01*
Y756413D01*
X636563D01*
Y758445D01*
X635547D01*
Y759461D01*
X633515D01*
Y758445D01*
X632499D01*
Y756413D01*
X633515D01*
X627800D02*
Y755397D01*
X629832D01*
Y756413D01*
X630848D01*
Y758445D01*
X629832D01*
Y759461D01*
X627800D01*
Y758445D01*
X626784D01*
Y756413D01*
X627800D01*
X621704D02*
Y755397D01*
X623736D01*
Y756413D01*
X624752D01*
Y758445D01*
X623736D01*
Y759461D01*
X621704D01*
Y758445D01*
X620688D01*
Y756413D01*
X621704D01*
X616243D02*
Y755397D01*
X618275D01*
Y756413D01*
X619291D01*
Y758445D01*
X618275D01*
Y759461D01*
X616243D01*
Y758445D01*
X615227D01*
Y756413D01*
X616243D01*
X645326Y768732D02*
Y767716D01*
X647358D01*
Y768732D01*
X648374D01*
Y770764D01*
X647358D01*
Y771780D01*
X645326D01*
Y770764D01*
X644310D01*
Y768732D01*
X645326D01*
X639611D02*
Y767716D01*
X641643D01*
Y768732D01*
X642659D01*
Y770764D01*
X641643D01*
Y771780D01*
X639611D01*
Y770764D01*
X638595D01*
Y768732D01*
X639611D01*
X633515D02*
Y767716D01*
X635547D01*
Y768732D01*
X636563D01*
Y770764D01*
X635547D01*
Y771780D01*
X633515D01*
Y770764D01*
X632499D01*
Y768732D01*
X633515D01*
X627800D02*
Y767716D01*
X629832D01*
Y768732D01*
X630848D01*
Y770764D01*
X629832D01*
Y771780D01*
X627800D01*
Y770764D01*
X626784D01*
Y768732D01*
X627800D01*
X621704D02*
Y767716D01*
X623736D01*
Y768732D01*
X624752D01*
Y770764D01*
X623736D01*
Y771780D01*
X621704D01*
Y770764D01*
X620688D01*
Y768732D01*
X621704D01*
X616243D02*
Y767716D01*
X618275D01*
Y768732D01*
X619291D01*
Y770764D01*
X618275D01*
Y771780D01*
X616243D01*
Y770764D01*
X615227D01*
Y768732D01*
X616243D01*
X742354Y752349D02*
Y751333D01*
X744386D01*
Y752349D01*
X745402D01*
Y754381D01*
X744386D01*
Y755397D01*
X742354D01*
Y754381D01*
X741338D01*
Y752349D01*
X742354D01*
X625768Y689992D02*
Y688976D01*
X627800D01*
Y689992D01*
X628816D01*
Y692024D01*
X627800D01*
Y693040D01*
X625768D01*
Y692024D01*
X624752D01*
Y689992D01*
X625768D01*
X627673Y694056D02*
Y693040D01*
X629705D01*
Y694056D01*
X630721D01*
Y696088D01*
X629705D01*
Y697104D01*
X627673D01*
Y696088D01*
X626657D01*
Y694056D01*
X627673D01*
X626022Y697993D02*
Y696977D01*
X628054D01*
Y697993D01*
X629070D01*
Y700025D01*
X628054D01*
Y701041D01*
X626022D01*
Y700025D01*
X625006D01*
Y697993D01*
X626022D01*
X623990Y700914D02*
Y699898D01*
X626022D01*
Y700914D01*
X627038D01*
Y702946D01*
X626022D01*
Y703962D01*
X623990D01*
Y702946D01*
X622974D01*
Y700914D01*
X623990D01*
X619672Y701930D02*
Y700914D01*
X621704D01*
Y701930D01*
X622720D01*
Y703962D01*
X621704D01*
Y704978D01*
X619672D01*
Y703962D01*
X618656D01*
Y701930D01*
X619672D01*
X615227Y701549D02*
Y700533D01*
X617259D01*
Y701549D01*
X618275D01*
Y703581D01*
X617259D01*
Y704597D01*
X615227D01*
Y703581D01*
X614211D01*
Y701549D01*
X615227D01*
X616116Y696723D02*
Y695707D01*
X618148D01*
Y696723D01*
X619164D01*
Y698755D01*
X618148D01*
Y699771D01*
X616116D01*
Y698755D01*
X615100D01*
Y696723D01*
X616116D01*
X611163Y698755D02*
Y697739D01*
X613195D01*
Y698755D01*
X614211D01*
Y700787D01*
X613195D01*
Y701803D01*
X611163D01*
Y700787D01*
X610147D01*
Y698755D01*
X611163D01*
X612306Y695326D02*
Y694310D01*
X614338D01*
Y695326D01*
X615354D01*
Y697358D01*
X614338D01*
Y698374D01*
X612306D01*
Y697358D01*
X611290D01*
Y695326D01*
X612306D01*
X608192Y694943D02*
Y693927D01*
X610224D01*
Y694943D01*
X611240D01*
Y696975D01*
X610224D01*
Y697991D01*
X608192D01*
Y696975D01*
X607176D01*
Y694943D01*
X608192D01*
X613068Y691389D02*
Y690373D01*
X615100D01*
Y691389D01*
X616116D01*
Y693421D01*
X615100D01*
Y694437D01*
X613068D01*
Y693421D01*
X612052D01*
Y691389D01*
X613068D01*
X610147Y691643D02*
Y690627D01*
X612179D01*
Y691643D01*
X613195D01*
Y693675D01*
X612179D01*
Y694691D01*
X610147D01*
Y693675D01*
X609131D01*
Y691643D01*
X610147D01*
X606083Y691897D02*
Y690881D01*
X608115D01*
Y691897D01*
X609131D01*
Y693929D01*
X608115D01*
Y694945D01*
X606083D01*
Y693929D01*
X605067D01*
Y691897D01*
X606083D01*
X633901Y711602D02*
Y710586D01*
X635933D01*
Y711602D01*
X636949D01*
Y713634D01*
X635933D01*
Y714650D01*
X633901D01*
Y713634D01*
X632885D01*
Y711602D01*
X633901D01*
X635166Y792354D02*
Y791338D01*
X637198D01*
Y792354D01*
X638214D01*
Y794386D01*
X637198D01*
Y795402D01*
X635166D01*
Y794386D01*
X634150D01*
Y792354D01*
X635166D01*
X631610Y792481D02*
Y791465D01*
X633642D01*
Y792481D01*
X634658D01*
Y794513D01*
X633642D01*
Y795529D01*
X631610D01*
Y794513D01*
X630594D01*
Y792481D01*
X631610D01*
X628181D02*
Y791465D01*
X630213D01*
Y792481D01*
X631229D01*
Y794513D01*
X630213D01*
Y795529D01*
X628181D01*
Y794513D01*
X627165D01*
Y792481D01*
X628181D01*
X625006D02*
Y791465D01*
X627038D01*
Y792481D01*
X628054D01*
Y794513D01*
X627038D01*
Y795529D01*
X625006D01*
Y794513D01*
X623990D01*
Y792481D01*
X625006D01*
X538011Y642113D02*
Y641097D01*
X540043D01*
Y642113D01*
X541059D01*
Y644145D01*
X540043D01*
Y645161D01*
X538011D01*
Y644145D01*
X536995D01*
Y642113D01*
X538011D01*
X535598D02*
Y641097D01*
X537630D01*
Y642113D01*
X538646D01*
Y644145D01*
X537630D01*
Y645161D01*
X535598D01*
Y644145D01*
X534582D01*
Y642113D01*
X535598D01*
X533185Y641351D02*
Y640335D01*
X535217D01*
Y641351D01*
X536233D01*
Y643383D01*
X535217D01*
Y644399D01*
X533185D01*
Y643383D01*
X532169D01*
Y641351D01*
X533185D01*
X540424Y640335D02*
Y639319D01*
X542456D01*
Y640335D01*
X543472D01*
Y642367D01*
X542456D01*
Y643383D01*
X540424D01*
Y642367D01*
X539408D01*
Y640335D01*
X540424D01*
X538265Y639446D02*
Y638430D01*
X540297D01*
Y639446D01*
X541313D01*
Y641478D01*
X540297D01*
Y642494D01*
X538265D01*
Y641478D01*
X537249D01*
Y639446D01*
X538265D01*
X535979Y639065D02*
Y638049D01*
X538011D01*
Y639065D01*
X539027D01*
Y641097D01*
X538011D01*
Y642113D01*
X535979D01*
Y641097D01*
X534963D01*
Y639065D01*
X535979D01*
X533820Y638811D02*
Y637795D01*
X535852D01*
Y638811D01*
X536868D01*
Y640843D01*
X535852D01*
Y641859D01*
X533820D01*
Y640843D01*
X532804D01*
Y638811D01*
X533820D01*
X478829Y679832D02*
X479845D01*
X480861Y680848D01*
X481877Y679832D01*
X482893D01*
Y680848D01*
X481877Y681864D01*
X482893Y682880D01*
Y683896D01*
X481877D01*
X480861Y682880D01*
X479845Y683896D01*
X478829D01*
Y682880D01*
X479845Y681864D01*
X478829Y680848D01*
Y679832D01*
X464986Y682499D02*
X466002D01*
X467018Y683515D01*
X468034Y682499D01*
X469050D01*
Y683515D01*
X468034Y684531D01*
X469050Y685547D01*
Y686563D01*
X468034D01*
X467018Y685547D01*
X466002Y686563D01*
X464986D01*
Y685547D01*
X466002Y684531D01*
X464986Y683515D01*
Y682499D01*
X473876Y691516D02*
X474892D01*
X475908Y692532D01*
X476924Y691516D01*
X477940D01*
Y692532D01*
X476924Y693548D01*
X477940Y694564D01*
Y695580D01*
X476924D01*
X475908Y694564D01*
X474892Y695580D01*
X473876D01*
Y694564D01*
X474892Y693548D01*
X473876Y692532D01*
Y691516D01*
X480099Y714249D02*
X481115D01*
X482131Y715265D01*
X483147Y714249D01*
X484163D01*
Y715265D01*
X483147Y716281D01*
X484163Y717297D01*
Y718313D01*
X483147D01*
X482131Y717297D01*
X481115Y718313D01*
X480099D01*
Y717297D01*
X481115Y716281D01*
X480099Y715265D01*
Y714249D01*
X465494Y713614D02*
X466510D01*
X467526Y714630D01*
X468542Y713614D01*
X469558D01*
Y714630D01*
X468542Y715646D01*
X469558Y716662D01*
Y717678D01*
X468542D01*
X467526Y716662D01*
X466510Y717678D01*
X465494D01*
Y716662D01*
X466510Y715646D01*
X465494Y714630D01*
Y713614D01*
X479718Y725933D02*
X480734D01*
X481750Y726949D01*
X482766Y725933D01*
X483782D01*
Y726949D01*
X482766Y727965D01*
X483782Y728981D01*
Y729997D01*
X482766D01*
X481750Y728981D01*
X480734Y729997D01*
X479718D01*
Y728981D01*
X480734Y727965D01*
X479718Y726949D01*
Y725933D01*
X465621Y725679D02*
X466637D01*
X467653Y726695D01*
X468669Y725679D01*
X469685D01*
Y726695D01*
X468669Y727711D01*
X469685Y728727D01*
Y729743D01*
X468669D01*
X467653Y728727D01*
X466637Y729743D01*
X465621D01*
Y728727D01*
X466637Y727711D01*
X465621Y726695D01*
Y725679D01*
X477686Y739903D02*
X478702D01*
X479718Y740919D01*
X480734Y739903D01*
X481750D01*
Y740919D01*
X480734Y741935D01*
X481750Y742951D01*
Y743967D01*
X480734D01*
X479718Y742951D01*
X478702Y743967D01*
X477686D01*
Y742951D01*
X478702Y741935D01*
X477686Y740919D01*
Y739903D01*
X476797Y751841D02*
X477813D01*
X478829Y752857D01*
X479845Y751841D01*
X480861D01*
Y752857D01*
X479845Y753873D01*
X480861Y754889D01*
Y755905D01*
X479845D01*
X478829Y754889D01*
X477813Y755905D01*
X476797D01*
Y754889D01*
X477813Y753873D01*
X476797Y752857D01*
Y751841D01*
X465494Y752222D02*
X466510D01*
X467526Y753238D01*
X468542Y752222D01*
X469558D01*
Y753238D01*
X468542Y754254D01*
X469558Y755270D01*
Y756286D01*
X468542D01*
X467526Y755270D01*
X466510Y756286D01*
X465494D01*
Y755270D01*
X466510Y754254D01*
X465494Y753238D01*
Y752222D01*
X466002Y738506D02*
X467018D01*
X468034Y739522D01*
X469050Y738506D01*
X470066D01*
Y739522D01*
X469050Y740538D01*
X470066Y741554D01*
Y742570D01*
X469050D01*
X468034Y741554D01*
X467018Y742570D01*
X466002D01*
Y741554D01*
X467018Y740538D01*
X466002Y739522D01*
Y738506D01*
X465367Y695961D02*
X466383D01*
X467399Y696977D01*
X468415Y695961D01*
X469431D01*
Y696977D01*
X468415Y697993D01*
X469431Y699009D01*
Y700025D01*
X468415D01*
X467399Y699009D01*
X466383Y700025D01*
X465367D01*
Y699009D01*
X466383Y697993D01*
X465367Y696977D01*
Y695961D01*
X465875Y704343D02*
X466891D01*
X467907Y705359D01*
X468923Y704343D01*
X469939D01*
Y705359D01*
X468923Y706375D01*
X469939Y707391D01*
Y708407D01*
X468923D01*
X467907Y707391D01*
X466891Y708407D01*
X465875D01*
Y707391D01*
X466891Y706375D01*
X465875Y705359D01*
Y704343D01*
X481877Y701803D02*
X482893D01*
X483909Y702819D01*
X484925Y701803D01*
X485941D01*
Y702819D01*
X484925Y703835D01*
X485941Y704851D01*
Y705867D01*
X484925D01*
X483909Y704851D01*
X482893Y705867D01*
X481877D01*
Y704851D01*
X482893Y703835D01*
X481877Y702819D01*
Y701803D01*
X537249Y644399D02*
Y643383D01*
X539281D01*
Y644399D01*
X540297D01*
Y646431D01*
X539281D01*
Y647447D01*
X537249D01*
Y646431D01*
X536233D01*
Y644399D01*
X537249D01*
X531788Y644653D02*
Y643637D01*
X533820D01*
Y644653D01*
X534836D01*
Y646685D01*
X533820D01*
Y647701D01*
X531788D01*
Y646685D01*
X530772D01*
Y644653D01*
X531788D01*
X617640Y633350D02*
Y632334D01*
X619672D01*
Y633350D01*
X620688D01*
Y635382D01*
X619672D01*
Y636398D01*
X617640D01*
Y635382D01*
X616624D01*
Y633350D01*
X617640D01*
X616497Y644272D02*
Y643256D01*
X618529D01*
Y644272D01*
X619545D01*
Y646304D01*
X618529D01*
Y647320D01*
X616497D01*
Y646304D01*
X615481D01*
Y644272D01*
X616497D01*
X613068Y643510D02*
Y642494D01*
X615100D01*
Y643510D01*
X616116D01*
Y645542D01*
X615100D01*
Y646558D01*
X613068D01*
Y645542D01*
X612052D01*
Y643510D01*
X613068D01*
X615354Y641097D02*
Y640081D01*
X617386D01*
Y641097D01*
X618402D01*
Y643129D01*
X617386D01*
Y644145D01*
X615354D01*
Y643129D01*
X614338D01*
Y641097D01*
X615354D01*
X612941Y640081D02*
Y639065D01*
X614973D01*
Y640081D01*
X615989D01*
Y642113D01*
X614973D01*
Y643129D01*
X612941D01*
Y642113D01*
X611925D01*
Y640081D01*
X612941D01*
X616624Y637795D02*
Y636779D01*
X618656D01*
Y637795D01*
X619672D01*
Y639827D01*
X618656D01*
Y640843D01*
X616624D01*
Y639827D01*
X615608D01*
Y637795D01*
X616624D01*
X615481Y635382D02*
Y634366D01*
X617513D01*
Y635382D01*
X618529D01*
Y637414D01*
X617513D01*
Y638430D01*
X615481D01*
Y637414D01*
X614465D01*
Y635382D01*
X615481D01*
X612941Y636017D02*
Y635001D01*
X614973D01*
Y636017D01*
X615989D01*
Y638049D01*
X614973D01*
Y639065D01*
X612941D01*
Y638049D01*
X611925D01*
Y636017D01*
X612941D01*
X700063Y631191D02*
Y630175D01*
X702095D01*
Y631191D01*
X703111D01*
Y633223D01*
X702095D01*
Y634239D01*
X700063D01*
Y633223D01*
X699047D01*
Y631191D01*
X700063D01*
X698158Y632842D02*
Y631826D01*
X700190D01*
Y632842D01*
X701206D01*
Y634874D01*
X700190D01*
Y635890D01*
X698158D01*
Y634874D01*
X697142D01*
Y632842D01*
X698158D01*
X700952Y634366D02*
Y633350D01*
X702984D01*
Y634366D01*
X704000D01*
Y636398D01*
X702984D01*
Y637414D01*
X700952D01*
Y636398D01*
X699936D01*
Y634366D01*
X700952D01*
X701333Y637033D02*
Y636017D01*
X703365D01*
Y637033D01*
X704381D01*
Y639065D01*
X703365D01*
Y640081D01*
X701333D01*
Y639065D01*
X700317D01*
Y637033D01*
X701333D01*
X698285Y639573D02*
Y638557D01*
X700317D01*
Y639573D01*
X701333D01*
Y641605D01*
X700317D01*
Y642621D01*
X698285D01*
Y641605D01*
X697269D01*
Y639573D01*
X698285D01*
X701460Y640081D02*
Y639065D01*
X703492D01*
Y640081D01*
X704508D01*
Y642113D01*
X703492D01*
Y643129D01*
X701460D01*
Y642113D01*
X700444D01*
Y640081D01*
X701460D01*
X700190Y642494D02*
Y641478D01*
X702222D01*
Y642494D01*
X703238D01*
Y644526D01*
X702222D01*
Y645542D01*
X700190D01*
Y644526D01*
X699174D01*
Y642494D01*
X700190D01*
X697396Y642621D02*
Y641605D01*
X699428D01*
Y642621D01*
X700444D01*
Y644653D01*
X699428D01*
Y645669D01*
X697396D01*
Y644653D01*
X696380D01*
Y642621D01*
X697396D01*
X700317Y645288D02*
Y644272D01*
X702349D01*
Y645288D01*
X703365D01*
Y647320D01*
X702349D01*
Y648336D01*
X700317D01*
Y647320D01*
X699301D01*
Y645288D01*
X700317D01*
X697904Y645161D02*
Y644145D01*
X699936D01*
Y645161D01*
X700952D01*
Y647193D01*
X699936D01*
Y648209D01*
X697904D01*
Y647193D01*
X696888D01*
Y645161D01*
X697904D01*
X692697Y841884D02*
Y840868D01*
X694729D01*
Y841884D01*
X695745D01*
Y843916D01*
X694729D01*
Y844932D01*
X692697D01*
Y843916D01*
X691681D01*
Y841884D01*
X692697D01*
X690030Y842900D02*
Y841884D01*
X692062D01*
Y842900D01*
X693078D01*
Y844932D01*
X692062D01*
Y845948D01*
X690030D01*
Y844932D01*
X689014D01*
Y842900D01*
X690030D01*
X687236Y840995D02*
Y839979D01*
X689268D01*
Y840995D01*
X690284D01*
Y843027D01*
X689268D01*
Y844043D01*
X687236D01*
Y843027D01*
X686220D01*
Y840995D01*
X687236D01*
X689649Y840360D02*
Y839344D01*
X691681D01*
Y840360D01*
X692697D01*
Y842392D01*
X691681D01*
Y843408D01*
X689649D01*
Y842392D01*
X688633D01*
Y840360D01*
X689649D01*
X692570Y838455D02*
Y837439D01*
X694602D01*
Y838455D01*
X695618D01*
Y840487D01*
X694602D01*
Y841503D01*
X692570D01*
Y840487D01*
X691554D01*
Y838455D01*
X692570D01*
X691681Y835407D02*
Y834391D01*
X693713D01*
Y835407D01*
X694729D01*
Y837439D01*
X693713D01*
Y838455D01*
X691681D01*
Y837439D01*
X690665D01*
Y835407D01*
X691681D01*
X688506D02*
Y834391D01*
X690538D01*
Y835407D01*
X691554D01*
Y837439D01*
X690538D01*
Y838455D01*
X688506D01*
Y837439D01*
X687490D01*
Y835407D01*
X688506D01*
X686347Y837058D02*
Y836042D01*
X688379D01*
Y837058D01*
X689395D01*
Y839090D01*
X688379D01*
Y840106D01*
X686347D01*
Y839090D01*
X685331D01*
Y837058D01*
X686347D01*
X657899Y795656D02*
Y794640D01*
X659931D01*
Y795656D01*
X660947D01*
Y797688D01*
X659931D01*
Y798704D01*
X657899D01*
Y797688D01*
X656883D01*
Y795656D01*
X657899D01*
X655193Y796870D02*
Y795854D01*
X657225D01*
Y796870D01*
X658241D01*
Y798902D01*
X657225D01*
Y799918D01*
X655193D01*
Y798902D01*
X654177D01*
Y796870D01*
X655193D01*
X656756Y798196D02*
Y797180D01*
X658788D01*
Y798196D01*
X659804D01*
Y800228D01*
X658788D01*
Y801244D01*
X656756D01*
Y800228D01*
X655740D01*
Y798196D01*
X656756D01*
X653581Y799212D02*
Y798196D01*
X655613D01*
Y799212D01*
X656629D01*
Y801244D01*
X655613D01*
Y802260D01*
X653581D01*
Y801244D01*
X652565D01*
Y799212D01*
X653581D01*
X649898Y796799D02*
Y795783D01*
X651930D01*
Y796799D01*
X652946D01*
Y798831D01*
X651930D01*
Y799847D01*
X649898D01*
Y798831D01*
X648882D01*
Y796799D01*
X649898D01*
X630467Y799085D02*
Y798069D01*
X632499D01*
Y799085D01*
X633515D01*
Y801117D01*
X632499D01*
Y802133D01*
X630467D01*
Y801117D01*
X629451D01*
Y799085D01*
X630467D01*
X626403Y798831D02*
Y797815D01*
X628435D01*
Y798831D01*
X629451D01*
Y800863D01*
X628435D01*
Y801879D01*
X626403D01*
Y800863D01*
X625387D01*
Y798831D01*
X626403D01*
X624879Y796037D02*
Y795021D01*
X626911D01*
Y796037D01*
X627927D01*
Y798069D01*
X626911D01*
Y799085D01*
X624879D01*
Y798069D01*
X623863D01*
Y796037D01*
X624879D01*
X637706Y796291D02*
Y795275D01*
X639738D01*
Y796291D01*
X640754D01*
Y798323D01*
X639738D01*
Y799339D01*
X637706D01*
Y798323D01*
X636690D01*
Y796291D01*
X637706D01*
X632499Y796418D02*
Y795402D01*
X634531D01*
Y796418D01*
X635547D01*
Y798450D01*
X634531D01*
Y799466D01*
X632499D01*
Y798450D01*
X631483D01*
Y796418D01*
X632499D01*
X635039Y796164D02*
Y795148D01*
X637071D01*
Y796164D01*
X638087D01*
Y798196D01*
X637071D01*
Y799212D01*
X635039D01*
Y798196D01*
X634023D01*
Y796164D01*
X635039D01*
X588938Y689992D02*
Y688976D01*
X590970D01*
Y689992D01*
X591986D01*
Y692024D01*
X590970D01*
Y693040D01*
X588938D01*
Y692024D01*
X587922D01*
Y689992D01*
X588938D01*
X683934Y738760D02*
Y737744D01*
X685966D01*
Y738760D01*
X686982D01*
Y740792D01*
X685966D01*
Y741808D01*
X683934D01*
Y740792D01*
X682918D01*
Y738760D01*
X683934D01*
X659809Y710332D02*
Y709316D01*
X661841D01*
Y710332D01*
X662857D01*
Y712364D01*
X661841D01*
Y713380D01*
X659809D01*
Y712364D01*
X658793D01*
Y710332D01*
X659809D01*
X581191Y611506D02*
Y610490D01*
X583223D01*
Y611506D01*
X584239D01*
Y613538D01*
X583223D01*
Y614554D01*
X581191D01*
Y613538D01*
X580175D01*
Y611506D01*
X581191D01*
X558871Y610268D02*
Y609252D01*
X560903D01*
Y610268D01*
X561919D01*
Y612300D01*
X560903D01*
Y613316D01*
X558871D01*
Y612300D01*
X557855D01*
Y610268D01*
X558871D01*
X623482Y693929D02*
Y692913D01*
X625514D01*
Y693929D01*
X626530D01*
Y695961D01*
X625514D01*
Y696977D01*
X623482D01*
Y695961D01*
X622466D01*
Y693929D01*
X623482D01*
X620942Y697715D02*
Y696699D01*
X622974D01*
Y697715D01*
X623990D01*
Y699747D01*
X622974D01*
Y700763D01*
X620942D01*
Y699747D01*
X619926D01*
Y697715D01*
X620942D01*
X618910Y692405D02*
Y691389D01*
X620942D01*
Y692405D01*
X621958D01*
Y694437D01*
X620942D01*
Y695453D01*
X618910D01*
Y694437D01*
X617894D01*
Y692405D01*
X618910D01*
X590848Y735478D02*
Y734462D01*
X592880D01*
Y735478D01*
X593896D01*
Y737510D01*
X592880D01*
Y738526D01*
X590848D01*
Y737510D01*
X589832D01*
Y735478D01*
X590848D01*
X669456Y722504D02*
Y721488D01*
X671488D01*
Y722504D01*
X672504D01*
Y724536D01*
X671488D01*
Y725552D01*
X669456D01*
Y724536D01*
X668440D01*
Y722504D01*
X669456D01*
X668567Y713106D02*
Y712090D01*
X670599D01*
Y713106D01*
X671615D01*
Y715138D01*
X670599D01*
Y716154D01*
X668567D01*
Y715138D01*
X667551D01*
Y713106D01*
X668567D01*
X698539Y636144D02*
Y635128D01*
X700571D01*
Y636144D01*
X701587D01*
Y638176D01*
X700571D01*
Y639192D01*
X698539D01*
Y638176D01*
X697523D01*
Y636144D01*
X698539D01*
X590721Y743987D02*
Y742971D01*
X592753D01*
Y743987D01*
X593769D01*
Y746019D01*
X592753D01*
Y747035D01*
X590721D01*
Y746019D01*
X589705D01*
Y743987D01*
X590721D01*
X669588Y688869D02*
Y687853D01*
X671620D01*
Y688869D01*
X672636D01*
Y690901D01*
X671620D01*
Y691917D01*
X669588D01*
Y690901D01*
X668572D01*
Y688869D01*
X669588D01*
X641008Y704089D02*
Y703073D01*
X643040D01*
Y704089D01*
X644056D01*
Y706121D01*
X643040D01*
Y707137D01*
X641008D01*
Y706121D01*
X639992D01*
Y704089D01*
X641008D01*
X646728Y711856D02*
Y710840D01*
X648760D01*
Y711856D01*
X649776D01*
Y713888D01*
X648760D01*
Y714904D01*
X646728D01*
Y713888D01*
X645712D01*
Y711856D01*
X646728D01*
X689273Y837713D02*
Y836697D01*
X691305D01*
Y837713D01*
X692321D01*
Y839745D01*
X691305D01*
Y840761D01*
X689273D01*
Y839745D01*
X688257D01*
Y837713D01*
X689273D01*
X672001Y745638D02*
Y744622D01*
X674033D01*
Y745638D01*
X675049D01*
Y747670D01*
X674033D01*
Y748686D01*
X672001D01*
Y747670D01*
X670985D01*
Y745638D01*
X672001D01*
X613957Y632461D02*
Y631445D01*
X615989D01*
Y632461D01*
X617005D01*
Y634493D01*
X615989D01*
Y635509D01*
X613957D01*
Y634493D01*
X612941D01*
Y632461D01*
X613957D01*
X637089Y646540D02*
Y645524D01*
X639121D01*
Y646540D01*
X640137D01*
Y648572D01*
X639121D01*
Y649588D01*
X637089D01*
Y648572D01*
X636073D01*
Y646540D01*
X637089D01*
X534709Y644145D02*
Y643129D01*
X536741D01*
Y644145D01*
X537757D01*
Y646177D01*
X536741D01*
Y647193D01*
X534709D01*
Y646177D01*
X533693D01*
Y644145D01*
X534709D01*
X676060Y732410D02*
Y731394D01*
X678092D01*
Y732410D01*
X679108D01*
Y734442D01*
X678092D01*
Y735458D01*
X676060D01*
Y734442D01*
X675044D01*
Y732410D01*
X676060D01*
X653073Y796926D02*
Y795910D01*
X655105D01*
Y796926D01*
X656121D01*
Y798958D01*
X655105D01*
Y799974D01*
X653073D01*
Y798958D01*
X652057D01*
Y796926D01*
X653073D01*
X780454Y686944D02*
Y685928D01*
X782486D01*
Y686944D01*
X783502D01*
Y688976D01*
X782486D01*
Y689992D01*
X780454D01*
Y688976D01*
X779438D01*
Y686944D01*
X780454D01*
X628884Y796282D02*
Y795266D01*
X630915D01*
Y796282D01*
X631931D01*
Y798314D01*
X630915D01*
Y799330D01*
X628884D01*
Y798314D01*
X627868D01*
Y796282D01*
X628884D01*
D82*
X331216Y469646D02*
G03*
X331216Y469646I-2032J0D01*
G01*
X115951D02*
G03*
X115951Y469646I-2032J0D01*
G01*
X781216D02*
G03*
X781216Y469646I-2032J0D01*
G01*
X565951D02*
G03*
X565951Y469646I-2032J0D01*
G01*
X331216Y969646D02*
G03*
X331216Y969646I-2032J0D01*
G01*
X115951D02*
G03*
X115951Y969646I-2032J0D01*
G01*
X781216D02*
G03*
X781216Y969646I-2032J0D01*
G01*
X565951D02*
G03*
X565951Y969646I-2032J0D01*
G01*
M02*
