G04*
G04 #@! TF.GenerationSoftware,Altium Limited,Altium Designer,20.2.3 (150)*
G04*
G04 Layer_Color=32896*
%FSLAX44Y44*%
%MOMM*%
G71*
G04*
G04 #@! TF.SameCoordinates,C1CC25AD-0FF3-43E4-BDA3-AC1D03E08D52*
G04*
G04*
G04 #@! TF.FilePolarity,Positive*
G04*
G01*
G75*
%ADD31C,0.2540*%
%ADD39C,0.2540*%
D31*
X256413Y457526D02*
Y477520D01*
X266410D01*
X269742Y474188D01*
Y470855D01*
X266410Y467523D01*
X256413D01*
X266410D01*
X269742Y464191D01*
Y460859D01*
X266410Y457526D01*
X256413D01*
X276407Y467523D02*
X289736D01*
X158750Y457526D02*
Y477520D01*
X168747D01*
X172079Y474188D01*
Y470855D01*
X168747Y467523D01*
X158750D01*
X168747D01*
X172079Y464191D01*
Y460859D01*
X168747Y457526D01*
X158750D01*
X178744Y467523D02*
X192073D01*
X185408Y460859D02*
Y474188D01*
X344438Y310540D02*
Y295545D01*
X336940Y303042D01*
X346937D01*
X351935Y310540D02*
Y308041D01*
X354434D01*
Y310540D01*
X351935D01*
X374428D02*
X364431D01*
X374428Y300543D01*
Y298044D01*
X371929Y295545D01*
X366930D01*
X364431Y298044D01*
X379426Y295545D02*
Y305542D01*
X384425Y310540D01*
X389423Y305542D01*
Y295545D01*
X260568Y257293D02*
X253070D01*
X250571Y259792D01*
Y264790D01*
X253070Y267290D01*
X260568D01*
X265566Y252295D02*
Y267290D01*
Y259792D01*
X268065Y257293D01*
X273064D01*
X275563Y259792D01*
Y267290D01*
X283060Y257293D02*
X288059D01*
X290558Y259792D01*
Y267290D01*
X283060D01*
X280561Y264790D01*
X283060Y262291D01*
X290558D01*
X295556Y257293D02*
Y267290D01*
Y262291D01*
X298056Y259792D01*
X300555Y257293D01*
X303054D01*
X315550Y272288D02*
X318049D01*
X320548Y269789D01*
Y257293D01*
X313051D01*
X310552Y259792D01*
Y264790D01*
X313051Y267290D01*
X320548D01*
X333044D02*
X328046D01*
X325547Y264790D01*
Y259792D01*
X328046Y257293D01*
X333044D01*
X335544Y259792D01*
Y262291D01*
X325547D01*
X340542Y269789D02*
X350539D01*
X355537Y267290D02*
Y257293D01*
X358036D01*
X360535Y259792D01*
Y267290D01*
Y259792D01*
X363035Y257293D01*
X365534Y259792D01*
Y267290D01*
X373031D02*
X378030D01*
X380529Y264790D01*
Y259792D01*
X378030Y257293D01*
X373031D01*
X370532Y259792D01*
Y264790D01*
X373031Y267290D01*
X395524Y252295D02*
Y267290D01*
X388027D01*
X385527Y264790D01*
Y259792D01*
X388027Y257293D01*
X395524D01*
X400522D02*
Y264790D01*
X403022Y267290D01*
X410519D01*
Y257293D01*
X415518Y267290D02*
X420516D01*
X418017D01*
Y252295D01*
X415518D01*
X435511Y267290D02*
X430513D01*
X428013Y264790D01*
Y259792D01*
X430513Y257293D01*
X435511D01*
X438010Y259792D01*
Y262291D01*
X428013D01*
X274955Y346147D02*
Y361143D01*
Y353645D01*
X277454Y351146D01*
X282453D01*
X284952Y353645D01*
Y361143D01*
X297448D02*
X292449D01*
X289950Y358643D01*
Y353645D01*
X292449Y351146D01*
X297448D01*
X299947Y353645D01*
Y356144D01*
X289950D01*
X304945Y361143D02*
X309944D01*
X307444D01*
Y346147D01*
X304945D01*
X317441Y361143D02*
X322440D01*
X319940D01*
Y346147D01*
X317441D01*
X332436Y361143D02*
X337435D01*
X339934Y358643D01*
Y353645D01*
X337435Y351146D01*
X332436D01*
X329937Y353645D01*
Y358643D01*
X332436Y361143D01*
X347431Y363642D02*
X349931Y361143D01*
Y358643D01*
X347431D01*
Y361143D01*
X349931D01*
X347431Y363642D01*
X344932Y366141D01*
X359927Y351146D02*
Y358643D01*
X362427Y361143D01*
X364926Y358643D01*
X367425Y361143D01*
X369924Y358643D01*
Y351146D01*
X377422Y361143D02*
X382420D01*
X384919Y358643D01*
Y353645D01*
X382420Y351146D01*
X377422D01*
X374923Y353645D01*
Y358643D01*
X377422Y361143D01*
X389918Y351146D02*
Y361143D01*
Y356144D01*
X392417Y353645D01*
X394916Y351146D01*
X397415D01*
X404913Y361143D02*
X409911D01*
X407412D01*
Y346147D01*
X404913D01*
X427406D02*
Y361143D01*
X419908D01*
X417409Y358643D01*
Y353645D01*
X419908Y351146D01*
X427406D01*
X432404Y356144D02*
Y343648D01*
Y358643D02*
Y361143D01*
X301081Y401320D02*
X291084D01*
X301081Y391323D01*
Y388824D01*
X298582Y386325D01*
X293583D01*
X291084Y388824D01*
X306079D02*
X308578Y386325D01*
X313577D01*
X316076Y388824D01*
Y398821D01*
X313577Y401320D01*
X308578D01*
X306079Y398821D01*
Y388824D01*
X331071Y401320D02*
X321074D01*
X331071Y391323D01*
Y388824D01*
X328572Y386325D01*
X323573D01*
X321074Y388824D01*
X336069Y401320D02*
X341068D01*
X338569D01*
Y386325D01*
X336069Y388824D01*
X348565Y401320D02*
Y398821D01*
X351065D01*
Y401320D01*
X348565D01*
X361061D02*
X366060D01*
X363560D01*
Y386325D01*
X361061Y388824D01*
X373557D02*
X376057Y386325D01*
X381055D01*
X383554Y388824D01*
Y398821D01*
X381055Y401320D01*
X376057D01*
X373557Y398821D01*
Y388824D01*
X388553Y401320D02*
Y398821D01*
X391052D01*
Y401320D01*
X388553D01*
X401048D02*
X406047D01*
X403548D01*
Y386325D01*
X401048Y388824D01*
X413544Y401320D02*
X418543D01*
X416044D01*
Y386325D01*
X413544Y388824D01*
X265176Y417059D02*
X275173D01*
Y419558D01*
X265176Y429555D01*
Y432054D01*
X275173D01*
X290168Y419558D02*
X287669Y417059D01*
X282670D01*
X280171Y419558D01*
Y429555D01*
X282670Y432054D01*
X287669D01*
X290168Y429555D01*
X305163Y417059D02*
X300165D01*
X302664D01*
Y429555D01*
X300165Y432054D01*
X297666D01*
X295166Y429555D01*
X335153Y432054D02*
X332654Y429555D01*
X330155Y432054D01*
X327656D01*
X325157Y429555D01*
Y427056D01*
X327656Y424556D01*
X325157Y422057D01*
Y419558D01*
X327656Y417059D01*
X330155D01*
X332654Y419558D01*
Y422057D01*
X330155Y424556D01*
X332654Y427056D01*
Y429555D01*
X335153Y424556D02*
X332654Y427056D01*
X327656Y424556D02*
X330155D01*
X350149Y432054D02*
X347649Y429555D01*
X345150Y432054D01*
X342651D01*
X340152Y429555D01*
Y427056D01*
X342651Y424556D01*
X340152Y422057D01*
Y419558D01*
X342651Y417059D01*
X345150D01*
X347649Y419558D01*
Y422057D01*
X345150Y424556D01*
X347649Y427056D01*
Y429555D01*
X350149Y424556D02*
X347649Y427056D01*
X342651Y424556D02*
X345150D01*
X380139Y417059D02*
X375140D01*
X377640D01*
Y429555D01*
X375140Y432054D01*
X372641D01*
X370142Y429555D01*
X385137Y417059D02*
Y429555D01*
X387636Y432054D01*
X392635D01*
X395134Y429555D01*
Y417059D01*
X410129D02*
X405131D01*
X407630D01*
Y429555D01*
X405131Y432054D01*
X402631D01*
X400132Y429555D01*
X415127Y417059D02*
Y429555D01*
X417627Y432054D01*
X422625D01*
X425124Y429555D01*
Y417059D01*
X706413Y457526D02*
Y477520D01*
X716410D01*
X719742Y474188D01*
Y470855D01*
X716410Y467523D01*
X706413D01*
X716410D01*
X719742Y464191D01*
Y460859D01*
X716410Y457526D01*
X706413D01*
X726406Y467523D02*
X739736D01*
X608750Y457526D02*
Y477520D01*
X618747D01*
X622079Y474188D01*
Y470855D01*
X618747Y467523D01*
X608750D01*
X618747D01*
X622079Y464191D01*
Y460859D01*
X618747Y457526D01*
X608750D01*
X628744Y467523D02*
X642073D01*
X635408Y460859D02*
Y474188D01*
X794438Y310540D02*
Y295545D01*
X786940Y303042D01*
X796937D01*
X801935Y310540D02*
Y308041D01*
X804434D01*
Y310540D01*
X801935D01*
X824428D02*
X814431D01*
X824428Y300543D01*
Y298044D01*
X821929Y295545D01*
X816930D01*
X814431Y298044D01*
X829426Y295545D02*
Y305542D01*
X834425Y310540D01*
X839423Y305542D01*
Y295545D01*
X710568Y257293D02*
X703070D01*
X700571Y259792D01*
Y264790D01*
X703070Y267290D01*
X710568D01*
X715566Y252295D02*
Y267290D01*
Y259792D01*
X718065Y257293D01*
X723064D01*
X725563Y259792D01*
Y267290D01*
X733061Y257293D02*
X738059D01*
X740558Y259792D01*
Y267290D01*
X733061D01*
X730561Y264790D01*
X733061Y262291D01*
X740558D01*
X745556Y257293D02*
Y267290D01*
Y262291D01*
X748056Y259792D01*
X750555Y257293D01*
X753054D01*
X765550Y272288D02*
X768049D01*
X770548Y269789D01*
Y257293D01*
X763051D01*
X760552Y259792D01*
Y264790D01*
X763051Y267290D01*
X770548D01*
X783044D02*
X778046D01*
X775547Y264790D01*
Y259792D01*
X778046Y257293D01*
X783044D01*
X785544Y259792D01*
Y262291D01*
X775547D01*
X790542Y269789D02*
X800539D01*
X805537Y267290D02*
Y257293D01*
X808036D01*
X810535Y259792D01*
Y267290D01*
Y259792D01*
X813035Y257293D01*
X815534Y259792D01*
Y267290D01*
X823031D02*
X828030D01*
X830529Y264790D01*
Y259792D01*
X828030Y257293D01*
X823031D01*
X820532Y259792D01*
Y264790D01*
X823031Y267290D01*
X845524Y252295D02*
Y267290D01*
X838027D01*
X835527Y264790D01*
Y259792D01*
X838027Y257293D01*
X845524D01*
X850522D02*
Y264790D01*
X853022Y267290D01*
X860519D01*
Y257293D01*
X865518Y267290D02*
X870516D01*
X868017D01*
Y252295D01*
X865518D01*
X885511Y267290D02*
X880513D01*
X878014Y264790D01*
Y259792D01*
X880513Y257293D01*
X885511D01*
X888010Y259792D01*
Y262291D01*
X878014D01*
X724955Y346147D02*
Y361143D01*
Y353645D01*
X727454Y351146D01*
X732453D01*
X734952Y353645D01*
Y361143D01*
X747448D02*
X742449D01*
X739950Y358643D01*
Y353645D01*
X742449Y351146D01*
X747448D01*
X749947Y353645D01*
Y356144D01*
X739950D01*
X754945Y361143D02*
X759944D01*
X757445D01*
Y346147D01*
X754945D01*
X767441Y361143D02*
X772440D01*
X769940D01*
Y346147D01*
X767441D01*
X782436Y361143D02*
X787435D01*
X789934Y358643D01*
Y353645D01*
X787435Y351146D01*
X782436D01*
X779937Y353645D01*
Y358643D01*
X782436Y361143D01*
X797431Y363642D02*
X799931Y361143D01*
Y358643D01*
X797431D01*
Y361143D01*
X799931D01*
X797431Y363642D01*
X794932Y366141D01*
X809928Y351146D02*
Y358643D01*
X812427Y361143D01*
X814926Y358643D01*
X817425Y361143D01*
X819924Y358643D01*
Y351146D01*
X827422Y361143D02*
X832420D01*
X834919Y358643D01*
Y353645D01*
X832420Y351146D01*
X827422D01*
X824923Y353645D01*
Y358643D01*
X827422Y361143D01*
X839918Y351146D02*
Y361143D01*
Y356144D01*
X842417Y353645D01*
X844916Y351146D01*
X847415D01*
X854913Y361143D02*
X859911D01*
X857412D01*
Y346147D01*
X854913D01*
X877406D02*
Y361143D01*
X869908D01*
X867409Y358643D01*
Y353645D01*
X869908Y351146D01*
X877406D01*
X882404Y356144D02*
Y343648D01*
Y358643D02*
Y361143D01*
X751081Y401320D02*
X741084D01*
X751081Y391323D01*
Y388824D01*
X748582Y386325D01*
X743583D01*
X741084Y388824D01*
X756079D02*
X758578Y386325D01*
X763577D01*
X766076Y388824D01*
Y398821D01*
X763577Y401320D01*
X758578D01*
X756079Y398821D01*
Y388824D01*
X781071Y401320D02*
X771074D01*
X781071Y391323D01*
Y388824D01*
X778572Y386325D01*
X773574D01*
X771074Y388824D01*
X786069Y401320D02*
X791068D01*
X788569D01*
Y386325D01*
X786069Y388824D01*
X798565Y401320D02*
Y398821D01*
X801065D01*
Y401320D01*
X798565D01*
X811061D02*
X816060D01*
X813560D01*
Y386325D01*
X811061Y388824D01*
X823557D02*
X826057Y386325D01*
X831055D01*
X833554Y388824D01*
Y398821D01*
X831055Y401320D01*
X826057D01*
X823557Y398821D01*
Y388824D01*
X838552Y401320D02*
Y398821D01*
X841052D01*
Y401320D01*
X838552D01*
X851048D02*
X856047D01*
X853548D01*
Y386325D01*
X851048Y388824D01*
X863544Y401320D02*
X868543D01*
X866044D01*
Y386325D01*
X863544Y388824D01*
X715176Y417059D02*
X725173D01*
Y419558D01*
X715176Y429555D01*
Y432054D01*
X725173D01*
X740168Y419558D02*
X737669Y417059D01*
X732670D01*
X730171Y419558D01*
Y429555D01*
X732670Y432054D01*
X737669D01*
X740168Y429555D01*
X755163Y417059D02*
X750165D01*
X752664D01*
Y429555D01*
X750165Y432054D01*
X747665D01*
X745166Y429555D01*
X785153Y432054D02*
X782654Y429555D01*
X780155Y432054D01*
X777656D01*
X775157Y429555D01*
Y427056D01*
X777656Y424556D01*
X775157Y422057D01*
Y419558D01*
X777656Y417059D01*
X780155D01*
X782654Y419558D01*
Y422057D01*
X780155Y424556D01*
X782654Y427056D01*
Y429555D01*
X785153Y424556D02*
X782654Y427056D01*
X777656Y424556D02*
X780155D01*
X800148Y432054D02*
X797649Y429555D01*
X795150Y432054D01*
X792651D01*
X790152Y429555D01*
Y427056D01*
X792651Y424556D01*
X790152Y422057D01*
Y419558D01*
X792651Y417059D01*
X795150D01*
X797649Y419558D01*
Y422057D01*
X795150Y424556D01*
X797649Y427056D01*
Y429555D01*
X800148Y424556D02*
X797649Y427056D01*
X792651Y424556D02*
X795150D01*
X830139Y417059D02*
X825140D01*
X827640D01*
Y429555D01*
X825140Y432054D01*
X822641D01*
X820142Y429555D01*
X835137Y417059D02*
Y429555D01*
X837636Y432054D01*
X842635D01*
X845134Y429555D01*
Y417059D01*
X860129D02*
X855131D01*
X857630D01*
Y429555D01*
X855131Y432054D01*
X852632D01*
X850132Y429555D01*
X865127Y417059D02*
Y429555D01*
X867627Y432054D01*
X872625D01*
X875124Y429555D01*
Y417059D01*
X256413Y957526D02*
Y977520D01*
X266410D01*
X269742Y974188D01*
Y970855D01*
X266410Y967523D01*
X256413D01*
X266410D01*
X269742Y964191D01*
Y960859D01*
X266410Y957526D01*
X256413D01*
X276407Y967523D02*
X289736D01*
X158750Y957526D02*
Y977520D01*
X168747D01*
X172079Y974188D01*
Y970855D01*
X168747Y967523D01*
X158750D01*
X168747D01*
X172079Y964191D01*
Y960859D01*
X168747Y957526D01*
X158750D01*
X178744Y967523D02*
X192073D01*
X185408Y960859D02*
Y974188D01*
X344438Y810540D02*
Y795545D01*
X336940Y803042D01*
X346937D01*
X351935Y810540D02*
Y808041D01*
X354434D01*
Y810540D01*
X351935D01*
X374428D02*
X364431D01*
X374428Y800543D01*
Y798044D01*
X371929Y795545D01*
X366930D01*
X364431Y798044D01*
X379426Y795545D02*
Y805542D01*
X384425Y810540D01*
X389423Y805542D01*
Y795545D01*
X260568Y757293D02*
X253070D01*
X250571Y759792D01*
Y764790D01*
X253070Y767290D01*
X260568D01*
X265566Y752294D02*
Y767290D01*
Y759792D01*
X268065Y757293D01*
X273064D01*
X275563Y759792D01*
Y767290D01*
X283060Y757293D02*
X288059D01*
X290558Y759792D01*
Y767290D01*
X283060D01*
X280561Y764790D01*
X283060Y762291D01*
X290558D01*
X295556Y757293D02*
Y767290D01*
Y762291D01*
X298056Y759792D01*
X300555Y757293D01*
X303054D01*
X315550Y772288D02*
X318049D01*
X320548Y769789D01*
Y757293D01*
X313051D01*
X310552Y759792D01*
Y764790D01*
X313051Y767290D01*
X320548D01*
X333044D02*
X328046D01*
X325547Y764790D01*
Y759792D01*
X328046Y757293D01*
X333044D01*
X335544Y759792D01*
Y762291D01*
X325547D01*
X340542Y769789D02*
X350539D01*
X355537Y767290D02*
Y757293D01*
X358036D01*
X360535Y759792D01*
Y767290D01*
Y759792D01*
X363035Y757293D01*
X365534Y759792D01*
Y767290D01*
X373031D02*
X378030D01*
X380529Y764790D01*
Y759792D01*
X378030Y757293D01*
X373031D01*
X370532Y759792D01*
Y764790D01*
X373031Y767290D01*
X395524Y752294D02*
Y767290D01*
X388027D01*
X385527Y764790D01*
Y759792D01*
X388027Y757293D01*
X395524D01*
X400522D02*
Y764790D01*
X403022Y767290D01*
X410519D01*
Y757293D01*
X415518Y767290D02*
X420516D01*
X418017D01*
Y752294D01*
X415518D01*
X435511Y767290D02*
X430513D01*
X428013Y764790D01*
Y759792D01*
X430513Y757293D01*
X435511D01*
X438010Y759792D01*
Y762291D01*
X428013D01*
X274955Y846148D02*
Y861143D01*
Y853645D01*
X277454Y851146D01*
X282453D01*
X284952Y853645D01*
Y861143D01*
X297448D02*
X292449D01*
X289950Y858643D01*
Y853645D01*
X292449Y851146D01*
X297448D01*
X299947Y853645D01*
Y856144D01*
X289950D01*
X304945Y861143D02*
X309944D01*
X307444D01*
Y846148D01*
X304945D01*
X317441Y861143D02*
X322440D01*
X319940D01*
Y846148D01*
X317441D01*
X332436Y861143D02*
X337435D01*
X339934Y858643D01*
Y853645D01*
X337435Y851146D01*
X332436D01*
X329937Y853645D01*
Y858643D01*
X332436Y861143D01*
X347431Y863642D02*
X349931Y861143D01*
Y858643D01*
X347431D01*
Y861143D01*
X349931D01*
X347431Y863642D01*
X344932Y866141D01*
X359927Y851146D02*
Y858643D01*
X362427Y861143D01*
X364926Y858643D01*
X367425Y861143D01*
X369924Y858643D01*
Y851146D01*
X377422Y861143D02*
X382420D01*
X384919Y858643D01*
Y853645D01*
X382420Y851146D01*
X377422D01*
X374923Y853645D01*
Y858643D01*
X377422Y861143D01*
X389918Y851146D02*
Y861143D01*
Y856144D01*
X392417Y853645D01*
X394916Y851146D01*
X397415D01*
X404913Y861143D02*
X409911D01*
X407412D01*
Y846148D01*
X404913D01*
X427406D02*
Y861143D01*
X419908D01*
X417409Y858643D01*
Y853645D01*
X419908Y851146D01*
X427406D01*
X432404Y856144D02*
Y843648D01*
Y858643D02*
Y861143D01*
X301081Y901320D02*
X291084D01*
X301081Y891323D01*
Y888824D01*
X298582Y886325D01*
X293583D01*
X291084Y888824D01*
X306079D02*
X308578Y886325D01*
X313577D01*
X316076Y888824D01*
Y898821D01*
X313577Y901320D01*
X308578D01*
X306079Y898821D01*
Y888824D01*
X331071Y901320D02*
X321074D01*
X331071Y891323D01*
Y888824D01*
X328572Y886325D01*
X323573D01*
X321074Y888824D01*
X336069Y901320D02*
X341068D01*
X338569D01*
Y886325D01*
X336069Y888824D01*
X348565Y901320D02*
Y898821D01*
X351065D01*
Y901320D01*
X348565D01*
X361061D02*
X366060D01*
X363560D01*
Y886325D01*
X361061Y888824D01*
X373557D02*
X376057Y886325D01*
X381055D01*
X383554Y888824D01*
Y898821D01*
X381055Y901320D01*
X376057D01*
X373557Y898821D01*
Y888824D01*
X388553Y901320D02*
Y898821D01*
X391052D01*
Y901320D01*
X388553D01*
X401048D02*
X406047D01*
X403548D01*
Y886325D01*
X401048Y888824D01*
X413544Y901320D02*
X418543D01*
X416044D01*
Y886325D01*
X413544Y888824D01*
X265176Y917059D02*
X275173D01*
Y919558D01*
X265176Y929555D01*
Y932054D01*
X275173D01*
X290168Y919558D02*
X287669Y917059D01*
X282670D01*
X280171Y919558D01*
Y929555D01*
X282670Y932054D01*
X287669D01*
X290168Y929555D01*
X305163Y917059D02*
X300165D01*
X302664D01*
Y929555D01*
X300165Y932054D01*
X297666D01*
X295166Y929555D01*
X335153Y932054D02*
X332654Y929555D01*
X330155Y932054D01*
X327656D01*
X325157Y929555D01*
Y927056D01*
X327656Y924556D01*
X325157Y922057D01*
Y919558D01*
X327656Y917059D01*
X330155D01*
X332654Y919558D01*
Y922057D01*
X330155Y924556D01*
X332654Y927056D01*
Y929555D01*
X335153Y924556D02*
X332654Y927056D01*
X327656Y924556D02*
X330155D01*
X350149Y932054D02*
X347649Y929555D01*
X345150Y932054D01*
X342651D01*
X340152Y929555D01*
Y927056D01*
X342651Y924556D01*
X340152Y922057D01*
Y919558D01*
X342651Y917059D01*
X345150D01*
X347649Y919558D01*
Y922057D01*
X345150Y924556D01*
X347649Y927056D01*
Y929555D01*
X350149Y924556D02*
X347649Y927056D01*
X342651Y924556D02*
X345150D01*
X380139Y917059D02*
X375140D01*
X377640D01*
Y929555D01*
X375140Y932054D01*
X372641D01*
X370142Y929555D01*
X385137Y917059D02*
Y929555D01*
X387636Y932054D01*
X392635D01*
X395134Y929555D01*
Y917059D01*
X410129D02*
X405131D01*
X407630D01*
Y929555D01*
X405131Y932054D01*
X402631D01*
X400132Y929555D01*
X415127Y917059D02*
Y929555D01*
X417627Y932054D01*
X422625D01*
X425124Y929555D01*
Y917059D01*
X706413Y957526D02*
Y977520D01*
X716410D01*
X719742Y974188D01*
Y970855D01*
X716410Y967523D01*
X706413D01*
X716410D01*
X719742Y964191D01*
Y960859D01*
X716410Y957526D01*
X706413D01*
X726406Y967523D02*
X739736D01*
X608750Y957526D02*
Y977520D01*
X618747D01*
X622079Y974188D01*
Y970855D01*
X618747Y967523D01*
X608750D01*
X618747D01*
X622079Y964191D01*
Y960859D01*
X618747Y957526D01*
X608750D01*
X628744Y967523D02*
X642073D01*
X635408Y960859D02*
Y974188D01*
X794438Y810540D02*
Y795545D01*
X786940Y803042D01*
X796937D01*
X801935Y810540D02*
Y808041D01*
X804434D01*
Y810540D01*
X801935D01*
X824428D02*
X814431D01*
X824428Y800543D01*
Y798044D01*
X821929Y795545D01*
X816930D01*
X814431Y798044D01*
X829426Y795545D02*
Y805542D01*
X834425Y810540D01*
X839423Y805542D01*
Y795545D01*
X710568Y757293D02*
X703070D01*
X700571Y759792D01*
Y764790D01*
X703070Y767290D01*
X710568D01*
X715566Y752294D02*
Y767290D01*
Y759792D01*
X718065Y757293D01*
X723064D01*
X725563Y759792D01*
Y767290D01*
X733061Y757293D02*
X738059D01*
X740558Y759792D01*
Y767290D01*
X733061D01*
X730561Y764790D01*
X733061Y762291D01*
X740558D01*
X745556Y757293D02*
Y767290D01*
Y762291D01*
X748056Y759792D01*
X750555Y757293D01*
X753054D01*
X765550Y772288D02*
X768049D01*
X770548Y769789D01*
Y757293D01*
X763051D01*
X760552Y759792D01*
Y764790D01*
X763051Y767290D01*
X770548D01*
X783044D02*
X778046D01*
X775547Y764790D01*
Y759792D01*
X778046Y757293D01*
X783044D01*
X785544Y759792D01*
Y762291D01*
X775547D01*
X790542Y769789D02*
X800539D01*
X805537Y767290D02*
Y757293D01*
X808036D01*
X810535Y759792D01*
Y767290D01*
Y759792D01*
X813035Y757293D01*
X815534Y759792D01*
Y767290D01*
X823031D02*
X828030D01*
X830529Y764790D01*
Y759792D01*
X828030Y757293D01*
X823031D01*
X820532Y759792D01*
Y764790D01*
X823031Y767290D01*
X845524Y752294D02*
Y767290D01*
X838027D01*
X835527Y764790D01*
Y759792D01*
X838027Y757293D01*
X845524D01*
X850522D02*
Y764790D01*
X853022Y767290D01*
X860519D01*
Y757293D01*
X865518Y767290D02*
X870516D01*
X868017D01*
Y752294D01*
X865518D01*
X885511Y767290D02*
X880513D01*
X878014Y764790D01*
Y759792D01*
X880513Y757293D01*
X885511D01*
X888010Y759792D01*
Y762291D01*
X878014D01*
X724955Y846148D02*
Y861143D01*
Y853645D01*
X727454Y851146D01*
X732453D01*
X734952Y853645D01*
Y861143D01*
X747448D02*
X742449D01*
X739950Y858643D01*
Y853645D01*
X742449Y851146D01*
X747448D01*
X749947Y853645D01*
Y856144D01*
X739950D01*
X754945Y861143D02*
X759944D01*
X757445D01*
Y846148D01*
X754945D01*
X767441Y861143D02*
X772440D01*
X769940D01*
Y846148D01*
X767441D01*
X782436Y861143D02*
X787435D01*
X789934Y858643D01*
Y853645D01*
X787435Y851146D01*
X782436D01*
X779937Y853645D01*
Y858643D01*
X782436Y861143D01*
X797431Y863642D02*
X799931Y861143D01*
Y858643D01*
X797431D01*
Y861143D01*
X799931D01*
X797431Y863642D01*
X794932Y866141D01*
X809928Y851146D02*
Y858643D01*
X812427Y861143D01*
X814926Y858643D01*
X817425Y861143D01*
X819924Y858643D01*
Y851146D01*
X827422Y861143D02*
X832420D01*
X834919Y858643D01*
Y853645D01*
X832420Y851146D01*
X827422D01*
X824923Y853645D01*
Y858643D01*
X827422Y861143D01*
X839918Y851146D02*
Y861143D01*
Y856144D01*
X842417Y853645D01*
X844916Y851146D01*
X847415D01*
X854913Y861143D02*
X859911D01*
X857412D01*
Y846148D01*
X854913D01*
X877406D02*
Y861143D01*
X869908D01*
X867409Y858643D01*
Y853645D01*
X869908Y851146D01*
X877406D01*
X882404Y856144D02*
Y843648D01*
Y858643D02*
Y861143D01*
X751081Y901320D02*
X741084D01*
X751081Y891323D01*
Y888824D01*
X748582Y886325D01*
X743583D01*
X741084Y888824D01*
X756079D02*
X758578Y886325D01*
X763577D01*
X766076Y888824D01*
Y898821D01*
X763577Y901320D01*
X758578D01*
X756079Y898821D01*
Y888824D01*
X781071Y901320D02*
X771074D01*
X781071Y891323D01*
Y888824D01*
X778572Y886325D01*
X773574D01*
X771074Y888824D01*
X786069Y901320D02*
X791068D01*
X788569D01*
Y886325D01*
X786069Y888824D01*
X798565Y901320D02*
Y898821D01*
X801065D01*
Y901320D01*
X798565D01*
X811061D02*
X816060D01*
X813560D01*
Y886325D01*
X811061Y888824D01*
X823557D02*
X826057Y886325D01*
X831055D01*
X833554Y888824D01*
Y898821D01*
X831055Y901320D01*
X826057D01*
X823557Y898821D01*
Y888824D01*
X838552Y901320D02*
Y898821D01*
X841052D01*
Y901320D01*
X838552D01*
X851048D02*
X856047D01*
X853548D01*
Y886325D01*
X851048Y888824D01*
X863544Y901320D02*
X868543D01*
X866044D01*
Y886325D01*
X863544Y888824D01*
X715176Y917059D02*
X725173D01*
Y919558D01*
X715176Y929555D01*
Y932054D01*
X725173D01*
X740168Y919558D02*
X737669Y917059D01*
X732670D01*
X730171Y919558D01*
Y929555D01*
X732670Y932054D01*
X737669D01*
X740168Y929555D01*
X755163Y917059D02*
X750165D01*
X752664D01*
Y929555D01*
X750165Y932054D01*
X747665D01*
X745166Y929555D01*
X785153Y932054D02*
X782654Y929555D01*
X780155Y932054D01*
X777656D01*
X775157Y929555D01*
Y927056D01*
X777656Y924556D01*
X775157Y922057D01*
Y919558D01*
X777656Y917059D01*
X780155D01*
X782654Y919558D01*
Y922057D01*
X780155Y924556D01*
X782654Y927056D01*
Y929555D01*
X785153Y924556D02*
X782654Y927056D01*
X777656Y924556D02*
X780155D01*
X800148Y932054D02*
X797649Y929555D01*
X795150Y932054D01*
X792651D01*
X790152Y929555D01*
Y927056D01*
X792651Y924556D01*
X790152Y922057D01*
Y919558D01*
X792651Y917059D01*
X795150D01*
X797649Y919558D01*
Y922057D01*
X795150Y924556D01*
X797649Y927056D01*
Y929555D01*
X800148Y924556D02*
X797649Y927056D01*
X792651Y924556D02*
X795150D01*
X830139Y917059D02*
X825140D01*
X827640D01*
Y929555D01*
X825140Y932054D01*
X822641D01*
X820142Y929555D01*
X835137Y917059D02*
Y929555D01*
X837636Y932054D01*
X842635D01*
X845134Y929555D01*
Y917059D01*
X860129D02*
X855131D01*
X857630D01*
Y929555D01*
X855131Y932054D01*
X852632D01*
X850132Y929555D01*
X865127Y917059D02*
Y929555D01*
X867627Y932054D01*
X872625D01*
X875124Y929555D01*
Y917059D01*
X50000Y1000000D02*
G03*
X0Y950000I0J-50000D01*
G01*
X450000D02*
G03*
X400000Y1000000I-50000J0D01*
G01*
X0Y550000D02*
G03*
X50000Y500000I50000J0D01*
G01*
X500000Y1000000D02*
G03*
X450000Y950000I0J-50000D01*
G01*
X900000D02*
G03*
X850000Y1000000I-50000J0D01*
G01*
Y500000D02*
G03*
X900000Y550000I0J50000D01*
G01*
Y450000D02*
G03*
X850000Y500000I-50000J0D01*
G01*
Y0D02*
G03*
X900000Y50000I0J50000D01*
G01*
X450000D02*
G03*
X500000Y0I50000J0D01*
G01*
X50000Y500000D02*
G03*
X0Y450000I0J-50000D01*
G01*
X400000Y0D02*
G03*
X450000Y50000I0J50000D01*
G01*
X0D02*
G03*
X50000Y0I50000J0D01*
G01*
X900000Y50000D02*
Y450000D01*
X0Y550000D02*
Y950000D01*
X50000Y1000000D02*
X400000D01*
X900000Y550000D02*
Y950000D01*
X500000Y1000000D02*
X850000D01*
X500000Y0D02*
X850000D01*
X0Y50000D02*
Y450000D01*
X50000Y500000D02*
X400000D01*
X50000Y0D02*
X400000D01*
X0Y50000D02*
G03*
X50000Y0I50000J0D01*
G01*
X400000D02*
G03*
X450000Y50000I0J50000D01*
G01*
Y450000D02*
G03*
X400000Y500000I-50000J0D01*
G01*
X50000D02*
G03*
X0Y450000I0J-50000D01*
G01*
X50000Y0D02*
X400000D01*
X50000Y500000D02*
X400000D01*
X450000Y50000D02*
Y450000D01*
X0Y50000D02*
Y450000D01*
X450000Y50000D02*
G03*
X500000Y0I50000J0D01*
G01*
X850000D02*
G03*
X900000Y50000I0J50000D01*
G01*
Y450000D02*
G03*
X850000Y500000I-50000J0D01*
G01*
X500000D02*
G03*
X450000Y450000I0J-50000D01*
G01*
X500000Y0D02*
X850000D01*
X500000Y500000D02*
X850000D01*
X900000Y50000D02*
Y450000D01*
X450000Y50000D02*
Y450000D01*
X0Y550000D02*
G03*
X50000Y500000I50000J0D01*
G01*
X400000D02*
G03*
X450000Y550000I0J50000D01*
G01*
Y950000D02*
G03*
X400000Y1000000I-50000J0D01*
G01*
X50000D02*
G03*
X0Y950000I0J-50000D01*
G01*
X50000Y500000D02*
X400000D01*
X50000Y1000000D02*
X400000D01*
X450000Y550000D02*
Y950000D01*
X0Y550000D02*
Y950000D01*
X450000Y550000D02*
G03*
X500000Y500000I50000J0D01*
G01*
X850000D02*
G03*
X900000Y550000I0J50000D01*
G01*
Y950000D02*
G03*
X850000Y1000000I-50000J0D01*
G01*
X500000D02*
G03*
X450000Y950000I0J-50000D01*
G01*
X500000Y500000D02*
X850000D01*
X500000Y1000000D02*
X850000D01*
X900000Y550000D02*
Y950000D01*
X450000Y550000D02*
Y950000D01*
D39*
X900000Y50000D02*
D03*
M02*
