G04*
G04 #@! TF.GenerationSoftware,Altium Limited,Altium Designer,20.2.3 (150)*
G04*
G04 Layer_Color=128*
%FSLAX44Y44*%
%MOMM*%
G71*
G04*
G04 #@! TF.SameCoordinates,C1CC25AD-0FF3-43E4-BDA3-AC1D03E08D52*
G04*
G04*
G04 #@! TF.FilePolarity,Positive*
G04*
G01*
G75*
%ADD31C,0.2540*%
%ADD39C,0.2540*%
%ADD80C,0.0508*%
D31*
X50000Y1000000D02*
G03*
X0Y950000I0J-50000D01*
G01*
X450000D02*
G03*
X400000Y1000000I-50000J0D01*
G01*
X0Y550000D02*
G03*
X50000Y500000I50000J0D01*
G01*
X500000Y1000000D02*
G03*
X450000Y950000I0J-50000D01*
G01*
X900000D02*
G03*
X850000Y1000000I-50000J0D01*
G01*
Y500000D02*
G03*
X900000Y550000I0J50000D01*
G01*
Y450000D02*
G03*
X850000Y500000I-50000J0D01*
G01*
Y0D02*
G03*
X900000Y50000I0J50000D01*
G01*
X450000D02*
G03*
X500000Y0I50000J0D01*
G01*
X50000Y500000D02*
G03*
X0Y450000I0J-50000D01*
G01*
X400000Y0D02*
G03*
X450000Y50000I0J50000D01*
G01*
X0D02*
G03*
X50000Y0I50000J0D01*
G01*
X900000Y50000D02*
Y450000D01*
X0Y550000D02*
Y950000D01*
X50000Y1000000D02*
X400000D01*
X900000Y550000D02*
Y950000D01*
X500000Y1000000D02*
X850000D01*
X500000Y0D02*
X850000D01*
X0Y50000D02*
Y450000D01*
X50000Y500000D02*
X400000D01*
X50000Y0D02*
X400000D01*
X0Y50000D02*
G03*
X50000Y0I50000J0D01*
G01*
X400000D02*
G03*
X450000Y50000I0J50000D01*
G01*
Y450000D02*
G03*
X400000Y500000I-50000J0D01*
G01*
X50000D02*
G03*
X0Y450000I0J-50000D01*
G01*
X50000Y0D02*
X400000D01*
X50000Y500000D02*
X400000D01*
X450000Y50000D02*
Y450000D01*
X0Y50000D02*
Y450000D01*
X450000Y50000D02*
G03*
X500000Y0I50000J0D01*
G01*
X850000D02*
G03*
X900000Y50000I0J50000D01*
G01*
Y450000D02*
G03*
X850000Y500000I-50000J0D01*
G01*
X500000D02*
G03*
X450000Y450000I0J-50000D01*
G01*
X500000Y0D02*
X850000D01*
X500000Y500000D02*
X850000D01*
X900000Y50000D02*
Y450000D01*
X450000Y50000D02*
Y450000D01*
X0Y550000D02*
G03*
X50000Y500000I50000J0D01*
G01*
X400000D02*
G03*
X450000Y550000I0J50000D01*
G01*
Y950000D02*
G03*
X400000Y1000000I-50000J0D01*
G01*
X50000D02*
G03*
X0Y950000I0J-50000D01*
G01*
X50000Y500000D02*
X400000D01*
X50000Y1000000D02*
X400000D01*
X450000Y550000D02*
Y950000D01*
X0Y550000D02*
Y950000D01*
X450000Y550000D02*
G03*
X500000Y500000I50000J0D01*
G01*
X850000D02*
G03*
X900000Y550000I0J50000D01*
G01*
Y950000D02*
G03*
X850000Y1000000I-50000J0D01*
G01*
X500000D02*
G03*
X450000Y950000I0J-50000D01*
G01*
X500000Y500000D02*
X850000D01*
X500000Y1000000D02*
X850000D01*
X900000Y550000D02*
Y950000D01*
X450000Y550000D02*
Y950000D01*
D39*
X900000Y50000D02*
D03*
D80*
X306560Y77180D02*
X321560D01*
X314060Y69680D02*
Y84680D01*
X257560Y77180D02*
X272560D01*
X265060Y69680D02*
Y84680D01*
X314184Y469646D02*
X344184D01*
X329184Y454646D02*
Y484646D01*
X98919Y469646D02*
X128919D01*
X113919Y454646D02*
Y484646D01*
X69380Y66750D02*
X75880D01*
X72630Y63500D02*
Y70000D01*
X127180Y66750D02*
X133680D01*
X130430Y63500D02*
Y70000D01*
X141780Y31750D02*
X147780D01*
X144780Y28750D02*
Y34750D01*
X55280Y31750D02*
X61280D01*
X58280Y28750D02*
Y34750D01*
X141780Y71750D02*
X147780D01*
X144780Y68750D02*
Y74750D01*
X55280Y71750D02*
X61280D01*
X58280Y68750D02*
Y74750D01*
X125191Y210312D02*
X128301D01*
X126746Y208757D02*
Y211867D01*
X114523Y278257D02*
X117633D01*
X116078Y276702D02*
Y279812D01*
X108300Y284480D02*
X111410D01*
X109855Y282925D02*
Y286035D01*
X102077Y290830D02*
X105187D01*
X103632Y289275D02*
Y292385D01*
X101442Y233426D02*
X104552D01*
X102997Y231871D02*
Y234981D01*
X96108Y214630D02*
X99218D01*
X97663Y213075D02*
Y216185D01*
X96362Y275082D02*
X99472D01*
X97917Y273527D02*
Y276637D01*
X187675Y106934D02*
X190785D01*
X189230Y105379D02*
Y108489D01*
X179293Y362331D02*
X182403D01*
X180848Y360776D02*
Y363886D01*
X171165Y263652D02*
X174275D01*
X172720Y262097D02*
Y265207D01*
X165704Y263652D02*
X168814D01*
X167259Y262097D02*
Y265207D01*
X177261Y263652D02*
X180371D01*
X178816Y262097D02*
Y265207D01*
X182976Y263652D02*
X186086D01*
X184531Y262097D02*
Y265207D01*
X189072Y263652D02*
X192182D01*
X190627Y262097D02*
Y265207D01*
X194787Y263652D02*
X197897D01*
X196342Y262097D02*
Y265207D01*
X165704Y251714D02*
X168814D01*
X167259Y250159D02*
Y253269D01*
X171165Y251714D02*
X174275D01*
X172720Y250159D02*
Y253269D01*
X177261Y251714D02*
X180371D01*
X178816Y250159D02*
Y253269D01*
X182976Y251714D02*
X186086D01*
X184531Y250159D02*
Y253269D01*
X189072Y251714D02*
X192182D01*
X190627Y250159D02*
Y253269D01*
X194787Y251714D02*
X197897D01*
X196342Y250159D02*
Y253269D01*
X275305Y215011D02*
X278415D01*
X276860Y213456D02*
Y216566D01*
X267558Y212979D02*
X270668D01*
X269113Y211424D02*
Y214534D01*
X271749Y214884D02*
X274859D01*
X273304Y213329D02*
Y216439D01*
X300070Y189992D02*
X303180D01*
X301625Y188437D02*
Y191547D01*
X271495Y182626D02*
X274605D01*
X273050Y181071D02*
Y184181D01*
X106141Y182245D02*
X109251D01*
X107696Y180690D02*
Y183800D01*
X106395Y186309D02*
X109505D01*
X107950Y184754D02*
Y187864D01*
X62992Y197104D02*
X70104D01*
X66548Y193548D02*
Y200660D01*
X63119Y207772D02*
X70231D01*
X66675Y204216D02*
Y211328D01*
X35179Y191897D02*
X42291D01*
X38735Y188341D02*
Y195453D01*
X352552Y128651D02*
X359664D01*
X356108Y125095D02*
Y132207D01*
X336042Y128651D02*
X343154D01*
X339598Y125095D02*
Y132207D01*
X170180Y110000D02*
X177292D01*
X173736Y106444D02*
Y113556D01*
X170180Y90000D02*
X177292D01*
X173736Y86444D02*
Y93556D01*
X170180Y70000D02*
X177292D01*
X173736Y66444D02*
Y73556D01*
X171304Y48876D02*
X178416D01*
X174860Y45320D02*
Y52432D01*
X194787Y240030D02*
X197897D01*
X196342Y238475D02*
Y241585D01*
X189072Y240030D02*
X192182D01*
X190627Y238475D02*
Y241585D01*
X182976Y240030D02*
X186086D01*
X184531Y238475D02*
Y241585D01*
X177261Y240030D02*
X180371D01*
X178816Y238475D02*
Y241585D01*
X171165Y240030D02*
X174275D01*
X172720Y238475D02*
Y241585D01*
X165704Y240030D02*
X168814D01*
X167259Y238475D02*
Y241585D01*
X194787Y245872D02*
X197897D01*
X196342Y244317D02*
Y247427D01*
X189072Y245872D02*
X192182D01*
X190627Y244317D02*
Y247427D01*
X182976Y245872D02*
X186086D01*
X184531Y244317D02*
Y247427D01*
X177261Y245872D02*
X180371D01*
X178816Y244317D02*
Y247427D01*
X171165Y245872D02*
X174275D01*
X172720Y244317D02*
Y247427D01*
X165704Y245872D02*
X168814D01*
X167259Y244317D02*
Y247427D01*
X194787Y257429D02*
X197897D01*
X196342Y255874D02*
Y258984D01*
X189072Y257429D02*
X192182D01*
X190627Y255874D02*
Y258984D01*
X182976Y257429D02*
X186086D01*
X184531Y255874D02*
Y258984D01*
X177261Y257429D02*
X180371D01*
X178816Y255874D02*
Y258984D01*
X171165Y257429D02*
X174275D01*
X172720Y255874D02*
Y258984D01*
X165704Y257429D02*
X168814D01*
X167259Y255874D02*
Y258984D01*
X194787Y269748D02*
X197897D01*
X196342Y268193D02*
Y271303D01*
X189072Y269748D02*
X192182D01*
X190627Y268193D02*
Y271303D01*
X182976Y269748D02*
X186086D01*
X184531Y268193D02*
Y271303D01*
X177261Y269748D02*
X180371D01*
X178816Y268193D02*
Y271303D01*
X171165Y269748D02*
X174275D01*
X172720Y268193D02*
Y271303D01*
X165704Y269748D02*
X168814D01*
X167259Y268193D02*
Y271303D01*
X291815Y253365D02*
X294925D01*
X293370Y251810D02*
Y254920D01*
X175229Y191008D02*
X178339D01*
X176784Y189453D02*
Y192563D01*
X177134Y195072D02*
X180244D01*
X178689Y193517D02*
Y196627D01*
X175483Y199009D02*
X178593D01*
X177038Y197454D02*
Y200564D01*
X173451Y201930D02*
X176561D01*
X175006Y200375D02*
Y203485D01*
X169133Y202946D02*
X172243D01*
X170688Y201391D02*
Y204501D01*
X164688Y202565D02*
X167798D01*
X166243Y201010D02*
Y204120D01*
X165577Y197739D02*
X168687D01*
X167132Y196184D02*
Y199294D01*
X160624Y199771D02*
X163734D01*
X162179Y198216D02*
Y201326D01*
X161767Y196342D02*
X164877D01*
X163322Y194787D02*
Y197897D01*
X157653Y195959D02*
X160763D01*
X159208Y194404D02*
Y197514D01*
X162529Y192405D02*
X165639D01*
X164084Y190850D02*
Y193960D01*
X159608Y192659D02*
X162718D01*
X161163Y191104D02*
Y194214D01*
X155544Y192913D02*
X158654D01*
X157099Y191358D02*
Y194468D01*
X183362Y212618D02*
X186472D01*
X184917Y211063D02*
Y214173D01*
X184627Y293370D02*
X187737D01*
X186182Y291815D02*
Y294925D01*
X181071Y293497D02*
X184181D01*
X182626Y291942D02*
Y295052D01*
X177642Y293497D02*
X180752D01*
X179197Y291942D02*
Y295052D01*
X174467Y293497D02*
X177577D01*
X176022Y291942D02*
Y295052D01*
X87472Y143129D02*
X90582D01*
X89027Y141574D02*
Y144684D01*
X85059Y143129D02*
X88169D01*
X86614Y141574D02*
Y144684D01*
X82646Y142367D02*
X85756D01*
X84201Y140812D02*
Y143922D01*
X89885Y141351D02*
X92995D01*
X91440Y139796D02*
Y142906D01*
X87726Y140462D02*
X90836D01*
X89281Y138907D02*
Y142017D01*
X85440Y140081D02*
X88550D01*
X86995Y138526D02*
Y141636D01*
X83281Y139827D02*
X86391D01*
X84836Y138272D02*
Y141382D01*
X27305Y181864D02*
X34417D01*
X30861Y178308D02*
Y185420D01*
X13462Y184531D02*
X20574D01*
X17018Y180975D02*
Y188087D01*
X22352Y193548D02*
X29464D01*
X25908Y189992D02*
Y197104D01*
X28575Y216281D02*
X35687D01*
X32131Y212725D02*
Y219837D01*
X13970Y215646D02*
X21082D01*
X17526Y212090D02*
Y219202D01*
X28194Y227965D02*
X35306D01*
X31750Y224409D02*
Y231521D01*
X14097Y227711D02*
X21209D01*
X17653Y224155D02*
Y231267D01*
X26162Y241935D02*
X33274D01*
X29718Y238379D02*
Y245491D01*
X25273Y253873D02*
X32385D01*
X28829Y250317D02*
Y257429D01*
X13970Y254254D02*
X21082D01*
X17526Y250698D02*
Y257810D01*
X14478Y240538D02*
X21590D01*
X18034Y236982D02*
Y244094D01*
X13843Y197993D02*
X20955D01*
X17399Y194437D02*
Y201549D01*
X14351Y206375D02*
X21463D01*
X17907Y202819D02*
Y209931D01*
X30353Y203835D02*
X37465D01*
X33909Y200279D02*
Y207391D01*
X86710Y145415D02*
X89820D01*
X88265Y143860D02*
Y146970D01*
X81249Y145669D02*
X84359D01*
X82804Y144114D02*
Y147224D01*
X167101Y134366D02*
X170211D01*
X168656Y132811D02*
Y135921D01*
X165958Y145288D02*
X169068D01*
X167513Y143733D02*
Y146843D01*
X162529Y144526D02*
X165639D01*
X164084Y142971D02*
Y146081D01*
X164815Y142113D02*
X167925D01*
X166370Y140558D02*
Y143668D01*
X162402Y141097D02*
X165512D01*
X163957Y139542D02*
Y142652D01*
X166085Y138811D02*
X169195D01*
X167640Y137256D02*
Y140366D01*
X164942Y136398D02*
X168052D01*
X166497Y134843D02*
Y137953D01*
X162402Y137033D02*
X165512D01*
X163957Y135478D02*
Y138588D01*
X249524Y132207D02*
X252634D01*
X251079Y130652D02*
Y133762D01*
X247619Y133858D02*
X250729D01*
X249174Y132303D02*
Y135413D01*
X250413Y135382D02*
X253523D01*
X251968Y133827D02*
Y136937D01*
X250794Y138049D02*
X253904D01*
X252349Y136494D02*
Y139604D01*
X247746Y140589D02*
X250856D01*
X249301Y139034D02*
Y142144D01*
X250921Y141097D02*
X254031D01*
X252476Y139542D02*
Y142652D01*
X249651Y143510D02*
X252761D01*
X251206Y141955D02*
Y145065D01*
X246857Y143637D02*
X249967D01*
X248412Y142082D02*
Y145192D01*
X249778Y146304D02*
X252888D01*
X251333Y144749D02*
Y147859D01*
X247365Y146177D02*
X250475D01*
X248920Y144622D02*
Y147732D01*
X242158Y342900D02*
X245268D01*
X243713Y341345D02*
Y344455D01*
X239491Y343916D02*
X242601D01*
X241046Y342361D02*
Y345471D01*
X236697Y342011D02*
X239807D01*
X238252Y340456D02*
Y343566D01*
X239110Y341376D02*
X242220D01*
X240665Y339821D02*
Y342931D01*
X242031Y339471D02*
X245141D01*
X243586Y337916D02*
Y341026D01*
X241142Y336423D02*
X244252D01*
X242697Y334868D02*
Y337978D01*
X237967Y336423D02*
X241077D01*
X239522Y334868D02*
Y337978D01*
X235808Y338074D02*
X238918D01*
X237363Y336519D02*
Y339629D01*
X207360Y296672D02*
X210470D01*
X208915Y295117D02*
Y298227D01*
X204654Y297886D02*
X207764D01*
X206209Y296331D02*
Y299441D01*
X206217Y299212D02*
X209327D01*
X207772Y297657D02*
Y300767D01*
X203042Y300228D02*
X206152D01*
X204597Y298673D02*
Y301783D01*
X199359Y297815D02*
X202469D01*
X200914Y296260D02*
Y299370D01*
X179928Y300101D02*
X183038D01*
X181483Y298546D02*
Y301656D01*
X175864Y299847D02*
X178974D01*
X177419Y298292D02*
Y301402D01*
X174340Y297053D02*
X177450D01*
X175895Y295498D02*
Y298608D01*
X187167Y297307D02*
X190277D01*
X188722Y295752D02*
Y298862D01*
X181960Y297434D02*
X185070D01*
X183515Y295879D02*
Y298989D01*
X184500Y297180D02*
X187610D01*
X186055Y295625D02*
Y298735D01*
X138399Y191008D02*
X141509D01*
X139954Y189453D02*
Y192563D01*
X233395Y239776D02*
X236505D01*
X234950Y238221D02*
Y241331D01*
X209270Y211348D02*
X212380D01*
X210825Y209793D02*
Y212903D01*
X130652Y112522D02*
X133762D01*
X132207Y110967D02*
Y114077D01*
X108332Y111284D02*
X111442D01*
X109887Y109729D02*
Y112839D01*
X172943Y194945D02*
X176053D01*
X174498Y193390D02*
Y196500D01*
X170403Y198731D02*
X173513D01*
X171958Y197176D02*
Y200286D01*
X168371Y193421D02*
X171481D01*
X169926Y191866D02*
Y194976D01*
X140309Y236494D02*
X143419D01*
X141864Y234939D02*
Y238049D01*
X218917Y223520D02*
X222027D01*
X220472Y221965D02*
Y225075D01*
X218028Y214122D02*
X221138D01*
X219583Y212567D02*
Y215677D01*
X248000Y137160D02*
X251110D01*
X249555Y135605D02*
Y138715D01*
X140182Y245003D02*
X143292D01*
X141737Y243448D02*
Y246558D01*
X219049Y189885D02*
X222159D01*
X220604Y188330D02*
Y191440D01*
X190469Y205105D02*
X193579D01*
X192024Y203550D02*
Y206660D01*
X196189Y212872D02*
X199299D01*
X197744Y211317D02*
Y214427D01*
X238734Y338729D02*
X241844D01*
X240289Y337174D02*
Y340284D01*
X221462Y246654D02*
X224572D01*
X223017Y245099D02*
Y248209D01*
X163418Y133477D02*
X166528D01*
X164973Y131922D02*
Y135032D01*
X186550Y147556D02*
X189660D01*
X188105Y146001D02*
Y149111D01*
X84170Y145161D02*
X87280D01*
X85725Y143606D02*
Y146716D01*
X225521Y233426D02*
X228631D01*
X227076Y231871D02*
Y234981D01*
X202534Y297942D02*
X205644D01*
X204089Y296387D02*
Y299497D01*
X329915Y187960D02*
X333025D01*
X331470Y186405D02*
Y189515D01*
X178344Y297298D02*
X181455D01*
X179900Y295743D02*
Y298853D01*
X756560Y77180D02*
X771560D01*
X764060Y69680D02*
Y84680D01*
X707560Y77180D02*
X722560D01*
X715060Y69680D02*
Y84680D01*
X764184Y469646D02*
X794184D01*
X779184Y454646D02*
Y484646D01*
X548919Y469646D02*
X578919D01*
X563919Y454646D02*
Y484646D01*
X519380Y66750D02*
X525880D01*
X522630Y63500D02*
Y70000D01*
X577180Y66750D02*
X583680D01*
X580430Y63500D02*
Y70000D01*
X591780Y31750D02*
X597780D01*
X594780Y28750D02*
Y34750D01*
X505280Y31750D02*
X511280D01*
X508280Y28750D02*
Y34750D01*
X591780Y71750D02*
X597780D01*
X594780Y68750D02*
Y74750D01*
X505280Y71750D02*
X511280D01*
X508280Y68750D02*
Y74750D01*
X575191Y210312D02*
X578301D01*
X576746Y208757D02*
Y211867D01*
X564523Y278257D02*
X567633D01*
X566078Y276702D02*
Y279812D01*
X558300Y284480D02*
X561410D01*
X559855Y282925D02*
Y286035D01*
X552077Y290830D02*
X555187D01*
X553632Y289275D02*
Y292385D01*
X551442Y233426D02*
X554552D01*
X552997Y231871D02*
Y234981D01*
X546108Y214630D02*
X549218D01*
X547663Y213075D02*
Y216185D01*
X546362Y275082D02*
X549472D01*
X547917Y273527D02*
Y276637D01*
X637675Y106934D02*
X640785D01*
X639230Y105379D02*
Y108489D01*
X629293Y362331D02*
X632403D01*
X630848Y360776D02*
Y363886D01*
X621165Y263652D02*
X624275D01*
X622720Y262097D02*
Y265207D01*
X615704Y263652D02*
X618814D01*
X617259Y262097D02*
Y265207D01*
X627261Y263652D02*
X630371D01*
X628816Y262097D02*
Y265207D01*
X632976Y263652D02*
X636086D01*
X634531Y262097D02*
Y265207D01*
X639072Y263652D02*
X642182D01*
X640627Y262097D02*
Y265207D01*
X644787Y263652D02*
X647897D01*
X646342Y262097D02*
Y265207D01*
X615704Y251714D02*
X618814D01*
X617259Y250159D02*
Y253269D01*
X621165Y251714D02*
X624275D01*
X622720Y250159D02*
Y253269D01*
X627261Y251714D02*
X630371D01*
X628816Y250159D02*
Y253269D01*
X632976Y251714D02*
X636086D01*
X634531Y250159D02*
Y253269D01*
X639072Y251714D02*
X642182D01*
X640627Y250159D02*
Y253269D01*
X644787Y251714D02*
X647897D01*
X646342Y250159D02*
Y253269D01*
X725305Y215011D02*
X728415D01*
X726860Y213456D02*
Y216566D01*
X717558Y212979D02*
X720668D01*
X719113Y211424D02*
Y214534D01*
X721749Y214884D02*
X724859D01*
X723304Y213329D02*
Y216439D01*
X750070Y189992D02*
X753180D01*
X751625Y188437D02*
Y191547D01*
X721495Y182626D02*
X724605D01*
X723050Y181071D02*
Y184181D01*
X556141Y182245D02*
X559251D01*
X557696Y180690D02*
Y183800D01*
X556395Y186309D02*
X559505D01*
X557950Y184754D02*
Y187864D01*
X512992Y197104D02*
X520104D01*
X516548Y193548D02*
Y200660D01*
X513119Y207772D02*
X520231D01*
X516675Y204216D02*
Y211328D01*
X485179Y191897D02*
X492291D01*
X488735Y188341D02*
Y195453D01*
X802552Y128651D02*
X809664D01*
X806108Y125095D02*
Y132207D01*
X786042Y128651D02*
X793154D01*
X789598Y125095D02*
Y132207D01*
X620180Y110000D02*
X627292D01*
X623736Y106444D02*
Y113556D01*
X620180Y90000D02*
X627292D01*
X623736Y86444D02*
Y93556D01*
X620180Y70000D02*
X627292D01*
X623736Y66444D02*
Y73556D01*
X621304Y48876D02*
X628416D01*
X624860Y45320D02*
Y52432D01*
X644787Y240030D02*
X647897D01*
X646342Y238475D02*
Y241585D01*
X639072Y240030D02*
X642182D01*
X640627Y238475D02*
Y241585D01*
X632976Y240030D02*
X636086D01*
X634531Y238475D02*
Y241585D01*
X627261Y240030D02*
X630371D01*
X628816Y238475D02*
Y241585D01*
X621165Y240030D02*
X624275D01*
X622720Y238475D02*
Y241585D01*
X615704Y240030D02*
X618814D01*
X617259Y238475D02*
Y241585D01*
X644787Y245872D02*
X647897D01*
X646342Y244317D02*
Y247427D01*
X639072Y245872D02*
X642182D01*
X640627Y244317D02*
Y247427D01*
X632976Y245872D02*
X636086D01*
X634531Y244317D02*
Y247427D01*
X627261Y245872D02*
X630371D01*
X628816Y244317D02*
Y247427D01*
X621165Y245872D02*
X624275D01*
X622720Y244317D02*
Y247427D01*
X615704Y245872D02*
X618814D01*
X617259Y244317D02*
Y247427D01*
X644787Y257429D02*
X647897D01*
X646342Y255874D02*
Y258984D01*
X639072Y257429D02*
X642182D01*
X640627Y255874D02*
Y258984D01*
X632976Y257429D02*
X636086D01*
X634531Y255874D02*
Y258984D01*
X627261Y257429D02*
X630371D01*
X628816Y255874D02*
Y258984D01*
X621165Y257429D02*
X624275D01*
X622720Y255874D02*
Y258984D01*
X615704Y257429D02*
X618814D01*
X617259Y255874D02*
Y258984D01*
X644787Y269748D02*
X647897D01*
X646342Y268193D02*
Y271303D01*
X639072Y269748D02*
X642182D01*
X640627Y268193D02*
Y271303D01*
X632976Y269748D02*
X636086D01*
X634531Y268193D02*
Y271303D01*
X627261Y269748D02*
X630371D01*
X628816Y268193D02*
Y271303D01*
X621165Y269748D02*
X624275D01*
X622720Y268193D02*
Y271303D01*
X615704Y269748D02*
X618814D01*
X617259Y268193D02*
Y271303D01*
X741815Y253365D02*
X744925D01*
X743370Y251810D02*
Y254920D01*
X625229Y191008D02*
X628339D01*
X626784Y189453D02*
Y192563D01*
X627134Y195072D02*
X630244D01*
X628689Y193517D02*
Y196627D01*
X625483Y199009D02*
X628593D01*
X627038Y197454D02*
Y200564D01*
X623451Y201930D02*
X626561D01*
X625006Y200375D02*
Y203485D01*
X619133Y202946D02*
X622243D01*
X620688Y201391D02*
Y204501D01*
X614688Y202565D02*
X617798D01*
X616243Y201010D02*
Y204120D01*
X615577Y197739D02*
X618687D01*
X617132Y196184D02*
Y199294D01*
X610624Y199771D02*
X613734D01*
X612179Y198216D02*
Y201326D01*
X611767Y196342D02*
X614877D01*
X613322Y194787D02*
Y197897D01*
X607653Y195959D02*
X610763D01*
X609208Y194404D02*
Y197514D01*
X612529Y192405D02*
X615639D01*
X614084Y190850D02*
Y193960D01*
X609608Y192659D02*
X612718D01*
X611163Y191104D02*
Y194214D01*
X605544Y192913D02*
X608654D01*
X607099Y191358D02*
Y194468D01*
X633362Y212618D02*
X636472D01*
X634917Y211063D02*
Y214173D01*
X634627Y293370D02*
X637737D01*
X636182Y291815D02*
Y294925D01*
X631071Y293497D02*
X634181D01*
X632626Y291942D02*
Y295052D01*
X627642Y293497D02*
X630752D01*
X629197Y291942D02*
Y295052D01*
X624467Y293497D02*
X627577D01*
X626022Y291942D02*
Y295052D01*
X537472Y143129D02*
X540582D01*
X539027Y141574D02*
Y144684D01*
X535059Y143129D02*
X538169D01*
X536614Y141574D02*
Y144684D01*
X532646Y142367D02*
X535756D01*
X534201Y140812D02*
Y143922D01*
X539885Y141351D02*
X542995D01*
X541440Y139796D02*
Y142906D01*
X537726Y140462D02*
X540836D01*
X539281Y138907D02*
Y142017D01*
X535440Y140081D02*
X538550D01*
X536995Y138526D02*
Y141636D01*
X533281Y139827D02*
X536391D01*
X534836Y138272D02*
Y141382D01*
X477305Y181864D02*
X484417D01*
X480861Y178308D02*
Y185420D01*
X463462Y184531D02*
X470574D01*
X467018Y180975D02*
Y188087D01*
X472352Y193548D02*
X479464D01*
X475908Y189992D02*
Y197104D01*
X478575Y216281D02*
X485687D01*
X482131Y212725D02*
Y219837D01*
X463970Y215646D02*
X471082D01*
X467526Y212090D02*
Y219202D01*
X478194Y227965D02*
X485306D01*
X481750Y224409D02*
Y231521D01*
X464097Y227711D02*
X471209D01*
X467653Y224155D02*
Y231267D01*
X476162Y241935D02*
X483274D01*
X479718Y238379D02*
Y245491D01*
X475273Y253873D02*
X482385D01*
X478829Y250317D02*
Y257429D01*
X463970Y254254D02*
X471082D01*
X467526Y250698D02*
Y257810D01*
X464478Y240538D02*
X471590D01*
X468034Y236982D02*
Y244094D01*
X463843Y197993D02*
X470955D01*
X467399Y194437D02*
Y201549D01*
X464351Y206375D02*
X471463D01*
X467907Y202819D02*
Y209931D01*
X480353Y203835D02*
X487465D01*
X483909Y200279D02*
Y207391D01*
X536710Y145415D02*
X539820D01*
X538265Y143860D02*
Y146970D01*
X531249Y145669D02*
X534359D01*
X532804Y144114D02*
Y147224D01*
X617101Y134366D02*
X620211D01*
X618656Y132811D02*
Y135921D01*
X615958Y145288D02*
X619068D01*
X617513Y143733D02*
Y146843D01*
X612529Y144526D02*
X615639D01*
X614084Y142971D02*
Y146081D01*
X614815Y142113D02*
X617925D01*
X616370Y140558D02*
Y143668D01*
X612402Y141097D02*
X615512D01*
X613957Y139542D02*
Y142652D01*
X616085Y138811D02*
X619195D01*
X617640Y137256D02*
Y140366D01*
X614942Y136398D02*
X618052D01*
X616497Y134843D02*
Y137953D01*
X612402Y137033D02*
X615512D01*
X613957Y135478D02*
Y138588D01*
X699524Y132207D02*
X702634D01*
X701079Y130652D02*
Y133762D01*
X697619Y133858D02*
X700729D01*
X699174Y132303D02*
Y135413D01*
X700413Y135382D02*
X703523D01*
X701968Y133827D02*
Y136937D01*
X700794Y138049D02*
X703904D01*
X702349Y136494D02*
Y139604D01*
X697746Y140589D02*
X700856D01*
X699301Y139034D02*
Y142144D01*
X700921Y141097D02*
X704031D01*
X702476Y139542D02*
Y142652D01*
X699651Y143510D02*
X702761D01*
X701206Y141955D02*
Y145065D01*
X696857Y143637D02*
X699967D01*
X698412Y142082D02*
Y145192D01*
X699778Y146304D02*
X702888D01*
X701333Y144749D02*
Y147859D01*
X697365Y146177D02*
X700475D01*
X698920Y144622D02*
Y147732D01*
X692158Y342900D02*
X695268D01*
X693713Y341345D02*
Y344455D01*
X689491Y343916D02*
X692601D01*
X691046Y342361D02*
Y345471D01*
X686697Y342011D02*
X689807D01*
X688252Y340456D02*
Y343566D01*
X689110Y341376D02*
X692220D01*
X690665Y339821D02*
Y342931D01*
X692031Y339471D02*
X695141D01*
X693586Y337916D02*
Y341026D01*
X691142Y336423D02*
X694252D01*
X692697Y334868D02*
Y337978D01*
X687967Y336423D02*
X691077D01*
X689522Y334868D02*
Y337978D01*
X685808Y338074D02*
X688918D01*
X687363Y336519D02*
Y339629D01*
X657360Y296672D02*
X660470D01*
X658915Y295117D02*
Y298227D01*
X654654Y297886D02*
X657764D01*
X656209Y296331D02*
Y299441D01*
X656217Y299212D02*
X659327D01*
X657772Y297657D02*
Y300767D01*
X653042Y300228D02*
X656152D01*
X654597Y298673D02*
Y301783D01*
X649359Y297815D02*
X652469D01*
X650914Y296260D02*
Y299370D01*
X629928Y300101D02*
X633038D01*
X631483Y298546D02*
Y301656D01*
X625864Y299847D02*
X628974D01*
X627419Y298292D02*
Y301402D01*
X624340Y297053D02*
X627450D01*
X625895Y295498D02*
Y298608D01*
X637167Y297307D02*
X640277D01*
X638722Y295752D02*
Y298862D01*
X631960Y297434D02*
X635070D01*
X633515Y295879D02*
Y298989D01*
X634500Y297180D02*
X637610D01*
X636055Y295625D02*
Y298735D01*
X588399Y191008D02*
X591509D01*
X589954Y189453D02*
Y192563D01*
X683395Y239776D02*
X686505D01*
X684950Y238221D02*
Y241331D01*
X659270Y211348D02*
X662380D01*
X660825Y209793D02*
Y212903D01*
X580652Y112522D02*
X583762D01*
X582207Y110967D02*
Y114077D01*
X558332Y111284D02*
X561442D01*
X559887Y109729D02*
Y112839D01*
X622943Y194945D02*
X626053D01*
X624498Y193390D02*
Y196500D01*
X620403Y198731D02*
X623513D01*
X621958Y197176D02*
Y200286D01*
X618371Y193421D02*
X621481D01*
X619926Y191866D02*
Y194976D01*
X590309Y236494D02*
X593419D01*
X591864Y234939D02*
Y238049D01*
X668917Y223520D02*
X672027D01*
X670472Y221965D02*
Y225075D01*
X668028Y214122D02*
X671138D01*
X669583Y212567D02*
Y215677D01*
X698000Y137160D02*
X701110D01*
X699555Y135605D02*
Y138715D01*
X590182Y245003D02*
X593292D01*
X591737Y243448D02*
Y246558D01*
X669049Y189885D02*
X672159D01*
X670604Y188330D02*
Y191440D01*
X640469Y205105D02*
X643579D01*
X642024Y203550D02*
Y206660D01*
X646189Y212872D02*
X649299D01*
X647744Y211317D02*
Y214427D01*
X688734Y338729D02*
X691844D01*
X690289Y337174D02*
Y340284D01*
X671462Y246654D02*
X674572D01*
X673017Y245099D02*
Y248209D01*
X613418Y133477D02*
X616528D01*
X614973Y131922D02*
Y135032D01*
X636550Y147556D02*
X639660D01*
X638105Y146001D02*
Y149111D01*
X534170Y145161D02*
X537280D01*
X535725Y143606D02*
Y146716D01*
X675521Y233426D02*
X678631D01*
X677076Y231871D02*
Y234981D01*
X652534Y297942D02*
X655644D01*
X654089Y296387D02*
Y299497D01*
X779915Y187960D02*
X783025D01*
X781470Y186405D02*
Y189515D01*
X628344Y297298D02*
X631455D01*
X629899Y295743D02*
Y298853D01*
X306560Y577180D02*
X321560D01*
X314060Y569680D02*
Y584680D01*
X257560Y577180D02*
X272560D01*
X265060Y569680D02*
Y584680D01*
X314184Y969646D02*
X344184D01*
X329184Y954646D02*
Y984646D01*
X98919Y969646D02*
X128919D01*
X113919Y954646D02*
Y984646D01*
X69380Y566750D02*
X75880D01*
X72630Y563500D02*
Y570000D01*
X127180Y566750D02*
X133680D01*
X130430Y563500D02*
Y570000D01*
X141780Y531750D02*
X147780D01*
X144780Y528750D02*
Y534750D01*
X55280Y531750D02*
X61280D01*
X58280Y528750D02*
Y534750D01*
X141780Y571750D02*
X147780D01*
X144780Y568750D02*
Y574750D01*
X55280Y571750D02*
X61280D01*
X58280Y568750D02*
Y574750D01*
X125191Y710312D02*
X128301D01*
X126746Y708757D02*
Y711867D01*
X114523Y778257D02*
X117633D01*
X116078Y776702D02*
Y779812D01*
X108300Y784480D02*
X111410D01*
X109855Y782925D02*
Y786035D01*
X102077Y790830D02*
X105187D01*
X103632Y789275D02*
Y792385D01*
X101442Y733426D02*
X104552D01*
X102997Y731871D02*
Y734981D01*
X96108Y714630D02*
X99218D01*
X97663Y713075D02*
Y716185D01*
X96362Y775082D02*
X99472D01*
X97917Y773527D02*
Y776637D01*
X187675Y606934D02*
X190785D01*
X189230Y605379D02*
Y608489D01*
X179293Y862331D02*
X182403D01*
X180848Y860776D02*
Y863886D01*
X171165Y763652D02*
X174275D01*
X172720Y762097D02*
Y765207D01*
X165704Y763652D02*
X168814D01*
X167259Y762097D02*
Y765207D01*
X177261Y763652D02*
X180371D01*
X178816Y762097D02*
Y765207D01*
X182976Y763652D02*
X186086D01*
X184531Y762097D02*
Y765207D01*
X189072Y763652D02*
X192182D01*
X190627Y762097D02*
Y765207D01*
X194787Y763652D02*
X197897D01*
X196342Y762097D02*
Y765207D01*
X165704Y751714D02*
X168814D01*
X167259Y750159D02*
Y753269D01*
X171165Y751714D02*
X174275D01*
X172720Y750159D02*
Y753269D01*
X177261Y751714D02*
X180371D01*
X178816Y750159D02*
Y753269D01*
X182976Y751714D02*
X186086D01*
X184531Y750159D02*
Y753269D01*
X189072Y751714D02*
X192182D01*
X190627Y750159D02*
Y753269D01*
X194787Y751714D02*
X197897D01*
X196342Y750159D02*
Y753269D01*
X275305Y715011D02*
X278415D01*
X276860Y713456D02*
Y716566D01*
X267558Y712979D02*
X270668D01*
X269113Y711424D02*
Y714534D01*
X271749Y714884D02*
X274859D01*
X273304Y713329D02*
Y716439D01*
X300070Y689992D02*
X303180D01*
X301625Y688437D02*
Y691547D01*
X271495Y682626D02*
X274605D01*
X273050Y681071D02*
Y684181D01*
X106141Y682245D02*
X109251D01*
X107696Y680690D02*
Y683800D01*
X106395Y686309D02*
X109505D01*
X107950Y684754D02*
Y687864D01*
X62992Y697104D02*
X70104D01*
X66548Y693548D02*
Y700660D01*
X63119Y707772D02*
X70231D01*
X66675Y704216D02*
Y711328D01*
X35179Y691897D02*
X42291D01*
X38735Y688341D02*
Y695453D01*
X352552Y628651D02*
X359664D01*
X356108Y625095D02*
Y632207D01*
X336042Y628651D02*
X343154D01*
X339598Y625095D02*
Y632207D01*
X170180Y610000D02*
X177292D01*
X173736Y606444D02*
Y613556D01*
X170180Y590000D02*
X177292D01*
X173736Y586444D02*
Y593556D01*
X170180Y570000D02*
X177292D01*
X173736Y566444D02*
Y573556D01*
X171304Y548876D02*
X178416D01*
X174860Y545320D02*
Y552432D01*
X194787Y740030D02*
X197897D01*
X196342Y738475D02*
Y741585D01*
X189072Y740030D02*
X192182D01*
X190627Y738475D02*
Y741585D01*
X182976Y740030D02*
X186086D01*
X184531Y738475D02*
Y741585D01*
X177261Y740030D02*
X180371D01*
X178816Y738475D02*
Y741585D01*
X171165Y740030D02*
X174275D01*
X172720Y738475D02*
Y741585D01*
X165704Y740030D02*
X168814D01*
X167259Y738475D02*
Y741585D01*
X194787Y745872D02*
X197897D01*
X196342Y744317D02*
Y747427D01*
X189072Y745872D02*
X192182D01*
X190627Y744317D02*
Y747427D01*
X182976Y745872D02*
X186086D01*
X184531Y744317D02*
Y747427D01*
X177261Y745872D02*
X180371D01*
X178816Y744317D02*
Y747427D01*
X171165Y745872D02*
X174275D01*
X172720Y744317D02*
Y747427D01*
X165704Y745872D02*
X168814D01*
X167259Y744317D02*
Y747427D01*
X194787Y757429D02*
X197897D01*
X196342Y755874D02*
Y758984D01*
X189072Y757429D02*
X192182D01*
X190627Y755874D02*
Y758984D01*
X182976Y757429D02*
X186086D01*
X184531Y755874D02*
Y758984D01*
X177261Y757429D02*
X180371D01*
X178816Y755874D02*
Y758984D01*
X171165Y757429D02*
X174275D01*
X172720Y755874D02*
Y758984D01*
X165704Y757429D02*
X168814D01*
X167259Y755874D02*
Y758984D01*
X194787Y769748D02*
X197897D01*
X196342Y768193D02*
Y771303D01*
X189072Y769748D02*
X192182D01*
X190627Y768193D02*
Y771303D01*
X182976Y769748D02*
X186086D01*
X184531Y768193D02*
Y771303D01*
X177261Y769748D02*
X180371D01*
X178816Y768193D02*
Y771303D01*
X171165Y769748D02*
X174275D01*
X172720Y768193D02*
Y771303D01*
X165704Y769748D02*
X168814D01*
X167259Y768193D02*
Y771303D01*
X291815Y753365D02*
X294925D01*
X293370Y751810D02*
Y754920D01*
X175229Y691008D02*
X178339D01*
X176784Y689453D02*
Y692563D01*
X177134Y695072D02*
X180244D01*
X178689Y693517D02*
Y696627D01*
X175483Y699009D02*
X178593D01*
X177038Y697454D02*
Y700564D01*
X173451Y701930D02*
X176561D01*
X175006Y700375D02*
Y703485D01*
X169133Y702946D02*
X172243D01*
X170688Y701391D02*
Y704501D01*
X164688Y702565D02*
X167798D01*
X166243Y701010D02*
Y704120D01*
X165577Y697739D02*
X168687D01*
X167132Y696184D02*
Y699294D01*
X160624Y699771D02*
X163734D01*
X162179Y698216D02*
Y701326D01*
X161767Y696342D02*
X164877D01*
X163322Y694787D02*
Y697897D01*
X157653Y695959D02*
X160763D01*
X159208Y694404D02*
Y697514D01*
X162529Y692405D02*
X165639D01*
X164084Y690850D02*
Y693960D01*
X159608Y692659D02*
X162718D01*
X161163Y691104D02*
Y694214D01*
X155544Y692913D02*
X158654D01*
X157099Y691358D02*
Y694468D01*
X183362Y712618D02*
X186472D01*
X184917Y711063D02*
Y714173D01*
X184627Y793370D02*
X187737D01*
X186182Y791815D02*
Y794925D01*
X181071Y793497D02*
X184181D01*
X182626Y791942D02*
Y795052D01*
X177642Y793497D02*
X180752D01*
X179197Y791942D02*
Y795052D01*
X174467Y793497D02*
X177577D01*
X176022Y791942D02*
Y795052D01*
X87472Y643129D02*
X90582D01*
X89027Y641574D02*
Y644684D01*
X85059Y643129D02*
X88169D01*
X86614Y641574D02*
Y644684D01*
X82646Y642367D02*
X85756D01*
X84201Y640812D02*
Y643922D01*
X89885Y641351D02*
X92995D01*
X91440Y639796D02*
Y642906D01*
X87726Y640462D02*
X90836D01*
X89281Y638907D02*
Y642017D01*
X85440Y640081D02*
X88550D01*
X86995Y638526D02*
Y641636D01*
X83281Y639827D02*
X86391D01*
X84836Y638272D02*
Y641382D01*
X27305Y681864D02*
X34417D01*
X30861Y678308D02*
Y685420D01*
X13462Y684531D02*
X20574D01*
X17018Y680975D02*
Y688087D01*
X22352Y693548D02*
X29464D01*
X25908Y689992D02*
Y697104D01*
X28575Y716281D02*
X35687D01*
X32131Y712725D02*
Y719837D01*
X13970Y715646D02*
X21082D01*
X17526Y712090D02*
Y719202D01*
X28194Y727965D02*
X35306D01*
X31750Y724409D02*
Y731521D01*
X14097Y727711D02*
X21209D01*
X17653Y724155D02*
Y731267D01*
X26162Y741935D02*
X33274D01*
X29718Y738379D02*
Y745491D01*
X25273Y753873D02*
X32385D01*
X28829Y750317D02*
Y757429D01*
X13970Y754254D02*
X21082D01*
X17526Y750698D02*
Y757810D01*
X14478Y740538D02*
X21590D01*
X18034Y736982D02*
Y744094D01*
X13843Y697993D02*
X20955D01*
X17399Y694437D02*
Y701549D01*
X14351Y706375D02*
X21463D01*
X17907Y702819D02*
Y709931D01*
X30353Y703835D02*
X37465D01*
X33909Y700279D02*
Y707391D01*
X86710Y645415D02*
X89820D01*
X88265Y643860D02*
Y646970D01*
X81249Y645669D02*
X84359D01*
X82804Y644114D02*
Y647224D01*
X167101Y634366D02*
X170211D01*
X168656Y632811D02*
Y635921D01*
X165958Y645288D02*
X169068D01*
X167513Y643733D02*
Y646843D01*
X162529Y644526D02*
X165639D01*
X164084Y642971D02*
Y646081D01*
X164815Y642113D02*
X167925D01*
X166370Y640558D02*
Y643668D01*
X162402Y641097D02*
X165512D01*
X163957Y639542D02*
Y642652D01*
X166085Y638811D02*
X169195D01*
X167640Y637256D02*
Y640366D01*
X164942Y636398D02*
X168052D01*
X166497Y634843D02*
Y637953D01*
X162402Y637033D02*
X165512D01*
X163957Y635478D02*
Y638588D01*
X249524Y632207D02*
X252634D01*
X251079Y630652D02*
Y633762D01*
X247619Y633858D02*
X250729D01*
X249174Y632303D02*
Y635413D01*
X250413Y635382D02*
X253523D01*
X251968Y633827D02*
Y636937D01*
X250794Y638049D02*
X253904D01*
X252349Y636494D02*
Y639604D01*
X247746Y640589D02*
X250856D01*
X249301Y639034D02*
Y642144D01*
X250921Y641097D02*
X254031D01*
X252476Y639542D02*
Y642652D01*
X249651Y643510D02*
X252761D01*
X251206Y641955D02*
Y645065D01*
X246857Y643637D02*
X249967D01*
X248412Y642082D02*
Y645192D01*
X249778Y646304D02*
X252888D01*
X251333Y644749D02*
Y647859D01*
X247365Y646177D02*
X250475D01*
X248920Y644622D02*
Y647732D01*
X242158Y842900D02*
X245268D01*
X243713Y841345D02*
Y844455D01*
X239491Y843916D02*
X242601D01*
X241046Y842361D02*
Y845471D01*
X236697Y842011D02*
X239807D01*
X238252Y840456D02*
Y843566D01*
X239110Y841376D02*
X242220D01*
X240665Y839821D02*
Y842931D01*
X242031Y839471D02*
X245141D01*
X243586Y837916D02*
Y841026D01*
X241142Y836423D02*
X244252D01*
X242697Y834868D02*
Y837978D01*
X237967Y836423D02*
X241077D01*
X239522Y834868D02*
Y837978D01*
X235808Y838074D02*
X238918D01*
X237363Y836519D02*
Y839629D01*
X207360Y796672D02*
X210470D01*
X208915Y795117D02*
Y798227D01*
X204654Y797886D02*
X207764D01*
X206209Y796331D02*
Y799441D01*
X206217Y799212D02*
X209327D01*
X207772Y797657D02*
Y800767D01*
X203042Y800228D02*
X206152D01*
X204597Y798673D02*
Y801783D01*
X199359Y797815D02*
X202469D01*
X200914Y796260D02*
Y799370D01*
X179928Y800101D02*
X183038D01*
X181483Y798546D02*
Y801656D01*
X175864Y799847D02*
X178974D01*
X177419Y798292D02*
Y801402D01*
X174340Y797053D02*
X177450D01*
X175895Y795498D02*
Y798608D01*
X187167Y797307D02*
X190277D01*
X188722Y795752D02*
Y798862D01*
X181960Y797434D02*
X185070D01*
X183515Y795879D02*
Y798989D01*
X184500Y797180D02*
X187610D01*
X186055Y795625D02*
Y798735D01*
X138399Y691008D02*
X141509D01*
X139954Y689453D02*
Y692563D01*
X233395Y739776D02*
X236505D01*
X234950Y738221D02*
Y741331D01*
X209270Y711348D02*
X212380D01*
X210825Y709793D02*
Y712903D01*
X130652Y612522D02*
X133762D01*
X132207Y610967D02*
Y614077D01*
X108332Y611284D02*
X111442D01*
X109887Y609729D02*
Y612839D01*
X172943Y694945D02*
X176053D01*
X174498Y693390D02*
Y696500D01*
X170403Y698731D02*
X173513D01*
X171958Y697176D02*
Y700286D01*
X168371Y693421D02*
X171481D01*
X169926Y691866D02*
Y694976D01*
X140309Y736494D02*
X143419D01*
X141864Y734939D02*
Y738049D01*
X218917Y723520D02*
X222027D01*
X220472Y721965D02*
Y725075D01*
X218028Y714122D02*
X221138D01*
X219583Y712567D02*
Y715677D01*
X248000Y637160D02*
X251110D01*
X249555Y635605D02*
Y638715D01*
X140182Y745003D02*
X143292D01*
X141737Y743448D02*
Y746558D01*
X219049Y689885D02*
X222159D01*
X220604Y688330D02*
Y691440D01*
X190469Y705105D02*
X193579D01*
X192024Y703550D02*
Y706660D01*
X196189Y712872D02*
X199299D01*
X197744Y711317D02*
Y714427D01*
X238734Y838729D02*
X241844D01*
X240289Y837174D02*
Y840284D01*
X221462Y746654D02*
X224572D01*
X223017Y745099D02*
Y748209D01*
X163418Y633477D02*
X166528D01*
X164973Y631922D02*
Y635032D01*
X186550Y647556D02*
X189660D01*
X188105Y646001D02*
Y649111D01*
X84170Y645161D02*
X87280D01*
X85725Y643606D02*
Y646716D01*
X225521Y733426D02*
X228631D01*
X227076Y731871D02*
Y734981D01*
X202534Y797942D02*
X205644D01*
X204089Y796387D02*
Y799497D01*
X329915Y687960D02*
X333025D01*
X331470Y686405D02*
Y689515D01*
X178344Y797298D02*
X181455D01*
X179900Y795743D02*
Y798853D01*
X756560Y577180D02*
X771560D01*
X764060Y569680D02*
Y584680D01*
X707560Y577180D02*
X722560D01*
X715060Y569680D02*
Y584680D01*
X764184Y969646D02*
X794184D01*
X779184Y954646D02*
Y984646D01*
X548919Y969646D02*
X578919D01*
X563919Y954646D02*
Y984646D01*
X519380Y566750D02*
X525880D01*
X522630Y563500D02*
Y570000D01*
X577180Y566750D02*
X583680D01*
X580430Y563500D02*
Y570000D01*
X591780Y531750D02*
X597780D01*
X594780Y528750D02*
Y534750D01*
X505280Y531750D02*
X511280D01*
X508280Y528750D02*
Y534750D01*
X591780Y571750D02*
X597780D01*
X594780Y568750D02*
Y574750D01*
X505280Y571750D02*
X511280D01*
X508280Y568750D02*
Y574750D01*
X575191Y710312D02*
X578301D01*
X576746Y708757D02*
Y711867D01*
X564523Y778257D02*
X567633D01*
X566078Y776702D02*
Y779812D01*
X558300Y784480D02*
X561410D01*
X559855Y782925D02*
Y786035D01*
X552077Y790830D02*
X555187D01*
X553632Y789275D02*
Y792385D01*
X551442Y733426D02*
X554552D01*
X552997Y731871D02*
Y734981D01*
X546108Y714630D02*
X549218D01*
X547663Y713075D02*
Y716185D01*
X546362Y775082D02*
X549472D01*
X547917Y773527D02*
Y776637D01*
X637675Y606934D02*
X640785D01*
X639230Y605379D02*
Y608489D01*
X629293Y862331D02*
X632403D01*
X630848Y860776D02*
Y863886D01*
X621165Y763652D02*
X624275D01*
X622720Y762097D02*
Y765207D01*
X615704Y763652D02*
X618814D01*
X617259Y762097D02*
Y765207D01*
X627261Y763652D02*
X630371D01*
X628816Y762097D02*
Y765207D01*
X632976Y763652D02*
X636086D01*
X634531Y762097D02*
Y765207D01*
X639072Y763652D02*
X642182D01*
X640627Y762097D02*
Y765207D01*
X644787Y763652D02*
X647897D01*
X646342Y762097D02*
Y765207D01*
X615704Y751714D02*
X618814D01*
X617259Y750159D02*
Y753269D01*
X621165Y751714D02*
X624275D01*
X622720Y750159D02*
Y753269D01*
X627261Y751714D02*
X630371D01*
X628816Y750159D02*
Y753269D01*
X632976Y751714D02*
X636086D01*
X634531Y750159D02*
Y753269D01*
X639072Y751714D02*
X642182D01*
X640627Y750159D02*
Y753269D01*
X644787Y751714D02*
X647897D01*
X646342Y750159D02*
Y753269D01*
X725305Y715011D02*
X728415D01*
X726860Y713456D02*
Y716566D01*
X717558Y712979D02*
X720668D01*
X719113Y711424D02*
Y714534D01*
X721749Y714884D02*
X724859D01*
X723304Y713329D02*
Y716439D01*
X750070Y689992D02*
X753180D01*
X751625Y688437D02*
Y691547D01*
X721495Y682626D02*
X724605D01*
X723050Y681071D02*
Y684181D01*
X556141Y682245D02*
X559251D01*
X557696Y680690D02*
Y683800D01*
X556395Y686309D02*
X559505D01*
X557950Y684754D02*
Y687864D01*
X512992Y697104D02*
X520104D01*
X516548Y693548D02*
Y700660D01*
X513119Y707772D02*
X520231D01*
X516675Y704216D02*
Y711328D01*
X485179Y691897D02*
X492291D01*
X488735Y688341D02*
Y695453D01*
X802552Y628651D02*
X809664D01*
X806108Y625095D02*
Y632207D01*
X786042Y628651D02*
X793154D01*
X789598Y625095D02*
Y632207D01*
X620180Y610000D02*
X627292D01*
X623736Y606444D02*
Y613556D01*
X620180Y590000D02*
X627292D01*
X623736Y586444D02*
Y593556D01*
X620180Y570000D02*
X627292D01*
X623736Y566444D02*
Y573556D01*
X621304Y548876D02*
X628416D01*
X624860Y545320D02*
Y552432D01*
X644787Y740030D02*
X647897D01*
X646342Y738475D02*
Y741585D01*
X639072Y740030D02*
X642182D01*
X640627Y738475D02*
Y741585D01*
X632976Y740030D02*
X636086D01*
X634531Y738475D02*
Y741585D01*
X627261Y740030D02*
X630371D01*
X628816Y738475D02*
Y741585D01*
X621165Y740030D02*
X624275D01*
X622720Y738475D02*
Y741585D01*
X615704Y740030D02*
X618814D01*
X617259Y738475D02*
Y741585D01*
X644787Y745872D02*
X647897D01*
X646342Y744317D02*
Y747427D01*
X639072Y745872D02*
X642182D01*
X640627Y744317D02*
Y747427D01*
X632976Y745872D02*
X636086D01*
X634531Y744317D02*
Y747427D01*
X627261Y745872D02*
X630371D01*
X628816Y744317D02*
Y747427D01*
X621165Y745872D02*
X624275D01*
X622720Y744317D02*
Y747427D01*
X615704Y745872D02*
X618814D01*
X617259Y744317D02*
Y747427D01*
X644787Y757429D02*
X647897D01*
X646342Y755874D02*
Y758984D01*
X639072Y757429D02*
X642182D01*
X640627Y755874D02*
Y758984D01*
X632976Y757429D02*
X636086D01*
X634531Y755874D02*
Y758984D01*
X627261Y757429D02*
X630371D01*
X628816Y755874D02*
Y758984D01*
X621165Y757429D02*
X624275D01*
X622720Y755874D02*
Y758984D01*
X615704Y757429D02*
X618814D01*
X617259Y755874D02*
Y758984D01*
X644787Y769748D02*
X647897D01*
X646342Y768193D02*
Y771303D01*
X639072Y769748D02*
X642182D01*
X640627Y768193D02*
Y771303D01*
X632976Y769748D02*
X636086D01*
X634531Y768193D02*
Y771303D01*
X627261Y769748D02*
X630371D01*
X628816Y768193D02*
Y771303D01*
X621165Y769748D02*
X624275D01*
X622720Y768193D02*
Y771303D01*
X615704Y769748D02*
X618814D01*
X617259Y768193D02*
Y771303D01*
X741815Y753365D02*
X744925D01*
X743370Y751810D02*
Y754920D01*
X625229Y691008D02*
X628339D01*
X626784Y689453D02*
Y692563D01*
X627134Y695072D02*
X630244D01*
X628689Y693517D02*
Y696627D01*
X625483Y699009D02*
X628593D01*
X627038Y697454D02*
Y700564D01*
X623451Y701930D02*
X626561D01*
X625006Y700375D02*
Y703485D01*
X619133Y702946D02*
X622243D01*
X620688Y701391D02*
Y704501D01*
X614688Y702565D02*
X617798D01*
X616243Y701010D02*
Y704120D01*
X615577Y697739D02*
X618687D01*
X617132Y696184D02*
Y699294D01*
X610624Y699771D02*
X613734D01*
X612179Y698216D02*
Y701326D01*
X611767Y696342D02*
X614877D01*
X613322Y694787D02*
Y697897D01*
X607653Y695959D02*
X610763D01*
X609208Y694404D02*
Y697514D01*
X612529Y692405D02*
X615639D01*
X614084Y690850D02*
Y693960D01*
X609608Y692659D02*
X612718D01*
X611163Y691104D02*
Y694214D01*
X605544Y692913D02*
X608654D01*
X607099Y691358D02*
Y694468D01*
X633362Y712618D02*
X636472D01*
X634917Y711063D02*
Y714173D01*
X634627Y793370D02*
X637737D01*
X636182Y791815D02*
Y794925D01*
X631071Y793497D02*
X634181D01*
X632626Y791942D02*
Y795052D01*
X627642Y793497D02*
X630752D01*
X629197Y791942D02*
Y795052D01*
X624467Y793497D02*
X627577D01*
X626022Y791942D02*
Y795052D01*
X537472Y643129D02*
X540582D01*
X539027Y641574D02*
Y644684D01*
X535059Y643129D02*
X538169D01*
X536614Y641574D02*
Y644684D01*
X532646Y642367D02*
X535756D01*
X534201Y640812D02*
Y643922D01*
X539885Y641351D02*
X542995D01*
X541440Y639796D02*
Y642906D01*
X537726Y640462D02*
X540836D01*
X539281Y638907D02*
Y642017D01*
X535440Y640081D02*
X538550D01*
X536995Y638526D02*
Y641636D01*
X533281Y639827D02*
X536391D01*
X534836Y638272D02*
Y641382D01*
X477305Y681864D02*
X484417D01*
X480861Y678308D02*
Y685420D01*
X463462Y684531D02*
X470574D01*
X467018Y680975D02*
Y688087D01*
X472352Y693548D02*
X479464D01*
X475908Y689992D02*
Y697104D01*
X478575Y716281D02*
X485687D01*
X482131Y712725D02*
Y719837D01*
X463970Y715646D02*
X471082D01*
X467526Y712090D02*
Y719202D01*
X478194Y727965D02*
X485306D01*
X481750Y724409D02*
Y731521D01*
X464097Y727711D02*
X471209D01*
X467653Y724155D02*
Y731267D01*
X476162Y741935D02*
X483274D01*
X479718Y738379D02*
Y745491D01*
X475273Y753873D02*
X482385D01*
X478829Y750317D02*
Y757429D01*
X463970Y754254D02*
X471082D01*
X467526Y750698D02*
Y757810D01*
X464478Y740538D02*
X471590D01*
X468034Y736982D02*
Y744094D01*
X463843Y697993D02*
X470955D01*
X467399Y694437D02*
Y701549D01*
X464351Y706375D02*
X471463D01*
X467907Y702819D02*
Y709931D01*
X480353Y703835D02*
X487465D01*
X483909Y700279D02*
Y707391D01*
X536710Y645415D02*
X539820D01*
X538265Y643860D02*
Y646970D01*
X531249Y645669D02*
X534359D01*
X532804Y644114D02*
Y647224D01*
X617101Y634366D02*
X620211D01*
X618656Y632811D02*
Y635921D01*
X615958Y645288D02*
X619068D01*
X617513Y643733D02*
Y646843D01*
X612529Y644526D02*
X615639D01*
X614084Y642971D02*
Y646081D01*
X614815Y642113D02*
X617925D01*
X616370Y640558D02*
Y643668D01*
X612402Y641097D02*
X615512D01*
X613957Y639542D02*
Y642652D01*
X616085Y638811D02*
X619195D01*
X617640Y637256D02*
Y640366D01*
X614942Y636398D02*
X618052D01*
X616497Y634843D02*
Y637953D01*
X612402Y637033D02*
X615512D01*
X613957Y635478D02*
Y638588D01*
X699524Y632207D02*
X702634D01*
X701079Y630652D02*
Y633762D01*
X697619Y633858D02*
X700729D01*
X699174Y632303D02*
Y635413D01*
X700413Y635382D02*
X703523D01*
X701968Y633827D02*
Y636937D01*
X700794Y638049D02*
X703904D01*
X702349Y636494D02*
Y639604D01*
X697746Y640589D02*
X700856D01*
X699301Y639034D02*
Y642144D01*
X700921Y641097D02*
X704031D01*
X702476Y639542D02*
Y642652D01*
X699651Y643510D02*
X702761D01*
X701206Y641955D02*
Y645065D01*
X696857Y643637D02*
X699967D01*
X698412Y642082D02*
Y645192D01*
X699778Y646304D02*
X702888D01*
X701333Y644749D02*
Y647859D01*
X697365Y646177D02*
X700475D01*
X698920Y644622D02*
Y647732D01*
X692158Y842900D02*
X695268D01*
X693713Y841345D02*
Y844455D01*
X689491Y843916D02*
X692601D01*
X691046Y842361D02*
Y845471D01*
X686697Y842011D02*
X689807D01*
X688252Y840456D02*
Y843566D01*
X689110Y841376D02*
X692220D01*
X690665Y839821D02*
Y842931D01*
X692031Y839471D02*
X695141D01*
X693586Y837916D02*
Y841026D01*
X691142Y836423D02*
X694252D01*
X692697Y834868D02*
Y837978D01*
X687967Y836423D02*
X691077D01*
X689522Y834868D02*
Y837978D01*
X685808Y838074D02*
X688918D01*
X687363Y836519D02*
Y839629D01*
X657360Y796672D02*
X660470D01*
X658915Y795117D02*
Y798227D01*
X654654Y797886D02*
X657764D01*
X656209Y796331D02*
Y799441D01*
X656217Y799212D02*
X659327D01*
X657772Y797657D02*
Y800767D01*
X653042Y800228D02*
X656152D01*
X654597Y798673D02*
Y801783D01*
X649359Y797815D02*
X652469D01*
X650914Y796260D02*
Y799370D01*
X629928Y800101D02*
X633038D01*
X631483Y798546D02*
Y801656D01*
X625864Y799847D02*
X628974D01*
X627419Y798292D02*
Y801402D01*
X624340Y797053D02*
X627450D01*
X625895Y795498D02*
Y798608D01*
X637167Y797307D02*
X640277D01*
X638722Y795752D02*
Y798862D01*
X631960Y797434D02*
X635070D01*
X633515Y795879D02*
Y798989D01*
X634500Y797180D02*
X637610D01*
X636055Y795625D02*
Y798735D01*
X588399Y691008D02*
X591509D01*
X589954Y689453D02*
Y692563D01*
X683395Y739776D02*
X686505D01*
X684950Y738221D02*
Y741331D01*
X659270Y711348D02*
X662380D01*
X660825Y709793D02*
Y712903D01*
X580652Y612522D02*
X583762D01*
X582207Y610967D02*
Y614077D01*
X558332Y611284D02*
X561442D01*
X559887Y609729D02*
Y612839D01*
X622943Y694945D02*
X626053D01*
X624498Y693390D02*
Y696500D01*
X620403Y698731D02*
X623513D01*
X621958Y697176D02*
Y700286D01*
X618371Y693421D02*
X621481D01*
X619926Y691866D02*
Y694976D01*
X590309Y736494D02*
X593419D01*
X591864Y734939D02*
Y738049D01*
X668917Y723520D02*
X672027D01*
X670472Y721965D02*
Y725075D01*
X668028Y714122D02*
X671138D01*
X669583Y712567D02*
Y715677D01*
X698000Y637160D02*
X701110D01*
X699555Y635605D02*
Y638715D01*
X590182Y745003D02*
X593292D01*
X591737Y743448D02*
Y746558D01*
X669049Y689885D02*
X672159D01*
X670604Y688330D02*
Y691440D01*
X640469Y705105D02*
X643579D01*
X642024Y703550D02*
Y706660D01*
X646189Y712872D02*
X649299D01*
X647744Y711317D02*
Y714427D01*
X688734Y838729D02*
X691844D01*
X690289Y837174D02*
Y840284D01*
X671462Y746654D02*
X674572D01*
X673017Y745099D02*
Y748209D01*
X613418Y633477D02*
X616528D01*
X614973Y631922D02*
Y635032D01*
X636550Y647556D02*
X639660D01*
X638105Y646001D02*
Y649111D01*
X534170Y645161D02*
X537280D01*
X535725Y643606D02*
Y646716D01*
X675521Y733426D02*
X678631D01*
X677076Y731871D02*
Y734981D01*
X652534Y797942D02*
X655644D01*
X654089Y796387D02*
Y799497D01*
X779915Y687960D02*
X783025D01*
X781470Y686405D02*
Y689515D01*
X628344Y797298D02*
X631455D01*
X629899Y795743D02*
Y798853D01*
M02*
