G04*
G04 #@! TF.GenerationSoftware,Altium Limited,Altium Designer,20.2.3 (150)*
G04*
G04 Layer_Color=16711935*
%FSLAX44Y44*%
%MOMM*%
G71*
G04*
G04 #@! TF.SameCoordinates,C1CC25AD-0FF3-43E4-BDA3-AC1D03E08D52*
G04*
G04*
G04 #@! TF.FilePolarity,Positive*
G04*
G01*
G75*
%ADD31C,0.2540*%
%ADD39C,0.2540*%
D31*
X50000Y1000000D02*
G03*
X0Y950000I0J-50000D01*
G01*
X450000D02*
G03*
X400000Y1000000I-50000J0D01*
G01*
X0Y550000D02*
G03*
X50000Y500000I50000J0D01*
G01*
X500000Y1000000D02*
G03*
X450000Y950000I0J-50000D01*
G01*
X900000D02*
G03*
X850000Y1000000I-50000J0D01*
G01*
Y500000D02*
G03*
X900000Y550000I0J50000D01*
G01*
Y450000D02*
G03*
X850000Y500000I-50000J0D01*
G01*
Y0D02*
G03*
X900000Y50000I0J50000D01*
G01*
X450000D02*
G03*
X500000Y0I50000J0D01*
G01*
X50000Y500000D02*
G03*
X0Y450000I0J-50000D01*
G01*
X400000Y0D02*
G03*
X450000Y50000I0J50000D01*
G01*
X0D02*
G03*
X50000Y0I50000J0D01*
G01*
X900000Y50000D02*
Y450000D01*
X0Y550000D02*
Y950000D01*
X50000Y1000000D02*
X400000D01*
X900000Y550000D02*
Y950000D01*
X500000Y1000000D02*
X850000D01*
X500000Y0D02*
X850000D01*
X0Y50000D02*
Y450000D01*
X50000Y500000D02*
X400000D01*
X50000Y0D02*
X400000D01*
X0Y50000D02*
G03*
X50000Y0I50000J0D01*
G01*
X400000D02*
G03*
X450000Y50000I0J50000D01*
G01*
Y450000D02*
G03*
X400000Y500000I-50000J0D01*
G01*
X50000D02*
G03*
X0Y450000I0J-50000D01*
G01*
X50000Y0D02*
X400000D01*
X50000Y500000D02*
X400000D01*
X450000Y50000D02*
Y450000D01*
X0Y50000D02*
Y450000D01*
X450000Y50000D02*
G03*
X500000Y0I50000J0D01*
G01*
X850000D02*
G03*
X900000Y50000I0J50000D01*
G01*
Y450000D02*
G03*
X850000Y500000I-50000J0D01*
G01*
X500000D02*
G03*
X450000Y450000I0J-50000D01*
G01*
X500000Y0D02*
X850000D01*
X500000Y500000D02*
X850000D01*
X900000Y50000D02*
Y450000D01*
X450000Y50000D02*
Y450000D01*
X0Y550000D02*
G03*
X50000Y500000I50000J0D01*
G01*
X400000D02*
G03*
X450000Y550000I0J50000D01*
G01*
Y950000D02*
G03*
X400000Y1000000I-50000J0D01*
G01*
X50000D02*
G03*
X0Y950000I0J-50000D01*
G01*
X50000Y500000D02*
X400000D01*
X50000Y1000000D02*
X400000D01*
X450000Y550000D02*
Y950000D01*
X0Y550000D02*
Y950000D01*
X450000Y550000D02*
G03*
X500000Y500000I50000J0D01*
G01*
X850000D02*
G03*
X900000Y550000I0J50000D01*
G01*
Y950000D02*
G03*
X850000Y1000000I-50000J0D01*
G01*
X500000D02*
G03*
X450000Y950000I0J-50000D01*
G01*
X500000Y500000D02*
X850000D01*
X500000Y1000000D02*
X850000D01*
X900000Y550000D02*
Y950000D01*
X450000Y550000D02*
Y950000D01*
X50000Y1000000D02*
G03*
X0Y950000I0J-50000D01*
G01*
X450000D02*
G03*
X400000Y1000000I-50000J0D01*
G01*
X0Y550000D02*
G03*
X50000Y500000I50000J0D01*
G01*
X500000Y1000000D02*
G03*
X450000Y950000I0J-50000D01*
G01*
X900000D02*
G03*
X850000Y1000000I-50000J0D01*
G01*
Y500000D02*
G03*
X900000Y550000I0J50000D01*
G01*
Y450000D02*
G03*
X850000Y500000I-50000J0D01*
G01*
Y0D02*
G03*
X900000Y50000I0J50000D01*
G01*
X450000D02*
G03*
X500000Y0I50000J0D01*
G01*
X50000Y500000D02*
G03*
X0Y450000I0J-50000D01*
G01*
X400000Y0D02*
G03*
X450000Y50000I0J50000D01*
G01*
X0D02*
G03*
X50000Y0I50000J0D01*
G01*
X900000Y50000D02*
Y450000D01*
X0Y550000D02*
Y950000D01*
X50000Y1000000D02*
X400000D01*
X900000Y550000D02*
Y950000D01*
X500000Y1000000D02*
X850000D01*
X500000Y0D02*
X850000D01*
X0Y50000D02*
Y450000D01*
X50000Y500000D02*
X400000D01*
X50000Y0D02*
X400000D01*
X0Y50000D02*
G03*
X50000Y0I50000J0D01*
G01*
X400000D02*
G03*
X450000Y50000I0J50000D01*
G01*
Y450000D02*
G03*
X400000Y500000I-50000J0D01*
G01*
X50000D02*
G03*
X0Y450000I0J-50000D01*
G01*
X50000Y0D02*
X400000D01*
X50000Y500000D02*
X400000D01*
X450000Y50000D02*
Y450000D01*
X0Y50000D02*
Y450000D01*
X450000Y50000D02*
G03*
X500000Y0I50000J0D01*
G01*
X850000D02*
G03*
X900000Y50000I0J50000D01*
G01*
Y450000D02*
G03*
X850000Y500000I-50000J0D01*
G01*
X500000D02*
G03*
X450000Y450000I0J-50000D01*
G01*
X500000Y0D02*
X850000D01*
X500000Y500000D02*
X850000D01*
X900000Y50000D02*
Y450000D01*
X450000Y50000D02*
Y450000D01*
X0Y550000D02*
G03*
X50000Y500000I50000J0D01*
G01*
X400000D02*
G03*
X450000Y550000I0J50000D01*
G01*
Y950000D02*
G03*
X400000Y1000000I-50000J0D01*
G01*
X50000D02*
G03*
X0Y950000I0J-50000D01*
G01*
X50000Y500000D02*
X400000D01*
X50000Y1000000D02*
X400000D01*
X450000Y550000D02*
Y950000D01*
X0Y550000D02*
Y950000D01*
X450000Y550000D02*
G03*
X500000Y500000I50000J0D01*
G01*
X850000D02*
G03*
X900000Y550000I0J50000D01*
G01*
Y950000D02*
G03*
X850000Y1000000I-50000J0D01*
G01*
X500000D02*
G03*
X450000Y950000I0J-50000D01*
G01*
X500000Y500000D02*
X850000D01*
X500000Y1000000D02*
X850000D01*
X900000Y550000D02*
Y950000D01*
X450000Y550000D02*
Y950000D01*
D39*
X900000Y50000D02*
D03*
D03*
M02*
