M48
;Layer_Color=9474304
;FILE_FORMAT=4:4
METRIC,LZ
;TYPE=PLATED
T2F00S00C0.6000
;TYPE=NON_PLATED
%
G90
G05
T02
G00X0005828Y0002875
M15
G01Y0003475
M16
G00X0005828Y0006625
M15
G01Y0007725
M16
G00X0014478Y0006625
M15
G01Y0007725
M16
G00X0014478Y0002875
M15
G01Y0003475
M16
G00X0050828Y0002875
M15
G01Y0003475
M16
G00X0050828Y0006625
M15
G01Y0007725
M16
G00X0059478Y0006625
M15
G01Y0007725
M16
G00X0059478Y0002875
M15
G01Y0003475
M16
G00X0059478Y0052875
M15
G01Y0053475
M16
G00X0050828Y0052875
M15
G01Y0053475
M16
G00X0014478Y0052875
M15
G01Y0053475
M16
G00X0005828Y0052875
M15
G01Y0053475
M16
G00X0005828Y0056625
M15
G01Y0057725
M16
G00X0014478Y0056625
M15
G01Y0057725
M16
G00X0050828Y0056625
M15
G01Y0057725
M16
G00X0059478Y0056625
M15
G01Y0057725
M16
M17
M30
