G04*
G04 #@! TF.GenerationSoftware,Altium Limited,Altium Designer,20.2.3 (150)*
G04*
G04 Layer_Color=8388736*
%FSLAX44Y44*%
%MOMM*%
G71*
G04*
G04 #@! TF.SameCoordinates,C1CC25AD-0FF3-43E4-BDA3-AC1D03E08D52*
G04*
G04*
G04 #@! TF.FilePolarity,Positive*
G04*
G01*
G75*
%ADD31C,0.2540*%
%ADD39C,0.2540*%
%ADD80C,0.0508*%
G36*
X619934Y664517D02*
X620035Y664508D01*
X620146Y664490D01*
X620267Y664462D01*
X620396Y664425D01*
X620516Y664370D01*
X620535Y664360D01*
X620572Y664342D01*
X620627Y664305D01*
X620710Y664258D01*
X620794Y664194D01*
X620886Y664111D01*
X620979Y664018D01*
X621071Y663907D01*
X621080Y663898D01*
X621108Y663852D01*
X621145Y663787D01*
X621200Y663695D01*
X621256Y663584D01*
X621311Y663454D01*
X621367Y663297D01*
X621413Y663131D01*
Y663121D01*
X621422Y663112D01*
Y663084D01*
X621432Y663047D01*
X621450Y662955D01*
X621469Y662816D01*
X621496Y662659D01*
X621515Y662474D01*
X621524Y662262D01*
X621533Y662030D01*
Y661845D01*
X621524Y661734D01*
Y661679D01*
X621515Y661633D01*
Y661540D01*
X621506Y661420D01*
Y661365D01*
X621496Y661328D01*
X621487Y661235D01*
X621478Y661124D01*
Y661069D01*
X621469Y661041D01*
X621459Y660949D01*
X621450Y660865D01*
X620572D01*
Y660875D01*
X620581Y660912D01*
X620590Y660967D01*
X620599Y661032D01*
X620618Y661124D01*
X620627Y661217D01*
X620646Y661328D01*
X620655Y661448D01*
Y661503D01*
X620664Y661568D01*
Y661651D01*
X620673Y661753D01*
Y661873D01*
X620683Y662003D01*
Y662252D01*
X620673Y662336D01*
Y662428D01*
X620655Y662530D01*
X620627Y662724D01*
Y662733D01*
X620618Y662770D01*
X620599Y662807D01*
X620581Y662872D01*
X620535Y663001D01*
X620461Y663131D01*
X620452Y663140D01*
X620442Y663158D01*
X620415Y663186D01*
X620387Y663223D01*
X620303Y663306D01*
X620193Y663371D01*
X620183D01*
X620165Y663380D01*
X620128Y663399D01*
X620082Y663417D01*
X620026Y663426D01*
X619961Y663445D01*
X619823Y663454D01*
X619813D01*
X619795D01*
X619758D01*
X619712Y663445D01*
X619610Y663417D01*
X619499Y663371D01*
X619490D01*
X619471Y663353D01*
X619444Y663334D01*
X619416Y663306D01*
X619333Y663232D01*
X619249Y663121D01*
X619240Y663112D01*
X619231Y663094D01*
X619213Y663057D01*
X619194Y663010D01*
X619166Y662955D01*
X619139Y662881D01*
X619111Y662807D01*
X619092Y662714D01*
Y662705D01*
X619083Y662668D01*
X619074Y662622D01*
X619055Y662548D01*
X619046Y662465D01*
X619037Y662363D01*
X619028Y662243D01*
Y661522D01*
X618251D01*
Y662188D01*
X618242Y662262D01*
Y662354D01*
X618223Y662437D01*
X618214Y662530D01*
X618195Y662613D01*
Y662622D01*
X618186Y662650D01*
X618168Y662687D01*
X618149Y662733D01*
X618094Y662844D01*
X618020Y662955D01*
X618011Y662964D01*
X618001Y662973D01*
X617946Y663029D01*
X617863Y663084D01*
X617761Y663140D01*
X617752D01*
X617733Y663149D01*
X617705Y663158D01*
X617668Y663168D01*
X617567Y663186D01*
X617456Y663195D01*
X617437D01*
X617400D01*
X617345Y663186D01*
X617271Y663168D01*
X617188Y663140D01*
X617105Y663103D01*
X617021Y663047D01*
X616947Y662973D01*
X616938Y662964D01*
X616920Y662936D01*
X616892Y662881D01*
X616855Y662807D01*
X616827Y662714D01*
X616800Y662604D01*
X616781Y662465D01*
X616772Y662308D01*
Y662188D01*
X616781Y662104D01*
X616790Y662003D01*
X616800Y661892D01*
X616836Y661661D01*
Y661651D01*
X616846Y661605D01*
X616864Y661540D01*
X616883Y661466D01*
X616901Y661365D01*
X616938Y661254D01*
X617003Y661013D01*
X616152D01*
Y661023D01*
X616143Y661041D01*
X616134Y661078D01*
X616115Y661124D01*
X616087Y661245D01*
X616060Y661365D01*
Y661374D01*
X616051Y661392D01*
X616041Y661429D01*
X616032Y661476D01*
X616004Y661587D01*
X615986Y661707D01*
Y661716D01*
X615977Y661734D01*
Y661771D01*
X615967Y661818D01*
X615949Y661929D01*
X615940Y662049D01*
Y662077D01*
X615930Y662114D01*
Y662160D01*
X615921Y662280D01*
Y662493D01*
X615930Y662576D01*
Y662687D01*
X615949Y662807D01*
X615967Y662936D01*
X615986Y663066D01*
X616023Y663195D01*
Y663214D01*
X616041Y663251D01*
X616060Y663316D01*
X616087Y663399D01*
X616124Y663482D01*
X616171Y663584D01*
X616226Y663676D01*
X616291Y663768D01*
X616300Y663778D01*
X616319Y663805D01*
X616356Y663852D01*
X616411Y663898D01*
X616476Y663953D01*
X616550Y664018D01*
X616633Y664074D01*
X616726Y664120D01*
X616735Y664129D01*
X616772Y664138D01*
X616818Y664157D01*
X616892Y664185D01*
X616975Y664203D01*
X617068Y664222D01*
X617178Y664231D01*
X617290Y664240D01*
X617299D01*
X617308D01*
X617336D01*
X617373D01*
X617456Y664231D01*
X617576Y664212D01*
X617696Y664185D01*
X617835Y664138D01*
X617964Y664083D01*
X618085Y664009D01*
X618094Y664000D01*
X618131Y663963D01*
X618186Y663916D01*
X618260Y663842D01*
X618334Y663750D01*
X618408Y663639D01*
X618491Y663519D01*
X618556Y663371D01*
Y663380D01*
X618565Y663417D01*
X618575Y663463D01*
X618593Y663528D01*
X618612Y663602D01*
X618639Y663685D01*
X618704Y663842D01*
Y663852D01*
X618722Y663879D01*
X618741Y663916D01*
X618778Y663972D01*
X618852Y664083D01*
X618963Y664203D01*
X618972Y664212D01*
X618991Y664231D01*
X619028Y664258D01*
X619065Y664296D01*
X619120Y664333D01*
X619185Y664370D01*
X619333Y664444D01*
X619342D01*
X619370Y664453D01*
X619407Y664471D01*
X619462Y664490D01*
X619536Y664499D01*
X619610Y664517D01*
X619795Y664527D01*
X619813D01*
X619860D01*
X619934Y664517D01*
D02*
G37*
G36*
X169934D02*
X170035Y664508D01*
X170146Y664490D01*
X170267Y664462D01*
X170396Y664425D01*
X170516Y664370D01*
X170535Y664360D01*
X170572Y664342D01*
X170627Y664305D01*
X170710Y664258D01*
X170794Y664194D01*
X170886Y664111D01*
X170979Y664018D01*
X171071Y663907D01*
X171080Y663898D01*
X171108Y663852D01*
X171145Y663787D01*
X171200Y663695D01*
X171256Y663584D01*
X171311Y663454D01*
X171367Y663297D01*
X171413Y663131D01*
Y663121D01*
X171422Y663112D01*
Y663084D01*
X171432Y663047D01*
X171450Y662955D01*
X171469Y662816D01*
X171496Y662659D01*
X171515Y662474D01*
X171524Y662262D01*
X171533Y662030D01*
Y661845D01*
X171524Y661734D01*
Y661679D01*
X171515Y661633D01*
Y661540D01*
X171506Y661420D01*
Y661365D01*
X171496Y661328D01*
X171487Y661235D01*
X171478Y661124D01*
Y661069D01*
X171469Y661041D01*
X171459Y660949D01*
X171450Y660865D01*
X170572D01*
Y660875D01*
X170581Y660912D01*
X170590Y660967D01*
X170599Y661032D01*
X170618Y661124D01*
X170627Y661217D01*
X170646Y661328D01*
X170655Y661448D01*
Y661503D01*
X170664Y661568D01*
Y661651D01*
X170673Y661753D01*
Y661873D01*
X170683Y662003D01*
Y662252D01*
X170673Y662336D01*
Y662428D01*
X170655Y662530D01*
X170627Y662724D01*
Y662733D01*
X170618Y662770D01*
X170599Y662807D01*
X170581Y662872D01*
X170535Y663001D01*
X170461Y663131D01*
X170452Y663140D01*
X170442Y663158D01*
X170415Y663186D01*
X170387Y663223D01*
X170303Y663306D01*
X170193Y663371D01*
X170183D01*
X170165Y663380D01*
X170128Y663399D01*
X170082Y663417D01*
X170026Y663426D01*
X169961Y663445D01*
X169823Y663454D01*
X169813D01*
X169795D01*
X169758D01*
X169712Y663445D01*
X169610Y663417D01*
X169499Y663371D01*
X169490D01*
X169471Y663353D01*
X169444Y663334D01*
X169416Y663306D01*
X169333Y663232D01*
X169249Y663121D01*
X169240Y663112D01*
X169231Y663094D01*
X169213Y663057D01*
X169194Y663010D01*
X169166Y662955D01*
X169139Y662881D01*
X169111Y662807D01*
X169092Y662714D01*
Y662705D01*
X169083Y662668D01*
X169074Y662622D01*
X169055Y662548D01*
X169046Y662465D01*
X169037Y662363D01*
X169028Y662243D01*
Y661522D01*
X168251D01*
Y662188D01*
X168242Y662262D01*
Y662354D01*
X168223Y662437D01*
X168214Y662530D01*
X168195Y662613D01*
Y662622D01*
X168186Y662650D01*
X168168Y662687D01*
X168149Y662733D01*
X168094Y662844D01*
X168020Y662955D01*
X168011Y662964D01*
X168001Y662973D01*
X167946Y663029D01*
X167863Y663084D01*
X167761Y663140D01*
X167752D01*
X167733Y663149D01*
X167705Y663158D01*
X167668Y663168D01*
X167567Y663186D01*
X167456Y663195D01*
X167437D01*
X167400D01*
X167345Y663186D01*
X167271Y663168D01*
X167188Y663140D01*
X167105Y663103D01*
X167021Y663047D01*
X166947Y662973D01*
X166938Y662964D01*
X166920Y662936D01*
X166892Y662881D01*
X166855Y662807D01*
X166827Y662714D01*
X166800Y662604D01*
X166781Y662465D01*
X166772Y662308D01*
Y662188D01*
X166781Y662104D01*
X166790Y662003D01*
X166800Y661892D01*
X166836Y661661D01*
Y661651D01*
X166846Y661605D01*
X166864Y661540D01*
X166883Y661466D01*
X166901Y661365D01*
X166938Y661254D01*
X167003Y661013D01*
X166152D01*
Y661023D01*
X166143Y661041D01*
X166134Y661078D01*
X166115Y661124D01*
X166088Y661245D01*
X166060Y661365D01*
Y661374D01*
X166051Y661392D01*
X166041Y661429D01*
X166032Y661476D01*
X166004Y661587D01*
X165986Y661707D01*
Y661716D01*
X165977Y661734D01*
Y661771D01*
X165967Y661818D01*
X165949Y661929D01*
X165940Y662049D01*
Y662077D01*
X165930Y662114D01*
Y662160D01*
X165921Y662280D01*
Y662493D01*
X165930Y662576D01*
Y662687D01*
X165949Y662807D01*
X165967Y662936D01*
X165986Y663066D01*
X166023Y663195D01*
Y663214D01*
X166041Y663251D01*
X166060Y663316D01*
X166088Y663399D01*
X166124Y663482D01*
X166171Y663584D01*
X166226Y663676D01*
X166291Y663768D01*
X166300Y663778D01*
X166319Y663805D01*
X166356Y663852D01*
X166411Y663898D01*
X166476Y663953D01*
X166550Y664018D01*
X166633Y664074D01*
X166726Y664120D01*
X166735Y664129D01*
X166772Y664138D01*
X166818Y664157D01*
X166892Y664185D01*
X166975Y664203D01*
X167068Y664222D01*
X167178Y664231D01*
X167290Y664240D01*
X167299D01*
X167308D01*
X167336D01*
X167373D01*
X167456Y664231D01*
X167576Y664212D01*
X167696Y664185D01*
X167835Y664138D01*
X167964Y664083D01*
X168085Y664009D01*
X168094Y664000D01*
X168131Y663963D01*
X168186Y663916D01*
X168260Y663842D01*
X168334Y663750D01*
X168408Y663639D01*
X168491Y663519D01*
X168556Y663371D01*
Y663380D01*
X168565Y663417D01*
X168575Y663463D01*
X168593Y663528D01*
X168612Y663602D01*
X168639Y663685D01*
X168704Y663842D01*
Y663852D01*
X168722Y663879D01*
X168741Y663916D01*
X168778Y663972D01*
X168852Y664083D01*
X168963Y664203D01*
X168972Y664212D01*
X168991Y664231D01*
X169028Y664258D01*
X169065Y664296D01*
X169120Y664333D01*
X169185Y664370D01*
X169333Y664444D01*
X169342D01*
X169370Y664453D01*
X169407Y664471D01*
X169462Y664490D01*
X169536Y664499D01*
X169610Y664517D01*
X169795Y664527D01*
X169813D01*
X169860D01*
X169934Y664517D01*
D02*
G37*
G36*
X706540Y660912D02*
X705634D01*
Y662299D01*
X702148D01*
X702805Y661087D01*
X701973Y660754D01*
X701067Y662483D01*
Y663343D01*
X705634D01*
Y664536D01*
X706540D01*
Y660912D01*
D02*
G37*
G36*
X256540D02*
X255634D01*
Y662299D01*
X252148D01*
X252805Y661087D01*
X251973Y660754D01*
X251067Y662483D01*
Y663343D01*
X255634D01*
Y664536D01*
X256540D01*
Y660912D01*
D02*
G37*
G36*
X539061Y663972D02*
X540170D01*
Y662973D01*
X539061D01*
Y660449D01*
X538191D01*
X534734Y662567D01*
Y663972D01*
X538164D01*
Y664795D01*
X539061D01*
Y663972D01*
D02*
G37*
G36*
X89060D02*
X90170D01*
Y662973D01*
X89060D01*
Y660449D01*
X88191D01*
X84734Y662567D01*
Y663972D01*
X88164D01*
Y664795D01*
X89060D01*
Y663972D01*
D02*
G37*
G36*
X704728Y659913D02*
X704848Y659904D01*
X704996Y659885D01*
X705144Y659858D01*
X705301Y659821D01*
X705458Y659774D01*
X705477Y659765D01*
X705523Y659747D01*
X705597Y659719D01*
X705689Y659673D01*
X705791Y659617D01*
X705902Y659553D01*
X706013Y659469D01*
X706115Y659377D01*
X706124Y659368D01*
X706161Y659331D01*
X706207Y659275D01*
X706263Y659201D01*
X706327Y659109D01*
X706383Y658998D01*
X706448Y658878D01*
X706503Y658739D01*
X706512Y658720D01*
X706522Y658674D01*
X706540Y658600D01*
X706568Y658499D01*
X706596Y658369D01*
X706614Y658230D01*
X706623Y658073D01*
X706632Y657898D01*
Y657814D01*
X706623Y657713D01*
X706614Y657592D01*
X706605Y657454D01*
X706577Y657297D01*
X706549Y657149D01*
X706503Y657001D01*
X706494Y656982D01*
X706475Y656936D01*
X706448Y656871D01*
X706411Y656788D01*
X706355Y656686D01*
X706290Y656585D01*
X706207Y656483D01*
X706124Y656391D01*
X706115Y656381D01*
X706078Y656354D01*
X706022Y656317D01*
X705957Y656261D01*
X705865Y656206D01*
X705763Y656150D01*
X705643Y656104D01*
X705514Y656058D01*
X705495D01*
X705449Y656039D01*
X705375Y656030D01*
X705273Y656012D01*
X705162Y655993D01*
X705024Y655975D01*
X704866Y655965D01*
X704709Y655956D01*
X701104D01*
Y656982D01*
X704654D01*
X704663D01*
X704700D01*
X704746D01*
X704811Y656992D01*
X704885D01*
X704968Y657001D01*
X705135Y657029D01*
X705144D01*
X705172Y657038D01*
X705209Y657047D01*
X705255Y657066D01*
X705375Y657121D01*
X705495Y657195D01*
X705505Y657204D01*
X705523Y657213D01*
X705542Y657241D01*
X705578Y657278D01*
X705652Y657371D01*
X705717Y657491D01*
Y657500D01*
X705726Y657518D01*
X705736Y657565D01*
X705754Y657611D01*
X705763Y657676D01*
X705782Y657750D01*
X705791Y657842D01*
Y658027D01*
X705782Y658083D01*
X705763Y658230D01*
X705736Y658369D01*
Y658378D01*
X705726Y658397D01*
X705708Y658434D01*
X705689Y658471D01*
X705625Y658563D01*
X705532Y658656D01*
X705523Y658665D01*
X705505Y658674D01*
X705477Y658693D01*
X705431Y658720D01*
X705375Y658748D01*
X705310Y658785D01*
X705162Y658831D01*
X705153D01*
X705125Y658841D01*
X705070Y658850D01*
X705005Y658868D01*
X704922Y658878D01*
X704830Y658887D01*
X704728Y658896D01*
X704608D01*
X701104D01*
Y659922D01*
X704543D01*
X704552D01*
X704561D01*
X704589D01*
X704626D01*
X704728Y659913D01*
D02*
G37*
G36*
X619638D02*
X619758Y659904D01*
X619906Y659885D01*
X620054Y659858D01*
X620211Y659821D01*
X620368Y659774D01*
X620387Y659765D01*
X620433Y659747D01*
X620507Y659719D01*
X620599Y659673D01*
X620701Y659617D01*
X620812Y659553D01*
X620923Y659469D01*
X621025Y659377D01*
X621034Y659368D01*
X621071Y659331D01*
X621117Y659275D01*
X621173Y659201D01*
X621237Y659109D01*
X621293Y658998D01*
X621357Y658878D01*
X621413Y658739D01*
X621422Y658720D01*
X621432Y658674D01*
X621450Y658600D01*
X621478Y658499D01*
X621506Y658369D01*
X621524Y658230D01*
X621533Y658073D01*
X621542Y657898D01*
Y657814D01*
X621533Y657713D01*
X621524Y657592D01*
X621515Y657454D01*
X621487Y657297D01*
X621459Y657149D01*
X621413Y657001D01*
X621404Y656982D01*
X621385Y656936D01*
X621357Y656871D01*
X621321Y656788D01*
X621265Y656686D01*
X621200Y656585D01*
X621117Y656483D01*
X621034Y656391D01*
X621025Y656381D01*
X620988Y656354D01*
X620932Y656317D01*
X620868Y656261D01*
X620775Y656206D01*
X620673Y656150D01*
X620553Y656104D01*
X620424Y656058D01*
X620405D01*
X620359Y656039D01*
X620285Y656030D01*
X620183Y656012D01*
X620072Y655993D01*
X619934Y655975D01*
X619776Y655965D01*
X619619Y655956D01*
X616014D01*
Y656982D01*
X619564D01*
X619573D01*
X619610D01*
X619656D01*
X619721Y656992D01*
X619795D01*
X619878Y657001D01*
X620045Y657029D01*
X620054D01*
X620082Y657038D01*
X620119Y657047D01*
X620165Y657066D01*
X620285Y657121D01*
X620405Y657195D01*
X620415Y657204D01*
X620433Y657213D01*
X620452Y657241D01*
X620488Y657278D01*
X620562Y657371D01*
X620627Y657491D01*
Y657500D01*
X620636Y657518D01*
X620646Y657565D01*
X620664Y657611D01*
X620673Y657676D01*
X620692Y657750D01*
X620701Y657842D01*
Y658027D01*
X620692Y658083D01*
X620673Y658230D01*
X620646Y658369D01*
Y658378D01*
X620636Y658397D01*
X620618Y658434D01*
X620599Y658471D01*
X620535Y658563D01*
X620442Y658656D01*
X620433Y658665D01*
X620415Y658674D01*
X620387Y658693D01*
X620340Y658720D01*
X620285Y658748D01*
X620220Y658785D01*
X620072Y658831D01*
X620063D01*
X620035Y658841D01*
X619980Y658850D01*
X619915Y658868D01*
X619832Y658878D01*
X619740Y658887D01*
X619638Y658896D01*
X619518D01*
X616014D01*
Y659922D01*
X619453D01*
X619462D01*
X619471D01*
X619499D01*
X619536D01*
X619638Y659913D01*
D02*
G37*
G36*
X538358D02*
X538478Y659904D01*
X538626Y659885D01*
X538774Y659858D01*
X538931Y659821D01*
X539088Y659774D01*
X539107Y659765D01*
X539153Y659747D01*
X539227Y659719D01*
X539319Y659673D01*
X539421Y659617D01*
X539532Y659553D01*
X539643Y659469D01*
X539745Y659377D01*
X539754Y659368D01*
X539791Y659331D01*
X539837Y659275D01*
X539893Y659201D01*
X539957Y659109D01*
X540013Y658998D01*
X540078Y658878D01*
X540133Y658739D01*
X540142Y658720D01*
X540151Y658674D01*
X540170Y658600D01*
X540198Y658499D01*
X540225Y658369D01*
X540244Y658230D01*
X540253Y658073D01*
X540262Y657898D01*
Y657814D01*
X540253Y657713D01*
X540244Y657592D01*
X540235Y657454D01*
X540207Y657297D01*
X540179Y657149D01*
X540133Y657001D01*
X540124Y656982D01*
X540105Y656936D01*
X540078Y656871D01*
X540041Y656788D01*
X539985Y656686D01*
X539920Y656585D01*
X539837Y656483D01*
X539754Y656391D01*
X539745Y656381D01*
X539708Y656354D01*
X539652Y656317D01*
X539588Y656261D01*
X539495Y656206D01*
X539393Y656150D01*
X539273Y656104D01*
X539144Y656058D01*
X539125D01*
X539079Y656039D01*
X539005Y656030D01*
X538903Y656012D01*
X538792Y655993D01*
X538654Y655975D01*
X538497Y655965D01*
X538339Y655956D01*
X534734D01*
Y656982D01*
X538284D01*
X538293D01*
X538330D01*
X538376D01*
X538441Y656992D01*
X538515D01*
X538598Y657001D01*
X538765Y657029D01*
X538774D01*
X538802Y657038D01*
X538839Y657047D01*
X538885Y657066D01*
X539005Y657121D01*
X539125Y657195D01*
X539134Y657204D01*
X539153Y657213D01*
X539171Y657241D01*
X539208Y657278D01*
X539282Y657371D01*
X539347Y657491D01*
Y657500D01*
X539356Y657518D01*
X539366Y657565D01*
X539384Y657611D01*
X539393Y657676D01*
X539412Y657750D01*
X539421Y657842D01*
Y658027D01*
X539412Y658083D01*
X539393Y658230D01*
X539366Y658369D01*
Y658378D01*
X539356Y658397D01*
X539338Y658434D01*
X539319Y658471D01*
X539255Y658563D01*
X539162Y658656D01*
X539153Y658665D01*
X539134Y658674D01*
X539107Y658693D01*
X539061Y658720D01*
X539005Y658748D01*
X538940Y658785D01*
X538792Y658831D01*
X538783D01*
X538755Y658841D01*
X538700Y658850D01*
X538635Y658868D01*
X538552Y658878D01*
X538460Y658887D01*
X538358Y658896D01*
X538238D01*
X534734D01*
Y659922D01*
X538173D01*
X538182D01*
X538191D01*
X538219D01*
X538256D01*
X538358Y659913D01*
D02*
G37*
G36*
X254728D02*
X254848Y659904D01*
X254996Y659885D01*
X255144Y659858D01*
X255301Y659821D01*
X255458Y659774D01*
X255477Y659765D01*
X255523Y659747D01*
X255597Y659719D01*
X255689Y659673D01*
X255791Y659617D01*
X255902Y659553D01*
X256013Y659469D01*
X256115Y659377D01*
X256124Y659368D01*
X256161Y659331D01*
X256207Y659275D01*
X256263Y659201D01*
X256327Y659109D01*
X256383Y658998D01*
X256448Y658878D01*
X256503Y658739D01*
X256512Y658720D01*
X256521Y658674D01*
X256540Y658600D01*
X256568Y658499D01*
X256595Y658369D01*
X256614Y658230D01*
X256623Y658073D01*
X256632Y657898D01*
Y657814D01*
X256623Y657713D01*
X256614Y657592D01*
X256605Y657454D01*
X256577Y657297D01*
X256549Y657149D01*
X256503Y657001D01*
X256494Y656982D01*
X256475Y656936D01*
X256448Y656871D01*
X256411Y656788D01*
X256355Y656686D01*
X256290Y656585D01*
X256207Y656483D01*
X256124Y656391D01*
X256115Y656381D01*
X256078Y656354D01*
X256022Y656317D01*
X255958Y656261D01*
X255865Y656206D01*
X255763Y656150D01*
X255643Y656104D01*
X255514Y656058D01*
X255495D01*
X255449Y656039D01*
X255375Y656030D01*
X255273Y656012D01*
X255162Y655993D01*
X255024Y655975D01*
X254867Y655965D01*
X254709Y655956D01*
X251104D01*
Y656982D01*
X254654D01*
X254663D01*
X254700D01*
X254746D01*
X254811Y656992D01*
X254885D01*
X254968Y657001D01*
X255135Y657029D01*
X255144D01*
X255172Y657038D01*
X255209Y657047D01*
X255255Y657066D01*
X255375Y657121D01*
X255495Y657195D01*
X255504Y657204D01*
X255523Y657213D01*
X255541Y657241D01*
X255578Y657278D01*
X255652Y657371D01*
X255717Y657491D01*
Y657500D01*
X255726Y657518D01*
X255736Y657565D01*
X255754Y657611D01*
X255763Y657676D01*
X255782Y657750D01*
X255791Y657842D01*
Y658027D01*
X255782Y658083D01*
X255763Y658230D01*
X255736Y658369D01*
Y658378D01*
X255726Y658397D01*
X255708Y658434D01*
X255689Y658471D01*
X255625Y658563D01*
X255532Y658656D01*
X255523Y658665D01*
X255504Y658674D01*
X255477Y658693D01*
X255431Y658720D01*
X255375Y658748D01*
X255310Y658785D01*
X255162Y658831D01*
X255153D01*
X255125Y658841D01*
X255070Y658850D01*
X255005Y658868D01*
X254922Y658878D01*
X254830Y658887D01*
X254728Y658896D01*
X254608D01*
X251104D01*
Y659922D01*
X254543D01*
X254552D01*
X254561D01*
X254589D01*
X254626D01*
X254728Y659913D01*
D02*
G37*
G36*
X169638D02*
X169758Y659904D01*
X169906Y659885D01*
X170054Y659858D01*
X170211Y659821D01*
X170368Y659774D01*
X170387Y659765D01*
X170433Y659747D01*
X170507Y659719D01*
X170599Y659673D01*
X170701Y659617D01*
X170812Y659553D01*
X170923Y659469D01*
X171025Y659377D01*
X171034Y659368D01*
X171071Y659331D01*
X171117Y659275D01*
X171173Y659201D01*
X171237Y659109D01*
X171293Y658998D01*
X171357Y658878D01*
X171413Y658739D01*
X171422Y658720D01*
X171432Y658674D01*
X171450Y658600D01*
X171478Y658499D01*
X171506Y658369D01*
X171524Y658230D01*
X171533Y658073D01*
X171542Y657898D01*
Y657814D01*
X171533Y657713D01*
X171524Y657592D01*
X171515Y657454D01*
X171487Y657297D01*
X171459Y657149D01*
X171413Y657001D01*
X171404Y656982D01*
X171385Y656936D01*
X171357Y656871D01*
X171321Y656788D01*
X171265Y656686D01*
X171200Y656585D01*
X171117Y656483D01*
X171034Y656391D01*
X171025Y656381D01*
X170988Y656354D01*
X170932Y656317D01*
X170868Y656261D01*
X170775Y656206D01*
X170673Y656150D01*
X170553Y656104D01*
X170424Y656058D01*
X170405D01*
X170359Y656039D01*
X170285Y656030D01*
X170183Y656012D01*
X170072Y655993D01*
X169934Y655975D01*
X169776Y655965D01*
X169619Y655956D01*
X166014D01*
Y656982D01*
X169564D01*
X169573D01*
X169610D01*
X169656D01*
X169721Y656992D01*
X169795D01*
X169878Y657001D01*
X170045Y657029D01*
X170054D01*
X170082Y657038D01*
X170119Y657047D01*
X170165Y657066D01*
X170285Y657121D01*
X170405Y657195D01*
X170415Y657204D01*
X170433Y657213D01*
X170452Y657241D01*
X170488Y657278D01*
X170562Y657371D01*
X170627Y657491D01*
Y657500D01*
X170636Y657518D01*
X170646Y657565D01*
X170664Y657611D01*
X170673Y657676D01*
X170692Y657750D01*
X170701Y657842D01*
Y658027D01*
X170692Y658083D01*
X170673Y658230D01*
X170646Y658369D01*
Y658378D01*
X170636Y658397D01*
X170618Y658434D01*
X170599Y658471D01*
X170535Y658563D01*
X170442Y658656D01*
X170433Y658665D01*
X170415Y658674D01*
X170387Y658693D01*
X170340Y658720D01*
X170285Y658748D01*
X170220Y658785D01*
X170072Y658831D01*
X170063D01*
X170035Y658841D01*
X169980Y658850D01*
X169915Y658868D01*
X169832Y658878D01*
X169740Y658887D01*
X169638Y658896D01*
X169518D01*
X166014D01*
Y659922D01*
X169453D01*
X169462D01*
X169471D01*
X169499D01*
X169536D01*
X169638Y659913D01*
D02*
G37*
G36*
X88358D02*
X88478Y659904D01*
X88626Y659885D01*
X88774Y659858D01*
X88931Y659821D01*
X89088Y659774D01*
X89107Y659765D01*
X89153Y659747D01*
X89227Y659719D01*
X89319Y659673D01*
X89421Y659617D01*
X89532Y659553D01*
X89643Y659469D01*
X89745Y659377D01*
X89754Y659368D01*
X89791Y659331D01*
X89837Y659275D01*
X89893Y659201D01*
X89957Y659109D01*
X90013Y658998D01*
X90077Y658878D01*
X90133Y658739D01*
X90142Y658720D01*
X90152Y658674D01*
X90170Y658600D01*
X90198Y658499D01*
X90225Y658369D01*
X90244Y658230D01*
X90253Y658073D01*
X90262Y657898D01*
Y657814D01*
X90253Y657713D01*
X90244Y657592D01*
X90235Y657454D01*
X90207Y657297D01*
X90179Y657149D01*
X90133Y657001D01*
X90124Y656982D01*
X90105Y656936D01*
X90077Y656871D01*
X90041Y656788D01*
X89985Y656686D01*
X89920Y656585D01*
X89837Y656483D01*
X89754Y656391D01*
X89745Y656381D01*
X89708Y656354D01*
X89652Y656317D01*
X89587Y656261D01*
X89495Y656206D01*
X89393Y656150D01*
X89273Y656104D01*
X89144Y656058D01*
X89125D01*
X89079Y656039D01*
X89005Y656030D01*
X88903Y656012D01*
X88792Y655993D01*
X88654Y655975D01*
X88497Y655965D01*
X88339Y655956D01*
X84734D01*
Y656982D01*
X88284D01*
X88293D01*
X88330D01*
X88376D01*
X88441Y656992D01*
X88515D01*
X88598Y657001D01*
X88765Y657029D01*
X88774D01*
X88802Y657038D01*
X88839Y657047D01*
X88885Y657066D01*
X89005Y657121D01*
X89125Y657195D01*
X89135Y657204D01*
X89153Y657213D01*
X89171Y657241D01*
X89208Y657278D01*
X89282Y657371D01*
X89347Y657491D01*
Y657500D01*
X89356Y657518D01*
X89366Y657565D01*
X89384Y657611D01*
X89393Y657676D01*
X89412Y657750D01*
X89421Y657842D01*
Y658027D01*
X89412Y658083D01*
X89393Y658230D01*
X89366Y658369D01*
Y658378D01*
X89356Y658397D01*
X89338Y658434D01*
X89319Y658471D01*
X89255Y658563D01*
X89162Y658656D01*
X89153Y658665D01*
X89135Y658674D01*
X89107Y658693D01*
X89060Y658720D01*
X89005Y658748D01*
X88940Y658785D01*
X88792Y658831D01*
X88783D01*
X88755Y658841D01*
X88700Y658850D01*
X88635Y658868D01*
X88552Y658878D01*
X88460Y658887D01*
X88358Y658896D01*
X88238D01*
X84734D01*
Y659922D01*
X88173D01*
X88182D01*
X88191D01*
X88219D01*
X88256D01*
X88358Y659913D01*
D02*
G37*
G36*
X687447Y651699D02*
X687805Y651341D01*
X687998Y650875D01*
Y650622D01*
Y649352D01*
X685458D01*
Y651892D01*
X686981D01*
X687447Y651699D01*
D02*
G37*
G36*
X602357D02*
X602715Y651341D01*
X602908Y650875D01*
Y650622D01*
Y649352D01*
X600368D01*
Y651892D01*
X601891D01*
X602357Y651699D01*
D02*
G37*
G36*
X521077D02*
X521435Y651341D01*
X521628Y650875D01*
Y650622D01*
Y649352D01*
X519088D01*
Y651892D01*
X520611D01*
X521077Y651699D01*
D02*
G37*
G36*
X237447D02*
X237805Y651341D01*
X237998Y650875D01*
Y650622D01*
Y649352D01*
X235458D01*
Y651892D01*
X236981D01*
X237447Y651699D01*
D02*
G37*
G36*
X152357D02*
X152715Y651341D01*
X152908Y650875D01*
Y650622D01*
Y649352D01*
X150368D01*
Y651892D01*
X151891D01*
X152357Y651699D01*
D02*
G37*
G36*
X71077D02*
X71435Y651341D01*
X71628Y650875D01*
Y650622D01*
Y649352D01*
X69088D01*
Y651892D01*
X70611D01*
X71077Y651699D01*
D02*
G37*
G36*
X619934Y164517D02*
X620035Y164508D01*
X620146Y164490D01*
X620267Y164462D01*
X620396Y164425D01*
X620516Y164370D01*
X620535Y164360D01*
X620572Y164342D01*
X620627Y164305D01*
X620710Y164258D01*
X620794Y164194D01*
X620886Y164111D01*
X620979Y164018D01*
X621071Y163907D01*
X621080Y163898D01*
X621108Y163852D01*
X621145Y163787D01*
X621200Y163695D01*
X621256Y163584D01*
X621311Y163454D01*
X621367Y163297D01*
X621413Y163131D01*
Y163121D01*
X621422Y163112D01*
Y163084D01*
X621432Y163047D01*
X621450Y162955D01*
X621469Y162816D01*
X621496Y162659D01*
X621515Y162474D01*
X621524Y162262D01*
X621533Y162030D01*
Y161845D01*
X621524Y161735D01*
Y161679D01*
X621515Y161633D01*
Y161540D01*
X621506Y161420D01*
Y161365D01*
X621496Y161328D01*
X621487Y161235D01*
X621478Y161124D01*
Y161069D01*
X621469Y161041D01*
X621459Y160949D01*
X621450Y160865D01*
X620572D01*
Y160875D01*
X620581Y160912D01*
X620590Y160967D01*
X620599Y161032D01*
X620618Y161124D01*
X620627Y161217D01*
X620646Y161328D01*
X620655Y161448D01*
Y161503D01*
X620664Y161568D01*
Y161651D01*
X620673Y161753D01*
Y161873D01*
X620683Y162003D01*
Y162252D01*
X620673Y162335D01*
Y162428D01*
X620655Y162530D01*
X620627Y162724D01*
Y162733D01*
X620618Y162770D01*
X620599Y162807D01*
X620581Y162872D01*
X620535Y163001D01*
X620461Y163131D01*
X620452Y163140D01*
X620442Y163158D01*
X620415Y163186D01*
X620387Y163223D01*
X620303Y163306D01*
X620193Y163371D01*
X620183D01*
X620165Y163380D01*
X620128Y163399D01*
X620082Y163417D01*
X620026Y163426D01*
X619961Y163445D01*
X619823Y163454D01*
X619813D01*
X619795D01*
X619758D01*
X619712Y163445D01*
X619610Y163417D01*
X619499Y163371D01*
X619490D01*
X619471Y163353D01*
X619444Y163334D01*
X619416Y163306D01*
X619333Y163232D01*
X619249Y163121D01*
X619240Y163112D01*
X619231Y163094D01*
X619213Y163057D01*
X619194Y163010D01*
X619166Y162955D01*
X619139Y162881D01*
X619111Y162807D01*
X619092Y162715D01*
Y162705D01*
X619083Y162668D01*
X619074Y162622D01*
X619055Y162548D01*
X619046Y162465D01*
X619037Y162363D01*
X619028Y162243D01*
Y161522D01*
X618251D01*
Y162188D01*
X618242Y162262D01*
Y162354D01*
X618223Y162437D01*
X618214Y162530D01*
X618195Y162613D01*
Y162622D01*
X618186Y162650D01*
X618168Y162687D01*
X618149Y162733D01*
X618094Y162844D01*
X618020Y162955D01*
X618011Y162964D01*
X618001Y162973D01*
X617946Y163029D01*
X617863Y163084D01*
X617761Y163140D01*
X617752D01*
X617733Y163149D01*
X617705Y163158D01*
X617668Y163168D01*
X617567Y163186D01*
X617456Y163195D01*
X617437D01*
X617400D01*
X617345Y163186D01*
X617271Y163168D01*
X617188Y163140D01*
X617105Y163103D01*
X617021Y163047D01*
X616947Y162973D01*
X616938Y162964D01*
X616920Y162936D01*
X616892Y162881D01*
X616855Y162807D01*
X616827Y162715D01*
X616800Y162604D01*
X616781Y162465D01*
X616772Y162308D01*
Y162188D01*
X616781Y162104D01*
X616790Y162003D01*
X616800Y161892D01*
X616836Y161660D01*
Y161651D01*
X616846Y161605D01*
X616864Y161540D01*
X616883Y161466D01*
X616901Y161365D01*
X616938Y161254D01*
X617003Y161013D01*
X616152D01*
Y161023D01*
X616143Y161041D01*
X616134Y161078D01*
X616115Y161124D01*
X616087Y161245D01*
X616060Y161365D01*
Y161374D01*
X616051Y161392D01*
X616041Y161429D01*
X616032Y161476D01*
X616004Y161587D01*
X615986Y161707D01*
Y161716D01*
X615977Y161735D01*
Y161772D01*
X615967Y161818D01*
X615949Y161929D01*
X615940Y162049D01*
Y162077D01*
X615930Y162114D01*
Y162160D01*
X615921Y162280D01*
Y162493D01*
X615930Y162576D01*
Y162687D01*
X615949Y162807D01*
X615967Y162936D01*
X615986Y163066D01*
X616023Y163195D01*
Y163214D01*
X616041Y163251D01*
X616060Y163316D01*
X616087Y163399D01*
X616124Y163482D01*
X616171Y163584D01*
X616226Y163676D01*
X616291Y163769D01*
X616300Y163778D01*
X616319Y163806D01*
X616356Y163852D01*
X616411Y163898D01*
X616476Y163953D01*
X616550Y164018D01*
X616633Y164074D01*
X616726Y164120D01*
X616735Y164129D01*
X616772Y164138D01*
X616818Y164157D01*
X616892Y164185D01*
X616975Y164203D01*
X617068Y164222D01*
X617178Y164231D01*
X617290Y164240D01*
X617299D01*
X617308D01*
X617336D01*
X617373D01*
X617456Y164231D01*
X617576Y164212D01*
X617696Y164185D01*
X617835Y164138D01*
X617964Y164083D01*
X618085Y164009D01*
X618094Y164000D01*
X618131Y163963D01*
X618186Y163916D01*
X618260Y163843D01*
X618334Y163750D01*
X618408Y163639D01*
X618491Y163519D01*
X618556Y163371D01*
Y163380D01*
X618565Y163417D01*
X618575Y163463D01*
X618593Y163528D01*
X618612Y163602D01*
X618639Y163685D01*
X618704Y163843D01*
Y163852D01*
X618722Y163880D01*
X618741Y163916D01*
X618778Y163972D01*
X618852Y164083D01*
X618963Y164203D01*
X618972Y164212D01*
X618991Y164231D01*
X619028Y164258D01*
X619065Y164296D01*
X619120Y164333D01*
X619185Y164370D01*
X619333Y164443D01*
X619342D01*
X619370Y164453D01*
X619407Y164471D01*
X619462Y164490D01*
X619536Y164499D01*
X619610Y164517D01*
X619795Y164527D01*
X619813D01*
X619860D01*
X619934Y164517D01*
D02*
G37*
G36*
X169934D02*
X170035Y164508D01*
X170146Y164490D01*
X170267Y164462D01*
X170396Y164425D01*
X170516Y164370D01*
X170535Y164360D01*
X170572Y164342D01*
X170627Y164305D01*
X170710Y164258D01*
X170794Y164194D01*
X170886Y164111D01*
X170979Y164018D01*
X171071Y163907D01*
X171080Y163898D01*
X171108Y163852D01*
X171145Y163787D01*
X171200Y163695D01*
X171256Y163584D01*
X171311Y163454D01*
X171367Y163297D01*
X171413Y163131D01*
Y163121D01*
X171422Y163112D01*
Y163084D01*
X171432Y163047D01*
X171450Y162955D01*
X171469Y162816D01*
X171496Y162659D01*
X171515Y162474D01*
X171524Y162262D01*
X171533Y162030D01*
Y161845D01*
X171524Y161735D01*
Y161679D01*
X171515Y161633D01*
Y161540D01*
X171506Y161420D01*
Y161365D01*
X171496Y161328D01*
X171487Y161235D01*
X171478Y161124D01*
Y161069D01*
X171469Y161041D01*
X171459Y160949D01*
X171450Y160865D01*
X170572D01*
Y160875D01*
X170581Y160912D01*
X170590Y160967D01*
X170599Y161032D01*
X170618Y161124D01*
X170627Y161217D01*
X170646Y161328D01*
X170655Y161448D01*
Y161503D01*
X170664Y161568D01*
Y161651D01*
X170673Y161753D01*
Y161873D01*
X170683Y162003D01*
Y162252D01*
X170673Y162335D01*
Y162428D01*
X170655Y162530D01*
X170627Y162724D01*
Y162733D01*
X170618Y162770D01*
X170599Y162807D01*
X170581Y162872D01*
X170535Y163001D01*
X170461Y163131D01*
X170452Y163140D01*
X170442Y163158D01*
X170415Y163186D01*
X170387Y163223D01*
X170303Y163306D01*
X170193Y163371D01*
X170183D01*
X170165Y163380D01*
X170128Y163399D01*
X170082Y163417D01*
X170026Y163426D01*
X169961Y163445D01*
X169823Y163454D01*
X169813D01*
X169795D01*
X169758D01*
X169712Y163445D01*
X169610Y163417D01*
X169499Y163371D01*
X169490D01*
X169471Y163353D01*
X169444Y163334D01*
X169416Y163306D01*
X169333Y163232D01*
X169249Y163121D01*
X169240Y163112D01*
X169231Y163094D01*
X169213Y163057D01*
X169194Y163010D01*
X169166Y162955D01*
X169139Y162881D01*
X169111Y162807D01*
X169092Y162715D01*
Y162705D01*
X169083Y162668D01*
X169074Y162622D01*
X169055Y162548D01*
X169046Y162465D01*
X169037Y162363D01*
X169028Y162243D01*
Y161522D01*
X168251D01*
Y162188D01*
X168242Y162262D01*
Y162354D01*
X168223Y162437D01*
X168214Y162530D01*
X168195Y162613D01*
Y162622D01*
X168186Y162650D01*
X168168Y162687D01*
X168149Y162733D01*
X168094Y162844D01*
X168020Y162955D01*
X168011Y162964D01*
X168001Y162973D01*
X167946Y163029D01*
X167863Y163084D01*
X167761Y163140D01*
X167752D01*
X167733Y163149D01*
X167705Y163158D01*
X167668Y163168D01*
X167567Y163186D01*
X167456Y163195D01*
X167437D01*
X167400D01*
X167345Y163186D01*
X167271Y163168D01*
X167188Y163140D01*
X167105Y163103D01*
X167021Y163047D01*
X166947Y162973D01*
X166938Y162964D01*
X166920Y162936D01*
X166892Y162881D01*
X166855Y162807D01*
X166827Y162715D01*
X166800Y162604D01*
X166781Y162465D01*
X166772Y162308D01*
Y162188D01*
X166781Y162104D01*
X166790Y162003D01*
X166800Y161892D01*
X166836Y161660D01*
Y161651D01*
X166846Y161605D01*
X166864Y161540D01*
X166883Y161466D01*
X166901Y161365D01*
X166938Y161254D01*
X167003Y161013D01*
X166152D01*
Y161023D01*
X166143Y161041D01*
X166134Y161078D01*
X166115Y161124D01*
X166088Y161245D01*
X166060Y161365D01*
Y161374D01*
X166051Y161392D01*
X166041Y161429D01*
X166032Y161476D01*
X166004Y161587D01*
X165986Y161707D01*
Y161716D01*
X165977Y161735D01*
Y161772D01*
X165967Y161818D01*
X165949Y161929D01*
X165940Y162049D01*
Y162077D01*
X165930Y162114D01*
Y162160D01*
X165921Y162280D01*
Y162493D01*
X165930Y162576D01*
Y162687D01*
X165949Y162807D01*
X165967Y162936D01*
X165986Y163066D01*
X166023Y163195D01*
Y163214D01*
X166041Y163251D01*
X166060Y163316D01*
X166088Y163399D01*
X166124Y163482D01*
X166171Y163584D01*
X166226Y163676D01*
X166291Y163769D01*
X166300Y163778D01*
X166319Y163806D01*
X166356Y163852D01*
X166411Y163898D01*
X166476Y163953D01*
X166550Y164018D01*
X166633Y164074D01*
X166726Y164120D01*
X166735Y164129D01*
X166772Y164138D01*
X166818Y164157D01*
X166892Y164185D01*
X166975Y164203D01*
X167068Y164222D01*
X167178Y164231D01*
X167290Y164240D01*
X167299D01*
X167308D01*
X167336D01*
X167373D01*
X167456Y164231D01*
X167576Y164212D01*
X167696Y164185D01*
X167835Y164138D01*
X167964Y164083D01*
X168085Y164009D01*
X168094Y164000D01*
X168131Y163963D01*
X168186Y163916D01*
X168260Y163843D01*
X168334Y163750D01*
X168408Y163639D01*
X168491Y163519D01*
X168556Y163371D01*
Y163380D01*
X168565Y163417D01*
X168575Y163463D01*
X168593Y163528D01*
X168612Y163602D01*
X168639Y163685D01*
X168704Y163843D01*
Y163852D01*
X168722Y163880D01*
X168741Y163916D01*
X168778Y163972D01*
X168852Y164083D01*
X168963Y164203D01*
X168972Y164212D01*
X168991Y164231D01*
X169028Y164258D01*
X169065Y164296D01*
X169120Y164333D01*
X169185Y164370D01*
X169333Y164443D01*
X169342D01*
X169370Y164453D01*
X169407Y164471D01*
X169462Y164490D01*
X169536Y164499D01*
X169610Y164517D01*
X169795Y164527D01*
X169813D01*
X169860D01*
X169934Y164517D01*
D02*
G37*
G36*
X706540Y160912D02*
X705634D01*
Y162299D01*
X702148D01*
X702805Y161087D01*
X701973Y160755D01*
X701067Y162483D01*
Y163343D01*
X705634D01*
Y164536D01*
X706540D01*
Y160912D01*
D02*
G37*
G36*
X256540D02*
X255634D01*
Y162299D01*
X252148D01*
X252805Y161087D01*
X251973Y160755D01*
X251067Y162483D01*
Y163343D01*
X255634D01*
Y164536D01*
X256540D01*
Y160912D01*
D02*
G37*
G36*
X539061Y163972D02*
X540170D01*
Y162973D01*
X539061D01*
Y160449D01*
X538191D01*
X534734Y162567D01*
Y163972D01*
X538164D01*
Y164795D01*
X539061D01*
Y163972D01*
D02*
G37*
G36*
X89060D02*
X90170D01*
Y162973D01*
X89060D01*
Y160449D01*
X88191D01*
X84734Y162567D01*
Y163972D01*
X88164D01*
Y164795D01*
X89060D01*
Y163972D01*
D02*
G37*
G36*
X704728Y159913D02*
X704848Y159904D01*
X704996Y159885D01*
X705144Y159858D01*
X705301Y159821D01*
X705458Y159774D01*
X705477Y159765D01*
X705523Y159747D01*
X705597Y159719D01*
X705689Y159673D01*
X705791Y159617D01*
X705902Y159552D01*
X706013Y159469D01*
X706115Y159377D01*
X706124Y159368D01*
X706161Y159331D01*
X706207Y159275D01*
X706263Y159201D01*
X706327Y159109D01*
X706383Y158998D01*
X706448Y158878D01*
X706503Y158739D01*
X706512Y158720D01*
X706522Y158674D01*
X706540Y158600D01*
X706568Y158498D01*
X706596Y158369D01*
X706614Y158230D01*
X706623Y158073D01*
X706632Y157898D01*
Y157814D01*
X706623Y157713D01*
X706614Y157592D01*
X706605Y157454D01*
X706577Y157297D01*
X706549Y157149D01*
X706503Y157001D01*
X706494Y156982D01*
X706475Y156936D01*
X706448Y156871D01*
X706411Y156788D01*
X706355Y156686D01*
X706290Y156585D01*
X706207Y156483D01*
X706124Y156390D01*
X706115Y156381D01*
X706078Y156354D01*
X706022Y156317D01*
X705957Y156261D01*
X705865Y156206D01*
X705763Y156150D01*
X705643Y156104D01*
X705514Y156058D01*
X705495D01*
X705449Y156039D01*
X705375Y156030D01*
X705273Y156011D01*
X705162Y155993D01*
X705024Y155975D01*
X704866Y155965D01*
X704709Y155956D01*
X701104D01*
Y156982D01*
X704654D01*
X704663D01*
X704700D01*
X704746D01*
X704811Y156992D01*
X704885D01*
X704968Y157001D01*
X705135Y157029D01*
X705144D01*
X705172Y157038D01*
X705209Y157047D01*
X705255Y157065D01*
X705375Y157121D01*
X705495Y157195D01*
X705505Y157204D01*
X705523Y157213D01*
X705542Y157241D01*
X705578Y157278D01*
X705652Y157371D01*
X705717Y157491D01*
Y157500D01*
X705726Y157519D01*
X705736Y157565D01*
X705754Y157611D01*
X705763Y157676D01*
X705782Y157750D01*
X705791Y157842D01*
Y158027D01*
X705782Y158083D01*
X705763Y158230D01*
X705736Y158369D01*
Y158378D01*
X705726Y158397D01*
X705708Y158434D01*
X705689Y158471D01*
X705625Y158563D01*
X705532Y158656D01*
X705523Y158665D01*
X705505Y158674D01*
X705477Y158693D01*
X705431Y158720D01*
X705375Y158748D01*
X705310Y158785D01*
X705162Y158831D01*
X705153D01*
X705125Y158841D01*
X705070Y158850D01*
X705005Y158868D01*
X704922Y158878D01*
X704830Y158887D01*
X704728Y158896D01*
X704608D01*
X701104D01*
Y159922D01*
X704543D01*
X704552D01*
X704561D01*
X704589D01*
X704626D01*
X704728Y159913D01*
D02*
G37*
G36*
X619638D02*
X619758Y159904D01*
X619906Y159885D01*
X620054Y159858D01*
X620211Y159821D01*
X620368Y159774D01*
X620387Y159765D01*
X620433Y159747D01*
X620507Y159719D01*
X620599Y159673D01*
X620701Y159617D01*
X620812Y159552D01*
X620923Y159469D01*
X621025Y159377D01*
X621034Y159368D01*
X621071Y159331D01*
X621117Y159275D01*
X621173Y159201D01*
X621237Y159109D01*
X621293Y158998D01*
X621357Y158878D01*
X621413Y158739D01*
X621422Y158720D01*
X621432Y158674D01*
X621450Y158600D01*
X621478Y158498D01*
X621506Y158369D01*
X621524Y158230D01*
X621533Y158073D01*
X621542Y157898D01*
Y157814D01*
X621533Y157713D01*
X621524Y157592D01*
X621515Y157454D01*
X621487Y157297D01*
X621459Y157149D01*
X621413Y157001D01*
X621404Y156982D01*
X621385Y156936D01*
X621357Y156871D01*
X621321Y156788D01*
X621265Y156686D01*
X621200Y156585D01*
X621117Y156483D01*
X621034Y156390D01*
X621025Y156381D01*
X620988Y156354D01*
X620932Y156317D01*
X620868Y156261D01*
X620775Y156206D01*
X620673Y156150D01*
X620553Y156104D01*
X620424Y156058D01*
X620405D01*
X620359Y156039D01*
X620285Y156030D01*
X620183Y156011D01*
X620072Y155993D01*
X619934Y155975D01*
X619776Y155965D01*
X619619Y155956D01*
X616014D01*
Y156982D01*
X619564D01*
X619573D01*
X619610D01*
X619656D01*
X619721Y156992D01*
X619795D01*
X619878Y157001D01*
X620045Y157029D01*
X620054D01*
X620082Y157038D01*
X620119Y157047D01*
X620165Y157065D01*
X620285Y157121D01*
X620405Y157195D01*
X620415Y157204D01*
X620433Y157213D01*
X620452Y157241D01*
X620488Y157278D01*
X620562Y157371D01*
X620627Y157491D01*
Y157500D01*
X620636Y157519D01*
X620646Y157565D01*
X620664Y157611D01*
X620673Y157676D01*
X620692Y157750D01*
X620701Y157842D01*
Y158027D01*
X620692Y158083D01*
X620673Y158230D01*
X620646Y158369D01*
Y158378D01*
X620636Y158397D01*
X620618Y158434D01*
X620599Y158471D01*
X620535Y158563D01*
X620442Y158656D01*
X620433Y158665D01*
X620415Y158674D01*
X620387Y158693D01*
X620340Y158720D01*
X620285Y158748D01*
X620220Y158785D01*
X620072Y158831D01*
X620063D01*
X620035Y158841D01*
X619980Y158850D01*
X619915Y158868D01*
X619832Y158878D01*
X619740Y158887D01*
X619638Y158896D01*
X619518D01*
X616014D01*
Y159922D01*
X619453D01*
X619462D01*
X619471D01*
X619499D01*
X619536D01*
X619638Y159913D01*
D02*
G37*
G36*
X538358D02*
X538478Y159904D01*
X538626Y159885D01*
X538774Y159858D01*
X538931Y159821D01*
X539088Y159774D01*
X539107Y159765D01*
X539153Y159747D01*
X539227Y159719D01*
X539319Y159673D01*
X539421Y159617D01*
X539532Y159552D01*
X539643Y159469D01*
X539745Y159377D01*
X539754Y159368D01*
X539791Y159331D01*
X539837Y159275D01*
X539893Y159201D01*
X539957Y159109D01*
X540013Y158998D01*
X540078Y158878D01*
X540133Y158739D01*
X540142Y158720D01*
X540151Y158674D01*
X540170Y158600D01*
X540198Y158498D01*
X540225Y158369D01*
X540244Y158230D01*
X540253Y158073D01*
X540262Y157898D01*
Y157814D01*
X540253Y157713D01*
X540244Y157592D01*
X540235Y157454D01*
X540207Y157297D01*
X540179Y157149D01*
X540133Y157001D01*
X540124Y156982D01*
X540105Y156936D01*
X540078Y156871D01*
X540041Y156788D01*
X539985Y156686D01*
X539920Y156585D01*
X539837Y156483D01*
X539754Y156390D01*
X539745Y156381D01*
X539708Y156354D01*
X539652Y156317D01*
X539588Y156261D01*
X539495Y156206D01*
X539393Y156150D01*
X539273Y156104D01*
X539144Y156058D01*
X539125D01*
X539079Y156039D01*
X539005Y156030D01*
X538903Y156011D01*
X538792Y155993D01*
X538654Y155975D01*
X538497Y155965D01*
X538339Y155956D01*
X534734D01*
Y156982D01*
X538284D01*
X538293D01*
X538330D01*
X538376D01*
X538441Y156992D01*
X538515D01*
X538598Y157001D01*
X538765Y157029D01*
X538774D01*
X538802Y157038D01*
X538839Y157047D01*
X538885Y157065D01*
X539005Y157121D01*
X539125Y157195D01*
X539134Y157204D01*
X539153Y157213D01*
X539171Y157241D01*
X539208Y157278D01*
X539282Y157371D01*
X539347Y157491D01*
Y157500D01*
X539356Y157519D01*
X539366Y157565D01*
X539384Y157611D01*
X539393Y157676D01*
X539412Y157750D01*
X539421Y157842D01*
Y158027D01*
X539412Y158083D01*
X539393Y158230D01*
X539366Y158369D01*
Y158378D01*
X539356Y158397D01*
X539338Y158434D01*
X539319Y158471D01*
X539255Y158563D01*
X539162Y158656D01*
X539153Y158665D01*
X539134Y158674D01*
X539107Y158693D01*
X539061Y158720D01*
X539005Y158748D01*
X538940Y158785D01*
X538792Y158831D01*
X538783D01*
X538755Y158841D01*
X538700Y158850D01*
X538635Y158868D01*
X538552Y158878D01*
X538460Y158887D01*
X538358Y158896D01*
X538238D01*
X534734D01*
Y159922D01*
X538173D01*
X538182D01*
X538191D01*
X538219D01*
X538256D01*
X538358Y159913D01*
D02*
G37*
G36*
X254728D02*
X254848Y159904D01*
X254996Y159885D01*
X255144Y159858D01*
X255301Y159821D01*
X255458Y159774D01*
X255477Y159765D01*
X255523Y159747D01*
X255597Y159719D01*
X255689Y159673D01*
X255791Y159617D01*
X255902Y159552D01*
X256013Y159469D01*
X256115Y159377D01*
X256124Y159368D01*
X256161Y159331D01*
X256207Y159275D01*
X256263Y159201D01*
X256327Y159109D01*
X256383Y158998D01*
X256448Y158878D01*
X256503Y158739D01*
X256512Y158720D01*
X256521Y158674D01*
X256540Y158600D01*
X256568Y158498D01*
X256595Y158369D01*
X256614Y158230D01*
X256623Y158073D01*
X256632Y157898D01*
Y157814D01*
X256623Y157713D01*
X256614Y157592D01*
X256605Y157454D01*
X256577Y157297D01*
X256549Y157149D01*
X256503Y157001D01*
X256494Y156982D01*
X256475Y156936D01*
X256448Y156871D01*
X256411Y156788D01*
X256355Y156686D01*
X256290Y156585D01*
X256207Y156483D01*
X256124Y156390D01*
X256115Y156381D01*
X256078Y156354D01*
X256022Y156317D01*
X255958Y156261D01*
X255865Y156206D01*
X255763Y156150D01*
X255643Y156104D01*
X255514Y156058D01*
X255495D01*
X255449Y156039D01*
X255375Y156030D01*
X255273Y156011D01*
X255162Y155993D01*
X255024Y155975D01*
X254867Y155965D01*
X254709Y155956D01*
X251104D01*
Y156982D01*
X254654D01*
X254663D01*
X254700D01*
X254746D01*
X254811Y156992D01*
X254885D01*
X254968Y157001D01*
X255135Y157029D01*
X255144D01*
X255172Y157038D01*
X255209Y157047D01*
X255255Y157065D01*
X255375Y157121D01*
X255495Y157195D01*
X255504Y157204D01*
X255523Y157213D01*
X255541Y157241D01*
X255578Y157278D01*
X255652Y157371D01*
X255717Y157491D01*
Y157500D01*
X255726Y157519D01*
X255736Y157565D01*
X255754Y157611D01*
X255763Y157676D01*
X255782Y157750D01*
X255791Y157842D01*
Y158027D01*
X255782Y158083D01*
X255763Y158230D01*
X255736Y158369D01*
Y158378D01*
X255726Y158397D01*
X255708Y158434D01*
X255689Y158471D01*
X255625Y158563D01*
X255532Y158656D01*
X255523Y158665D01*
X255504Y158674D01*
X255477Y158693D01*
X255431Y158720D01*
X255375Y158748D01*
X255310Y158785D01*
X255162Y158831D01*
X255153D01*
X255125Y158841D01*
X255070Y158850D01*
X255005Y158868D01*
X254922Y158878D01*
X254830Y158887D01*
X254728Y158896D01*
X254608D01*
X251104D01*
Y159922D01*
X254543D01*
X254552D01*
X254561D01*
X254589D01*
X254626D01*
X254728Y159913D01*
D02*
G37*
G36*
X169638D02*
X169758Y159904D01*
X169906Y159885D01*
X170054Y159858D01*
X170211Y159821D01*
X170368Y159774D01*
X170387Y159765D01*
X170433Y159747D01*
X170507Y159719D01*
X170599Y159673D01*
X170701Y159617D01*
X170812Y159552D01*
X170923Y159469D01*
X171025Y159377D01*
X171034Y159368D01*
X171071Y159331D01*
X171117Y159275D01*
X171173Y159201D01*
X171237Y159109D01*
X171293Y158998D01*
X171357Y158878D01*
X171413Y158739D01*
X171422Y158720D01*
X171432Y158674D01*
X171450Y158600D01*
X171478Y158498D01*
X171506Y158369D01*
X171524Y158230D01*
X171533Y158073D01*
X171542Y157898D01*
Y157814D01*
X171533Y157713D01*
X171524Y157592D01*
X171515Y157454D01*
X171487Y157297D01*
X171459Y157149D01*
X171413Y157001D01*
X171404Y156982D01*
X171385Y156936D01*
X171357Y156871D01*
X171321Y156788D01*
X171265Y156686D01*
X171200Y156585D01*
X171117Y156483D01*
X171034Y156390D01*
X171025Y156381D01*
X170988Y156354D01*
X170932Y156317D01*
X170868Y156261D01*
X170775Y156206D01*
X170673Y156150D01*
X170553Y156104D01*
X170424Y156058D01*
X170405D01*
X170359Y156039D01*
X170285Y156030D01*
X170183Y156011D01*
X170072Y155993D01*
X169934Y155975D01*
X169776Y155965D01*
X169619Y155956D01*
X166014D01*
Y156982D01*
X169564D01*
X169573D01*
X169610D01*
X169656D01*
X169721Y156992D01*
X169795D01*
X169878Y157001D01*
X170045Y157029D01*
X170054D01*
X170082Y157038D01*
X170119Y157047D01*
X170165Y157065D01*
X170285Y157121D01*
X170405Y157195D01*
X170415Y157204D01*
X170433Y157213D01*
X170452Y157241D01*
X170488Y157278D01*
X170562Y157371D01*
X170627Y157491D01*
Y157500D01*
X170636Y157519D01*
X170646Y157565D01*
X170664Y157611D01*
X170673Y157676D01*
X170692Y157750D01*
X170701Y157842D01*
Y158027D01*
X170692Y158083D01*
X170673Y158230D01*
X170646Y158369D01*
Y158378D01*
X170636Y158397D01*
X170618Y158434D01*
X170599Y158471D01*
X170535Y158563D01*
X170442Y158656D01*
X170433Y158665D01*
X170415Y158674D01*
X170387Y158693D01*
X170340Y158720D01*
X170285Y158748D01*
X170220Y158785D01*
X170072Y158831D01*
X170063D01*
X170035Y158841D01*
X169980Y158850D01*
X169915Y158868D01*
X169832Y158878D01*
X169740Y158887D01*
X169638Y158896D01*
X169518D01*
X166014D01*
Y159922D01*
X169453D01*
X169462D01*
X169471D01*
X169499D01*
X169536D01*
X169638Y159913D01*
D02*
G37*
G36*
X88358D02*
X88478Y159904D01*
X88626Y159885D01*
X88774Y159858D01*
X88931Y159821D01*
X89088Y159774D01*
X89107Y159765D01*
X89153Y159747D01*
X89227Y159719D01*
X89319Y159673D01*
X89421Y159617D01*
X89532Y159552D01*
X89643Y159469D01*
X89745Y159377D01*
X89754Y159368D01*
X89791Y159331D01*
X89837Y159275D01*
X89893Y159201D01*
X89957Y159109D01*
X90013Y158998D01*
X90077Y158878D01*
X90133Y158739D01*
X90142Y158720D01*
X90152Y158674D01*
X90170Y158600D01*
X90198Y158498D01*
X90225Y158369D01*
X90244Y158230D01*
X90253Y158073D01*
X90262Y157898D01*
Y157814D01*
X90253Y157713D01*
X90244Y157592D01*
X90235Y157454D01*
X90207Y157297D01*
X90179Y157149D01*
X90133Y157001D01*
X90124Y156982D01*
X90105Y156936D01*
X90077Y156871D01*
X90041Y156788D01*
X89985Y156686D01*
X89920Y156585D01*
X89837Y156483D01*
X89754Y156390D01*
X89745Y156381D01*
X89708Y156354D01*
X89652Y156317D01*
X89587Y156261D01*
X89495Y156206D01*
X89393Y156150D01*
X89273Y156104D01*
X89144Y156058D01*
X89125D01*
X89079Y156039D01*
X89005Y156030D01*
X88903Y156011D01*
X88792Y155993D01*
X88654Y155975D01*
X88497Y155965D01*
X88339Y155956D01*
X84734D01*
Y156982D01*
X88284D01*
X88293D01*
X88330D01*
X88376D01*
X88441Y156992D01*
X88515D01*
X88598Y157001D01*
X88765Y157029D01*
X88774D01*
X88802Y157038D01*
X88839Y157047D01*
X88885Y157065D01*
X89005Y157121D01*
X89125Y157195D01*
X89135Y157204D01*
X89153Y157213D01*
X89171Y157241D01*
X89208Y157278D01*
X89282Y157371D01*
X89347Y157491D01*
Y157500D01*
X89356Y157519D01*
X89366Y157565D01*
X89384Y157611D01*
X89393Y157676D01*
X89412Y157750D01*
X89421Y157842D01*
Y158027D01*
X89412Y158083D01*
X89393Y158230D01*
X89366Y158369D01*
Y158378D01*
X89356Y158397D01*
X89338Y158434D01*
X89319Y158471D01*
X89255Y158563D01*
X89162Y158656D01*
X89153Y158665D01*
X89135Y158674D01*
X89107Y158693D01*
X89060Y158720D01*
X89005Y158748D01*
X88940Y158785D01*
X88792Y158831D01*
X88783D01*
X88755Y158841D01*
X88700Y158850D01*
X88635Y158868D01*
X88552Y158878D01*
X88460Y158887D01*
X88358Y158896D01*
X88238D01*
X84734D01*
Y159922D01*
X88173D01*
X88182D01*
X88191D01*
X88219D01*
X88256D01*
X88358Y159913D01*
D02*
G37*
G36*
X687447Y151699D02*
X687805Y151341D01*
X687998Y150875D01*
Y150622D01*
Y149352D01*
X685458D01*
Y151892D01*
X686981D01*
X687447Y151699D01*
D02*
G37*
G36*
X602357D02*
X602715Y151341D01*
X602908Y150875D01*
Y150622D01*
Y149352D01*
X600368D01*
Y151892D01*
X601891D01*
X602357Y151699D01*
D02*
G37*
G36*
X521077D02*
X521435Y151341D01*
X521628Y150875D01*
Y150622D01*
Y149352D01*
X519088D01*
Y151892D01*
X520611D01*
X521077Y151699D01*
D02*
G37*
G36*
X237447D02*
X237805Y151341D01*
X237998Y150875D01*
Y150622D01*
Y149352D01*
X235458D01*
Y151892D01*
X236981D01*
X237447Y151699D01*
D02*
G37*
G36*
X152357D02*
X152715Y151341D01*
X152908Y150875D01*
Y150622D01*
Y149352D01*
X150368D01*
Y151892D01*
X151891D01*
X152357Y151699D01*
D02*
G37*
G36*
X71077D02*
X71435Y151341D01*
X71628Y150875D01*
Y150622D01*
Y149352D01*
X69088D01*
Y151892D01*
X70611D01*
X71077Y151699D01*
D02*
G37*
%LPC*%
G36*
X538164Y662992D02*
X535723D01*
X538164Y661439D01*
Y662992D01*
D02*
G37*
G36*
X88164D02*
X85723D01*
X88164Y661439D01*
Y662992D01*
D02*
G37*
G36*
X538164Y162992D02*
X535723D01*
X538164Y161439D01*
Y162992D01*
D02*
G37*
G36*
X88164D02*
X85723D01*
X88164Y161439D01*
Y162992D01*
D02*
G37*
%LPD*%
D31*
X50000Y1000000D02*
G03*
X0Y950000I0J-50000D01*
G01*
X450000D02*
G03*
X400000Y1000000I-50000J0D01*
G01*
X0Y550000D02*
G03*
X50000Y500000I50000J0D01*
G01*
X500000Y1000000D02*
G03*
X450000Y950000I0J-50000D01*
G01*
X900000D02*
G03*
X850000Y1000000I-50000J0D01*
G01*
Y500000D02*
G03*
X900000Y550000I0J50000D01*
G01*
Y450000D02*
G03*
X850000Y500000I-50000J0D01*
G01*
Y0D02*
G03*
X900000Y50000I0J50000D01*
G01*
X450000D02*
G03*
X500000Y0I50000J0D01*
G01*
X50000Y500000D02*
G03*
X0Y450000I0J-50000D01*
G01*
X400000Y0D02*
G03*
X450000Y50000I0J50000D01*
G01*
X0D02*
G03*
X50000Y0I50000J0D01*
G01*
X900000Y50000D02*
Y450000D01*
X0Y550000D02*
Y950000D01*
X50000Y1000000D02*
X400000D01*
X900000Y550000D02*
Y950000D01*
X500000Y1000000D02*
X850000D01*
X500000Y0D02*
X850000D01*
X0Y50000D02*
Y450000D01*
X50000Y500000D02*
X400000D01*
X50000Y0D02*
X400000D01*
X0Y50000D02*
G03*
X50000Y0I50000J0D01*
G01*
X400000D02*
G03*
X450000Y50000I0J50000D01*
G01*
Y450000D02*
G03*
X400000Y500000I-50000J0D01*
G01*
X50000D02*
G03*
X0Y450000I0J-50000D01*
G01*
X50000Y0D02*
X400000D01*
X50000Y500000D02*
X400000D01*
X450000Y50000D02*
Y450000D01*
X0Y50000D02*
Y450000D01*
X450000Y50000D02*
G03*
X500000Y0I50000J0D01*
G01*
X850000D02*
G03*
X900000Y50000I0J50000D01*
G01*
Y450000D02*
G03*
X850000Y500000I-50000J0D01*
G01*
X500000D02*
G03*
X450000Y450000I0J-50000D01*
G01*
X500000Y0D02*
X850000D01*
X500000Y500000D02*
X850000D01*
X900000Y50000D02*
Y450000D01*
X450000Y50000D02*
Y450000D01*
X0Y550000D02*
G03*
X50000Y500000I50000J0D01*
G01*
X400000D02*
G03*
X450000Y550000I0J50000D01*
G01*
Y950000D02*
G03*
X400000Y1000000I-50000J0D01*
G01*
X50000D02*
G03*
X0Y950000I0J-50000D01*
G01*
X50000Y500000D02*
X400000D01*
X50000Y1000000D02*
X400000D01*
X450000Y550000D02*
Y950000D01*
X0Y550000D02*
Y950000D01*
X450000Y550000D02*
G03*
X500000Y500000I50000J0D01*
G01*
X850000D02*
G03*
X900000Y550000I0J50000D01*
G01*
Y950000D02*
G03*
X850000Y1000000I-50000J0D01*
G01*
X500000D02*
G03*
X450000Y950000I0J-50000D01*
G01*
X500000Y500000D02*
X850000D01*
X500000Y1000000D02*
X850000D01*
X900000Y550000D02*
Y950000D01*
X450000Y550000D02*
Y950000D01*
D39*
X900000Y50000D02*
D03*
D80*
X194818Y154178D02*
Y178562D01*
X183642Y154178D02*
X194818D01*
X183642D02*
Y178562D01*
X194818D01*
X278638Y154178D02*
Y178562D01*
X267462Y154178D02*
X278638D01*
X267462D02*
Y178562D01*
X278638D01*
X307340Y146050D02*
X370840D01*
Y184150D01*
X307340D02*
X370840D01*
X307340Y146050D02*
Y184150D01*
X235458Y183388D02*
X264922D01*
X235458Y149352D02*
Y183388D01*
X264922Y149352D02*
Y183388D01*
X235458Y149352D02*
X264922D01*
X150368Y183388D02*
X179832D01*
X150368Y149352D02*
Y183388D01*
X179832Y149352D02*
Y183388D01*
X150368Y149352D02*
X179832D01*
X113538Y154178D02*
Y178562D01*
X102362Y154178D02*
X113538D01*
X102362D02*
Y178562D01*
X113538D01*
X69088Y183388D02*
X98552D01*
X69088Y149352D02*
Y183388D01*
X98552Y149352D02*
Y183388D01*
X69088Y149352D02*
X98552D01*
X180340Y383573D02*
Y411513D01*
X195580D01*
X180340Y383573D02*
X195580D01*
Y411513D01*
X192532Y327152D02*
X203708D01*
X192532Y302768D02*
Y327152D01*
Y302768D02*
X203708D01*
Y327152D01*
X181102D02*
X192278D01*
X181102Y302768D02*
Y327152D01*
Y302768D02*
X192278D01*
Y327152D01*
X169672D02*
X180848D01*
X169672Y302768D02*
Y327152D01*
Y302768D02*
X180848D01*
Y327152D01*
X158242D02*
X169418D01*
X158242Y302768D02*
Y327152D01*
Y302768D02*
X169418D01*
Y327152D01*
X268732Y218948D02*
X279908D01*
Y243332D01*
X268732D02*
X279908D01*
X268732Y218948D02*
Y243332D01*
X644818Y154178D02*
Y178562D01*
X633642Y154178D02*
X644818D01*
X633642D02*
Y178562D01*
X644818D01*
X728638Y154178D02*
Y178562D01*
X717462Y154178D02*
X728638D01*
X717462D02*
Y178562D01*
X728638D01*
X757340Y146050D02*
X820840D01*
Y184150D01*
X757340D02*
X820840D01*
X757340Y146050D02*
Y184150D01*
X685458Y183388D02*
X714922D01*
X685458Y149352D02*
Y183388D01*
X714922Y149352D02*
Y183388D01*
X685458Y149352D02*
X714922D01*
X600368Y183388D02*
X629832D01*
X600368Y149352D02*
Y183388D01*
X629832Y149352D02*
Y183388D01*
X600368Y149352D02*
X629832D01*
X563538Y154178D02*
Y178562D01*
X552362Y154178D02*
X563538D01*
X552362D02*
Y178562D01*
X563538D01*
X519088Y183388D02*
X548552D01*
X519088Y149352D02*
Y183388D01*
X548552Y149352D02*
Y183388D01*
X519088Y149352D02*
X548552D01*
X630340Y383573D02*
Y411513D01*
X645580D01*
X630340Y383573D02*
X645580D01*
Y411513D01*
X642532Y327152D02*
X653708D01*
X642532Y302768D02*
Y327152D01*
Y302768D02*
X653708D01*
Y327152D01*
X631102D02*
X642278D01*
X631102Y302768D02*
Y327152D01*
Y302768D02*
X642278D01*
Y327152D01*
X619672D02*
X630848D01*
X619672Y302768D02*
Y327152D01*
Y302768D02*
X630848D01*
Y327152D01*
X608242D02*
X619418D01*
X608242Y302768D02*
Y327152D01*
Y302768D02*
X619418D01*
Y327152D01*
X718732Y218948D02*
X729908D01*
Y243332D01*
X718732D02*
X729908D01*
X718732Y218948D02*
Y243332D01*
X194818Y654178D02*
Y678562D01*
X183642Y654178D02*
X194818D01*
X183642D02*
Y678562D01*
X194818D01*
X278638Y654178D02*
Y678562D01*
X267462Y654178D02*
X278638D01*
X267462D02*
Y678562D01*
X278638D01*
X307340Y646050D02*
X370840D01*
Y684150D01*
X307340D02*
X370840D01*
X307340Y646050D02*
Y684150D01*
X235458Y683388D02*
X264922D01*
X235458Y649352D02*
Y683388D01*
X264922Y649352D02*
Y683388D01*
X235458Y649352D02*
X264922D01*
X150368Y683388D02*
X179832D01*
X150368Y649352D02*
Y683388D01*
X179832Y649352D02*
Y683388D01*
X150368Y649352D02*
X179832D01*
X113538Y654178D02*
Y678562D01*
X102362Y654178D02*
X113538D01*
X102362D02*
Y678562D01*
X113538D01*
X69088Y683388D02*
X98552D01*
X69088Y649352D02*
Y683388D01*
X98552Y649352D02*
Y683388D01*
X69088Y649352D02*
X98552D01*
X180340Y883573D02*
Y911513D01*
X195580D01*
X180340Y883573D02*
X195580D01*
Y911513D01*
X192532Y827152D02*
X203708D01*
X192532Y802768D02*
Y827152D01*
Y802768D02*
X203708D01*
Y827152D01*
X181102D02*
X192278D01*
X181102Y802768D02*
Y827152D01*
Y802768D02*
X192278D01*
Y827152D01*
X169672D02*
X180848D01*
X169672Y802768D02*
Y827152D01*
Y802768D02*
X180848D01*
Y827152D01*
X158242D02*
X169418D01*
X158242Y802768D02*
Y827152D01*
Y802768D02*
X169418D01*
Y827152D01*
X268732Y718948D02*
X279908D01*
Y743332D01*
X268732D02*
X279908D01*
X268732Y718948D02*
Y743332D01*
X644818Y654178D02*
Y678562D01*
X633642Y654178D02*
X644818D01*
X633642D02*
Y678562D01*
X644818D01*
X728638Y654178D02*
Y678562D01*
X717462Y654178D02*
X728638D01*
X717462D02*
Y678562D01*
X728638D01*
X757340Y646050D02*
X820840D01*
Y684150D01*
X757340D02*
X820840D01*
X757340Y646050D02*
Y684150D01*
X685458Y683388D02*
X714922D01*
X685458Y649352D02*
Y683388D01*
X714922Y649352D02*
Y683388D01*
X685458Y649352D02*
X714922D01*
X600368Y683388D02*
X629832D01*
X600368Y649352D02*
Y683388D01*
X629832Y649352D02*
Y683388D01*
X600368Y649352D02*
X629832D01*
X563538Y654178D02*
Y678562D01*
X552362Y654178D02*
X563538D01*
X552362D02*
Y678562D01*
X563538D01*
X519088Y683388D02*
X548552D01*
X519088Y649352D02*
Y683388D01*
X548552Y649352D02*
Y683388D01*
X519088Y649352D02*
X548552D01*
X630340Y883573D02*
Y911513D01*
X645580D01*
X630340Y883573D02*
X645580D01*
Y911513D01*
X642532Y827152D02*
X653708D01*
X642532Y802768D02*
Y827152D01*
Y802768D02*
X653708D01*
Y827152D01*
X631102D02*
X642278D01*
X631102Y802768D02*
Y827152D01*
Y802768D02*
X642278D01*
Y827152D01*
X619672D02*
X630848D01*
X619672Y802768D02*
Y827152D01*
Y802768D02*
X630848D01*
Y827152D01*
X608242D02*
X619418D01*
X608242Y802768D02*
Y827152D01*
Y802768D02*
X619418D01*
Y827152D01*
X718732Y718948D02*
X729908D01*
Y743332D01*
X718732D02*
X729908D01*
X718732Y718948D02*
Y743332D01*
M02*
