G04*
G04 #@! TF.GenerationSoftware,Altium Limited,Altium Designer,20.2.3 (150)*
G04*
G04 Layer_Color=65535*
%FSLAX44Y44*%
%MOMM*%
G71*
G04*
G04 #@! TF.SameCoordinates,C1CC25AD-0FF3-43E4-BDA3-AC1D03E08D52*
G04*
G04*
G04 #@! TF.FilePolarity,Positive*
G04*
G01*
G75*
%ADD29C,0.2000*%
%ADD31C,0.2540*%
%ADD39C,0.2540*%
%ADD47C,0.2500*%
%ADD48C,0.0254*%
%ADD49C,0.1500*%
%ADD50C,0.1524*%
%ADD51C,0.7620*%
%ADD52C,0.1270*%
%ADD53C,0.2032*%
%ADD54C,0.1000*%
G36*
X644056Y899321D02*
X631864D01*
Y900591D01*
X644056D01*
Y899321D01*
D02*
G37*
G36*
X194056D02*
X181864D01*
Y900591D01*
X194056D01*
Y899321D01*
D02*
G37*
G36*
X644056Y894495D02*
X631864D01*
Y895765D01*
X644056D01*
Y894495D01*
D02*
G37*
G36*
X194056D02*
X181864D01*
Y895765D01*
X194056D01*
Y894495D01*
D02*
G37*
G36*
X651930Y817373D02*
Y816103D01*
X644310D01*
Y817373D01*
X651930Y817373D01*
D02*
G37*
G36*
X640500D02*
Y816103D01*
X632880D01*
Y817373D01*
X640500Y817373D01*
D02*
G37*
G36*
X629070D02*
Y816103D01*
X621450D01*
Y817373D01*
X629070Y817373D01*
D02*
G37*
G36*
X617640D02*
Y816103D01*
X610020D01*
Y817373D01*
X617640Y817373D01*
D02*
G37*
G36*
X201930D02*
Y816103D01*
X194310D01*
Y817373D01*
X201930Y817373D01*
D02*
G37*
G36*
X190500D02*
Y816103D01*
X182880D01*
Y817373D01*
X190500Y817373D01*
D02*
G37*
G36*
X179070D02*
Y816103D01*
X171450D01*
Y817373D01*
X179070Y817373D01*
D02*
G37*
G36*
X167640D02*
Y816103D01*
X160020D01*
Y817373D01*
X167640Y817373D01*
D02*
G37*
G36*
X651930Y812547D02*
X644310D01*
Y813817D01*
X651930D01*
Y812547D01*
D02*
G37*
G36*
X640500D02*
X632880D01*
Y813817D01*
X640500D01*
Y812547D01*
D02*
G37*
G36*
X629070D02*
X621450D01*
Y813817D01*
X629070D01*
Y812547D01*
D02*
G37*
G36*
X617640D02*
X610020D01*
Y813817D01*
X617640D01*
Y812547D01*
D02*
G37*
G36*
X201930D02*
X194310D01*
Y813817D01*
X201930D01*
Y812547D01*
D02*
G37*
G36*
X190500D02*
X182880D01*
Y813817D01*
X190500D01*
Y812547D01*
D02*
G37*
G36*
X179070D02*
X171450D01*
Y813817D01*
X179070D01*
Y812547D01*
D02*
G37*
G36*
X167640D02*
X160020D01*
Y813817D01*
X167640D01*
Y812547D01*
D02*
G37*
G36*
X728130Y732283D02*
X720510D01*
Y733553D01*
X728130D01*
Y732283D01*
D02*
G37*
G36*
X278130D02*
X270510D01*
Y733553D01*
X278130D01*
Y732283D01*
D02*
G37*
G36*
X728130Y728727D02*
X720510Y728727D01*
Y729997D01*
X728130D01*
Y728727D01*
D02*
G37*
G36*
X278130D02*
X270510Y728727D01*
Y729997D01*
X278130D01*
Y728727D01*
D02*
G37*
G36*
X726860Y668783D02*
Y667513D01*
X719240D01*
Y668783D01*
X726860Y668783D01*
D02*
G37*
G36*
X643040D02*
Y667513D01*
X635420D01*
Y668783D01*
X643040Y668783D01*
D02*
G37*
G36*
X561760D02*
Y667513D01*
X554140D01*
Y668783D01*
X561760Y668783D01*
D02*
G37*
G36*
X276860D02*
Y667513D01*
X269240D01*
Y668783D01*
X276860Y668783D01*
D02*
G37*
G36*
X193040D02*
Y667513D01*
X185420D01*
Y668783D01*
X193040Y668783D01*
D02*
G37*
G36*
X111760D02*
Y667513D01*
X104140D01*
Y668783D01*
X111760Y668783D01*
D02*
G37*
G36*
X726860Y663957D02*
X719240D01*
Y665227D01*
X726860D01*
Y663957D01*
D02*
G37*
G36*
X643040D02*
X635420D01*
Y665227D01*
X643040D01*
Y663957D01*
D02*
G37*
G36*
X561760D02*
X554140D01*
Y665227D01*
X561760D01*
Y663957D01*
D02*
G37*
G36*
X276860D02*
X269240D01*
Y665227D01*
X276860D01*
Y663957D01*
D02*
G37*
G36*
X193040D02*
X185420D01*
Y665227D01*
X193040D01*
Y663957D01*
D02*
G37*
G36*
X111760D02*
X104140D01*
Y665227D01*
X111760D01*
Y663957D01*
D02*
G37*
G36*
X692824Y661036D02*
X686728D01*
Y667132D01*
X692824Y661036D01*
D02*
G37*
G36*
X607734D02*
X601638D01*
Y667132D01*
X607734Y661036D01*
D02*
G37*
G36*
X526454D02*
X520358D01*
Y667132D01*
X526454Y661036D01*
D02*
G37*
G36*
X242824D02*
X236728D01*
Y667132D01*
X242824Y661036D01*
D02*
G37*
G36*
X157734D02*
X151638D01*
Y667132D01*
X157734Y661036D01*
D02*
G37*
G36*
X76454D02*
X70358D01*
Y667132D01*
X76454Y661036D01*
D02*
G37*
G36*
X644056Y399321D02*
X631864D01*
Y400591D01*
X644056D01*
Y399321D01*
D02*
G37*
G36*
X194056D02*
X181864D01*
Y400591D01*
X194056D01*
Y399321D01*
D02*
G37*
G36*
X644056Y394495D02*
X631864D01*
Y395765D01*
X644056D01*
Y394495D01*
D02*
G37*
G36*
X194056D02*
X181864D01*
Y395765D01*
X194056D01*
Y394495D01*
D02*
G37*
G36*
X651930Y317373D02*
Y316103D01*
X644310D01*
Y317373D01*
X651930Y317373D01*
D02*
G37*
G36*
X640500D02*
Y316103D01*
X632880D01*
Y317373D01*
X640500Y317373D01*
D02*
G37*
G36*
X629070D02*
Y316103D01*
X621450D01*
Y317373D01*
X629070Y317373D01*
D02*
G37*
G36*
X617640D02*
Y316103D01*
X610020D01*
Y317373D01*
X617640Y317373D01*
D02*
G37*
G36*
X201930D02*
Y316103D01*
X194310D01*
Y317373D01*
X201930Y317373D01*
D02*
G37*
G36*
X190500D02*
Y316103D01*
X182880D01*
Y317373D01*
X190500Y317373D01*
D02*
G37*
G36*
X179070D02*
Y316103D01*
X171450D01*
Y317373D01*
X179070Y317373D01*
D02*
G37*
G36*
X167640D02*
Y316103D01*
X160020D01*
Y317373D01*
X167640Y317373D01*
D02*
G37*
G36*
X651930Y312547D02*
X644310D01*
Y313817D01*
X651930D01*
Y312547D01*
D02*
G37*
G36*
X640500D02*
X632880D01*
Y313817D01*
X640500D01*
Y312547D01*
D02*
G37*
G36*
X629070D02*
X621450D01*
Y313817D01*
X629070D01*
Y312547D01*
D02*
G37*
G36*
X617640D02*
X610020D01*
Y313817D01*
X617640D01*
Y312547D01*
D02*
G37*
G36*
X201930D02*
X194310D01*
Y313817D01*
X201930D01*
Y312547D01*
D02*
G37*
G36*
X190500D02*
X182880D01*
Y313817D01*
X190500D01*
Y312547D01*
D02*
G37*
G36*
X179070D02*
X171450D01*
Y313817D01*
X179070D01*
Y312547D01*
D02*
G37*
G36*
X167640D02*
X160020D01*
Y313817D01*
X167640D01*
Y312547D01*
D02*
G37*
G36*
X728130Y232283D02*
X720510D01*
Y233553D01*
X728130D01*
Y232283D01*
D02*
G37*
G36*
X278130D02*
X270510D01*
Y233553D01*
X278130D01*
Y232283D01*
D02*
G37*
G36*
X728130Y228727D02*
X720510Y228727D01*
Y229997D01*
X728130D01*
Y228727D01*
D02*
G37*
G36*
X278130D02*
X270510Y228727D01*
Y229997D01*
X278130D01*
Y228727D01*
D02*
G37*
G36*
X726860Y168783D02*
Y167513D01*
X719240D01*
Y168783D01*
X726860Y168783D01*
D02*
G37*
G36*
X643040D02*
Y167513D01*
X635420D01*
Y168783D01*
X643040Y168783D01*
D02*
G37*
G36*
X561760D02*
Y167513D01*
X554140D01*
Y168783D01*
X561760Y168783D01*
D02*
G37*
G36*
X276860D02*
Y167513D01*
X269240D01*
Y168783D01*
X276860Y168783D01*
D02*
G37*
G36*
X193040D02*
Y167513D01*
X185420D01*
Y168783D01*
X193040Y168783D01*
D02*
G37*
G36*
X111760D02*
Y167513D01*
X104140D01*
Y168783D01*
X111760Y168783D01*
D02*
G37*
G36*
X726860Y163957D02*
X719240D01*
Y165227D01*
X726860D01*
Y163957D01*
D02*
G37*
G36*
X643040D02*
X635420D01*
Y165227D01*
X643040D01*
Y163957D01*
D02*
G37*
G36*
X561760D02*
X554140D01*
Y165227D01*
X561760D01*
Y163957D01*
D02*
G37*
G36*
X276860D02*
X269240D01*
Y165227D01*
X276860D01*
Y163957D01*
D02*
G37*
G36*
X193040D02*
X185420D01*
Y165227D01*
X193040D01*
Y163957D01*
D02*
G37*
G36*
X111760D02*
X104140D01*
Y165227D01*
X111760D01*
Y163957D01*
D02*
G37*
G36*
X692824Y161036D02*
X686728D01*
Y167132D01*
X692824Y161036D01*
D02*
G37*
G36*
X607734D02*
X601638D01*
Y167132D01*
X607734Y161036D01*
D02*
G37*
G36*
X526454D02*
X520358D01*
Y167132D01*
X526454Y161036D01*
D02*
G37*
G36*
X242824D02*
X236728D01*
Y167132D01*
X242824Y161036D01*
D02*
G37*
G36*
X157734D02*
X151638D01*
Y167132D01*
X157734Y161036D01*
D02*
G37*
G36*
X76454D02*
X70358D01*
Y167132D01*
X76454Y161036D01*
D02*
G37*
D29*
X149590Y220980D02*
G03*
X149590Y220980I-1000J0D01*
G01*
X223560Y5680D02*
Y49180D01*
Y105680D01*
X355560Y49180D02*
Y105680D01*
Y5680D02*
Y49180D01*
X290260Y423780D02*
X314260D01*
X290260Y373780D02*
X314260D01*
X290260D02*
Y423780D01*
X314260Y373780D02*
Y423780D01*
X209940Y309419D02*
Y319880D01*
X226940Y309419D02*
Y319880D01*
X599590Y220980D02*
G03*
X599590Y220980I-1000J0D01*
G01*
X673560Y5680D02*
Y49180D01*
Y105680D01*
X805560Y49180D02*
Y105680D01*
Y5680D02*
Y49180D01*
X740260Y423780D02*
X764260D01*
X740260Y373780D02*
X764260D01*
X740260D02*
Y423780D01*
X764260Y373780D02*
Y423780D01*
X659940Y309419D02*
Y319880D01*
X676940Y309419D02*
Y319880D01*
X149590Y720980D02*
G03*
X149590Y720980I-1000J0D01*
G01*
X223560Y505680D02*
Y549180D01*
Y605680D01*
X355560Y549180D02*
Y605680D01*
Y505680D02*
Y549180D01*
X290260Y923780D02*
X314260D01*
X290260Y873780D02*
X314260D01*
X290260D02*
Y923780D01*
X314260Y873780D02*
Y923780D01*
X209940Y809419D02*
Y819880D01*
X226940Y809419D02*
Y819880D01*
X599590Y720980D02*
G03*
X599590Y720980I-1000J0D01*
G01*
X673560Y505680D02*
Y549180D01*
Y605680D01*
X805560Y549180D02*
Y605680D01*
Y505680D02*
Y549180D01*
X740260Y923780D02*
X764260D01*
X740260Y873780D02*
X764260D01*
X740260D02*
Y923780D01*
X764260Y873780D02*
Y923780D01*
X659940Y809419D02*
Y819880D01*
X676940Y809419D02*
Y819880D01*
D31*
X400000Y500000D02*
G03*
X450000Y550000I0J50000D01*
G01*
D02*
G03*
X500000Y500000I50000J0D01*
G01*
D02*
G03*
X450000Y450000I0J-50000D01*
G01*
D02*
G03*
X400000Y500000I-50000J0D01*
G01*
X450000Y550000D02*
Y950000D01*
X500000Y500000D02*
X850000D01*
X450000Y50000D02*
Y450000D01*
Y550000D02*
Y950000D01*
X500000Y500000D02*
X850000D01*
X450000Y49111D02*
Y50000D01*
X50000Y500000D02*
X400000D01*
X240208Y52496D02*
X246873D01*
X243541D01*
Y42500D01*
X256870D02*
X250205D01*
X256870Y49164D01*
Y50830D01*
X255203Y52496D01*
X251871D01*
X250205Y50830D01*
X348539Y257638D02*
Y267634D01*
X353538D01*
X355204Y265968D01*
Y262636D01*
X353538Y260970D01*
X348539D01*
X351872D02*
X355204Y257638D01*
X358536Y267634D02*
X365201D01*
Y265968D01*
X358536Y259304D01*
Y257638D01*
X15597Y51226D02*
Y42896D01*
X17263Y41230D01*
X20595D01*
X22261Y42896D01*
Y51226D01*
X32258Y49560D02*
X30592Y51226D01*
X27260D01*
X25594Y49560D01*
Y47894D01*
X27260Y46228D01*
X30592D01*
X32258Y44562D01*
Y42896D01*
X30592Y41230D01*
X27260D01*
X25594Y42896D01*
X35590Y51226D02*
Y41230D01*
X40589D01*
X42255Y42896D01*
Y44562D01*
X40589Y46228D01*
X35590D01*
X40589D01*
X42255Y47894D01*
Y49560D01*
X40589Y51226D01*
X35590D01*
X45587Y41230D02*
X48919D01*
X47253D01*
Y51226D01*
X45587Y49560D01*
X277546Y50591D02*
X284211D01*
X280879D01*
Y40595D01*
X292542D02*
Y50591D01*
X287543Y45593D01*
X294208D01*
X297485Y53131D02*
X304150D01*
X300818D01*
Y43135D01*
X307482Y51465D02*
X309148Y53131D01*
X312481D01*
X314147Y51465D01*
Y49799D01*
X312481Y48133D01*
X310814D01*
X312481D01*
X314147Y46467D01*
Y44801D01*
X312481Y43135D01*
X309148D01*
X307482Y44801D01*
X326695Y257638D02*
Y267634D01*
X331694D01*
X333360Y265968D01*
Y262636D01*
X331694Y260970D01*
X326695D01*
X330028D02*
X333360Y257638D01*
X336692Y265968D02*
X338358Y267634D01*
X341690D01*
X343357Y265968D01*
Y264302D01*
X341690Y262636D01*
X343357Y260970D01*
Y259304D01*
X341690Y257638D01*
X338358D01*
X336692Y259304D01*
Y260970D01*
X338358Y262636D01*
X336692Y264302D01*
Y265968D01*
X338358Y262636D02*
X341690D01*
X285242Y257638D02*
Y267634D01*
X290240D01*
X291907Y265968D01*
Y262636D01*
X290240Y260970D01*
X285242D01*
X288574D02*
X291907Y257638D01*
X301903Y267634D02*
X298571Y265968D01*
X295239Y262636D01*
Y259304D01*
X296905Y257638D01*
X300237D01*
X301903Y259304D01*
Y260970D01*
X300237Y262636D01*
X295239D01*
X369062Y257638D02*
Y267634D01*
X374060D01*
X375727Y265968D01*
Y262636D01*
X374060Y260970D01*
X369062D01*
X372394D02*
X375727Y257638D01*
X385723Y267634D02*
X379059D01*
Y262636D01*
X382391Y264302D01*
X384057D01*
X385723Y262636D01*
Y259304D01*
X384057Y257638D01*
X380725D01*
X379059Y259304D01*
X247574Y252939D02*
Y262935D01*
X252573D01*
X254239Y261269D01*
Y257937D01*
X252573Y256271D01*
X247574D01*
X250907D02*
X254239Y252939D01*
X262570D02*
Y262935D01*
X257571Y257937D01*
X264236D01*
X202489Y424262D02*
Y434258D01*
X207488D01*
X209154Y432592D01*
Y429260D01*
X207488Y427594D01*
X202489D01*
X205822D02*
X209154Y424262D01*
X212486Y432592D02*
X214152Y434258D01*
X217484D01*
X219151Y432592D01*
Y430926D01*
X217484Y429260D01*
X215818D01*
X217484D01*
X219151Y427594D01*
Y425928D01*
X217484Y424262D01*
X214152D01*
X212486Y425928D01*
X223819Y340681D02*
X213823D01*
Y345679D01*
X215489Y347345D01*
X218821D01*
X220487Y345679D01*
Y340681D01*
Y344013D02*
X223819Y347345D01*
Y350677D02*
Y354010D01*
Y352343D01*
X213823D01*
X215489Y350677D01*
X394655Y46564D02*
Y56560D01*
X399654D01*
X401320Y54894D01*
Y51562D01*
X399654Y49896D01*
X394655D01*
X404652Y46564D02*
X407985D01*
X406318D01*
Y56560D01*
X404652Y54894D01*
X378781Y167177D02*
Y157181D01*
Y160513D01*
X385445Y167177D01*
X380447Y162179D01*
X385445Y157181D01*
X388777D02*
X392109D01*
X390443D01*
Y167177D01*
X388777Y165511D01*
X305994Y267634D02*
Y257638D01*
X310993D01*
X312659Y259304D01*
Y265968D01*
X310993Y267634D01*
X305994D01*
X322656D02*
X319323Y265968D01*
X315991Y262636D01*
Y259304D01*
X317657Y257638D01*
X320989D01*
X322656Y259304D01*
Y260970D01*
X320989Y262636D01*
X315991D01*
X337902Y334315D02*
X347898D01*
Y339314D01*
X346232Y340980D01*
X339568D01*
X337902Y339314D01*
Y334315D01*
Y350977D02*
Y344312D01*
X342900D01*
X341234Y347644D01*
Y349310D01*
X342900Y350977D01*
X346232D01*
X347898Y349310D01*
Y345978D01*
X346232Y344312D01*
X318979Y334315D02*
X328975D01*
Y339314D01*
X327309Y340980D01*
X320645D01*
X318979Y339314D01*
Y334315D01*
X328975Y349310D02*
X318979D01*
X323977Y344312D01*
Y350977D01*
X299675Y334315D02*
X309671D01*
Y339314D01*
X308005Y340980D01*
X301341D01*
X299675Y339314D01*
Y334315D01*
X301341Y344312D02*
X299675Y345978D01*
Y349310D01*
X301341Y350977D01*
X303007D01*
X304673Y349310D01*
Y347644D01*
Y349310D01*
X306339Y350977D01*
X308005D01*
X309671Y349310D01*
Y345978D01*
X308005Y344312D01*
X280498Y334315D02*
X290494D01*
Y339314D01*
X288828Y340980D01*
X282164D01*
X280498Y339314D01*
Y334315D01*
X290494Y350977D02*
Y344312D01*
X283830Y350977D01*
X282164D01*
X280498Y349310D01*
Y345978D01*
X282164Y344312D01*
X261956Y334315D02*
X271952D01*
Y339314D01*
X270286Y340980D01*
X263622D01*
X261956Y339314D01*
Y334315D01*
X271952Y344312D02*
Y347644D01*
Y345978D01*
X261956D01*
X263622Y344312D01*
X268869Y206024D02*
X267203Y207690D01*
X263871D01*
X262205Y206024D01*
Y199360D01*
X263871Y197694D01*
X267203D01*
X268869Y199360D01*
X272202Y197694D02*
X275534D01*
X273868D01*
Y207690D01*
X272202Y206024D01*
X287197Y207690D02*
X280532D01*
Y202692D01*
X283865Y204358D01*
X285531D01*
X287197Y202692D01*
Y199360D01*
X285531Y197694D01*
X282199D01*
X280532Y199360D01*
X237500Y432719D02*
X235834Y434385D01*
X232502D01*
X230836Y432719D01*
Y426055D01*
X232502Y424389D01*
X235834D01*
X237500Y426055D01*
X240833Y424389D02*
X244165D01*
X242499D01*
Y434385D01*
X240833Y432719D01*
X254162Y424389D02*
Y434385D01*
X249163Y429387D01*
X255828D01*
X106777Y201814D02*
X105111Y200147D01*
Y196815D01*
X106777Y195149D01*
X113441D01*
X115107Y196815D01*
Y200147D01*
X113441Y201814D01*
X115107Y205146D02*
Y208478D01*
Y206812D01*
X105111D01*
X106777Y205146D01*
Y213477D02*
X105111Y215143D01*
Y218475D01*
X106777Y220141D01*
X108443D01*
X110109Y218475D01*
Y216809D01*
Y218475D01*
X111775Y220141D01*
X113441D01*
X115107Y218475D01*
Y215143D01*
X113441Y213477D01*
X189876Y192308D02*
X188209Y193974D01*
X184877D01*
X183211Y192308D01*
Y185644D01*
X184877Y183978D01*
X188209D01*
X189876Y185644D01*
X193208Y183978D02*
X196540D01*
X194874D01*
Y193974D01*
X193208Y192308D01*
X208203Y183978D02*
X201539D01*
X208203Y190642D01*
Y192308D01*
X206537Y193974D01*
X203205D01*
X201539Y192308D01*
X196058Y335687D02*
X194392Y334021D01*
Y330688D01*
X196058Y329022D01*
X202722D01*
X204388Y330688D01*
Y334021D01*
X202722Y335687D01*
X204388Y339019D02*
Y342351D01*
Y340685D01*
X194392D01*
X196058Y339019D01*
X204388Y347350D02*
Y350682D01*
Y349016D01*
X194392D01*
X196058Y347350D01*
X182088Y335687D02*
X180422Y334021D01*
Y330688D01*
X182088Y329022D01*
X188752D01*
X190418Y330688D01*
Y334021D01*
X188752Y335687D01*
X190418Y339019D02*
Y342351D01*
Y340685D01*
X180422D01*
X182088Y339019D01*
Y347350D02*
X180422Y349016D01*
Y352348D01*
X182088Y354014D01*
X188752D01*
X190418Y352348D01*
Y349016D01*
X188752Y347350D01*
X182088D01*
X168499Y335687D02*
X166833Y334021D01*
Y330688D01*
X168499Y329022D01*
X175163D01*
X176829Y330688D01*
Y334021D01*
X175163Y335687D01*
Y339019D02*
X176829Y340685D01*
Y344017D01*
X175163Y345684D01*
X168499D01*
X166833Y344017D01*
Y340685D01*
X168499Y339019D01*
X170165D01*
X171831Y340685D01*
Y345684D01*
X154910Y335687D02*
X153244Y334021D01*
Y330688D01*
X154910Y329022D01*
X161574D01*
X163240Y330688D01*
Y334021D01*
X161574Y335687D01*
X154910Y339019D02*
X153244Y340685D01*
Y344017D01*
X154910Y345684D01*
X156576D01*
X158242Y344017D01*
X159908Y345684D01*
X161574D01*
X163240Y344017D01*
Y340685D01*
X161574Y339019D01*
X159908D01*
X158242Y340685D01*
X156576Y339019D01*
X154910D01*
X158242Y340685D02*
Y344017D01*
X46086Y287050D02*
X44420Y288716D01*
X41087D01*
X39421Y287050D01*
Y280386D01*
X41087Y278720D01*
X44420D01*
X46086Y280386D01*
X49418Y288716D02*
X56083D01*
Y287050D01*
X49418Y280386D01*
Y278720D01*
X187818Y432719D02*
X186152Y434385D01*
X182819D01*
X181153Y432719D01*
Y426055D01*
X182819Y424389D01*
X186152D01*
X187818Y426055D01*
X197815Y434385D02*
X194482Y432719D01*
X191150Y429387D01*
Y426055D01*
X192816Y424389D01*
X196148D01*
X197815Y426055D01*
Y427721D01*
X196148Y429387D01*
X191150D01*
X237714Y358379D02*
X236048Y356713D01*
Y353381D01*
X237714Y351714D01*
X244378D01*
X246044Y353381D01*
Y356713D01*
X244378Y358379D01*
X236048Y368376D02*
Y361711D01*
X241046D01*
X239380Y365043D01*
Y366710D01*
X241046Y368376D01*
X244378D01*
X246044Y366710D01*
Y363377D01*
X244378Y361711D01*
X288656Y169067D02*
X286990Y170733D01*
X283657D01*
X281991Y169067D01*
Y162403D01*
X283657Y160737D01*
X286990D01*
X288656Y162403D01*
X296987Y160737D02*
Y170733D01*
X291988Y165735D01*
X298653D01*
X45070Y265714D02*
X43404Y267380D01*
X40072D01*
X38405Y265714D01*
Y259050D01*
X40072Y257384D01*
X43404D01*
X45070Y259050D01*
X48402Y265714D02*
X50068Y267380D01*
X53401D01*
X55067Y265714D01*
Y264048D01*
X53401Y262382D01*
X51734D01*
X53401D01*
X55067Y260716D01*
Y259050D01*
X53401Y257384D01*
X50068D01*
X48402Y259050D01*
X45197Y245521D02*
X43531Y247187D01*
X40198D01*
X38532Y245521D01*
Y238857D01*
X40198Y237191D01*
X43531D01*
X45197Y238857D01*
X55194Y237191D02*
X48529D01*
X55194Y243855D01*
Y245521D01*
X53527Y247187D01*
X50195D01*
X48529Y245521D01*
X48641Y224566D02*
X46975Y226232D01*
X43643D01*
X41976Y224566D01*
Y217902D01*
X43643Y216236D01*
X46975D01*
X48641Y217902D01*
X51973Y216236D02*
X55306D01*
X53639D01*
Y226232D01*
X51973Y224566D01*
X216728Y51607D02*
X223393D01*
X220061D01*
Y41611D01*
X226725D02*
X230058D01*
X228391D01*
Y51607D01*
X226725Y49941D01*
X352730Y405810D02*
Y397480D01*
X354397Y395814D01*
X357729D01*
X359395Y397480D01*
Y405810D01*
X369392D02*
X362727D01*
Y400812D01*
X366059Y402478D01*
X367725D01*
X369392Y400812D01*
Y397480D01*
X367725Y395814D01*
X364393D01*
X362727Y397480D01*
X46803Y453181D02*
Y443185D01*
X53467D01*
X56799D02*
X60132D01*
X58465D01*
Y453181D01*
X56799Y451515D01*
X45898Y169336D02*
Y161006D01*
X47565Y159340D01*
X50897D01*
X52563Y161006D01*
Y169336D01*
X60894Y159340D02*
Y169336D01*
X55895Y164338D01*
X62560D01*
X129464Y169336D02*
Y161006D01*
X131131Y159340D01*
X134463D01*
X136129Y161006D01*
Y169336D01*
X139461Y167670D02*
X141127Y169336D01*
X144459D01*
X146126Y167670D01*
Y166004D01*
X144459Y164338D01*
X142793D01*
X144459D01*
X146126Y162672D01*
Y161006D01*
X144459Y159340D01*
X141127D01*
X139461Y161006D01*
X128448Y305607D02*
Y297277D01*
X130114Y295611D01*
X133447D01*
X135113Y297277D01*
Y305607D01*
X145110Y295611D02*
X138445D01*
X145110Y302275D01*
Y303941D01*
X143443Y305607D01*
X140111D01*
X138445Y303941D01*
X217871Y170606D02*
Y162276D01*
X219538Y160610D01*
X222870D01*
X224536Y162276D01*
Y170606D01*
X227868Y160610D02*
X231201D01*
X229534D01*
Y170606D01*
X227868Y168940D01*
X690208Y52496D02*
X696873D01*
X693541D01*
Y42500D01*
X706870D02*
X700205D01*
X706870Y49164D01*
Y50830D01*
X705203Y52496D01*
X701871D01*
X700205Y50830D01*
X798539Y257638D02*
Y267634D01*
X803538D01*
X805204Y265968D01*
Y262636D01*
X803538Y260970D01*
X798539D01*
X801872D02*
X805204Y257638D01*
X808536Y267634D02*
X815201D01*
Y265968D01*
X808536Y259304D01*
Y257638D01*
X465597Y51226D02*
Y42896D01*
X467263Y41230D01*
X470595D01*
X472261Y42896D01*
Y51226D01*
X482258Y49560D02*
X480592Y51226D01*
X477260D01*
X475593Y49560D01*
Y47894D01*
X477260Y46228D01*
X480592D01*
X482258Y44562D01*
Y42896D01*
X480592Y41230D01*
X477260D01*
X475593Y42896D01*
X485590Y51226D02*
Y41230D01*
X490589D01*
X492255Y42896D01*
Y44562D01*
X490589Y46228D01*
X485590D01*
X490589D01*
X492255Y47894D01*
Y49560D01*
X490589Y51226D01*
X485590D01*
X495587Y41230D02*
X498919D01*
X497253D01*
Y51226D01*
X495587Y49560D01*
X727546Y50591D02*
X734211D01*
X730879D01*
Y40595D01*
X742542D02*
Y50591D01*
X737543Y45593D01*
X744208D01*
X747485Y53131D02*
X754150D01*
X750818D01*
Y43135D01*
X757482Y51465D02*
X759148Y53131D01*
X762480D01*
X764147Y51465D01*
Y49799D01*
X762480Y48133D01*
X760814D01*
X762480D01*
X764147Y46467D01*
Y44801D01*
X762480Y43135D01*
X759148D01*
X757482Y44801D01*
X776695Y257638D02*
Y267634D01*
X781694D01*
X783360Y265968D01*
Y262636D01*
X781694Y260970D01*
X776695D01*
X780028D02*
X783360Y257638D01*
X786692Y265968D02*
X788358Y267634D01*
X791691D01*
X793357Y265968D01*
Y264302D01*
X791691Y262636D01*
X793357Y260970D01*
Y259304D01*
X791691Y257638D01*
X788358D01*
X786692Y259304D01*
Y260970D01*
X788358Y262636D01*
X786692Y264302D01*
Y265968D01*
X788358Y262636D02*
X791691D01*
X735242Y257638D02*
Y267634D01*
X740240D01*
X741907Y265968D01*
Y262636D01*
X740240Y260970D01*
X735242D01*
X738574D02*
X741907Y257638D01*
X751903Y267634D02*
X748571Y265968D01*
X745239Y262636D01*
Y259304D01*
X746905Y257638D01*
X750237D01*
X751903Y259304D01*
Y260970D01*
X750237Y262636D01*
X745239D01*
X819062Y257638D02*
Y267634D01*
X824060D01*
X825726Y265968D01*
Y262636D01*
X824060Y260970D01*
X819062D01*
X822394D02*
X825726Y257638D01*
X835723Y267634D02*
X829059D01*
Y262636D01*
X832391Y264302D01*
X834057D01*
X835723Y262636D01*
Y259304D01*
X834057Y257638D01*
X830725D01*
X829059Y259304D01*
X697574Y252939D02*
Y262935D01*
X702573D01*
X704239Y261269D01*
Y257937D01*
X702573Y256271D01*
X697574D01*
X700907D02*
X704239Y252939D01*
X712570D02*
Y262935D01*
X707571Y257937D01*
X714236D01*
X652489Y424262D02*
Y434258D01*
X657488D01*
X659154Y432592D01*
Y429260D01*
X657488Y427594D01*
X652489D01*
X655822D02*
X659154Y424262D01*
X662486Y432592D02*
X664152Y434258D01*
X667485D01*
X669151Y432592D01*
Y430926D01*
X667485Y429260D01*
X665818D01*
X667485D01*
X669151Y427594D01*
Y425928D01*
X667485Y424262D01*
X664152D01*
X662486Y425928D01*
X673819Y340681D02*
X663823D01*
Y345679D01*
X665489Y347345D01*
X668821D01*
X670487Y345679D01*
Y340681D01*
Y344013D02*
X673819Y347345D01*
Y350677D02*
Y354010D01*
Y352343D01*
X663823D01*
X665489Y350677D01*
X844656Y46564D02*
Y56560D01*
X849654D01*
X851320Y54894D01*
Y51562D01*
X849654Y49896D01*
X844656D01*
X854652Y46564D02*
X857984D01*
X856318D01*
Y56560D01*
X854652Y54894D01*
X828781Y167177D02*
Y157181D01*
Y160513D01*
X835445Y167177D01*
X830447Y162179D01*
X835445Y157181D01*
X838777D02*
X842110D01*
X840443D01*
Y167177D01*
X838777Y165511D01*
X755994Y267634D02*
Y257638D01*
X760993D01*
X762659Y259304D01*
Y265968D01*
X760993Y267634D01*
X755994D01*
X772656D02*
X769323Y265968D01*
X765991Y262636D01*
Y259304D01*
X767657Y257638D01*
X770990D01*
X772656Y259304D01*
Y260970D01*
X770990Y262636D01*
X765991D01*
X787902Y334315D02*
X797898D01*
Y339314D01*
X796232Y340980D01*
X789568D01*
X787902Y339314D01*
Y334315D01*
Y350977D02*
Y344312D01*
X792900D01*
X791234Y347644D01*
Y349310D01*
X792900Y350977D01*
X796232D01*
X797898Y349310D01*
Y345978D01*
X796232Y344312D01*
X768979Y334315D02*
X778975D01*
Y339314D01*
X777309Y340980D01*
X770645D01*
X768979Y339314D01*
Y334315D01*
X778975Y349310D02*
X768979D01*
X773977Y344312D01*
Y350977D01*
X749675Y334315D02*
X759671D01*
Y339314D01*
X758005Y340980D01*
X751341D01*
X749675Y339314D01*
Y334315D01*
X751341Y344312D02*
X749675Y345978D01*
Y349310D01*
X751341Y350977D01*
X753007D01*
X754673Y349310D01*
Y347644D01*
Y349310D01*
X756339Y350977D01*
X758005D01*
X759671Y349310D01*
Y345978D01*
X758005Y344312D01*
X730498Y334315D02*
X740494D01*
Y339314D01*
X738828Y340980D01*
X732164D01*
X730498Y339314D01*
Y334315D01*
X740494Y350977D02*
Y344312D01*
X733830Y350977D01*
X732164D01*
X730498Y349310D01*
Y345978D01*
X732164Y344312D01*
X711956Y334315D02*
X721952D01*
Y339314D01*
X720286Y340980D01*
X713622D01*
X711956Y339314D01*
Y334315D01*
X721952Y344312D02*
Y347644D01*
Y345978D01*
X711956D01*
X713622Y344312D01*
X718869Y206024D02*
X717203Y207690D01*
X713871D01*
X712205Y206024D01*
Y199360D01*
X713871Y197694D01*
X717203D01*
X718869Y199360D01*
X722202Y197694D02*
X725534D01*
X723868D01*
Y207690D01*
X722202Y206024D01*
X737197Y207690D02*
X730532D01*
Y202692D01*
X733865Y204358D01*
X735531D01*
X737197Y202692D01*
Y199360D01*
X735531Y197694D01*
X732199D01*
X730532Y199360D01*
X687501Y432719D02*
X685834Y434385D01*
X682502D01*
X680836Y432719D01*
Y426055D01*
X682502Y424389D01*
X685834D01*
X687501Y426055D01*
X690833Y424389D02*
X694165D01*
X692499D01*
Y434385D01*
X690833Y432719D01*
X704162Y424389D02*
Y434385D01*
X699163Y429387D01*
X705828D01*
X556777Y201814D02*
X555111Y200147D01*
Y196815D01*
X556777Y195149D01*
X563441D01*
X565107Y196815D01*
Y200147D01*
X563441Y201814D01*
X565107Y205146D02*
Y208478D01*
Y206812D01*
X555111D01*
X556777Y205146D01*
Y213477D02*
X555111Y215143D01*
Y218475D01*
X556777Y220141D01*
X558443D01*
X560109Y218475D01*
Y216809D01*
Y218475D01*
X561775Y220141D01*
X563441D01*
X565107Y218475D01*
Y215143D01*
X563441Y213477D01*
X639875Y192308D02*
X638209Y193974D01*
X634877D01*
X633211Y192308D01*
Y185644D01*
X634877Y183978D01*
X638209D01*
X639875Y185644D01*
X643208Y183978D02*
X646540D01*
X644874D01*
Y193974D01*
X643208Y192308D01*
X658203Y183978D02*
X651538D01*
X658203Y190642D01*
Y192308D01*
X656537Y193974D01*
X653205D01*
X651538Y192308D01*
X646058Y335687D02*
X644392Y334021D01*
Y330688D01*
X646058Y329022D01*
X652722D01*
X654388Y330688D01*
Y334021D01*
X652722Y335687D01*
X654388Y339019D02*
Y342351D01*
Y340685D01*
X644392D01*
X646058Y339019D01*
X654388Y347350D02*
Y350682D01*
Y349016D01*
X644392D01*
X646058Y347350D01*
X632088Y335687D02*
X630421Y334021D01*
Y330688D01*
X632088Y329022D01*
X638752D01*
X640418Y330688D01*
Y334021D01*
X638752Y335687D01*
X640418Y339019D02*
Y342351D01*
Y340685D01*
X630421D01*
X632088Y339019D01*
Y347350D02*
X630421Y349016D01*
Y352348D01*
X632088Y354014D01*
X638752D01*
X640418Y352348D01*
Y349016D01*
X638752Y347350D01*
X632088D01*
X618499Y335687D02*
X616833Y334021D01*
Y330688D01*
X618499Y329022D01*
X625163D01*
X626829Y330688D01*
Y334021D01*
X625163Y335687D01*
Y339019D02*
X626829Y340685D01*
Y344017D01*
X625163Y345684D01*
X618499D01*
X616833Y344017D01*
Y340685D01*
X618499Y339019D01*
X620165D01*
X621831Y340685D01*
Y345684D01*
X604910Y335687D02*
X603243Y334021D01*
Y330688D01*
X604910Y329022D01*
X611574D01*
X613240Y330688D01*
Y334021D01*
X611574Y335687D01*
X604910Y339019D02*
X603243Y340685D01*
Y344017D01*
X604910Y345684D01*
X606576D01*
X608242Y344017D01*
X609908Y345684D01*
X611574D01*
X613240Y344017D01*
Y340685D01*
X611574Y339019D01*
X609908D01*
X608242Y340685D01*
X606576Y339019D01*
X604910D01*
X608242Y340685D02*
Y344017D01*
X496086Y287050D02*
X494420Y288716D01*
X491087D01*
X489421Y287050D01*
Y280386D01*
X491087Y278720D01*
X494420D01*
X496086Y280386D01*
X499418Y288716D02*
X506083D01*
Y287050D01*
X499418Y280386D01*
Y278720D01*
X637818Y432719D02*
X636152Y434385D01*
X632820D01*
X631153Y432719D01*
Y426055D01*
X632820Y424389D01*
X636152D01*
X637818Y426055D01*
X647815Y434385D02*
X644482Y432719D01*
X641150Y429387D01*
Y426055D01*
X642816Y424389D01*
X646149D01*
X647815Y426055D01*
Y427721D01*
X646149Y429387D01*
X641150D01*
X687714Y358379D02*
X686048Y356713D01*
Y353381D01*
X687714Y351714D01*
X694378D01*
X696044Y353381D01*
Y356713D01*
X694378Y358379D01*
X686048Y368376D02*
Y361711D01*
X691046D01*
X689380Y365043D01*
Y366710D01*
X691046Y368376D01*
X694378D01*
X696044Y366710D01*
Y363377D01*
X694378Y361711D01*
X738656Y169067D02*
X736990Y170733D01*
X733658D01*
X731991Y169067D01*
Y162403D01*
X733658Y160737D01*
X736990D01*
X738656Y162403D01*
X746986Y160737D02*
Y170733D01*
X741988Y165735D01*
X748653D01*
X495070Y265714D02*
X493404Y267380D01*
X490071D01*
X488405Y265714D01*
Y259050D01*
X490071Y257384D01*
X493404D01*
X495070Y259050D01*
X498402Y265714D02*
X500068Y267380D01*
X503400D01*
X505067Y265714D01*
Y264048D01*
X503400Y262382D01*
X501734D01*
X503400D01*
X505067Y260716D01*
Y259050D01*
X503400Y257384D01*
X500068D01*
X498402Y259050D01*
X495197Y245521D02*
X493531Y247187D01*
X490199D01*
X488532Y245521D01*
Y238857D01*
X490199Y237191D01*
X493531D01*
X495197Y238857D01*
X505194Y237191D02*
X498529D01*
X505194Y243855D01*
Y245521D01*
X503527Y247187D01*
X500195D01*
X498529Y245521D01*
X498641Y224566D02*
X496975Y226232D01*
X493643D01*
X491977Y224566D01*
Y217902D01*
X493643Y216236D01*
X496975D01*
X498641Y217902D01*
X501973Y216236D02*
X505305D01*
X503639D01*
Y226232D01*
X501973Y224566D01*
X666729Y51607D02*
X673393D01*
X670061D01*
Y41611D01*
X676725D02*
X680058D01*
X678391D01*
Y51607D01*
X676725Y49941D01*
X802730Y405810D02*
Y397480D01*
X804397Y395814D01*
X807729D01*
X809395Y397480D01*
Y405810D01*
X819392D02*
X812727D01*
Y400812D01*
X816059Y402478D01*
X817726D01*
X819392Y400812D01*
Y397480D01*
X817726Y395814D01*
X814393D01*
X812727Y397480D01*
X496802Y453181D02*
Y443185D01*
X503467D01*
X506799D02*
X510131D01*
X508465D01*
Y453181D01*
X506799Y451515D01*
X495898Y169336D02*
Y161006D01*
X497565Y159340D01*
X500897D01*
X502563Y161006D01*
Y169336D01*
X510894Y159340D02*
Y169336D01*
X505895Y164338D01*
X512560D01*
X579464Y169336D02*
Y161006D01*
X581130Y159340D01*
X584463D01*
X586129Y161006D01*
Y169336D01*
X589461Y167670D02*
X591127Y169336D01*
X594459D01*
X596126Y167670D01*
Y166004D01*
X594459Y164338D01*
X592793D01*
X594459D01*
X596126Y162672D01*
Y161006D01*
X594459Y159340D01*
X591127D01*
X589461Y161006D01*
X578448Y305607D02*
Y297277D01*
X580115Y295611D01*
X583447D01*
X585113Y297277D01*
Y305607D01*
X595110Y295611D02*
X588445D01*
X595110Y302275D01*
Y303941D01*
X593443Y305607D01*
X590111D01*
X588445Y303941D01*
X667871Y170606D02*
Y162276D01*
X669538Y160610D01*
X672870D01*
X674536Y162276D01*
Y170606D01*
X677868Y160610D02*
X681200D01*
X679534D01*
Y170606D01*
X677868Y168940D01*
X240208Y552496D02*
X246873D01*
X243541D01*
Y542500D01*
X256870D02*
X250205D01*
X256870Y549164D01*
Y550830D01*
X255203Y552496D01*
X251871D01*
X250205Y550830D01*
X348539Y757638D02*
Y767634D01*
X353538D01*
X355204Y765968D01*
Y762636D01*
X353538Y760970D01*
X348539D01*
X351872D02*
X355204Y757638D01*
X358536Y767634D02*
X365201D01*
Y765968D01*
X358536Y759304D01*
Y757638D01*
X15597Y551226D02*
Y542896D01*
X17263Y541230D01*
X20595D01*
X22261Y542896D01*
Y551226D01*
X32258Y549560D02*
X30592Y551226D01*
X27260D01*
X25594Y549560D01*
Y547894D01*
X27260Y546228D01*
X30592D01*
X32258Y544562D01*
Y542896D01*
X30592Y541230D01*
X27260D01*
X25594Y542896D01*
X35590Y551226D02*
Y541230D01*
X40589D01*
X42255Y542896D01*
Y544562D01*
X40589Y546228D01*
X35590D01*
X40589D01*
X42255Y547894D01*
Y549560D01*
X40589Y551226D01*
X35590D01*
X45587Y541230D02*
X48919D01*
X47253D01*
Y551226D01*
X45587Y549560D01*
X277546Y550591D02*
X284211D01*
X280879D01*
Y540595D01*
X292542D02*
Y550591D01*
X287543Y545593D01*
X294208D01*
X297485Y553131D02*
X304150D01*
X300818D01*
Y543135D01*
X307482Y551465D02*
X309148Y553131D01*
X312481D01*
X314147Y551465D01*
Y549799D01*
X312481Y548133D01*
X310814D01*
X312481D01*
X314147Y546467D01*
Y544801D01*
X312481Y543135D01*
X309148D01*
X307482Y544801D01*
X326695Y757638D02*
Y767634D01*
X331694D01*
X333360Y765968D01*
Y762636D01*
X331694Y760970D01*
X326695D01*
X330028D02*
X333360Y757638D01*
X336692Y765968D02*
X338358Y767634D01*
X341690D01*
X343357Y765968D01*
Y764302D01*
X341690Y762636D01*
X343357Y760970D01*
Y759304D01*
X341690Y757638D01*
X338358D01*
X336692Y759304D01*
Y760970D01*
X338358Y762636D01*
X336692Y764302D01*
Y765968D01*
X338358Y762636D02*
X341690D01*
X285242Y757638D02*
Y767634D01*
X290240D01*
X291907Y765968D01*
Y762636D01*
X290240Y760970D01*
X285242D01*
X288574D02*
X291907Y757638D01*
X301903Y767634D02*
X298571Y765968D01*
X295239Y762636D01*
Y759304D01*
X296905Y757638D01*
X300237D01*
X301903Y759304D01*
Y760970D01*
X300237Y762636D01*
X295239D01*
X369062Y757638D02*
Y767634D01*
X374060D01*
X375727Y765968D01*
Y762636D01*
X374060Y760970D01*
X369062D01*
X372394D02*
X375727Y757638D01*
X385723Y767634D02*
X379059D01*
Y762636D01*
X382391Y764302D01*
X384057D01*
X385723Y762636D01*
Y759304D01*
X384057Y757638D01*
X380725D01*
X379059Y759304D01*
X247574Y752939D02*
Y762935D01*
X252573D01*
X254239Y761269D01*
Y757937D01*
X252573Y756271D01*
X247574D01*
X250907D02*
X254239Y752939D01*
X262570D02*
Y762935D01*
X257571Y757937D01*
X264236D01*
X202489Y924262D02*
Y934258D01*
X207488D01*
X209154Y932592D01*
Y929260D01*
X207488Y927594D01*
X202489D01*
X205822D02*
X209154Y924262D01*
X212486Y932592D02*
X214152Y934258D01*
X217484D01*
X219151Y932592D01*
Y930926D01*
X217484Y929260D01*
X215818D01*
X217484D01*
X219151Y927594D01*
Y925928D01*
X217484Y924262D01*
X214152D01*
X212486Y925928D01*
X223819Y840680D02*
X213823D01*
Y845679D01*
X215489Y847345D01*
X218821D01*
X220487Y845679D01*
Y840680D01*
Y844013D02*
X223819Y847345D01*
Y850677D02*
Y854009D01*
Y852343D01*
X213823D01*
X215489Y850677D01*
X394655Y546564D02*
Y556560D01*
X399654D01*
X401320Y554894D01*
Y551562D01*
X399654Y549896D01*
X394655D01*
X404652Y546564D02*
X407985D01*
X406318D01*
Y556560D01*
X404652Y554894D01*
X378781Y667177D02*
Y657181D01*
Y660513D01*
X385445Y667177D01*
X380447Y662179D01*
X385445Y657181D01*
X388777D02*
X392109D01*
X390443D01*
Y667177D01*
X388777Y665511D01*
X305994Y767634D02*
Y757638D01*
X310993D01*
X312659Y759304D01*
Y765968D01*
X310993Y767634D01*
X305994D01*
X322656D02*
X319323Y765968D01*
X315991Y762636D01*
Y759304D01*
X317657Y757638D01*
X320989D01*
X322656Y759304D01*
Y760970D01*
X320989Y762636D01*
X315991D01*
X337902Y834315D02*
X347898D01*
Y839314D01*
X346232Y840980D01*
X339568D01*
X337902Y839314D01*
Y834315D01*
Y850977D02*
Y844312D01*
X342900D01*
X341234Y847644D01*
Y849311D01*
X342900Y850977D01*
X346232D01*
X347898Y849311D01*
Y845978D01*
X346232Y844312D01*
X318979Y834315D02*
X328975D01*
Y839314D01*
X327309Y840980D01*
X320645D01*
X318979Y839314D01*
Y834315D01*
X328975Y849311D02*
X318979D01*
X323977Y844312D01*
Y850977D01*
X299675Y834315D02*
X309671D01*
Y839314D01*
X308005Y840980D01*
X301341D01*
X299675Y839314D01*
Y834315D01*
X301341Y844312D02*
X299675Y845978D01*
Y849311D01*
X301341Y850977D01*
X303007D01*
X304673Y849311D01*
Y847644D01*
Y849311D01*
X306339Y850977D01*
X308005D01*
X309671Y849311D01*
Y845978D01*
X308005Y844312D01*
X280498Y834315D02*
X290494D01*
Y839314D01*
X288828Y840980D01*
X282164D01*
X280498Y839314D01*
Y834315D01*
X290494Y850977D02*
Y844312D01*
X283830Y850977D01*
X282164D01*
X280498Y849311D01*
Y845978D01*
X282164Y844312D01*
X261956Y834315D02*
X271952D01*
Y839314D01*
X270286Y840980D01*
X263622D01*
X261956Y839314D01*
Y834315D01*
X271952Y844312D02*
Y847644D01*
Y845978D01*
X261956D01*
X263622Y844312D01*
X268869Y706024D02*
X267203Y707690D01*
X263871D01*
X262205Y706024D01*
Y699360D01*
X263871Y697694D01*
X267203D01*
X268869Y699360D01*
X272202Y697694D02*
X275534D01*
X273868D01*
Y707690D01*
X272202Y706024D01*
X287197Y707690D02*
X280532D01*
Y702692D01*
X283865Y704358D01*
X285531D01*
X287197Y702692D01*
Y699360D01*
X285531Y697694D01*
X282199D01*
X280532Y699360D01*
X237500Y932719D02*
X235834Y934385D01*
X232502D01*
X230836Y932719D01*
Y926055D01*
X232502Y924389D01*
X235834D01*
X237500Y926055D01*
X240833Y924389D02*
X244165D01*
X242499D01*
Y934385D01*
X240833Y932719D01*
X254162Y924389D02*
Y934385D01*
X249163Y929387D01*
X255828D01*
X106777Y701814D02*
X105111Y700147D01*
Y696815D01*
X106777Y695149D01*
X113441D01*
X115107Y696815D01*
Y700147D01*
X113441Y701814D01*
X115107Y705146D02*
Y708478D01*
Y706812D01*
X105111D01*
X106777Y705146D01*
Y713476D02*
X105111Y715143D01*
Y718475D01*
X106777Y720141D01*
X108443D01*
X110109Y718475D01*
Y716809D01*
Y718475D01*
X111775Y720141D01*
X113441D01*
X115107Y718475D01*
Y715143D01*
X113441Y713476D01*
X189876Y692308D02*
X188209Y693974D01*
X184877D01*
X183211Y692308D01*
Y685644D01*
X184877Y683978D01*
X188209D01*
X189876Y685644D01*
X193208Y683978D02*
X196540D01*
X194874D01*
Y693974D01*
X193208Y692308D01*
X208203Y683978D02*
X201539D01*
X208203Y690642D01*
Y692308D01*
X206537Y693974D01*
X203205D01*
X201539Y692308D01*
X196058Y835687D02*
X194392Y834020D01*
Y830688D01*
X196058Y829022D01*
X202722D01*
X204388Y830688D01*
Y834020D01*
X202722Y835687D01*
X204388Y839019D02*
Y842351D01*
Y840685D01*
X194392D01*
X196058Y839019D01*
X204388Y847350D02*
Y850682D01*
Y849016D01*
X194392D01*
X196058Y847350D01*
X182088Y835687D02*
X180422Y834021D01*
Y830688D01*
X182088Y829022D01*
X188752D01*
X190418Y830688D01*
Y834021D01*
X188752Y835687D01*
X190418Y839019D02*
Y842351D01*
Y840685D01*
X180422D01*
X182088Y839019D01*
Y847350D02*
X180422Y849016D01*
Y852348D01*
X182088Y854014D01*
X188752D01*
X190418Y852348D01*
Y849016D01*
X188752Y847350D01*
X182088D01*
X168499Y835687D02*
X166833Y834021D01*
Y830688D01*
X168499Y829022D01*
X175163D01*
X176829Y830688D01*
Y834021D01*
X175163Y835687D01*
Y839019D02*
X176829Y840685D01*
Y844017D01*
X175163Y845683D01*
X168499D01*
X166833Y844017D01*
Y840685D01*
X168499Y839019D01*
X170165D01*
X171831Y840685D01*
Y845683D01*
X154910Y835687D02*
X153244Y834021D01*
Y830688D01*
X154910Y829022D01*
X161574D01*
X163240Y830688D01*
Y834021D01*
X161574Y835687D01*
X154910Y839019D02*
X153244Y840685D01*
Y844017D01*
X154910Y845683D01*
X156576D01*
X158242Y844017D01*
X159908Y845683D01*
X161574D01*
X163240Y844017D01*
Y840685D01*
X161574Y839019D01*
X159908D01*
X158242Y840685D01*
X156576Y839019D01*
X154910D01*
X158242Y840685D02*
Y844017D01*
X46086Y787050D02*
X44420Y788716D01*
X41087D01*
X39421Y787050D01*
Y780386D01*
X41087Y778720D01*
X44420D01*
X46086Y780386D01*
X49418Y788716D02*
X56083D01*
Y787050D01*
X49418Y780386D01*
Y778720D01*
X187818Y932719D02*
X186152Y934385D01*
X182819D01*
X181153Y932719D01*
Y926055D01*
X182819Y924389D01*
X186152D01*
X187818Y926055D01*
X197815Y934385D02*
X194482Y932719D01*
X191150Y929387D01*
Y926055D01*
X192816Y924389D01*
X196148D01*
X197815Y926055D01*
Y927721D01*
X196148Y929387D01*
X191150D01*
X237714Y858379D02*
X236048Y856713D01*
Y853381D01*
X237714Y851714D01*
X244378D01*
X246044Y853381D01*
Y856713D01*
X244378Y858379D01*
X236048Y868376D02*
Y861711D01*
X241046D01*
X239380Y865043D01*
Y866710D01*
X241046Y868376D01*
X244378D01*
X246044Y866710D01*
Y863377D01*
X244378Y861711D01*
X288656Y669067D02*
X286990Y670733D01*
X283657D01*
X281991Y669067D01*
Y662403D01*
X283657Y660737D01*
X286990D01*
X288656Y662403D01*
X296987Y660737D02*
Y670733D01*
X291988Y665735D01*
X298653D01*
X45070Y765714D02*
X43404Y767380D01*
X40072D01*
X38405Y765714D01*
Y759050D01*
X40072Y757384D01*
X43404D01*
X45070Y759050D01*
X48402Y765714D02*
X50068Y767380D01*
X53401D01*
X55067Y765714D01*
Y764048D01*
X53401Y762382D01*
X51734D01*
X53401D01*
X55067Y760716D01*
Y759050D01*
X53401Y757384D01*
X50068D01*
X48402Y759050D01*
X45197Y745521D02*
X43531Y747187D01*
X40198D01*
X38532Y745521D01*
Y738857D01*
X40198Y737191D01*
X43531D01*
X45197Y738857D01*
X55194Y737191D02*
X48529D01*
X55194Y743855D01*
Y745521D01*
X53527Y747187D01*
X50195D01*
X48529Y745521D01*
X48641Y724566D02*
X46975Y726232D01*
X43643D01*
X41976Y724566D01*
Y717902D01*
X43643Y716236D01*
X46975D01*
X48641Y717902D01*
X51973Y716236D02*
X55306D01*
X53639D01*
Y726232D01*
X51973Y724566D01*
X216728Y551607D02*
X223393D01*
X220061D01*
Y541611D01*
X226725D02*
X230058D01*
X228391D01*
Y551607D01*
X226725Y549941D01*
X352730Y905810D02*
Y897480D01*
X354397Y895814D01*
X357729D01*
X359395Y897480D01*
Y905810D01*
X369392D02*
X362727D01*
Y900812D01*
X366059Y902478D01*
X367725D01*
X369392Y900812D01*
Y897480D01*
X367725Y895814D01*
X364393D01*
X362727Y897480D01*
X46803Y953181D02*
Y943185D01*
X53467D01*
X56799D02*
X60132D01*
X58465D01*
Y953181D01*
X56799Y951515D01*
X45898Y669336D02*
Y661006D01*
X47565Y659340D01*
X50897D01*
X52563Y661006D01*
Y669336D01*
X60894Y659340D02*
Y669336D01*
X55895Y664338D01*
X62560D01*
X129464Y669336D02*
Y661006D01*
X131131Y659340D01*
X134463D01*
X136129Y661006D01*
Y669336D01*
X139461Y667670D02*
X141127Y669336D01*
X144459D01*
X146126Y667670D01*
Y666004D01*
X144459Y664338D01*
X142793D01*
X144459D01*
X146126Y662672D01*
Y661006D01*
X144459Y659340D01*
X141127D01*
X139461Y661006D01*
X128448Y805607D02*
Y797277D01*
X130114Y795611D01*
X133447D01*
X135113Y797277D01*
Y805607D01*
X145110Y795611D02*
X138445D01*
X145110Y802275D01*
Y803941D01*
X143443Y805607D01*
X140111D01*
X138445Y803941D01*
X217871Y670606D02*
Y662276D01*
X219538Y660610D01*
X222870D01*
X224536Y662276D01*
Y670606D01*
X227868Y660610D02*
X231201D01*
X229534D01*
Y670606D01*
X227868Y668940D01*
X690208Y552496D02*
X696873D01*
X693541D01*
Y542500D01*
X706870D02*
X700205D01*
X706870Y549164D01*
Y550830D01*
X705203Y552496D01*
X701871D01*
X700205Y550830D01*
X798539Y757638D02*
Y767634D01*
X803538D01*
X805204Y765968D01*
Y762636D01*
X803538Y760970D01*
X798539D01*
X801872D02*
X805204Y757638D01*
X808536Y767634D02*
X815201D01*
Y765968D01*
X808536Y759304D01*
Y757638D01*
X465597Y551226D02*
Y542896D01*
X467263Y541230D01*
X470595D01*
X472261Y542896D01*
Y551226D01*
X482258Y549560D02*
X480592Y551226D01*
X477260D01*
X475593Y549560D01*
Y547894D01*
X477260Y546228D01*
X480592D01*
X482258Y544562D01*
Y542896D01*
X480592Y541230D01*
X477260D01*
X475593Y542896D01*
X485590Y551226D02*
Y541230D01*
X490589D01*
X492255Y542896D01*
Y544562D01*
X490589Y546228D01*
X485590D01*
X490589D01*
X492255Y547894D01*
Y549560D01*
X490589Y551226D01*
X485590D01*
X495587Y541230D02*
X498919D01*
X497253D01*
Y551226D01*
X495587Y549560D01*
X727546Y550591D02*
X734211D01*
X730879D01*
Y540595D01*
X742542D02*
Y550591D01*
X737543Y545593D01*
X744208D01*
X747485Y553131D02*
X754150D01*
X750818D01*
Y543135D01*
X757482Y551465D02*
X759148Y553131D01*
X762480D01*
X764147Y551465D01*
Y549799D01*
X762480Y548133D01*
X760814D01*
X762480D01*
X764147Y546467D01*
Y544801D01*
X762480Y543135D01*
X759148D01*
X757482Y544801D01*
X776695Y757638D02*
Y767634D01*
X781694D01*
X783360Y765968D01*
Y762636D01*
X781694Y760970D01*
X776695D01*
X780028D02*
X783360Y757638D01*
X786692Y765968D02*
X788358Y767634D01*
X791691D01*
X793357Y765968D01*
Y764302D01*
X791691Y762636D01*
X793357Y760970D01*
Y759304D01*
X791691Y757638D01*
X788358D01*
X786692Y759304D01*
Y760970D01*
X788358Y762636D01*
X786692Y764302D01*
Y765968D01*
X788358Y762636D02*
X791691D01*
X735242Y757638D02*
Y767634D01*
X740240D01*
X741907Y765968D01*
Y762636D01*
X740240Y760970D01*
X735242D01*
X738574D02*
X741907Y757638D01*
X751903Y767634D02*
X748571Y765968D01*
X745239Y762636D01*
Y759304D01*
X746905Y757638D01*
X750237D01*
X751903Y759304D01*
Y760970D01*
X750237Y762636D01*
X745239D01*
X819062Y757638D02*
Y767634D01*
X824060D01*
X825726Y765968D01*
Y762636D01*
X824060Y760970D01*
X819062D01*
X822394D02*
X825726Y757638D01*
X835723Y767634D02*
X829059D01*
Y762636D01*
X832391Y764302D01*
X834057D01*
X835723Y762636D01*
Y759304D01*
X834057Y757638D01*
X830725D01*
X829059Y759304D01*
X697574Y752939D02*
Y762935D01*
X702573D01*
X704239Y761269D01*
Y757937D01*
X702573Y756271D01*
X697574D01*
X700907D02*
X704239Y752939D01*
X712570D02*
Y762935D01*
X707571Y757937D01*
X714236D01*
X652489Y924262D02*
Y934258D01*
X657488D01*
X659154Y932592D01*
Y929260D01*
X657488Y927594D01*
X652489D01*
X655822D02*
X659154Y924262D01*
X662486Y932592D02*
X664152Y934258D01*
X667485D01*
X669151Y932592D01*
Y930926D01*
X667485Y929260D01*
X665818D01*
X667485D01*
X669151Y927594D01*
Y925928D01*
X667485Y924262D01*
X664152D01*
X662486Y925928D01*
X673819Y840680D02*
X663823D01*
Y845679D01*
X665489Y847345D01*
X668821D01*
X670487Y845679D01*
Y840680D01*
Y844013D02*
X673819Y847345D01*
Y850677D02*
Y854009D01*
Y852343D01*
X663823D01*
X665489Y850677D01*
X844656Y546564D02*
Y556560D01*
X849654D01*
X851320Y554894D01*
Y551562D01*
X849654Y549896D01*
X844656D01*
X854652Y546564D02*
X857984D01*
X856318D01*
Y556560D01*
X854652Y554894D01*
X828781Y667177D02*
Y657181D01*
Y660513D01*
X835445Y667177D01*
X830447Y662179D01*
X835445Y657181D01*
X838777D02*
X842110D01*
X840443D01*
Y667177D01*
X838777Y665511D01*
X755994Y767634D02*
Y757638D01*
X760993D01*
X762659Y759304D01*
Y765968D01*
X760993Y767634D01*
X755994D01*
X772656D02*
X769323Y765968D01*
X765991Y762636D01*
Y759304D01*
X767657Y757638D01*
X770990D01*
X772656Y759304D01*
Y760970D01*
X770990Y762636D01*
X765991D01*
X787902Y834315D02*
X797898D01*
Y839314D01*
X796232Y840980D01*
X789568D01*
X787902Y839314D01*
Y834315D01*
Y850977D02*
Y844312D01*
X792900D01*
X791234Y847644D01*
Y849311D01*
X792900Y850977D01*
X796232D01*
X797898Y849311D01*
Y845978D01*
X796232Y844312D01*
X768979Y834315D02*
X778975D01*
Y839314D01*
X777309Y840980D01*
X770645D01*
X768979Y839314D01*
Y834315D01*
X778975Y849311D02*
X768979D01*
X773977Y844312D01*
Y850977D01*
X749675Y834315D02*
X759671D01*
Y839314D01*
X758005Y840980D01*
X751341D01*
X749675Y839314D01*
Y834315D01*
X751341Y844312D02*
X749675Y845978D01*
Y849311D01*
X751341Y850977D01*
X753007D01*
X754673Y849311D01*
Y847644D01*
Y849311D01*
X756339Y850977D01*
X758005D01*
X759671Y849311D01*
Y845978D01*
X758005Y844312D01*
X730498Y834315D02*
X740494D01*
Y839314D01*
X738828Y840980D01*
X732164D01*
X730498Y839314D01*
Y834315D01*
X740494Y850977D02*
Y844312D01*
X733830Y850977D01*
X732164D01*
X730498Y849311D01*
Y845978D01*
X732164Y844312D01*
X711956Y834315D02*
X721952D01*
Y839314D01*
X720286Y840980D01*
X713622D01*
X711956Y839314D01*
Y834315D01*
X721952Y844312D02*
Y847644D01*
Y845978D01*
X711956D01*
X713622Y844312D01*
X718869Y706024D02*
X717203Y707690D01*
X713871D01*
X712205Y706024D01*
Y699360D01*
X713871Y697694D01*
X717203D01*
X718869Y699360D01*
X722202Y697694D02*
X725534D01*
X723868D01*
Y707690D01*
X722202Y706024D01*
X737197Y707690D02*
X730532D01*
Y702692D01*
X733865Y704358D01*
X735531D01*
X737197Y702692D01*
Y699360D01*
X735531Y697694D01*
X732199D01*
X730532Y699360D01*
X687501Y932719D02*
X685834Y934385D01*
X682502D01*
X680836Y932719D01*
Y926055D01*
X682502Y924389D01*
X685834D01*
X687501Y926055D01*
X690833Y924389D02*
X694165D01*
X692499D01*
Y934385D01*
X690833Y932719D01*
X704162Y924389D02*
Y934385D01*
X699163Y929387D01*
X705828D01*
X556777Y701814D02*
X555111Y700147D01*
Y696815D01*
X556777Y695149D01*
X563441D01*
X565107Y696815D01*
Y700147D01*
X563441Y701814D01*
X565107Y705146D02*
Y708478D01*
Y706812D01*
X555111D01*
X556777Y705146D01*
Y713476D02*
X555111Y715143D01*
Y718475D01*
X556777Y720141D01*
X558443D01*
X560109Y718475D01*
Y716809D01*
Y718475D01*
X561775Y720141D01*
X563441D01*
X565107Y718475D01*
Y715143D01*
X563441Y713476D01*
X639875Y692308D02*
X638209Y693974D01*
X634877D01*
X633211Y692308D01*
Y685644D01*
X634877Y683978D01*
X638209D01*
X639875Y685644D01*
X643208Y683978D02*
X646540D01*
X644874D01*
Y693974D01*
X643208Y692308D01*
X658203Y683978D02*
X651538D01*
X658203Y690642D01*
Y692308D01*
X656537Y693974D01*
X653205D01*
X651538Y692308D01*
X646058Y835687D02*
X644392Y834020D01*
Y830688D01*
X646058Y829022D01*
X652722D01*
X654388Y830688D01*
Y834020D01*
X652722Y835687D01*
X654388Y839019D02*
Y842351D01*
Y840685D01*
X644392D01*
X646058Y839019D01*
X654388Y847350D02*
Y850682D01*
Y849016D01*
X644392D01*
X646058Y847350D01*
X632088Y835687D02*
X630421Y834021D01*
Y830688D01*
X632088Y829022D01*
X638752D01*
X640418Y830688D01*
Y834021D01*
X638752Y835687D01*
X640418Y839019D02*
Y842351D01*
Y840685D01*
X630421D01*
X632088Y839019D01*
Y847350D02*
X630421Y849016D01*
Y852348D01*
X632088Y854014D01*
X638752D01*
X640418Y852348D01*
Y849016D01*
X638752Y847350D01*
X632088D01*
X618499Y835687D02*
X616833Y834021D01*
Y830688D01*
X618499Y829022D01*
X625163D01*
X626829Y830688D01*
Y834021D01*
X625163Y835687D01*
Y839019D02*
X626829Y840685D01*
Y844017D01*
X625163Y845683D01*
X618499D01*
X616833Y844017D01*
Y840685D01*
X618499Y839019D01*
X620165D01*
X621831Y840685D01*
Y845683D01*
X604910Y835687D02*
X603243Y834021D01*
Y830688D01*
X604910Y829022D01*
X611574D01*
X613240Y830688D01*
Y834021D01*
X611574Y835687D01*
X604910Y839019D02*
X603243Y840685D01*
Y844017D01*
X604910Y845683D01*
X606576D01*
X608242Y844017D01*
X609908Y845683D01*
X611574D01*
X613240Y844017D01*
Y840685D01*
X611574Y839019D01*
X609908D01*
X608242Y840685D01*
X606576Y839019D01*
X604910D01*
X608242Y840685D02*
Y844017D01*
X496086Y787050D02*
X494420Y788716D01*
X491087D01*
X489421Y787050D01*
Y780386D01*
X491087Y778720D01*
X494420D01*
X496086Y780386D01*
X499418Y788716D02*
X506083D01*
Y787050D01*
X499418Y780386D01*
Y778720D01*
X637818Y932719D02*
X636152Y934385D01*
X632820D01*
X631153Y932719D01*
Y926055D01*
X632820Y924389D01*
X636152D01*
X637818Y926055D01*
X647815Y934385D02*
X644482Y932719D01*
X641150Y929387D01*
Y926055D01*
X642816Y924389D01*
X646149D01*
X647815Y926055D01*
Y927721D01*
X646149Y929387D01*
X641150D01*
X687714Y858379D02*
X686048Y856713D01*
Y853381D01*
X687714Y851714D01*
X694378D01*
X696044Y853381D01*
Y856713D01*
X694378Y858379D01*
X686048Y868376D02*
Y861711D01*
X691046D01*
X689380Y865043D01*
Y866710D01*
X691046Y868376D01*
X694378D01*
X696044Y866710D01*
Y863377D01*
X694378Y861711D01*
X738656Y669067D02*
X736990Y670733D01*
X733658D01*
X731991Y669067D01*
Y662403D01*
X733658Y660737D01*
X736990D01*
X738656Y662403D01*
X746986Y660737D02*
Y670733D01*
X741988Y665735D01*
X748653D01*
X495070Y765714D02*
X493404Y767380D01*
X490071D01*
X488405Y765714D01*
Y759050D01*
X490071Y757384D01*
X493404D01*
X495070Y759050D01*
X498402Y765714D02*
X500068Y767380D01*
X503400D01*
X505067Y765714D01*
Y764048D01*
X503400Y762382D01*
X501734D01*
X503400D01*
X505067Y760716D01*
Y759050D01*
X503400Y757384D01*
X500068D01*
X498402Y759050D01*
X495197Y745521D02*
X493531Y747187D01*
X490199D01*
X488532Y745521D01*
Y738857D01*
X490199Y737191D01*
X493531D01*
X495197Y738857D01*
X505194Y737191D02*
X498529D01*
X505194Y743855D01*
Y745521D01*
X503527Y747187D01*
X500195D01*
X498529Y745521D01*
X498641Y724566D02*
X496975Y726232D01*
X493643D01*
X491977Y724566D01*
Y717902D01*
X493643Y716236D01*
X496975D01*
X498641Y717902D01*
X501973Y716236D02*
X505305D01*
X503639D01*
Y726232D01*
X501973Y724566D01*
X666729Y551607D02*
X673393D01*
X670061D01*
Y541611D01*
X676725D02*
X680058D01*
X678391D01*
Y551607D01*
X676725Y549941D01*
X802730Y905810D02*
Y897480D01*
X804397Y895814D01*
X807729D01*
X809395Y897480D01*
Y905810D01*
X819392D02*
X812727D01*
Y900812D01*
X816059Y902478D01*
X817726D01*
X819392Y900812D01*
Y897480D01*
X817726Y895814D01*
X814393D01*
X812727Y897480D01*
X496802Y953181D02*
Y943185D01*
X503467D01*
X506799D02*
X510131D01*
X508465D01*
Y953181D01*
X506799Y951515D01*
X495898Y669336D02*
Y661006D01*
X497565Y659340D01*
X500897D01*
X502563Y661006D01*
Y669336D01*
X510894Y659340D02*
Y669336D01*
X505895Y664338D01*
X512560D01*
X579464Y669336D02*
Y661006D01*
X581130Y659340D01*
X584463D01*
X586129Y661006D01*
Y669336D01*
X589461Y667670D02*
X591127Y669336D01*
X594459D01*
X596126Y667670D01*
Y666004D01*
X594459Y664338D01*
X592793D01*
X594459D01*
X596126Y662672D01*
Y661006D01*
X594459Y659340D01*
X591127D01*
X589461Y661006D01*
X578448Y805607D02*
Y797277D01*
X580115Y795611D01*
X583447D01*
X585113Y797277D01*
Y805607D01*
X595110Y795611D02*
X588445D01*
X595110Y802275D01*
Y803941D01*
X593443Y805607D01*
X590111D01*
X588445Y803941D01*
X667871Y670606D02*
Y662276D01*
X669538Y660610D01*
X672870D01*
X674536Y662276D01*
Y670606D01*
X677868Y660610D02*
X681200D01*
X679534D01*
Y670606D01*
X677868Y668940D01*
X50000Y1000000D02*
G03*
X0Y950000I0J-50000D01*
G01*
X450000D02*
G03*
X400000Y1000000I-50000J0D01*
G01*
X0Y550000D02*
G03*
X50000Y500000I50000J0D01*
G01*
X500000Y1000000D02*
G03*
X450000Y950000I0J-50000D01*
G01*
X900000D02*
G03*
X850000Y1000000I-50000J0D01*
G01*
Y500000D02*
G03*
X900000Y550000I0J50000D01*
G01*
Y450000D02*
G03*
X850000Y500000I-50000J0D01*
G01*
Y0D02*
G03*
X900000Y50000I0J50000D01*
G01*
X450000D02*
G03*
X500000Y0I50000J0D01*
G01*
X50000Y500000D02*
G03*
X0Y450000I0J-50000D01*
G01*
X400000Y0D02*
G03*
X450000Y50000I0J50000D01*
G01*
X0D02*
G03*
X50000Y0I50000J0D01*
G01*
X900000Y50000D02*
Y450000D01*
X0Y550000D02*
Y950000D01*
X50000Y1000000D02*
X400000D01*
X900000Y550000D02*
Y950000D01*
X500000Y1000000D02*
X850000D01*
X500000Y0D02*
X850000D01*
X0Y50000D02*
Y450000D01*
X50000Y500000D02*
X400000D01*
X50000Y0D02*
X400000D01*
X0Y50000D02*
G03*
X50000Y0I50000J0D01*
G01*
X400000D02*
G03*
X450000Y50000I0J50000D01*
G01*
Y450000D02*
G03*
X400000Y500000I-50000J0D01*
G01*
X50000D02*
G03*
X0Y450000I0J-50000D01*
G01*
X50000Y0D02*
X400000D01*
X50000Y500000D02*
X400000D01*
X450000Y50000D02*
Y450000D01*
X0Y50000D02*
Y450000D01*
X450000Y50000D02*
G03*
X500000Y0I50000J0D01*
G01*
X850000D02*
G03*
X900000Y50000I0J50000D01*
G01*
Y450000D02*
G03*
X850000Y500000I-50000J0D01*
G01*
X500000D02*
G03*
X450000Y450000I0J-50000D01*
G01*
X500000Y0D02*
X850000D01*
X500000Y500000D02*
X850000D01*
X900000Y50000D02*
Y450000D01*
X450000Y50000D02*
Y450000D01*
X0Y550000D02*
G03*
X50000Y500000I50000J0D01*
G01*
X400000D02*
G03*
X450000Y550000I0J50000D01*
G01*
Y950000D02*
G03*
X400000Y1000000I-50000J0D01*
G01*
X50000D02*
G03*
X0Y950000I0J-50000D01*
G01*
X50000Y500000D02*
X400000D01*
X50000Y1000000D02*
X400000D01*
X450000Y550000D02*
Y950000D01*
X0Y550000D02*
Y950000D01*
X450000Y550000D02*
G03*
X500000Y500000I50000J0D01*
G01*
X850000D02*
G03*
X900000Y550000I0J50000D01*
G01*
Y950000D02*
G03*
X850000Y1000000I-50000J0D01*
G01*
X500000D02*
G03*
X450000Y950000I0J-50000D01*
G01*
X500000Y500000D02*
X850000D01*
X500000Y1000000D02*
X850000D01*
X900000Y550000D02*
Y950000D01*
X450000Y550000D02*
Y950000D01*
D39*
X900000Y50000D02*
D03*
D47*
X330010Y370730D02*
G03*
X330010Y370730I-1250J0D01*
G01*
X780010D02*
G03*
X780010Y370730I-1250J0D01*
G01*
X330010Y870730D02*
G03*
X330010Y870730I-1250J0D01*
G01*
X780010D02*
G03*
X780010Y870730I-1250J0D01*
G01*
D48*
X185420Y163957D02*
X193040D01*
X185420Y165227D02*
X193040D01*
X185420Y163957D02*
Y165227D01*
Y167513D02*
Y168783D01*
Y167513D02*
X193040D01*
X185420Y168783D02*
X193040Y168783D01*
Y163957D02*
Y165227D01*
Y167513D02*
Y168783D01*
X269240Y163957D02*
X276860D01*
X269240Y165227D02*
X276860D01*
X269240Y163957D02*
Y165227D01*
Y167513D02*
Y168783D01*
Y167513D02*
X276860D01*
X269240Y168783D02*
X276860Y168783D01*
Y163957D02*
Y165227D01*
Y167513D02*
Y168783D01*
X104140Y163957D02*
X111760D01*
X104140Y165227D02*
X111760D01*
X104140Y163957D02*
Y165227D01*
Y167513D02*
Y168783D01*
Y167513D02*
X111760D01*
X104140Y168783D02*
X111760Y168783D01*
Y163957D02*
Y165227D01*
Y167513D02*
Y168783D01*
X194056Y394495D02*
Y395765D01*
X181864Y394495D02*
Y395765D01*
X194056D01*
X181864Y394495D02*
X194056D01*
X181864Y400591D02*
X194056D01*
X181864Y399321D02*
X194056D01*
X181864D02*
Y400591D01*
X194056Y399321D02*
Y400591D01*
X201930Y316103D02*
Y317373D01*
Y312547D02*
Y313817D01*
X194310Y317373D02*
X201930Y317373D01*
X194310Y316103D02*
X201930D01*
X194310D02*
Y317373D01*
Y312547D02*
Y313817D01*
X201930D01*
X194310Y312547D02*
X201930D01*
X190500Y316103D02*
Y317373D01*
Y312547D02*
Y313817D01*
X182880Y317373D02*
X190500Y317373D01*
X182880Y316103D02*
X190500D01*
X182880D02*
Y317373D01*
Y312547D02*
Y313817D01*
X190500D01*
X182880Y312547D02*
X190500D01*
X179070Y316103D02*
Y317373D01*
Y312547D02*
Y313817D01*
X171450Y317373D02*
X179070Y317373D01*
X171450Y316103D02*
X179070D01*
X171450D02*
Y317373D01*
Y312547D02*
Y313817D01*
X179070D01*
X171450Y312547D02*
X179070D01*
X167640Y316103D02*
Y317373D01*
Y312547D02*
Y313817D01*
X160020Y317373D02*
X167640Y317373D01*
X160020Y316103D02*
X167640D01*
X160020D02*
Y317373D01*
Y312547D02*
Y313817D01*
X167640D01*
X160020Y312547D02*
X167640D01*
X270510Y228727D02*
Y229997D01*
Y232283D02*
Y233553D01*
Y228727D02*
X278130Y228727D01*
X270510Y229997D02*
X278130D01*
Y228727D02*
Y229997D01*
Y232283D02*
Y233553D01*
X270510Y232283D02*
X278130D01*
X270510Y233553D02*
X278130D01*
X635420Y163957D02*
X643040D01*
X635420Y165227D02*
X643040D01*
X635420Y163957D02*
Y165227D01*
Y167513D02*
Y168783D01*
Y167513D02*
X643040D01*
X635420Y168783D02*
X643040Y168783D01*
Y163957D02*
Y165227D01*
Y167513D02*
Y168783D01*
X719240Y163957D02*
X726860D01*
X719240Y165227D02*
X726860D01*
X719240Y163957D02*
Y165227D01*
Y167513D02*
Y168783D01*
Y167513D02*
X726860D01*
X719240Y168783D02*
X726860Y168783D01*
Y163957D02*
Y165227D01*
Y167513D02*
Y168783D01*
X554140Y163957D02*
X561760D01*
X554140Y165227D02*
X561760D01*
X554140Y163957D02*
Y165227D01*
Y167513D02*
Y168783D01*
Y167513D02*
X561760D01*
X554140Y168783D02*
X561760Y168783D01*
Y163957D02*
Y165227D01*
Y167513D02*
Y168783D01*
X644056Y394495D02*
Y395765D01*
X631864Y394495D02*
Y395765D01*
X644056D01*
X631864Y394495D02*
X644056D01*
X631864Y400591D02*
X644056D01*
X631864Y399321D02*
X644056D01*
X631864D02*
Y400591D01*
X644056Y399321D02*
Y400591D01*
X651930Y316103D02*
Y317373D01*
Y312547D02*
Y313817D01*
X644310Y317373D02*
X651930Y317373D01*
X644310Y316103D02*
X651930D01*
X644310D02*
Y317373D01*
Y312547D02*
Y313817D01*
X651930D01*
X644310Y312547D02*
X651930D01*
X640500Y316103D02*
Y317373D01*
Y312547D02*
Y313817D01*
X632880Y317373D02*
X640500Y317373D01*
X632880Y316103D02*
X640500D01*
X632880D02*
Y317373D01*
Y312547D02*
Y313817D01*
X640500D01*
X632880Y312547D02*
X640500D01*
X629070Y316103D02*
Y317373D01*
Y312547D02*
Y313817D01*
X621450Y317373D02*
X629070Y317373D01*
X621450Y316103D02*
X629070D01*
X621450D02*
Y317373D01*
Y312547D02*
Y313817D01*
X629070D01*
X621450Y312547D02*
X629070D01*
X617640Y316103D02*
Y317373D01*
Y312547D02*
Y313817D01*
X610020Y317373D02*
X617640Y317373D01*
X610020Y316103D02*
X617640D01*
X610020D02*
Y317373D01*
Y312547D02*
Y313817D01*
X617640D01*
X610020Y312547D02*
X617640D01*
X720510Y228727D02*
Y229997D01*
Y232283D02*
Y233553D01*
Y228727D02*
X728130Y228727D01*
X720510Y229997D02*
X728130D01*
Y228727D02*
Y229997D01*
Y232283D02*
Y233553D01*
X720510Y232283D02*
X728130D01*
X720510Y233553D02*
X728130D01*
X185420Y663957D02*
X193040D01*
X185420Y665227D02*
X193040D01*
X185420Y663957D02*
Y665227D01*
Y667513D02*
Y668783D01*
Y667513D02*
X193040D01*
X185420Y668783D02*
X193040Y668783D01*
Y663957D02*
Y665227D01*
Y667513D02*
Y668783D01*
X269240Y663957D02*
X276860D01*
X269240Y665227D02*
X276860D01*
X269240Y663957D02*
Y665227D01*
Y667513D02*
Y668783D01*
Y667513D02*
X276860D01*
X269240Y668783D02*
X276860Y668783D01*
Y663957D02*
Y665227D01*
Y667513D02*
Y668783D01*
X104140Y663957D02*
X111760D01*
X104140Y665227D02*
X111760D01*
X104140Y663957D02*
Y665227D01*
Y667513D02*
Y668783D01*
Y667513D02*
X111760D01*
X104140Y668783D02*
X111760Y668783D01*
Y663957D02*
Y665227D01*
Y667513D02*
Y668783D01*
X194056Y894495D02*
Y895765D01*
X181864Y894495D02*
Y895765D01*
X194056D01*
X181864Y894495D02*
X194056D01*
X181864Y900591D02*
X194056D01*
X181864Y899321D02*
X194056D01*
X181864D02*
Y900591D01*
X194056Y899321D02*
Y900591D01*
X201930Y816103D02*
Y817373D01*
Y812547D02*
Y813817D01*
X194310Y817373D02*
X201930Y817373D01*
X194310Y816103D02*
X201930D01*
X194310D02*
Y817373D01*
Y812547D02*
Y813817D01*
X201930D01*
X194310Y812547D02*
X201930D01*
X190500Y816103D02*
Y817373D01*
Y812547D02*
Y813817D01*
X182880Y817373D02*
X190500Y817373D01*
X182880Y816103D02*
X190500D01*
X182880D02*
Y817373D01*
Y812547D02*
Y813817D01*
X190500D01*
X182880Y812547D02*
X190500D01*
X179070Y816103D02*
Y817373D01*
Y812547D02*
Y813817D01*
X171450Y817373D02*
X179070Y817373D01*
X171450Y816103D02*
X179070D01*
X171450D02*
Y817373D01*
Y812547D02*
Y813817D01*
X179070D01*
X171450Y812547D02*
X179070D01*
X167640Y816103D02*
Y817373D01*
Y812547D02*
Y813817D01*
X160020Y817373D02*
X167640Y817373D01*
X160020Y816103D02*
X167640D01*
X160020D02*
Y817373D01*
Y812547D02*
Y813817D01*
X167640D01*
X160020Y812547D02*
X167640D01*
X270510Y728727D02*
Y729997D01*
Y732283D02*
Y733553D01*
Y728727D02*
X278130Y728727D01*
X270510Y729997D02*
X278130D01*
Y728727D02*
Y729997D01*
Y732283D02*
Y733553D01*
X270510Y732283D02*
X278130D01*
X270510Y733553D02*
X278130D01*
X635420Y663957D02*
X643040D01*
X635420Y665227D02*
X643040D01*
X635420Y663957D02*
Y665227D01*
Y667513D02*
Y668783D01*
Y667513D02*
X643040D01*
X635420Y668783D02*
X643040Y668783D01*
Y663957D02*
Y665227D01*
Y667513D02*
Y668783D01*
X719240Y663957D02*
X726860D01*
X719240Y665227D02*
X726860D01*
X719240Y663957D02*
Y665227D01*
Y667513D02*
Y668783D01*
Y667513D02*
X726860D01*
X719240Y668783D02*
X726860Y668783D01*
Y663957D02*
Y665227D01*
Y667513D02*
Y668783D01*
X554140Y663957D02*
X561760D01*
X554140Y665227D02*
X561760D01*
X554140Y663957D02*
Y665227D01*
Y667513D02*
Y668783D01*
Y667513D02*
X561760D01*
X554140Y668783D02*
X561760Y668783D01*
Y663957D02*
Y665227D01*
Y667513D02*
Y668783D01*
X644056Y894495D02*
Y895765D01*
X631864Y894495D02*
Y895765D01*
X644056D01*
X631864Y894495D02*
X644056D01*
X631864Y900591D02*
X644056D01*
X631864Y899321D02*
X644056D01*
X631864D02*
Y900591D01*
X644056Y899321D02*
Y900591D01*
X651930Y816103D02*
Y817373D01*
Y812547D02*
Y813817D01*
X644310Y817373D02*
X651930Y817373D01*
X644310Y816103D02*
X651930D01*
X644310D02*
Y817373D01*
Y812547D02*
Y813817D01*
X651930D01*
X644310Y812547D02*
X651930D01*
X640500Y816103D02*
Y817373D01*
Y812547D02*
Y813817D01*
X632880Y817373D02*
X640500Y817373D01*
X632880Y816103D02*
X640500D01*
X632880D02*
Y817373D01*
Y812547D02*
Y813817D01*
X640500D01*
X632880Y812547D02*
X640500D01*
X629070Y816103D02*
Y817373D01*
Y812547D02*
Y813817D01*
X621450Y817373D02*
X629070Y817373D01*
X621450Y816103D02*
X629070D01*
X621450D02*
Y817373D01*
Y812547D02*
Y813817D01*
X629070D01*
X621450Y812547D02*
X629070D01*
X617640Y816103D02*
Y817373D01*
Y812547D02*
Y813817D01*
X610020Y817373D02*
X617640Y817373D01*
X610020Y816103D02*
X617640D01*
X610020D02*
Y817373D01*
Y812547D02*
Y813817D01*
X617640D01*
X610020Y812547D02*
X617640D01*
X720510Y728727D02*
Y729997D01*
Y732283D02*
Y733553D01*
Y728727D02*
X728130Y728727D01*
X720510Y729997D02*
X728130D01*
Y728727D02*
Y729997D01*
Y732283D02*
Y733553D01*
X720510Y732283D02*
X728130D01*
X720510Y733553D02*
X728130D01*
D49*
X345600Y213186D02*
Y249186D01*
Y213186D02*
X365600D01*
Y249186D01*
X345600D02*
X365600D01*
X324010Y213186D02*
Y249186D01*
Y213186D02*
X344010D01*
Y249186D01*
X324010D02*
X344010D01*
X322190Y215186D02*
Y246186D01*
X305190Y215186D02*
X322190D01*
X305190D02*
Y246186D01*
X307690Y249186D01*
X319690D01*
X322190Y246186D01*
X305890Y246886D02*
X321490D01*
X306790Y247986D02*
X320390D01*
X250030Y296960D02*
Y310460D01*
X230030Y332960D02*
X250030D01*
X230030Y296960D02*
Y310460D01*
Y296960D02*
X250030D01*
X230030Y319460D02*
Y332960D01*
X250030Y319460D02*
Y332960D01*
X275200Y297580D02*
Y328580D01*
X258200Y297580D02*
X275200D01*
X258200D02*
Y328580D01*
X260700Y331580D01*
X272700D01*
X275200Y328580D01*
X258900Y329280D02*
X274500D01*
X259800Y330380D02*
X273400D01*
X277250Y300580D02*
Y331580D01*
X294250D01*
Y300580D02*
Y331580D01*
X291750Y297580D02*
X294250Y300580D01*
X279750Y297580D02*
X291750D01*
X277250Y300580D02*
X279750Y297580D01*
X277950Y299880D02*
X293550D01*
X279050Y298780D02*
X292650D01*
X313300Y297580D02*
Y328580D01*
X296300Y297580D02*
X313300D01*
X296300D02*
Y328580D01*
X298800Y331580D01*
X310800D01*
X313300Y328580D01*
X297000Y329280D02*
X312600D01*
X297900Y330380D02*
X311500D01*
X315350Y300580D02*
Y331580D01*
X332350D01*
Y300580D02*
Y331580D01*
X329850Y297580D02*
X332350Y300580D01*
X317850Y297580D02*
X329850D01*
X315350Y300580D02*
X317850Y297580D01*
X316050Y299880D02*
X331650D01*
X317150Y298780D02*
X330750D01*
X351400Y297580D02*
Y328580D01*
X334400Y297580D02*
X351400D01*
X334400D02*
Y328580D01*
X336900Y331580D01*
X348900D01*
X351400Y328580D01*
X335100Y329280D02*
X350700D01*
X336000Y330380D02*
X349600D01*
X58200Y277020D02*
X71700D01*
X94200D02*
Y297020D01*
X58200D02*
X71700D01*
X58200Y277020D02*
Y297020D01*
X80700D02*
X94200D01*
X80700Y277020D02*
X94200D01*
X219550Y379510D02*
Y415510D01*
X199550D02*
X219550D01*
X199550Y379510D02*
Y415510D01*
Y379510D02*
X219550D01*
X80540Y212250D02*
X94040D01*
X80540Y232250D02*
X94040D01*
X58040Y212250D02*
Y232250D01*
X71540D01*
X94040Y212250D02*
Y232250D01*
X58040Y212250D02*
X71540D01*
X80540Y232570D02*
X94040D01*
X80540Y252570D02*
X94040D01*
X58040Y232570D02*
Y252570D01*
X71540D01*
X94040Y232570D02*
Y252570D01*
X58040Y232570D02*
X71540D01*
X80540Y252890D02*
X94040D01*
X80540Y272890D02*
X94040D01*
X58040Y252890D02*
Y272890D01*
X71540D01*
X94040Y252890D02*
Y272890D01*
X58040Y252890D02*
X71540D01*
X283370Y249186D02*
X303370D01*
Y213186D02*
Y249186D01*
X283370Y213186D02*
X303370D01*
X283370D02*
Y249186D01*
X367190D02*
X387190D01*
Y213186D02*
Y249186D01*
X367190Y213186D02*
X387190D01*
X367190D02*
Y249186D01*
X253840Y402010D02*
Y415510D01*
X233840Y402010D02*
Y415510D01*
Y379510D02*
X253840D01*
X233840D02*
Y393010D01*
Y415510D02*
X253840D01*
Y379510D02*
Y393010D01*
X795600Y213186D02*
Y249186D01*
Y213186D02*
X815600D01*
Y249186D01*
X795600D02*
X815600D01*
X774010Y213186D02*
Y249186D01*
Y213186D02*
X794010D01*
Y249186D01*
X774010D02*
X794010D01*
X772190Y215186D02*
Y246186D01*
X755190Y215186D02*
X772190D01*
X755190D02*
Y246186D01*
X757690Y249186D01*
X769690D01*
X772190Y246186D01*
X755890Y246886D02*
X771490D01*
X756790Y247986D02*
X770390D01*
X700030Y296960D02*
Y310460D01*
X680030Y332960D02*
X700030D01*
X680030Y296960D02*
Y310460D01*
Y296960D02*
X700030D01*
X680030Y319460D02*
Y332960D01*
X700030Y319460D02*
Y332960D01*
X725200Y297580D02*
Y328580D01*
X708200Y297580D02*
X725200D01*
X708200D02*
Y328580D01*
X710700Y331580D01*
X722700D01*
X725200Y328580D01*
X708900Y329280D02*
X724500D01*
X709800Y330380D02*
X723400D01*
X727250Y300580D02*
Y331580D01*
X744250D01*
Y300580D02*
Y331580D01*
X741750Y297580D02*
X744250Y300580D01*
X729750Y297580D02*
X741750D01*
X727250Y300580D02*
X729750Y297580D01*
X727950Y299880D02*
X743550D01*
X729050Y298780D02*
X742650D01*
X763300Y297580D02*
Y328580D01*
X746300Y297580D02*
X763300D01*
X746300D02*
Y328580D01*
X748800Y331580D01*
X760800D01*
X763300Y328580D01*
X747000Y329280D02*
X762600D01*
X747900Y330380D02*
X761500D01*
X765350Y300580D02*
Y331580D01*
X782350D01*
Y300580D02*
Y331580D01*
X779850Y297580D02*
X782350Y300580D01*
X767850Y297580D02*
X779850D01*
X765350Y300580D02*
X767850Y297580D01*
X766050Y299880D02*
X781650D01*
X767150Y298780D02*
X780750D01*
X801400Y297580D02*
Y328580D01*
X784400Y297580D02*
X801400D01*
X784400D02*
Y328580D01*
X786900Y331580D01*
X798900D01*
X801400Y328580D01*
X785100Y329280D02*
X800700D01*
X786000Y330380D02*
X799600D01*
X508200Y277020D02*
X521700D01*
X544200D02*
Y297020D01*
X508200D02*
X521700D01*
X508200Y277020D02*
Y297020D01*
X530700D02*
X544200D01*
X530700Y277020D02*
X544200D01*
X669550Y379510D02*
Y415510D01*
X649550D02*
X669550D01*
X649550Y379510D02*
Y415510D01*
Y379510D02*
X669550D01*
X530540Y212250D02*
X544040D01*
X530540Y232250D02*
X544040D01*
X508040Y212250D02*
Y232250D01*
X521540D01*
X544040Y212250D02*
Y232250D01*
X508040Y212250D02*
X521540D01*
X530540Y232570D02*
X544040D01*
X530540Y252570D02*
X544040D01*
X508040Y232570D02*
Y252570D01*
X521540D01*
X544040Y232570D02*
Y252570D01*
X508040Y232570D02*
X521540D01*
X530540Y252890D02*
X544040D01*
X530540Y272890D02*
X544040D01*
X508040Y252890D02*
Y272890D01*
X521540D01*
X544040Y252890D02*
Y272890D01*
X508040Y252890D02*
X521540D01*
X733370Y249186D02*
X753370D01*
Y213186D02*
Y249186D01*
X733370Y213186D02*
X753370D01*
X733370D02*
Y249186D01*
X817190D02*
X837190D01*
Y213186D02*
Y249186D01*
X817190Y213186D02*
X837190D01*
X817190D02*
Y249186D01*
X703840Y402010D02*
Y415510D01*
X683840Y402010D02*
Y415510D01*
Y379510D02*
X703840D01*
X683840D02*
Y393010D01*
Y415510D02*
X703840D01*
Y379510D02*
Y393010D01*
X345600Y713186D02*
Y749186D01*
Y713186D02*
X365600D01*
Y749186D01*
X345600D02*
X365600D01*
X324010Y713186D02*
Y749186D01*
Y713186D02*
X344010D01*
Y749186D01*
X324010D02*
X344010D01*
X322190Y715186D02*
Y746186D01*
X305190Y715186D02*
X322190D01*
X305190D02*
Y746186D01*
X307690Y749186D01*
X319690D01*
X322190Y746186D01*
X305890Y746886D02*
X321490D01*
X306790Y747986D02*
X320390D01*
X250030Y796960D02*
Y810460D01*
X230030Y832960D02*
X250030D01*
X230030Y796960D02*
Y810460D01*
Y796960D02*
X250030D01*
X230030Y819460D02*
Y832960D01*
X250030Y819460D02*
Y832960D01*
X275200Y797580D02*
Y828580D01*
X258200Y797580D02*
X275200D01*
X258200D02*
Y828580D01*
X260700Y831580D01*
X272700D01*
X275200Y828580D01*
X258900Y829280D02*
X274500D01*
X259800Y830380D02*
X273400D01*
X277250Y800580D02*
Y831580D01*
X294250D01*
Y800580D02*
Y831580D01*
X291750Y797580D02*
X294250Y800580D01*
X279750Y797580D02*
X291750D01*
X277250Y800580D02*
X279750Y797580D01*
X277950Y799880D02*
X293550D01*
X279050Y798780D02*
X292650D01*
X313300Y797580D02*
Y828580D01*
X296300Y797580D02*
X313300D01*
X296300D02*
Y828580D01*
X298800Y831580D01*
X310800D01*
X313300Y828580D01*
X297000Y829280D02*
X312600D01*
X297900Y830380D02*
X311500D01*
X315350Y800580D02*
Y831580D01*
X332350D01*
Y800580D02*
Y831580D01*
X329850Y797580D02*
X332350Y800580D01*
X317850Y797580D02*
X329850D01*
X315350Y800580D02*
X317850Y797580D01*
X316050Y799880D02*
X331650D01*
X317150Y798780D02*
X330750D01*
X351400Y797580D02*
Y828580D01*
X334400Y797580D02*
X351400D01*
X334400D02*
Y828580D01*
X336900Y831580D01*
X348900D01*
X351400Y828580D01*
X335100Y829280D02*
X350700D01*
X336000Y830380D02*
X349600D01*
X58200Y777020D02*
X71700D01*
X94200D02*
Y797020D01*
X58200D02*
X71700D01*
X58200Y777020D02*
Y797020D01*
X80700D02*
X94200D01*
X80700Y777020D02*
X94200D01*
X219550Y879510D02*
Y915510D01*
X199550D02*
X219550D01*
X199550Y879510D02*
Y915510D01*
Y879510D02*
X219550D01*
X80540Y712250D02*
X94040D01*
X80540Y732250D02*
X94040D01*
X58040Y712250D02*
Y732250D01*
X71540D01*
X94040Y712250D02*
Y732250D01*
X58040Y712250D02*
X71540D01*
X80540Y732570D02*
X94040D01*
X80540Y752570D02*
X94040D01*
X58040Y732570D02*
Y752570D01*
X71540D01*
X94040Y732570D02*
Y752570D01*
X58040Y732570D02*
X71540D01*
X80540Y752890D02*
X94040D01*
X80540Y772890D02*
X94040D01*
X58040Y752890D02*
Y772890D01*
X71540D01*
X94040Y752890D02*
Y772890D01*
X58040Y752890D02*
X71540D01*
X283370Y749186D02*
X303370D01*
Y713186D02*
Y749186D01*
X283370Y713186D02*
X303370D01*
X283370D02*
Y749186D01*
X367190D02*
X387190D01*
Y713186D02*
Y749186D01*
X367190Y713186D02*
X387190D01*
X367190D02*
Y749186D01*
X253840Y902010D02*
Y915510D01*
X233840Y902010D02*
Y915510D01*
Y879510D02*
X253840D01*
X233840D02*
Y893010D01*
Y915510D02*
X253840D01*
Y879510D02*
Y893010D01*
X795600Y713186D02*
Y749186D01*
Y713186D02*
X815600D01*
Y749186D01*
X795600D02*
X815600D01*
X774010Y713186D02*
Y749186D01*
Y713186D02*
X794010D01*
Y749186D01*
X774010D02*
X794010D01*
X772190Y715186D02*
Y746186D01*
X755190Y715186D02*
X772190D01*
X755190D02*
Y746186D01*
X757690Y749186D01*
X769690D01*
X772190Y746186D01*
X755890Y746886D02*
X771490D01*
X756790Y747986D02*
X770390D01*
X700030Y796960D02*
Y810460D01*
X680030Y832960D02*
X700030D01*
X680030Y796960D02*
Y810460D01*
Y796960D02*
X700030D01*
X680030Y819460D02*
Y832960D01*
X700030Y819460D02*
Y832960D01*
X725200Y797580D02*
Y828580D01*
X708200Y797580D02*
X725200D01*
X708200D02*
Y828580D01*
X710700Y831580D01*
X722700D01*
X725200Y828580D01*
X708900Y829280D02*
X724500D01*
X709800Y830380D02*
X723400D01*
X727250Y800580D02*
Y831580D01*
X744250D01*
Y800580D02*
Y831580D01*
X741750Y797580D02*
X744250Y800580D01*
X729750Y797580D02*
X741750D01*
X727250Y800580D02*
X729750Y797580D01*
X727950Y799880D02*
X743550D01*
X729050Y798780D02*
X742650D01*
X763300Y797580D02*
Y828580D01*
X746300Y797580D02*
X763300D01*
X746300D02*
Y828580D01*
X748800Y831580D01*
X760800D01*
X763300Y828580D01*
X747000Y829280D02*
X762600D01*
X747900Y830380D02*
X761500D01*
X765350Y800580D02*
Y831580D01*
X782350D01*
Y800580D02*
Y831580D01*
X779850Y797580D02*
X782350Y800580D01*
X767850Y797580D02*
X779850D01*
X765350Y800580D02*
X767850Y797580D01*
X766050Y799880D02*
X781650D01*
X767150Y798780D02*
X780750D01*
X801400Y797580D02*
Y828580D01*
X784400Y797580D02*
X801400D01*
X784400D02*
Y828580D01*
X786900Y831580D01*
X798900D01*
X801400Y828580D01*
X785100Y829280D02*
X800700D01*
X786000Y830380D02*
X799600D01*
X508200Y777020D02*
X521700D01*
X544200D02*
Y797020D01*
X508200D02*
X521700D01*
X508200Y777020D02*
Y797020D01*
X530700D02*
X544200D01*
X530700Y777020D02*
X544200D01*
X669550Y879510D02*
Y915510D01*
X649550D02*
X669550D01*
X649550Y879510D02*
Y915510D01*
Y879510D02*
X669550D01*
X530540Y712250D02*
X544040D01*
X530540Y732250D02*
X544040D01*
X508040Y712250D02*
Y732250D01*
X521540D01*
X544040Y712250D02*
Y732250D01*
X508040Y712250D02*
X521540D01*
X530540Y732570D02*
X544040D01*
X530540Y752570D02*
X544040D01*
X508040Y732570D02*
Y752570D01*
X521540D01*
X544040Y732570D02*
Y752570D01*
X508040Y732570D02*
X521540D01*
X530540Y752890D02*
X544040D01*
X530540Y772890D02*
X544040D01*
X508040Y752890D02*
Y772890D01*
X521540D01*
X544040Y752890D02*
Y772890D01*
X508040Y752890D02*
X521540D01*
X733370Y749186D02*
X753370D01*
Y713186D02*
Y749186D01*
X733370Y713186D02*
X753370D01*
X733370D02*
Y749186D01*
X817190D02*
X837190D01*
Y713186D02*
Y749186D01*
X817190Y713186D02*
X837190D01*
X817190D02*
Y749186D01*
X703840Y902010D02*
Y915510D01*
X683840Y902010D02*
Y915510D01*
Y879510D02*
X703840D01*
X683840D02*
Y893010D01*
Y915510D02*
X703840D01*
Y879510D02*
Y893010D01*
D50*
X316230Y151130D02*
X317246Y150114D01*
X360934D01*
X315976Y179070D02*
X316992Y180086D01*
X361188D01*
X362204Y179070D01*
X360930Y150114D02*
X361950Y151130D01*
X236728Y171704D02*
X263652D01*
Y161036D02*
Y171704D01*
X236728Y161036D02*
Y171704D01*
Y161036D02*
X263652D01*
X151638Y171704D02*
X178562D01*
Y161036D02*
Y171704D01*
X151638Y161036D02*
Y171704D01*
Y161036D02*
X178562D01*
X70358Y171704D02*
X97282D01*
Y161036D02*
Y171704D01*
X70358Y161036D02*
Y171704D01*
Y161036D02*
X97282D01*
X766230Y151130D02*
X767246Y150114D01*
X810934D01*
X765976Y179070D02*
X766992Y180086D01*
X811188D01*
X812204Y179070D01*
X810930Y150114D02*
X811950Y151130D01*
X686728Y171704D02*
X713652D01*
Y161036D02*
Y171704D01*
X686728Y161036D02*
Y171704D01*
Y161036D02*
X713652D01*
X601638Y171704D02*
X628562D01*
Y161036D02*
Y171704D01*
X601638Y161036D02*
Y171704D01*
Y161036D02*
X628562D01*
X520358Y171704D02*
X547282D01*
Y161036D02*
Y171704D01*
X520358Y161036D02*
Y171704D01*
Y161036D02*
X547282D01*
X316230Y651130D02*
X317246Y650114D01*
X360934D01*
X315976Y679070D02*
X316992Y680086D01*
X361188D01*
X362204Y679070D01*
X360930Y650114D02*
X361950Y651130D01*
X236728Y671704D02*
X263652D01*
Y661036D02*
Y671704D01*
X236728Y661036D02*
Y671704D01*
Y661036D02*
X263652D01*
X151638Y671704D02*
X178562D01*
Y661036D02*
Y671704D01*
X151638Y661036D02*
Y671704D01*
Y661036D02*
X178562D01*
X70358Y671704D02*
X97282D01*
Y661036D02*
Y671704D01*
X70358Y661036D02*
Y671704D01*
Y661036D02*
X97282D01*
X766230Y651130D02*
X767246Y650114D01*
X810934D01*
X765976Y679070D02*
X766992Y680086D01*
X811188D01*
X812204Y679070D01*
X810930Y650114D02*
X811950Y651130D01*
X686728Y671704D02*
X713652D01*
Y661036D02*
Y671704D01*
X686728Y661036D02*
Y671704D01*
Y661036D02*
X713652D01*
X601638Y671704D02*
X628562D01*
Y661036D02*
Y671704D01*
X601638Y661036D02*
Y671704D01*
Y661036D02*
X628562D01*
X520358Y671704D02*
X547282D01*
Y661036D02*
Y671704D01*
X520358Y661036D02*
Y671704D01*
Y661036D02*
X547282D01*
D51*
X223560Y5680D02*
X355560D01*
X673560D02*
X805560D01*
X223560Y505680D02*
X355560D01*
X673560D02*
X805560D01*
D52*
X41910Y416183D02*
Y435737D01*
X153670D01*
Y416183D02*
Y435737D01*
Y333629D02*
Y353183D01*
X41910Y333629D02*
X153670D01*
X41910D02*
Y353183D01*
X211610Y280300D02*
Y284000D01*
X151610Y280300D02*
Y284000D01*
X211610Y224000D02*
Y227700D01*
X151610Y224000D02*
Y227700D01*
X207910Y284000D02*
X211610D01*
X151610D02*
X155310D01*
X207910Y224000D02*
X211610D01*
X151610D02*
X155310D01*
X491910Y416183D02*
Y435737D01*
X603670D01*
Y416183D02*
Y435737D01*
Y333629D02*
Y353183D01*
X491910Y333629D02*
X603670D01*
X491910D02*
Y353183D01*
X661610Y280300D02*
Y284000D01*
X601610Y280300D02*
Y284000D01*
X661610Y224000D02*
Y227700D01*
X601610Y224000D02*
Y227700D01*
X657910Y284000D02*
X661610D01*
X601610D02*
X605310D01*
X657910Y224000D02*
X661610D01*
X601610D02*
X605310D01*
X41910Y916183D02*
Y935737D01*
X153670D01*
Y916183D02*
Y935737D01*
Y833629D02*
Y853183D01*
X41910Y833629D02*
X153670D01*
X41910D02*
Y853183D01*
X211610Y780300D02*
Y784000D01*
X151610Y780300D02*
Y784000D01*
X211610Y724000D02*
Y727700D01*
X151610Y724000D02*
Y727700D01*
X207910Y784000D02*
X211610D01*
X151610D02*
X155310D01*
X207910Y724000D02*
X211610D01*
X151610D02*
X155310D01*
X491910Y916183D02*
Y935737D01*
X603670D01*
Y916183D02*
Y935737D01*
Y833629D02*
Y853183D01*
X491910Y833629D02*
X603670D01*
X491910D02*
Y853183D01*
X661610Y780300D02*
Y784000D01*
X601610Y780300D02*
Y784000D01*
X661610Y724000D02*
Y727700D01*
X601610Y724000D02*
Y727700D01*
X657910Y784000D02*
X661610D01*
X601610D02*
X605310D01*
X657910Y724000D02*
X661610D01*
X601610D02*
X605310D01*
D53*
X247396Y213360D02*
Y236220D01*
Y213360D02*
X265684D01*
Y236220D01*
Y248920D01*
X247396Y248920D02*
X265684Y248920D01*
X247396Y236220D02*
X247396Y248920D01*
X144710Y41355D02*
Y59135D01*
X144780Y5750D02*
Y21035D01*
X58350Y41355D02*
Y59135D01*
X58280Y5750D02*
Y21035D01*
Y5750D02*
X144780D01*
X697396Y213360D02*
Y236220D01*
Y213360D02*
X715684D01*
Y236220D01*
Y248920D01*
X697396Y248920D02*
X715684Y248920D01*
X697396Y236220D02*
X697396Y248920D01*
X594710Y41355D02*
Y59135D01*
X594780Y5750D02*
Y21035D01*
X508350Y41355D02*
Y59135D01*
X508280Y5750D02*
Y21035D01*
Y5750D02*
X594780D01*
X247396Y713360D02*
Y736220D01*
Y713360D02*
X265684D01*
Y736220D01*
Y748920D01*
X247396Y748920D02*
X265684Y748920D01*
X247396Y736220D02*
X247396Y748920D01*
X144710Y541355D02*
Y559135D01*
X144780Y505750D02*
Y521035D01*
X58350Y541355D02*
Y559135D01*
X58280Y505750D02*
Y521035D01*
Y505750D02*
X144780D01*
X697396Y713360D02*
Y736220D01*
Y713360D02*
X715684D01*
Y736220D01*
Y748920D01*
X697396Y748920D02*
X715684Y748920D01*
X697396Y736220D02*
X697396Y748920D01*
X594710Y541355D02*
Y559135D01*
X594780Y505750D02*
Y521035D01*
X508350Y541355D02*
Y559135D01*
X508280Y505750D02*
Y521035D01*
Y505750D02*
X594780D01*
D54*
X160766Y9625D02*
Y6293D01*
X162432Y4627D01*
X164098Y6293D01*
Y9625D01*
X165764D02*
Y4627D01*
X168263D01*
X169097Y5460D01*
Y6293D01*
X168263Y7126D01*
X165764D01*
X168263D01*
X169097Y7959D01*
Y8792D01*
X168263Y9625D01*
X165764D01*
X170763D02*
Y5460D01*
X171596Y4627D01*
X173262D01*
X174095Y5460D01*
Y9625D01*
X179093Y8792D02*
X178260Y9625D01*
X176594D01*
X175761Y8792D01*
Y7959D01*
X176594Y7126D01*
X178260D01*
X179093Y6293D01*
Y5460D01*
X178260Y4627D01*
X176594D01*
X175761Y5460D01*
X180760Y3794D02*
X184092D01*
X185758Y4627D02*
Y7959D01*
X187424Y9625D01*
X189090Y7959D01*
Y4627D01*
Y7126D01*
X185758D01*
X190756Y4627D02*
X192422D01*
X191589D01*
Y9625D01*
X190756Y8792D01*
X173115Y17230D02*
X172282Y18063D01*
X170616D01*
X169783Y17230D01*
Y13898D01*
X170616Y13065D01*
X172282D01*
X173115Y13898D01*
Y15564D01*
X171449D01*
X174781Y13065D02*
Y18063D01*
X178114Y13065D01*
Y18063D01*
X179780D02*
Y13065D01*
X182279D01*
X183112Y13898D01*
Y17230D01*
X182279Y18063D01*
X179780D01*
X162290Y25500D02*
Y22168D01*
X163956Y20502D01*
X165622Y22168D01*
Y25500D01*
X167288D02*
Y20502D01*
X169788D01*
X170621Y21335D01*
Y22168D01*
X169788Y23001D01*
X167288D01*
X169788D01*
X170621Y23834D01*
Y24667D01*
X169788Y25500D01*
X167288D01*
X172287D02*
Y21335D01*
X173120Y20502D01*
X174786D01*
X175619Y21335D01*
Y25500D01*
X180617Y24667D02*
X179784Y25500D01*
X178118D01*
X177285Y24667D01*
Y23834D01*
X178118Y23001D01*
X179784D01*
X180617Y22168D01*
Y21335D01*
X179784Y20502D01*
X178118D01*
X177285Y21335D01*
X182283Y19669D02*
X185616D01*
X190614Y24667D02*
X189781Y25500D01*
X188115D01*
X187282Y24667D01*
Y21335D01*
X188115Y20502D01*
X189781D01*
X190614Y21335D01*
X160258Y34263D02*
Y30931D01*
X161924Y29265D01*
X163590Y30931D01*
Y34263D01*
X165256D02*
Y29265D01*
X167756D01*
X168589Y30098D01*
Y30931D01*
X167756Y31764D01*
X165256D01*
X167756D01*
X168589Y32597D01*
Y33430D01*
X167756Y34263D01*
X165256D01*
X170255D02*
Y30098D01*
X171088Y29265D01*
X172754D01*
X173587Y30098D01*
Y34263D01*
X178585Y33430D02*
X177752Y34263D01*
X176086D01*
X175253Y33430D01*
Y32597D01*
X176086Y31764D01*
X177752D01*
X178585Y30931D01*
Y30098D01*
X177752Y29265D01*
X176086D01*
X175253Y30098D01*
X180252Y28432D02*
X183584D01*
X185250Y29265D02*
Y32597D01*
X186916Y34263D01*
X188582Y32597D01*
Y29265D01*
Y31764D01*
X185250D01*
X193580Y29265D02*
X190248D01*
X193580Y32597D01*
Y33430D01*
X192747Y34263D01*
X191081D01*
X190248Y33430D01*
X610766Y9625D02*
Y6293D01*
X612432Y4627D01*
X614098Y6293D01*
Y9625D01*
X615764D02*
Y4627D01*
X618264D01*
X619097Y5460D01*
Y6293D01*
X618264Y7126D01*
X615764D01*
X618264D01*
X619097Y7959D01*
Y8792D01*
X618264Y9625D01*
X615764D01*
X620763D02*
Y5460D01*
X621596Y4627D01*
X623262D01*
X624095Y5460D01*
Y9625D01*
X629093Y8792D02*
X628260Y9625D01*
X626594D01*
X625761Y8792D01*
Y7959D01*
X626594Y7126D01*
X628260D01*
X629093Y6293D01*
Y5460D01*
X628260Y4627D01*
X626594D01*
X625761Y5460D01*
X630759Y3794D02*
X634092D01*
X635758Y4627D02*
Y7959D01*
X637424Y9625D01*
X639090Y7959D01*
Y4627D01*
Y7126D01*
X635758D01*
X640756Y4627D02*
X642422D01*
X641589D01*
Y9625D01*
X640756Y8792D01*
X623115Y17230D02*
X622282Y18063D01*
X620616D01*
X619783Y17230D01*
Y13898D01*
X620616Y13065D01*
X622282D01*
X623115Y13898D01*
Y15564D01*
X621449D01*
X624781Y13065D02*
Y18063D01*
X628114Y13065D01*
Y18063D01*
X629780D02*
Y13065D01*
X632279D01*
X633112Y13898D01*
Y17230D01*
X632279Y18063D01*
X629780D01*
X612290Y25500D02*
Y22168D01*
X613956Y20502D01*
X615622Y22168D01*
Y25500D01*
X617288D02*
Y20502D01*
X619787D01*
X620621Y21335D01*
Y22168D01*
X619787Y23001D01*
X617288D01*
X619787D01*
X620621Y23834D01*
Y24667D01*
X619787Y25500D01*
X617288D01*
X622287D02*
Y21335D01*
X623120Y20502D01*
X624786D01*
X625619Y21335D01*
Y25500D01*
X630617Y24667D02*
X629784Y25500D01*
X628118D01*
X627285Y24667D01*
Y23834D01*
X628118Y23001D01*
X629784D01*
X630617Y22168D01*
Y21335D01*
X629784Y20502D01*
X628118D01*
X627285Y21335D01*
X632283Y19669D02*
X635616D01*
X640614Y24667D02*
X639781Y25500D01*
X638115D01*
X637282Y24667D01*
Y21335D01*
X638115Y20502D01*
X639781D01*
X640614Y21335D01*
X610258Y34263D02*
Y30931D01*
X611924Y29265D01*
X613590Y30931D01*
Y34263D01*
X615256D02*
Y29265D01*
X617756D01*
X618589Y30098D01*
Y30931D01*
X617756Y31764D01*
X615256D01*
X617756D01*
X618589Y32597D01*
Y33430D01*
X617756Y34263D01*
X615256D01*
X620255D02*
Y30098D01*
X621088Y29265D01*
X622754D01*
X623587Y30098D01*
Y34263D01*
X628585Y33430D02*
X627752Y34263D01*
X626086D01*
X625253Y33430D01*
Y32597D01*
X626086Y31764D01*
X627752D01*
X628585Y30931D01*
Y30098D01*
X627752Y29265D01*
X626086D01*
X625253Y30098D01*
X630251Y28432D02*
X633584D01*
X635250Y29265D02*
Y32597D01*
X636916Y34263D01*
X638582Y32597D01*
Y29265D01*
Y31764D01*
X635250D01*
X643580Y29265D02*
X640248D01*
X643580Y32597D01*
Y33430D01*
X642747Y34263D01*
X641081D01*
X640248Y33430D01*
X160766Y509625D02*
Y506293D01*
X162432Y504627D01*
X164098Y506293D01*
Y509625D01*
X165764D02*
Y504627D01*
X168263D01*
X169097Y505460D01*
Y506293D01*
X168263Y507126D01*
X165764D01*
X168263D01*
X169097Y507959D01*
Y508792D01*
X168263Y509625D01*
X165764D01*
X170763D02*
Y505460D01*
X171596Y504627D01*
X173262D01*
X174095Y505460D01*
Y509625D01*
X179093Y508792D02*
X178260Y509625D01*
X176594D01*
X175761Y508792D01*
Y507959D01*
X176594Y507126D01*
X178260D01*
X179093Y506293D01*
Y505460D01*
X178260Y504627D01*
X176594D01*
X175761Y505460D01*
X180760Y503794D02*
X184092D01*
X185758Y504627D02*
Y507959D01*
X187424Y509625D01*
X189090Y507959D01*
Y504627D01*
Y507126D01*
X185758D01*
X190756Y504627D02*
X192422D01*
X191589D01*
Y509625D01*
X190756Y508792D01*
X173115Y517230D02*
X172282Y518063D01*
X170616D01*
X169783Y517230D01*
Y513898D01*
X170616Y513065D01*
X172282D01*
X173115Y513898D01*
Y515564D01*
X171449D01*
X174781Y513065D02*
Y518063D01*
X178114Y513065D01*
Y518063D01*
X179780D02*
Y513065D01*
X182279D01*
X183112Y513898D01*
Y517230D01*
X182279Y518063D01*
X179780D01*
X162290Y525500D02*
Y522168D01*
X163956Y520502D01*
X165622Y522168D01*
Y525500D01*
X167288D02*
Y520502D01*
X169788D01*
X170621Y521335D01*
Y522168D01*
X169788Y523001D01*
X167288D01*
X169788D01*
X170621Y523834D01*
Y524667D01*
X169788Y525500D01*
X167288D01*
X172287D02*
Y521335D01*
X173120Y520502D01*
X174786D01*
X175619Y521335D01*
Y525500D01*
X180617Y524667D02*
X179784Y525500D01*
X178118D01*
X177285Y524667D01*
Y523834D01*
X178118Y523001D01*
X179784D01*
X180617Y522168D01*
Y521335D01*
X179784Y520502D01*
X178118D01*
X177285Y521335D01*
X182283Y519669D02*
X185616D01*
X190614Y524667D02*
X189781Y525500D01*
X188115D01*
X187282Y524667D01*
Y521335D01*
X188115Y520502D01*
X189781D01*
X190614Y521335D01*
X160258Y534263D02*
Y530931D01*
X161924Y529265D01*
X163590Y530931D01*
Y534263D01*
X165256D02*
Y529265D01*
X167756D01*
X168589Y530098D01*
Y530931D01*
X167756Y531764D01*
X165256D01*
X167756D01*
X168589Y532597D01*
Y533430D01*
X167756Y534263D01*
X165256D01*
X170255D02*
Y530098D01*
X171088Y529265D01*
X172754D01*
X173587Y530098D01*
Y534263D01*
X178585Y533430D02*
X177752Y534263D01*
X176086D01*
X175253Y533430D01*
Y532597D01*
X176086Y531764D01*
X177752D01*
X178585Y530931D01*
Y530098D01*
X177752Y529265D01*
X176086D01*
X175253Y530098D01*
X180252Y528432D02*
X183584D01*
X185250Y529265D02*
Y532597D01*
X186916Y534263D01*
X188582Y532597D01*
Y529265D01*
Y531764D01*
X185250D01*
X193580Y529265D02*
X190248D01*
X193580Y532597D01*
Y533430D01*
X192747Y534263D01*
X191081D01*
X190248Y533430D01*
X610766Y509625D02*
Y506293D01*
X612432Y504627D01*
X614098Y506293D01*
Y509625D01*
X615764D02*
Y504627D01*
X618264D01*
X619097Y505460D01*
Y506293D01*
X618264Y507126D01*
X615764D01*
X618264D01*
X619097Y507959D01*
Y508792D01*
X618264Y509625D01*
X615764D01*
X620763D02*
Y505460D01*
X621596Y504627D01*
X623262D01*
X624095Y505460D01*
Y509625D01*
X629093Y508792D02*
X628260Y509625D01*
X626594D01*
X625761Y508792D01*
Y507959D01*
X626594Y507126D01*
X628260D01*
X629093Y506293D01*
Y505460D01*
X628260Y504627D01*
X626594D01*
X625761Y505460D01*
X630759Y503794D02*
X634092D01*
X635758Y504627D02*
Y507959D01*
X637424Y509625D01*
X639090Y507959D01*
Y504627D01*
Y507126D01*
X635758D01*
X640756Y504627D02*
X642422D01*
X641589D01*
Y509625D01*
X640756Y508792D01*
X623115Y517230D02*
X622282Y518063D01*
X620616D01*
X619783Y517230D01*
Y513898D01*
X620616Y513065D01*
X622282D01*
X623115Y513898D01*
Y515564D01*
X621449D01*
X624781Y513065D02*
Y518063D01*
X628114Y513065D01*
Y518063D01*
X629780D02*
Y513065D01*
X632279D01*
X633112Y513898D01*
Y517230D01*
X632279Y518063D01*
X629780D01*
X612290Y525500D02*
Y522168D01*
X613956Y520502D01*
X615622Y522168D01*
Y525500D01*
X617288D02*
Y520502D01*
X619787D01*
X620621Y521335D01*
Y522168D01*
X619787Y523001D01*
X617288D01*
X619787D01*
X620621Y523834D01*
Y524667D01*
X619787Y525500D01*
X617288D01*
X622287D02*
Y521335D01*
X623120Y520502D01*
X624786D01*
X625619Y521335D01*
Y525500D01*
X630617Y524667D02*
X629784Y525500D01*
X628118D01*
X627285Y524667D01*
Y523834D01*
X628118Y523001D01*
X629784D01*
X630617Y522168D01*
Y521335D01*
X629784Y520502D01*
X628118D01*
X627285Y521335D01*
X632283Y519669D02*
X635616D01*
X640614Y524667D02*
X639781Y525500D01*
X638115D01*
X637282Y524667D01*
Y521335D01*
X638115Y520502D01*
X639781D01*
X640614Y521335D01*
X610258Y534263D02*
Y530931D01*
X611924Y529265D01*
X613590Y530931D01*
Y534263D01*
X615256D02*
Y529265D01*
X617756D01*
X618589Y530098D01*
Y530931D01*
X617756Y531764D01*
X615256D01*
X617756D01*
X618589Y532597D01*
Y533430D01*
X617756Y534263D01*
X615256D01*
X620255D02*
Y530098D01*
X621088Y529265D01*
X622754D01*
X623587Y530098D01*
Y534263D01*
X628585Y533430D02*
X627752Y534263D01*
X626086D01*
X625253Y533430D01*
Y532597D01*
X626086Y531764D01*
X627752D01*
X628585Y530931D01*
Y530098D01*
X627752Y529265D01*
X626086D01*
X625253Y530098D01*
X630251Y528432D02*
X633584D01*
X635250Y529265D02*
Y532597D01*
X636916Y534263D01*
X638582Y532597D01*
Y529265D01*
Y531764D01*
X635250D01*
X643580Y529265D02*
X640248D01*
X643580Y532597D01*
Y533430D01*
X642747Y534263D01*
X641081D01*
X640248Y533430D01*
M02*
